<?xml version="1.0" standalone="no"?>
<!DOCTYPE svg PUBLIC "-//W3C//DTD SVG 1.1//EN" "http://www.w3.org/Graphics/SVG/1.1/DTD/svg11.dtd" >
<svg xmlns="http://www.w3.org/2000/svg">
<metadata>
This is a custom SVG webfont generated by Font Squirrel.
Copyright   : Copyright c 2010 Sebastian Kosch sebastianaldusleaforgwith Reserved Font Name CrimsonThis Font Software is licensed under the SIL Open Font License Version 11This license is available with a FAQ at httpscriptssilorgOFL
</metadata>
<defs>
<font id="webfont1ChBecxb" horiz-adv-x="0" >
<font-face units-per-em="2048" ascent="1434" descent="-614" />
<missing-glyph horiz-adv-x="454" />
<glyph unicode=" "  horiz-adv-x="454" />
<glyph unicode="&#x09;" horiz-adv-x="454" />
<glyph unicode="&#xa0;" horiz-adv-x="454" />
<glyph unicode="!" horiz-adv-x="372" d="M139 72q0 55 39 94t94 39q37 0 61.5 -29t24.5 -63q0 -59 -36.5 -100.5t-94.5 -41.5q-37 0 -61 31q-27 33 -27 70zM260 332q0 18 16 143q16 139 43 342q20 168 48 336q6 37 39 72q33 37 77 37q33 0 47 -25q16 -27 17 -61q0 -20 -35 -148l-90 -334l-94 -354 q-3 -18 -24.5 -30.5t-31.5 -12.5q-12 0 -12 35z" />
<glyph unicode="&#x22;" horiz-adv-x="593" d="M90 895q8 72 8 149q0 49 -4 135.5t-4 92.5q6 39 45 80q41 45 88 45q45 0 58 -23q12 -20 0 -108q-14 -70 -58 -189q-47 -129 -61 -180q-2 -10 -17 -20q-10 -8 -24.5 -8.5t-22.5 6t-8 20.5zM389 895q8 72 8 149q0 49 -4 135.5t-4 92.5q6 37 47 80q41 45 88 45q45 0 58 -23 q10 -18 -2 -108q-14 -70 -58 -189q-39 -106 -59 -180q-2 -8 -19 -20q-10 -8 -24 -9q-10 0 -20.5 6.5t-10.5 20.5z" />
<glyph unicode="#" horiz-adv-x="837" d="M-4 362q0 31 16 64q18 37 33 37h156l57 172h-152q-14 0 -14 10q0 31 17 64q18 37 32 36h156l100 304q6 16 68 16q43 0 43 -12q-2 -2 -2 -4l-105 -304h174l103 304q6 16 65 16q45 0 45 -12q-2 -2 -2 -4l-104 -304h152q14 0 14 -10q0 -31 -17 -63q-18 -37 -32 -37h-156 l-57 -172h151q14 0 15 -12q0 -31 -17 -64q-18 -37 -33 -37h-153l-103 -303q-6 -14 -65 -14q-45 0 -45 10q2 2 2 4l104 303h-174l-102 -303q-6 -14 -66 -14q-45 0 -45 10q2 2 2 4l105 303h-152q-14 0 -14 12zM305 463h174l60 172h-174z" />
<glyph unicode="$" horiz-adv-x="858" d="M104 31q-18 129 7 301q4 16 34 16q29 0 39 -16q16 -270 242 -271q90 0 168 60q74 57 96 162q4 29 4 43q0 8 -1 19t-1 17q0 18 -8 35q-4 8 -12 29q-4 8 -21 25q-6 6 -11 12t-7 8q-8 8 -26.5 20.5t-22.5 16.5l-25 14q-14 8 -22 17q-98 61 -131 88q-51 41 -96.5 86 t-61.5 106q-14 57 0 127q27 145 153.5 243.5t266.5 98.5q49 0 96 -8q27 -4 102 -23q41 -10 62 -16q-14 -193 -31 -272q-4 -16 -16 -17q-45 4 -45 23q4 72 -45 149q-49 80 -150 80q-203 0 -240 -194q-18 -92 25 -150q41 -57 145 -129q166 -119 183 -133q129 -117 102 -258 q-31 -152 -164 -254t-286 -102q-66 0 -302 47zM250 -86l506 1452q16 0 27.5 -1t19.5 -2t11 -4t3 -7l-506 -1456q-64 0 -61 18z" />
<glyph unicode="%" horiz-adv-x="1234" d="M-29 -2l1192 1307q20 20 45 20q45 0 54 -25l-1192 -1300q-25 -25 -68 -25q-25 0 -31 23zM117 938q0 154 106.5 281t255.5 127q111 0 168 -76q59 -78 60 -189q0 -145 -109 -276q-106 -129 -250 -129q-109 0 -170 78q-61 76 -61 184zM242 956q0 -86 32 -157q31 -68 99 -68 q86 0 145 111q57 109 57 239q0 86 -26 148q-27 63 -88 63q-92 0 -155.5 -106.5t-63.5 -229.5zM541 246q0 154 106.5 280.5t255.5 126.5q111 0 168 -75q59 -78 59 -189q0 -145 -108 -276q-109 -129 -250 -129q-109 0 -170 77t-61 185zM666 264q0 -86 32 -158q31 -66 99 -65 q88 0 145 108.5t57 239.5q0 86 -26 148q-27 63 -88 63q-92 0 -155.5 -106.5t-63.5 -229.5z" />
<glyph unicode="&#x26;" horiz-adv-x="1286" d="M156 391q0 121 80 230q78 104 172 141q-76 84 -76 196q0 132 117 222q119 90 247 90q92 0 160 -49q70 -51 70 -136q0 -57 -43 -108q-43 -53 -76 -53q-18 0 -19 14l3 7l8 22q10 31 10 61q0 66 -47 109q-46 43 -111 43q-90 0 -155 -70q-63 -66 -64 -162q0 -98 66 -157 q45 14 77 14q55 0 105 -23q45 -20 45 -61q0 -39 -39 -59q-41 -23 -90 -23q-76 0 -125 43q-143 -123 -143 -274q0 -147 100 -248q102 -102 248 -103q164 0 293 123t129 293q0 78 -47 137.5t-119 59.5q-55 0 -98 -31q-41 -29 -41 -80q0 -29 20.5 -43t46.5 -18q23 -2 47 -21 q23 -16 23 -43q0 -35 -18.5 -59.5t-47.5 -34.5q-49 0 -100 49q-53 49 -53 127q0 109 86 182.5t200 73.5q45 0 76 -2t78 -2q71 0 123 31q51 31 51 90q0 31 -16 49q-18 23 -47 23q-23 0 -53.5 -18.5t-53 -18.5t-41.5 20q-16 18 -16 45q0 45 53 86q113 0 180 -49 q70 -51 70 -137q0 -88 -62 -144q-59 -53 -163 -53q-4 0 -10.5 1t-18.5 2t-23 1q111 -98 111 -247q0 -199 -178 -338q-180 -139 -406 -140q-193 0 -346 119q-149 117 -149 301z" />
<glyph unicode="'" horiz-adv-x="292" d="M90 895q8 72 8 149q0 49 -4 135.5t-4 92.5q6 39 45 80q41 45 88 45q45 0 58 -23q12 -20 0 -108q-14 -70 -58 -189q-47 -129 -61 -180q-2 -10 -17 -20q-10 -8 -24.5 -8.5t-22.5 6t-8 20.5z" />
<glyph unicode="(" horiz-adv-x="583" d="M43 348q0 207 66 428q61 209 155 371q88 152 182 252q90 96 150 96q18 0 18 -39q0 -10 -4 -14q-78 -35 -184 -203q-98 -154 -184 -418q-82 -252 -82 -493q0 -195 45 -342q47 -152 90 -176q2 0 2 -7q0 -8 -14 -28q-10 -16 -23 -17q-70 0 -143.5 174t-73.5 416z" />
<glyph unicode=")" horiz-adv-x="550" d="M-35 -207q0 14 6 17q31 16 80 71.5t115 163.5q59 100 121 238q59 135 96 311q37 178 37 360q0 186 -37 321.5t-92 166.5q-2 2 -2 4q0 12 10 30.5t23 18.5q80 0 147 -168q70 -174 70 -414q0 -184 -47 -376q-45 -186 -117 -322q-63 -121 -150 -242q-76 -104 -141 -161 q-61 -53 -100 -54q-19 0 -19 35z" />
<glyph unicode="*" horiz-adv-x="684" d="M18 911q0 16 7 35q4 12 36 35q29 18 78 18q33 0 86 -6q70 -8 72 -8q49 0 49 35q0 20 -51 98t-51 127q0 39 20 60q23 23 47.5 22.5t36.5 -12.5q14 -14 21 -41q4 -16 8 -53q2 -16 2 -62q0 -131 22 -131q16 0 45 37q51 68 60 82q27 43 67 82q40 37 74 37q47 0 47 -47 q0 -39 -43 -76q-53 -45 -90 -62q-39 -16 -92 -51q-41 -27 -41 -49q0 -18 39 -31q31 -10 86 -20q45 -8 84 -33t39 -59q0 -27 -22.5 -49.5t-51.5 -22.5q-35 0 -76 41q-37 37 -73 84q-33 41 -53.5 41t-26.5 -35q-6 -37 -13 -104q-6 -72 -20 -111q-12 -41 -34.5 -63.5 t-47.5 -22.5q-20 0 -33 14q-12 16 -12 41q0 47 63 150q66 106 66 127q0 18 -18 18q-12 0 -110.5 -41t-135.5 -41q-60 0 -60 47z" />
<glyph unicode="+" horiz-adv-x="913" d="M-6 463q0 35 45 92h354q8 0 8 8q6 25 33 182q31 176 35 195q2 16 47 27q47 10 64 10q12 0 18 -6q4 -4 2 -13q-55 -328 -70 -393q-4 -10 7 -10h360q8 0 8 -16q0 -51 -41 -95h-358q-8 0 -8 -8l-70 -377q-3 -15 -37 -24q-37 -10 -63 -10q-15 0 -25 6q-8 6 -4 12 q41 236 72 391q0 10 -9 10h-358q-10 1 -10 19z" />
<glyph unicode="," horiz-adv-x="417" d="M-10 -287q0 6 47 47q39 33 94 107q49 63 49 123q0 33 -12 82q-14 57 -14 59q0 49 51 88t106 39q20 0 45 -8q6 -16 6 -45q0 -35 -22 -135q-47 -201 -268 -365l-45 -31q-6 0 -23 13q-14 12 -14 26z" />
<glyph unicode="-" horiz-adv-x="589" d="M39 428q0 27 12 55q14 37 29 39l455 25q12 0 12 -25q0 -18 -17 -61q-14 -37 -30 -41l-453 -23q-8 0 -8 31z" />
<glyph unicode="." horiz-adv-x="337" d="M121 66q0 55 41 96q43 43 92 43q35 0 61 -27q25 -25 25 -63q0 -53 -41 -98.5t-90 -45.5q-39 0 -63.5 29t-24.5 66z" />
<glyph unicode="/" horiz-adv-x="925" d="M-31 -55l850 1534q25 43 88 43q25 0 49 -13l-847 -1534q-23 -41 -103 -41q-27 1 -37 11z" />
<glyph unicode="0" horiz-adv-x="819" d="M115 315q-16 150 14 324q33 172 109 319q74 145 186 236q109 88 235 88q96 0 162 -51q70 -55 101 -141q33 -96 39 -205q6 -113 -23 -246q-35 -176 -109 -322q-72 -141 -186 -233q-113 -90 -233 -90q-123 0 -201 90q-80 92 -94 231zM278.5 238q34.5 -168 137.5 -168 q119 0 217 166q96 162 145 413q49 236 15 398q-35 160 -138 159q-115 0 -215 -162q-96 -156 -147 -405q-49 -233 -14.5 -401z" />
<glyph unicode="1" horiz-adv-x="819" d="M207 26.5q6 24.5 12 24.5q16 0 78 15q53 12 59 26q12 29 33 115l139 719q10 49 15 88q2 27 -2 37q-4 8 -13 8q-10 0 -34 -12q-12 -6 -54 -31l-29.5 -16.5t-13.5 -8.5q-8 6 -18 22.5t-6 28.5q0 6 6 13q358 229 366 229h5q16 0 16 -39q-35 -72 -57 -186l-152 -789 q-23 -131 -20 -178q0 -14 49 -26q57 -14 67 -15q6 0 0 -35q-2 -16 -6 -22q-205 10 -221 10q-8 0 -219 -10q-6 8 0 32.5z" />
<glyph unicode="2" horiz-adv-x="819" d="M63 66q246 221 436.5 454.5t221.5 397.5q20 104 -19 167q-37 59 -120 60q-158 0 -281 -166q-9 0 -18 12q-10 14 -9 19q14 27 43 65q31 41 84 90q55 53 127 84q80 35 156 35q82 0 137 -51q52 -49 68 -123q14 -74 0 -152q-12 -61 -47 -135q-37 -78 -74 -131 q-51 -74 -102 -133l-109 -119q-61 -66 -115 -114l-100 -93l-20.5 -17l-27 -22.5l-40.5 -35.5q-14 -14 0 -15h342q16 0 41 4q16 2 32.5 12.5t24.5 16.5q12 8 23 27q12 20 16 26l5 12q5 11 11.5 23l10.5 19.5t6 10.5t2 5q12 20 31 20q29 0 30 -8l-49 -125q-16 -41 -55 -153 q-12 -33 -45 -33h-610q-13 31 -7 66z" />
<glyph unicode="3" horiz-adv-x="819" d="M84 76q-2 16 2 33q9 43 31 67q23 27 55 27q18 0 33 -15l31 -41q18 -25 28 -34q47 -43 133 -43q39 0 74 14q37 16 76 45q39 31 71 92q35 68 50 139q20 119 -33 201q-53 80 -148 80q-80 0 -125 -12q-12 23 -4 51q4 16 9 20q137 25 223 97q90 76 115 194q12 72 -25 121 q-41 53 -102 53q-45 0 -80 -14t-58 -31q-2 -2 -41 -35q-16 -16 -21 -19l-1 -1q-9 0 -12 18q-2 18 0 33q63 78 136.5 123t174.5 45q78 0 137 -71.5t39 -184.5q-18 -86 -72 -149q-47 -55 -135 -121q37 -14 76 -43q31 -23 67 -70q35 -45 48 -102q12 -66 2 -131 q-37 -188 -184.5 -305t-329.5 -117q-164 0 -232 59q-6 4 -8 27z" />
<glyph unicode="4" horiz-adv-x="819" d="M100 348q-9 15 0 62l729 856q22 25 50 24q25 0 18 -20l-158 -805h135q18 0 13 -14q-12 -70 -33 -103h-135l-70 -350q-10 -10 -80 -10q-31 0 -51 4q-14 2 -14 12l67 344h-471zM246 481q-2 -16 10 -16h338l104 530q4 4 0 13q-3 6 -6 6l-4 -4l-440 -523q-2 -2 -2 -6z" />
<glyph unicode="5" horiz-adv-x="819" d="M84 76q-2 16 2 33q8 39 33 67q23 27 55 27q16 0 31 -15q8 -8 33 -41q18 -25 28 -34q45 -43 140 -43q78 0 155.5 71.5t104.5 218.5q12 45 6 96.5t-25 94.5q-16 39 -69 67q-51 27 -127 27q-98 0 -166 -20q-20 16 -29 26l205 594q375 12 440 29q8 -18 2 -41q-9 -55 -31 -111 q-55 -16 -215 -22l-163 -8q-10 0 -17 -17q-4 -10 -17.5 -49l-41 -114.5l-56.5 -155.5q70 27 181 26q150 0 235 -110q86 -109 58 -260q-37 -186 -179 -303q-143 -119 -325 -119q-170 0 -238 59q-8 9 -10 27z" />
<glyph unicode="6" horiz-adv-x="819" d="M117 324q0 82 22 178q23 94 78 196.5t145 204.5q82 92 228 195q150 102 317 176q14 0 15 -49q-195 -84 -334 -205t-223 -320q-88 -203 -89 -397q0 -102 39 -168q41 -70 123 -69q90 0 176 106.5t86 261.5q0 98 -47 162q-47 61 -143 61q-10 0 -35 -4q-20 -4 -29 -6 q-4 0 -12 -5t-14 -7l-19 -6q-12 10 -12 26q0 33 70 62q66 27 110 26q127 0 209 -84t82 -206q0 -117 -65 -222q-70 -109 -172 -176q-104 -68 -213 -67q-135 0 -215 86q-78 84 -78 250z" />
<glyph unicode="7" horiz-adv-x="819" d="M172 43l700 1063h-448q-29 0 -62 -29q-27 -23 -47 -55q-14 -23 -39 -74q-4 -10 -28 -10q-27 0 -35 4q2 6 9 23.5l19.5 48t24.5 63.5q29 70 62 164q8 25 34 25h537q12 0 78 4l49 2q10 0 8 -19q-6 -16 -10 -24q-12 -20 -18 -29q-18 -31 -25 -41l-27 -39l-708 -1126 q-6 -6 -21 -6q-18 0 -37 20q-18 23 -16 35z" />
<glyph unicode="8" horiz-adv-x="819" d="M119 307q12 58 43 111q27 47 82 94q35 31 82 63q16 12 80 52q8 4 12 7t6 3q10 8 2 10q-61 43 -107 131q-41 80 -22 183q25 127 137 227q111 98 236 98q129 0 200.5 -84t44.5 -221q-27 -147 -266 -293q-12 -2 -2 -12q88 -63 141 -152q57 -96 37 -190q-27 -147 -155 -250 q-127 -102 -269 -102q-152 0 -231 90q-80 88 -51 235zM266 313q-23 -119 27 -188q49 -72 127 -72q90 0 157.5 61.5t86.5 161.5q8 45 -7 95q-16 53 -34 82q-23 37 -58 67l-21.5 20.5t-17.5 17.5t-10 9q-4 4 -12 10.5t-19 12.5q-2 0 -6 3l-4 1q-6 0 -8 -2q-86 -51 -135 -119 q-48 -66 -66 -160zM438 983q-25 -135 146 -256q6 -2 10 -2q6 0 10 2q143 88 174 246q18 94 -16 168q-37 76 -117 76q-68 0 -127.5 -66t-79.5 -168z" />
<glyph unicode="9" horiz-adv-x="819" d="M135 31q199 84 336 205q143 125 225 319q80 186 80 395q0 109 -37 170q-39 68 -121 68q-88 0 -167.5 -104.5t-79.5 -262.5q0 -211 190 -211h35q10 0 22 4q6 2 15 2q4 0 12 5q2 0 5 3t5 3q12 -8 13 -29q0 -33 -66 -55q-68 -23 -110 -23q-127 0 -205 80q-78 82 -78 205 q0 174 137 317.5t301 143.5q135 0 215 -86q78 -84 78 -250q0 -89 -18 -178q-16 -78 -74 -197q-51 -106 -137 -205q-88 -100 -222 -192q-141 -98 -319 -170q-31 6 -35 43z" />
<glyph unicode=":" horiz-adv-x="358" d="M121 68q0 59 41 100q45 45 94 45q41 0 65.5 -28.5t24.5 -67.5q0 -57 -43 -101q-45 -45 -92 -45q-41 0 -65.5 29t-24.5 68zM248 733q0 57 43 100.5t94 43.5q41 0 66 -27q25 -28 24 -68q0 -57 -41 -100q-43 -45 -94 -45q-41 0 -66 27q-26 30 -26 69z" />
<glyph unicode=";" horiz-adv-x="477" d="M-31 -287q0 10 25 31l51 39q33 23 64 72q29 47 45 116q4 33 4 52q0 45 -11 67q-12 29 -12 35q0 39 49 82q47 41 105 41q45 0 45 -68q0 -20 -17 -112q-25 -125 -88 -203t-217 -195q-12 -4 -14 -4q-29 0 -29 47zM250 733q0 57 43 100.5t94 43.5q41 0 66 -27q25 -28 24 -68 q0 -57 -41 -100q-43 -45 -94 -45q-41 0 -66 27q-26 30 -26 69z" />
<glyph unicode="&#x3c;" horiz-adv-x="811" d="M-2 406q0 51 45 75l764 375q2 2 6 2q14 0 14 -70q0 -37 -10 -40l-670 -330l549 -336q4 -4 4 -10q0 -20 -20 -60q-23 -41 -31 -41q-6 0 -8 2l-623 381q-20 15 -20 52z" />
<glyph unicode="=" horiz-adv-x="1005" d="M31 246q0 14 16 55q18 45 29 45h831q12 0 13 -10q0 -8 -35 -90l-15 -13h-829q-10 1 -10 13zM88 530q0 4 16 54q16 47 27 47h832q12 0 12 -10q0 -8 -35 -91q-6 -12 -16 -12h-828q-8 0 -8 12z" />
<glyph unicode="&#x3e;" horiz-adv-x="837" d="M-18 66l10 16l682 336l-545 330q-2 2 -2 8q0 14 20 57q23 47 31 47l8 -4l615 -375q23 -14 22 -39q0 -66 -47 -88l-770 -381l-12 -4q-12 1 -12 97z" />
<glyph unicode="?" horiz-adv-x="587" d="M127 63q0 53 41 99q41 43 90 43q37 0 63.5 -26.5t26.5 -65.5q0 -55 -43 -98.5t-92 -43.5q-39 0 -61 27q-25 28 -25 65zM182 557q0 109 84 168l238 168q94 63 94 141q0 55 -29 88q-29 31 -80 31q-45 0 -81 -45q-37 -47 -74 -47q-68 0 -68 102q10 29 53 64q45 35 95 35 q119 0 205 -80t86 -178q0 -45 -11 -82q-14 -49 -18 -60q-12 -23 -43 -51q-33 -31 -58 -45l-86 -55q-84 -55 -104 -70q-66 -43 -66 -119q0 -35 27 -73q23 -35 51 -56q0 -20 -18 -31q-49 0 -123 61.5t-74 133.5z" />
<glyph unicode="@" horiz-adv-x="1445" d="M20 197q-10 94 11 174q45 236 182 420q133 178 324 272q182 90 397 90q104 0 196 -41q90 -41 146 -108q57 -70 94 -160q39 -92 41 -185q4 -104 -10 -192q-29 -145 -78 -240q-51 -100 -115 -153q-59 -51 -123 -76q-61 -25 -118 -25q-92 0 -138 70q-46 71 -30 141q0 2 -2 2 t-4 -2l-5 -4q-37 -49 -143 -123q-102 -72 -165.5 -71.5t-104.5 47.5q-37 41 -43 112q-6 61 4 138q23 106 72 196t131 172q76 76 186 123q104 45 227 45l162 -16q-35 -98 -37 -107l-129 -446q-58 -197 49 -197q65 0 123 43q55 41 92 105q41 74 60 121q23 59 31 106 q33 164 -5 309q-37 143 -143 231.5t-258 88.5q-166 0 -328 -78q-154 -74 -270 -219q-114 -141 -147 -314q-18 -102 -19 -225q0 -100 39 -190q37 -88 102 -150q70 -68 168 -98q109 -35 242 -35q59 0 133 27v-19q-6 -31 -49 -55q-45 -27 -121 -37q-109 -2 -211 23 q-96 25 -170 75q-70 47 -127 119q-53 66 -82 148q-27 80 -37 168zM479 287q-18 -92 8 -137q25 -43 68 -44q72 0 170 93q96 90 113 141l86 303q0 1 1 5q2 5 3 9l4 17l1 4q1 4 1 8q0 10 -2 12t-10 7q-133 47 -265 -66q-133 -114 -178 -352z" />
<glyph unicode="A" horiz-adv-x="1210" d="M4 10q0 37 14 37q22 0 62 12q37 12 53 31q53 61 123 189l553 991q29 53 78 53q8 0 14 -2l166 -1057l25 -143q6 -31 51 -51q49 -23 65 -23q4 0 4 -8q0 -20 -10 -45l-209 10q-47 0 -69 -2q-12 -2 -37 -3t-37 -1t-35.5 -1t-34.5 -3q-2 2 -2 12q0 41 15 41q18 0 55 12.5 t47 28.5q12 25 12 94q0 49 -35 295v6l-4 4q-4 4 -8 5q-2 0 -5 1t-7 1q-2 0 -10.5 1t-14.5 1q-4 0 -16 1t-21 1h-49h-67q-27 0 -187 -11q-4 0 -53 -79q-47 -76 -94 -175q-45 -92 -45 -122q0 -25 26 -39q33 -18 52 -21q29 -4 30 -4q4 0 4 -10q0 -18 -10 -43q-55 2 -102 5 t-67 4l-19 1q-49 0 -68 -2q-10 -2 -31.5 -3t-31.5 -1l-66 -4q-4 4 -4 16zM543 602q0 -4 2 -4q31 -2 151 -2q72 0 150 4q8 0 8 8q0 10 -12 94l-14.5 86.5t-16.5 108.5l-23 156q-245 -447 -245 -451z" />
<glyph unicode="B" horiz-adv-x="1054" d="M47 12q0 39 14 39q29 0 74 15q49 14 58 32q27 55 51 187l143 743q23 119 23 186q0 12 -45 31q-41 16 -66 17q-4 0 -4 8q0 35 12 47q123 -4 215 -4h154q20 0 57 1t51 1q47 0 111 -15q51 -10 106 -40q51 -27 82 -80q33 -55 33 -123q0 -51 -14 -94q-16 -49 -35 -76 q-25 -35 -51 -62q-29 -29 -53 -47q-14 -10 -50 -30q-29 -16 -36 -21l-13 -4q55 -8 135 -94q76 -82 76 -199q0 -168 -147 -297q-152 -133 -404 -133h-254l-221 -6q-2 2 -2 18zM385 135q0 -37 27 -45q25 -8 92 -8q135 0 194 27q80 35 140 120q59 84 59 193q0 102 -68 174 q-63 66 -211 66q-143 0 -149 -29l-76 -402q-8 -55 -8 -96zM500 772q-2 -6 8 -12q8 -4 27 -8q25 -4 36 -4q6 0 22.5 -1.5t24.5 -1.5q68 0 109 9q43 8 102 34q53 25 86 89q31 61 31 155q0 201 -207 201q-145 0 -149 -27z" />
<glyph unicode="C" horiz-adv-x="1159" d="M121 535q0 135 57.5 274t157.5 258q102 121 242 193q143 74 296 73q133 0 426 -90l-20 -126l-15 -88t-5 -34q-6 -29 -48 -28q-16 0 -22 6q0 37 -2 53q-4 27 -21 70q-18 45 -49 75.5t-96 55.5q-59 23 -158 22q-209 0 -385 -219q-178 -221 -178 -512q0 -190 104.5 -317 t294.5 -127q145 0 252 65q49 31 86 74t46 55l28 37q6 0 25 -20q16 -20 14 -29q-90 -174 -98 -182q-33 -35 -156 -60q-137 -27 -256 -26q-238 0 -379 164t-141 383z" />
<glyph unicode="D" horiz-adv-x="1335" d="M47 10q0 37 10 37q18 0 74 16q51 14 62 35q27 55 51 187l143 743q23 131 23 177q0 16 -9 23.5t-36 16.5q-45 16 -66 17q-4 0 -4 8q0 35 12 47q123 -4 215 -4q106 0 180 2t146 2q258 0 393 -146q135 -143 135 -360q0 -102 -30 -213q-31 -113 -94.5 -217.5t-155.5 -194.5 q-90 -88 -222 -139q-135 -53 -286 -53q-35 0 -142 6q-72 4 -174 4l-223 -10q-2 2 -2 16zM397 193q0 -53 4 -66q18 -41 234 -41q166 0 299 109q131 106 199 276q68 169 67 356q0 180 -88 289q-90 113 -268 113q-213 0 -240 -33q-33 -41 -53 -158l-148 -759q-6 -28 -6 -86z " />
<glyph unicode="E" horiz-adv-x="1036" d="M47 10q0 37 10 37q18 0 74 16q51 14 62 35q27 55 51 187l143 743q23 131 23 177q0 16 -9 23.5t-36 16.5q-45 16 -66 17q-4 0 -4 8q0 35 12 47q123 -4 215 -4q104 0 283 8q133 6 303 6q-2 -18 -2 -78q0 -55 2 -98t2 -94q-10 -10 -37 -10q-23 0 -22 14q-6 111 -53.5 141.5 t-145.5 30.5h-109q-141 0 -151 -27q-22 -61 -37 -135l-63 -348q0 -6 6 -10q8 -4 16 -4q6 0 12 -1t13 -1h26h90q133 0 164 18q33 18 78 123q6 14 29 14q25 0 30 -10l-73 -383q-10 -8 -29 -8q-27 0 -29 14q-4 59 -8 82q-6 29 -8 33l-12 12q-23 16 -195 16q-132 0 -135 -18 l-59 -297q-23 -113 -23 -174q0 -29 16.5 -35t106.5 -6h90q172 0 242 35q35 18 75 70q45 57 80 131q6 12 31 12q31 0 41 -12q-135 -250 -164 -332q-104 0 -327.5 6t-303.5 6l-223 -10q-2 2 -2 16z" />
<glyph unicode="F" horiz-adv-x="1005" d="M47 10q0 37 10 37q18 0 74 16q51 14 62 35q27 55 51 187l143 743q23 131 23 177q0 16 -9 23.5t-36 16.5q-45 16 -66 17q-4 0 -4 8q0 35 12 47q123 -4 215 -4q104 0 279 8q131 6 303 6q-2 -18 -2 -78q0 -55 2 -98t2 -94q-10 -10 -37 -10q-23 0 -22 14q-6 111 -53.5 141.5 t-145.5 30.5h-109q-141 0 -151 -27q-16 -47 -35 -135l-66 -348q0 -6 7 -10q8 -4 16 -4q6 0 12 -1t13 -1h26h90q133 0 164 18q35 20 80 123q6 14 27 14q25 0 30 -10l-73 -383q-10 -8 -29 -8q-27 0 -29 14q-4 59 -8 82q-6 29 -8 33l-12 12q-23 16 -195 16q-132 0 -135 -18 l-70 -344q-14 -74 -14 -158q0 -16 33 -28q45 -16 67 -19l35 -4q4 0 4 -14q0 -27 -12 -39q-209 10 -234 10l-223 -10q-2 2 -2 16z" />
<glyph unicode="G" horiz-adv-x="1230" d="M121 508q0 197 100.5 385t280.5 315q176 125 377 125q133 0 426 -90q-33 -207 -43 -260q-2 -16 -45 -16q-18 0 -23 10q0 37 -2 51q-4 29 -20.5 70t-49.5 73q-31 31 -96 56q-59 23 -158 22q-143 0 -276 -108.5t-207 -272.5q-76 -168 -76 -321q0 -195 100.5 -334 t276.5 -139q160 0 250 45q16 10 22 33l56 284l2 8q2 4 3 12.5t1 12.5q2 10 2 26.5t-55.5 35t-81.5 18.5q-4 0 -4 8q0 29 16 45q63 -2 117.5 -5t77.5 -4l22 -1q6 0 217 10q0 -53 -10 -53q-27 0 -88 -21q-55 -18 -62 -57l-47 -276l-1 -4q-1 -3 -1 -5v-6q0 -18 2 -30.5t2 -22.5 q0 -12 -2 -16q-2 -2 -14 -13q-10 -8 -31 -16l-39 -14q-12 -4 -27.5 -11.5t-17.5 -7.5t-9 -2t-16 -5l-20 -7q-31 -10 -53 -15l-59 -12q-23 -6 -70 -10q-29 -2 -78 -6q-61 -4 -92 -4q-213 0 -344 149q-133 152 -133 371z" />
<glyph unicode="H" horiz-adv-x="1253" d="M47 10q0 37 14.5 37t71.5 14q47 12 57 31q29 63 52 193l143 739q20 104 21 184q0 22 -44 37q-45 16 -67 17q-4 0 -4 10q0 31 14 45q8 0 20.5 -2t35 -3t40.5 -3q47 -4 121 -4q49 0 123 6t88 6v-6q0 -49 -12 -49t-68 -17q-51 -14 -57 -28q-29 -68 -51 -187l-51 -282v-3 q0 -8 53 -12q70 -4 248 -4q258 0 262 16l53 279q23 117 23 184q0 22 -43 37q-45 16 -70 17q-4 0 -4 10q0 29 16 45l94 -8q47 -4 121 -4q47 0 125 6t90 6v-6q0 -49 -14 -49q-12 0 -65.5 -16.5t-57.5 -28.5q-29 -59 -51 -187l-146 -751q-23 -117 -22 -181q0 -16 27 -28 q37 -16 55 -19l26 -4q4 0 5 -6q0 -23 -13 -47l-209 10q-2 0 -24.5 -1t-76.5 -4t-118 -5q-4 4 -4 16q0 37 14.5 37t71.5 14q45 12 55 31q33 70 54 193l63 329v2q0 8 -47 13q-61 4 -227 4q-287 0 -291 -25l-66 -329q-20 -104 -20 -181q0 -16 27 -28q37 -16 53 -19l26 -4 q4 0 5 -6q0 -23 -13 -47q-205 10 -207 10l-23 -1q-24 -1 -79 -4t-119 -5q-4 4 -4 16z" />
<glyph unicode="I" horiz-adv-x="524" d="M47 10q0 37 14.5 37t71.5 14q47 12 57 31q29 63 52 193l143 739q20 104 21 184q0 22 -44 37q-45 16 -67 17q-4 0 -4 10q0 31 14 45q8 0 20.5 -2t35 -3t40.5 -3q47 -4 121 -4q49 0 123 6t88 6v-6q0 -49 -12 -49t-68 -17q-51 -14 -57 -28q-27 -61 -51 -187l-144 -751 q-20 -104 -20 -181q0 -16 27 -28q37 -16 53 -19l26 -4q4 0 5 -6q0 -23 -13 -47q-205 10 -207 10l-23 -1q-24 -1 -79 -4t-119 -5q-4 4 -4 16z" />
<glyph unicode="J" horiz-adv-x="507" d="M-160 -430l2 12q164 53 248 194.5t139 440.5l152 807q20 123 20 184q0 22 -49 37q-53 16 -76 17q-4 0 -4 10q0 29 17 45l94 -8q47 -4 121 -4q49 0 122.5 6t90.5 6v-6q0 -49 -15 -49q-16 0 -61 -17q-43 -16 -49 -28q-29 -68 -51 -187l-152 -799q-27 -147 -78 -274 q-49 -123 -106 -199q-58 -77 -123 -129t-123 -73q-61 -23 -106 -23q-13 15 -13 37z" />
<glyph unicode="K" horiz-adv-x="1282" d="M47 10q0 37 14.5 37t71.5 14q47 12 57 31q29 63 52 193l143 739q20 104 21 184q0 22 -44 37q-45 16 -67 17q-4 0 -4 10q0 31 14 45q8 0 20.5 -2t35 -3t40.5 -3q47 -4 121 -4q49 0 123 6t88 6v-6q0 -49 -12 -49t-68 -17q-51 -14 -57 -28q-27 -61 -51 -187l-144 -751 q-20 -104 -20 -181q0 -16 27 -28q37 -16 53 -19l26 -4q4 0 5 -6q0 -23 -13 -47q-205 10 -207 10l-23 -1q-24 -1 -79 -4t-119 -5q-4 4 -4 16zM473 651q98 59 248 203q154 147 295 301l5 6q5 6 9 10q12 12 21 23q2 2 5 6t6 9t5 8q8 10 8 20q0 14 -35 25q-31 8 -59 8 q-6 0 -6 12q0 20 8 35q27 -4 64 -6q12 0 36.5 -1t34.5 -3q20 -2 62 -2q49 0 124.5 6t90.5 6q0 -47 -13 -47q-139 -14 -213 -88l-487 -488q-10 -10 -10 -24q0 -15 12 -31l408 -496q33 -41 108 -63q84 -25 103 -25q4 0 4 -12q0 -16 -11 -41q-100 -6 -149 -6q-68 0 -121 20 q-63 25 -78 37q-23 18 -35 35q-391 495 -440 563z" />
<glyph unicode="L" horiz-adv-x="995" d="M47 10q0 47 14 47q25 0 74 13q47 12 58 28q27 55 51 187l141 739q23 117 23 184q0 22 -43 37q-45 16 -68 17q-4 0 -4 10q0 31 14 45q8 0 20.5 -2t35 -3t40.5 -3q47 -4 121 -4q49 0 123 6t88 6v-6q0 -49 -12 -49t-68 -17q-51 -14 -57 -28q-27 -61 -51 -187l-144 -751 q-18 -100 -18 -150q0 -29 16 -35q18 -6 107 -6h90q172 0 242 35q35 18 75 70q45 57 80 131q6 12 31 12q31 0 41 -12q-135 -250 -164 -332q-104 0 -327.5 6t-303.5 6l-223 -10q-2 2 -2 16z" />
<glyph unicode="M" horiz-adv-x="1626" d="M25 14q0 33 14 33q18 0 84 16q59 14 70 33q31 55 65 178l217 783l6 23.5t6 25.5q8 45 11 53q4 29 4 49q0 25 -58 39q-55 14 -77 15q-4 0 -5 14q0 31 13 41q39 0 83 -1t67.5 -2t35.5 -1q88 0 191 4q23 -203 151 -991q0 -2 2 -2q6 0 6 4l357 719l127 270q55 -6 157 -6 q82 0 174 8q2 -4 3 -11q0 -5 -3 -24q-2 -25 -10 -24q-29 0 -55.5 -12.5t-42.5 -35t-27 -59.5q-10 -35 -18 -119l-80 -764q-10 -86 -10 -157q0 -23 6 -35q6 -10 24 -19q10 -4 27 -8q8 -2 33 -2q8 0 16 -1l8 -1q4 0 5 -16q0 -25 -13 -37q-205 10 -217 10q-2 0 -23.5 -1 t-74.5 -4t-113 -5q-2 2 -3 7l-1 3q0 4 3 15.5t3 13.5q2 14 8 14q20 0 72 10q45 8 55 27q4 8 13 29q6 14 8 24q3 12 6 31q4 25 4 29q0 2 4 34q0 6 1 11.5t2 9.5t1 7v5l80 780q6 61 6 78q0 12 -12 13q-2 0 -4 -9l-522 -1065q-6 -12 -39 -41q-27 -25 -51 -24q-4 0 -17 4 l-170 1135l-4 4q-6 0 -6 -4l-233 -863q-39 -143 -39 -166q0 -12 34 -28q37 -16 66 -23q8 -2 17.5 -4t13.5 -3t6 -1q4 0 4 -10q0 -18 -10 -43q-205 10 -209 10q-2 0 -24.5 -1t-77 -4t-117.5 -5q-4 4 -4 20z" />
<glyph unicode="N" horiz-adv-x="1325" d="M47 10q0 37 14 37q20 0 86 16q57 14 68 33q27 51 55 193l154 743q18 90 18 180q0 25 -53 37.5t-84 12.5q-4 0 -4 14q0 33 14 41q139 -8 199 -8q55 0 188 8q35 -129 146 -393q125 -295 237 -518q10 29 23 81l102 539q27 139 27 184q0 23 -55 37q-51 14 -86 15q-4 0 -4 14 q0 33 14 41q59 -2 112.5 -5t75.5 -4l23 -1q6 0 217 10q0 -55 -12 -55q-25 0 -84 -15q-66 -16 -72 -28q-25 -66 -49 -187l-152 -760q-8 -39 -26 -159q-4 -29 -9.5 -56.5l-8.5 -43t-3 -21.5q-8 -8 -20 -8q-27 0 -51 47l-50 111l-176 407l-266 612l-178 -878q-20 -94 -21 -179 q0 -15 31 -30q27 -14 66 -21l32 -6q4 0 4 -8q0 -20 -10 -45q-205 10 -207 10l-23 -1q-24 -1 -79 -4t-119 -5q-4 4 -4 16z" />
<glyph unicode="O" horiz-adv-x="1247" d="M121 518q0 213 108 400q111 188 283 303q170 113 352 112q201 0 338 -149.5t137 -366.5q0 -219 -102 -409q-106 -199 -276 -312q-175 -117 -369 -116q-213 0 -342 153.5t-129 384.5zM301 535q0 -203 90 -336t252 -133q209 0 361 227q152 229 151 498q0 203 -88 329 q-88 129 -250 129q-215 0 -364 -223q-152 -225 -152 -491z" />
<glyph unicode="P" horiz-adv-x="1009" d="M47 10q0 37 14 37q27 0 72 14q47 14 57 31q18 35 52 193l164 823q10 55 10 104q0 25 -39 37q-40 12 -68 13q-4 0 -4 14q0 33 14 41q86 -6 209 -6q80 0 131 2q102 4 132 4q115 0 227 -88t112 -221q0 -172 -141 -295t-311 -123q-90 0 -139 18q-4 20 -4 21q0 18 12 30 q37 -4 47 -4q139 0 252 101q115 102 115 276q0 209 -218 209q-98 0 -125 -8q-33 -10 -34 -31l-187 -946q-16 -80 -16 -158q0 -16 31 -28q41 -16 65 -19l33 -4q4 0 4 -14q0 -27 -12 -39q-51 2 -102.5 5t-73 4t-27.5 1q-2 0 -28.5 -1t-88 -4t-131.5 -5q-4 4 -4 16z" />
<glyph unicode="Q" horiz-adv-x="1247" d="M121 518q0 213 108 400q111 188 283 303q170 113 352 112q201 0 338 -149.5t137 -366.5q0 -207 -98 -397q-98 -193 -260 -307q-184 -135 -428 -183q61 -10 278 -102q219 -94 355 -94q76 0 162 43t131 82q45 -20 45 -49q-35 -47 -158 -115t-254 -68q-129 0 -252 41 q-80 27 -287 115q-162 70 -327 113q0 8 12 26q14 20 25 25q33 4 211 43q-170 33 -273 180q-100 143 -100 348zM301 535q0 -203 90 -336t252 -133q209 0 361 227q152 229 151 498q0 203 -88 329q-88 129 -250 129q-215 0 -364 -223q-152 -225 -152 -491z" />
<glyph unicode="R" horiz-adv-x="1185" d="M47 10q0 37 14.5 37t71.5 14q45 12 55 31q29 70 54 193l164 827q10 57 10 100q0 25 -41 37q-39 12 -66 13q-4 0 -4 14q0 33 14 41q86 -6 207 -6q80 0 127 2q94 4 123 4q49 0 117 -14q51 -10 115 -41q51 -25 92 -86q35 -53 35 -132q0 -68 -27 -122q-29 -59 -64 -101 q-37 -43 -86 -80q-51 -39 -81 -55q-51 -27 -64 -33q-16 -6 -10 -22q49 -160 98 -273q66 -150 107 -211q4 -6 20 -28q12 -16 21 -23l20 -16q12 -8 21 -10q12 -3 18 -7q8 -4 18 -4q4 0 12 -1l7 -1h18h17q8 -19 8 -33q0 -13 -6 -22q-55 -10 -117 -10q-129 0 -217 131 q-86 129 -197 471q-10 29 -88 29q-61 0 -79.5 -6.5t-24.5 -28.5l-58 -309q-23 -117 -22 -181q0 -18 27 -30q31 -14 55 -17l26 -4q4 0 5 -6q0 -23 -13 -47q-205 10 -209 10q-2 0 -24.5 -1t-76.5 -4t-118 -5q-4 4 -4 16zM492 733q0 -29 92 -28q94 0 176 34q84 37 145 119 q59 80 60 197q0 186 -220 186q-101 0 -129 -6q-25 -6 -30 -31l-94 -467v-4z" />
<glyph unicode="S" horiz-adv-x="868" d="M98 37q8 115 8 162q0 53 -2 92t-2 61q0 14 37 15q16 0 39 -17q0 -45 8 -84q8 -37 35 -90q25 -51 80 -78q57 -29 133 -28q104 0 190.5 73.5t86.5 200.5q0 57 -49 117q-49 58 -117 104l-137 97q-61 45 -115 114q-49 63 -49 139q0 182 131 299q133 117 317 117q53 0 133 -20 q94 -25 125 -27l-26 -223q-6 -63 -9 -68q-4 -10 -10 -10q-29 0 -45 12q-4 4 -4 25q0 95 -61 160q-61 66 -142 65q-114 0 -184 -67q-70 -68 -70 -174q0 -108 99 -185q18 -16 130.5 -94t133.5 -96q40 -34 80 -99q41 -66 41 -133q0 -61 -31 -131q-29 -66 -86 -133 q-55 -65 -148 -104q-94 -41 -202.5 -41t-317.5 49z" />
<glyph unicode="T" horiz-adv-x="1200" d="M231 1057l88 284q74 -20 127 -20q78 0 201 -6t203 -6q78 0 207 6t205 6q49 0 133 20l-21 -284q-16 -14 -47 -15q-16 0 -16 11q0 109 -39 141q-43 37 -133 37q-197 0 -213 -31q-29 -63 -56 -201l-141 -720q-20 -104 -20 -181q0 -16 26 -28q37 -16 53 -19l27 -4q4 0 4 -6 q0 -27 -10 -47q-205 10 -209 10l-23 -1q-24 -1 -78.5 -4t-117.5 -5q-4 4 -4 16q0 37 12 37q16 0 74 14q45 12 55 31q29 63 51 193l140 708q25 137 24 195q0 16 -4 20q-8 8 -51 15q-61 8 -141 8q-106 0 -152 -35q-43 -35 -92 -143q-4 -10 -21 -11q-27 1 -41 15z" />
<glyph unicode="U" horiz-adv-x="1261" d="M240 412q0 70 28 213l78 399q23 119 23 184q0 22 -43 37q-45 16 -70 17q-4 0 -4 10q0 29 16 45l94 -8q47 -4 121 -4q49 0 123 6t90 6v-6q0 -49 -14 -49q-12 0 -68 -17q-51 -14 -57 -28q-27 -61 -51 -187l-82 -434q-16 -94 -16 -170q0 -154 65 -242q63 -86 197 -86 q326 0 409 451l88 475q25 141 25 180q0 23 -57 41q-51 16 -93 17q-4 0 -4 12q0 35 15 43q8 0 20 -2t34.5 -3t41.5 -3q47 -4 119 -4q51 0 73 2q12 2 37 3t37 1q23 2 41.5 4t26.5 2q0 -55 -15 -55q-12 0 -77 -17q-63 -16 -72 -28q-20 -27 -55 -197l-90 -467 q-61 -317 -193 -436q-129 -117 -373 -117q-172 0 -270 106.5t-98 305.5z" />
<glyph unicode="V" horiz-adv-x="1280" d="M240 1272q0 37 14 45q145 -8 211 -8q84 0 217 8v-6q0 -6 -4 -31q-2 -18 -10 -18q-72 0 -95 -17q-25 -18 -24 -57q0 -27 6 -64l156 -837l479 821q25 43 24 96q0 25 -34 41q-37 16 -74 17q-4 0 -4 10q0 37 14 45q129 -8 187 -8q63 0 196 8v-12q-4 -43 -14 -43 q-37 0 -86 -25q-43 -23 -78 -80l-653 -1118q-39 -68 -76 -68q-9 0 -19 13l-196 1118q-12 68 -31 110q-8 18 -45 35q-31 14 -57 15q-4 0 -4 10z" />
<glyph unicode="W" horiz-adv-x="1945" d="M225 1272q0 37 15 45q10 0 88 -8q39 -4 108 -4q47 0 72 2q12 2 37.5 3t38.5 1q10 0 33.5 3t33.5 3v-6q0 -49 -12 -49q-49 0 -78 -23q-27 -20 -26 -51q0 -23 14 -74l254 -891l239 369l-145 528q-14 49 -39 92q-10 18 -45 35q-31 14 -53 15q-4 0 -4 10q0 33 16 45 q4 0 28.5 -3t65.5 -5q45 -4 117 -4t115 4l86 8v-6q0 -18 -4 -31q-6 -18 -13 -18q-45 0 -73 -23q-27 -20 -27 -51q0 -33 10 -74l90 -323l170 276q51 86 52 119q0 39 -35 57.5t-58 18.5q-4 0 -4 10q0 37 15 45q176 -12 188 -12q57 0 120.5 6t80.5 6q0 -55 -15 -55 q-31 0 -79 -25q-53 -27 -66 -41q-39 -45 -139 -201l-201 -307l135 -475l488 854q49 88 49 119q0 39 -35 57.5t-57 18.5q-4 0 -4 10q0 37 14 45q175 -12 190 -12q55 0 119 6t80 6q0 -55 -12 -55q-33 0 -82 -25q-53 -27 -66 -41q-66 -78 -139 -201l-561 -956q-37 -66 -86 -66 q-12 0 -17 11l-141 505l-291 -450q-43 -66 -84 -66q-10 0 -16 11l-285 1036q-37 129 -69 192q-8 18 -43 35q-31 14 -54 15q-4 0 -4 10z" />
<glyph unicode="X" horiz-adv-x="1310" d="M20 2q0 45 11 45q6 0 43 4q27 2 69 19q49 18 68 39q502 561 502 563l-158 368q-39 90 -53 115q-20 35 -56 64q-12 10 -57 28q-35 14 -55 15q-4 0 -4 10q0 37 14 45l102 -8q51 -4 132 -4q18 0 245 12v-8q0 -47 -12 -47q-16 0 -41 -7q-31 -8 -55 -24q-31 -22 -31 -49 q0 -20 10 -47q147 -336 150 -336q4 0 88 90q106 113 170 188q84 98 84 123t-37 43.5t-80 18.5q-2 0 -2 10q0 37 12 45q203 -12 224 -12q53 0 77 2q12 2 39 3t39 1q23 2 40.5 4t25.5 2v-6q0 -49 -15 -49q-27 0 -96.5 -18.5t-93.5 -43.5q-438 -483 -438 -489t53 -131l117 -271 q57 -137 77 -172q27 -45 89 -67q63 -23 92 -23q4 0 4 -8q0 -33 -6 -45q-209 10 -224 10l-28 -1q-29 -1 -95.5 -4t-144.5 -5q-4 4 -4 16q0 37 14 37q25 0 68 18.5t43 47.5q0 23 -4 34q-182 434 -184.5 434.5t-100.5 -110.5l-196 -229q-98 -117 -99 -133q0 -61 111 -62 q6 0 6 -16q0 -29 -8 -37q-23 2 -207 2q-207 0 -231 -2q-3 2 -3 8z" />
<glyph unicode="Y" horiz-adv-x="1185" d="M240 1272q0 37 14 45l102 -8q51 -4 131 -4q20 0 248 12v-10q0 -45 -12 -45q-33 0 -80 -20.5t-47 -63.5q0 -20 8 -43l137 -424l93 116l100 131l78 109l63 90q20 29 21 43q-3 25 -43 43.5t-80 18.5q-4 0 -4 12q0 35 12 43q18 0 81.5 -6t102.5 -6q12 0 240 12q2 -2 2 -10 q0 -45 -14 -45q-22 0 -80 -19q-57 -18 -82 -43q-18 -18 -242 -317q-218 -292 -221 -314l-55 -290q-23 -117 -23 -181q0 -16 27 -28q37 -16 53 -19l29 -4q4 0 4 -6q0 -23 -12 -47l-209 10q-2 0 -26 -1t-79 -4t-117 -5q-2 2 -2 14q0 39 15 39q25 0 69 14q47 14 58 31 q29 49 51 180l51 283q4 8 -39 141l-86 265l-43 129q-31 94 -78 129q-16 12 -57 28q-35 14 -55 15q-4 0 -4 10z" />
<glyph unicode="Z" horiz-adv-x="1091" d="M72 35q0 29 16 51l932 1131h-86h-76h-82q-14 0 -38.5 -1.5t-37.5 -1.5h-59h-23q-129 -3 -184 -55q-59 -55 -121 -190q-6 -8 -18 -8q-37 0 -55 18q49 139 112 350q12 -4 140 -10q123 -6 153 -6q61 -2 217 -2q84 0 117 2q12 0 38.5 1t35.5 3q6 0 33.5 2t48.5 4q39 4 108 8 q3 -3 6 -31q2 -14 2 -22.5t-2 -11.5q-8 -23 -911 -1114q-16 -20 -16 -33q0 -16 20 -17h420q25 0 61 4q33 4 51 15q8 4 21.5 10t17.5 8q23 10 35 27q10 12 27 29q6 6 20 30q2 6 6.5 12.5l7.5 10.5t3 6q6 12 12 27q2 6 5 11t4 8l1 3q6 16 53 16q18 0 29 -12 q-76 -182 -115 -307h-921q-8 15 -8 35z" />
<glyph unicode="[" horiz-adv-x="612" d="M-18 -158l309 1592q0 2 4 14q4 10 14 20q12 12 27 13q102 0 194 8l107 8q8 0 8 -10q0 -14 -2 -21q-4 -12 -8 -18t-12 -14q-2 -2 -4.5 -5.5t-4.5 -5.5t-4 -2q-4 -4 -8 -6l-4 -4q-88 -20 -192 -20q-6 0 -10.5 -4.5t-4.5 -8.5l-2 -4l-287 -1472q-4 -16 11 -17q47 0 88 -8 q55 -10 67 -16l25 -8l4 -3q2 -2 2 -3q0 -3 2 -3q4 -4 6 -8t2 -14q0 -16 -2 -27q-2 -20 -14 -22q-121 23 -285 22q-27 0 -26 35v12z" />
<glyph unicode="\" horiz-adv-x="423" d="M12 1509q25 12 39 13q80 0 82 -43l252 -1452q2 -4 2 -17q0 -35 -16 -59q-16 -27 -41 -29l-45 4z" />
<glyph unicode="]" horiz-adv-x="595" d="M-35 -211q0 23 41 64q96 33 193 32q6 0 10 4l2 5l2 4l2 4l287 1472q4 16 -10 17l-185 20q-23 23 -22 45q0 41 14 41l18 -2q6 -2 21.5 -3t23.5 -1q10 -2 32 -3t32 -1q12 -2 40 -3t42 -1q31 -2 88 -2q27 0 27 -31q0 -12 -2 -16l-310 -1592q0 -6 -2 -12q-4 -12 -14 -23 q-12 -12 -27 -12l-295 -22q-8 6 -8 16z" />
<glyph unicode="^" horiz-adv-x="604" d="M27 997q2 8 55 52q55 47 129 125q76 82 137 180q2 4 4 10l3 6l1 2l4 4q2 2 5 2l4 1l4 1q16 0 24 -14q12 -25 27 -68q23 -66 49 -122q12 -25 43 -68l53 -74q23 -33 23 -35q-2 -6 -14 -32q-8 -16 -21 -17q-28 0 -104 92q-78 94 -109 152q-66 -78 -174 -162 q-106 -82 -127 -82q-16 0 -16 47z" />
<glyph unicode="_" horiz-adv-x="968" d="M18 -74q0 9 19 56q18 45 29 45h829q10 0 10 -9q0 -16 -35 -92l-12 -12h-829q-11 0 -11 12z" />
<glyph unicode="`" horiz-adv-x="323" d="M41 1319q0 12 4 20q4 10 26.5 22.5t53.5 12.5q51 0 59 -18q47 -76 119 -273q0 -10 -8 -18q-10 -10 -19 -10q-22 0 -129 104q-106 105 -106 160z" />
<glyph unicode="a" horiz-adv-x="878" d="M131 260q0 141 86 285q84 141 219 233t269 92q70 0 145 -26l-123 -631q-4 -16 -4 -51q0 -49 18 -49q8 0 29 10q8 4 35 27q12 10 33 30q6 6 13 15.5t11 13.5l12 12q6 0 15 -18q10 -20 10 -27q-25 -45 -108.5 -116.5t-143.5 -71.5q-31 0 -49 28.5t-18 75.5q0 41 14 107 q4 25 6 34l4 17q-23 -41 -47 -72l-65 -84q-45 -53 -84 -76q-47 -29 -86 -28q-90 0 -140 80q-51 84 -51 190zM281 301q0 -195 102 -195q72 0 160 145.5t119 297.5l38 203q-23 27 -79 26q-78 0 -156 -69q-84 -74 -133 -183q-51 -110 -51 -225z" />
<glyph unicode="b" horiz-adv-x="786" d="M154 209q0 29 6 65l166 844q18 82 18 107q0 37 -123 37q-6 0 -6 12q0 25 16 41q129 12 252 55q12 -6 13 -39q0 -12 -27 -149l-117 -576q63 106 133 170q66 59 109 78q39 16 63 16q86 0 134 -77q45 -76 45 -185q0 -133 -45 -248q-47 -121 -117 -198q-74 -82 -156 -127 q-88 -47 -166 -47t-137 57q-61 58 -61 164zM299 311q-9 -48 -9 -88q0 -51 15 -88q29 -66 98 -65q76 0 144 77t104 191q37 113 37 221q0 49 -2 66l-10 61q-6 35 -27 55q-18 18 -49 19q-43 0 -108 -76q-63 -72 -119 -180.5t-74 -192.5z" />
<glyph unicode="c" horiz-adv-x="651" d="M135 293q0 190 148 385q147 193 297 192q94 0 174 -67q6 -25 6 -41q0 -37 -18.5 -61.5t-51.5 -24.5q-31 0 -65 55q-35 57 -70 57q-86 0 -178 -139q-92 -138 -92 -325q0 -211 131 -211q10 0 30 4l29 10q4 2 14.5 6t14.5 6q10 4 26 17q4 4 11.5 10t11.5 8q16 12 20.5 16.5 t8.5 9.5t6 7l10 10l4 4q2 0 14.5 -18.5t12.5 -26.5q-25 -43 -113 -119q-82 -70 -166 -69q-102 0 -160 82q-55 80 -55 223z" />
<glyph unicode="d" horiz-adv-x="925" d="M145 260q0 217 184.5 413.5t385.5 196.5h10h14l58 297q6 29 6 58q0 37 -123 37q-6 0 -6 12q0 25 16 41q138 12 258 55q12 -10 13 -39l-31 -149l-189 -969q-6 -25 -6 -51q0 -49 21 -49q14 0 28.5 10t34.5 27l31 30q8 8 14 15.5t13 13.5l12 12q2 0 14 -18q10 -14 10 -27 q-29 -51 -106 -117q-84 -72 -145 -71q-31 0 -49.5 28.5t-18.5 75.5q0 37 14 107q2 10 6 26l4 17q2 4 3 10q-16 -31 -62 -96q-33 -47 -100 -109q-63 -57 -121 -57q-92 0 -141 80q-52 84 -52 190zM295 299q0 -193 100 -193q72 0 162 148q88 143 119 299l24 129q2 12 2 23 q0 26 -10 45q-16 29 -53 28q-123 0 -233.5 -153.5t-110.5 -325.5z" />
<glyph unicode="e" horiz-adv-x="716" d="M139 293q0 190 148 385q147 193 297 192q92 0 133 -47t41 -102q0 -88 -90 -174q-90 -88 -197 -133q-111 -47 -172 -47q-8 0 -8 -70q0 -90 34.5 -137t94.5 -47q10 0 31 4q6 2 28 10q4 2 14.5 6t14.5 6q10 4 27 17q4 4 11 10t11 8q16 12 20.5 16.5t8.5 9.5t6 7t4 5t4 5l6 4 q2 0 14.5 -18.5t12.5 -26.5q-25 -43 -113 -119q-82 -70 -166 -69q-102 0 -159 82q-56 80 -56 223zM303 444q0 -8 8 -8q74 0 188.5 96.5t114.5 194.5q0 61 -51 61q-92 0 -176 -135q-84 -137 -84 -209z" />
<glyph unicode="f" horiz-adv-x="606" d="M-240 -381q-2 43 23 82q25 37 59 37q18 0 35 -19q12 -16 29 -43q14 -25 33 -41q25 -20 51 -20q37 0 75.5 49t65.5 117q25 61 45.5 135t28.5 115l119 678v4q0 10 -7 10h-129q-4 0 -4 4q0 20 33 53t64 33h57q9 0 12 18q40 246 172 406q133 162 285 162q125 0 164 -70 q0 -129 -74 -129q-27 0 -51 31l-53 61q-27 31 -60 31q-63 0 -135 -133q-74 -137 -113 -365v-4q0 -8 7 -8h231q8 0 8 -22q0 -35 -20 -68h-236q-6 0 -10 -16l-111 -598q-49 -281 -170 -424q-123 -147 -262 -148q-68 0 -110 27q-40 24 -52 55z" />
<glyph unicode="g" horiz-adv-x="874" d="M31 -270q0 51 26 92q31 49 76 82t90 59q51 29 96 49l-34 25q-51 35 -52 72q0 35 72 77q68 41 129 58q-41 0 -88 20q-49 22 -92 74q-45 55 -45 125q0 169 117 289q117 121 262 120q63 0 131 -26q74 -29 139 -29h86q12 0 12 -14q0 -6 -8 -35q-6 -20 -14 -29h-111 q-12 0 -12 -12q12 -72 12 -102q0 -74 -22.5 -137.5t-55.5 -102.5q-31 -37 -59 -61q-10 -8 -27.5 -19.5t-19.5 -13.5q-41 -25 -80 -41q-37 -16 -94 -53q-35 -23 -35 -43q0 -14 39 -33l51 -19.5l45 -17.5q66 -25 113 -49q51 -27 94 -78q39 -47 39 -115q0 -143 -125 -225 q-127 -84 -342 -84q-137 0 -225 53.5t-88 143.5zM178 -219q0 -162 264 -162q96 0 170 43q72 41 72 102q0 45 -25 82q-18 29 -73 62q-46 28 -86 43l-97 33q-27 -10 -55 -25l-55 -29q-39 -20 -59.5 -40.5t-36.5 -47.5q-19 -30 -19 -61zM358 494q0 -80 31 -131.5t92 -51.5 q82 0 137 88q57 92 58 189q0 80 -33 143q-35 66 -88 66q-86 0 -141 -95q-56 -94 -56 -208z" />
<glyph unicode="h" horiz-adv-x="921" d="M131 0l217 1118q18 86 19 107q0 37 -121 37q-6 0 -6 12q0 25 16 41q132 12 252 55q10 -6 10 -39q0 -14 -24 -149l-105 -523l-35 -184q16 35 86 125q59 78 166 178q98 92 156 92q100 0 100 -133q0 -84 -28 -217l-66 -307q-6 -25 -6 -51q0 -49 20 -49q8 0 29 10q8 4 35 27 l31 30q6 6 13 15.5t11 13.5l12 12q8 0 17 -18q10 -20 10 -27q-25 -45 -108.5 -116.5t-143.5 -71.5q-31 0 -49 28.5t-18 75.5q0 37 14 107l70 329q14 59 14 109q0 86 -39 86q-23 0 -82 -49q-55 -47 -115 -121q-53 -68 -112 -182q-51 -98 -74 -215l-35 -156q-25 -8 -61 -8 q-43 0 -70 8z" />
<glyph unicode="i" horiz-adv-x="546" d="M186 698q29 45 101 107q78 66 129 65q33 0 51 -28q16 -25 16 -76q0 -41 -12 -107l-86 -446q-6 -25 -6 -51q0 -49 18 -49q12 0 29 10q14 10 35 27l31 30q8 8 14 15.5t12 13.5l12 12q2 0 15 -18q10 -14 10 -27q-29 -51 -106 -117q-84 -72 -146 -71q-31 0 -49 28.5t-18 75.5 q0 37 14 107l82 417q10 72 10 80q0 49 -20 49q-8 0 -23 -8q-16 -8 -29 -22l-26 -27q-16 -16 -23 -24l-8 -13q-2 0 -16 21q-11 16 -11 26zM371 1178q0 49 28 79q31 35 74 35q31 0 51 -24q23 -27 23 -56q0 -45 -33 -84q-31 -37 -76 -36q-33 0 -51 24q-16 23 -16 62z" />
<glyph unicode="j" horiz-adv-x="579" d="M-25 -430q100 57 177 182q78 129 108 291l115 573q10 78 10 80q0 49 -20 49q-12 0 -23 -8l-29 -22l-26 -27q-12 -12 -17 -18l-16 -19q-8 0 -16 19q-10 20 -11 28q27 43 103 107q78 66 129 65q31 0 49 -28q18 -27 18 -76q0 -41 -12 -107l-111 -569q-43 -217 -131 -338 q-51 -72 -137 -137q-74 -57 -141 -84q-19 14 -19 39zM412 1178q0 46 30 79q31 35 74 35q29 0 51 -24q20 -23 21 -56q0 -47 -31 -83.5t-78 -36.5q-31 0 -49 24.5t-18 61.5z" />
<glyph unicode="k" horiz-adv-x="968" d="M172 0l217 1118q18 82 19 107q0 37 -121 37q-6 0 -6 12q0 25 16 41q129 12 252 55q10 -6 10 -39q0 -25 -24 -149l-105 -539l23 27q29 33 53 57q31 31 72 66q40 34 92 55q55 23 98 22q59 0 104.5 -38.5t45.5 -98.5q0 -129 -115 -213t-295 -114q119 -180 182.5 -237.5 t108.5 -57.5q37 0 67 28q33 29 49 60q8 0 21 -17q12 -15 12 -24q-10 -37 -74 -101q-66 -66 -122 -65q-29 0 -52 8q-27 10 -49 27l-24.5 16t-22.5 16q-14 10 -45 50q-25 33 -41 51q-23 27 -41 57l-35 57q-2 2 -8 11.5t-12 21.5t-14 25l-11.5 19t-8.5 14.5t-5 10.5t-4 7 l-76 -383q-41 -10 -65 -10q-21 0 -66 10zM410 465q0 -4 4 -4q2 0 9 1t11 1q2 0 51 8q10 2 72 18q25 6 76 29q35 14 72 41q27 18 51 57q20 33 20 74q0 86 -80 86q-66 0 -176 -135t-110 -176z" />
<glyph unicode="l" horiz-adv-x="495" d="M172 92q0 41 14 107l189 968q6 31 6 58q0 37 -123 37q-4 0 -4 12q0 27 14 41q137 12 256 55q12 -6 13 -39q0 -25 -25 -149l-190 -969q-6 -25 -7 -51q0 -49 21 -49q8 0 29 10q2 0 32 27l31 30q8 8 14.5 15.5t12.5 13.5l12 12q8 0 16 -18q10 -20 11 -27 q-25 -45 -109 -116.5t-143 -71.5q-31 0 -49 28q-21 31 -21 76z" />
<glyph unicode="m" horiz-adv-x="1431" d="M174 698q27 43 102 107q78 66 127 65q31 0 50 -28q18 -27 18 -76q0 -55 -10 -107l-37 -186q70 123 184 262q111 135 183 135q53 0 81 -32q29 -31 35 -68q6 -33 6 -90q0 -39 -26 -178q68 119 184 241q121 127 189 127q66 0 90 -32q25 -35 24 -101q0 -84 -28 -217l-66 -307 q-6 -25 -6 -51q0 -49 20 -49q12 0 29 10q14 10 35 27l31 30q8 8 13 15.5t11 13.5l12 12q4 0 17 -18q10 -14 10 -27q-27 -47 -109 -117q-84 -72 -143 -71q-31 0 -49 28.5t-18 75.5q0 37 14 107l70 329q14 59 14 109q0 35 -2 45q-4 20 -10 29q-10 12 -27 12q-70 0 -201 -174 q-135 -178 -168 -359l-35 -190q-16 0 -30 -2q-29 -4 -39 -4q-8 0 -37 4q-14 2 -29 2l113 567q8 39 8 76q0 80 -41 80q-70 0 -198 -191q-131 -193 -164 -356l-37 -176q-47 -8 -68 -8q-18 0 -65 8l118 616q10 78 11 80q0 49 -21 49q-12 0 -22 -8q-4 -4 -13.5 -11t-13.5 -11 l-27 -27q-12 -12 -17 -18l-15 -19q-8 0 -17 19q-10 20 -10 28z" />
<glyph unicode="n" horiz-adv-x="983" d="M170 698q29 45 100 107q78 66 129 65q31 0 50 -28q20 -31 20 -76t-12 -107l-35 -184q16 35 86 125q66 86 164 178t155 92q100 0 101 -133q0 -84 -29 -217l-65 -307q-6 -25 -7 -51q0 -49 21 -49q12 0 29 10q14 10 34 27l31 30q8 8 14.5 15.5t12.5 13.5l12 12q2 0 14 -18 q10 -14 11 -27q-27 -47 -109 -117q-84 -72 -143 -71q-31 0 -49.5 28.5t-18.5 75.5q0 37 14 107l70 329q14 59 14 109q0 86 -39 86q-66 0 -204 -182q-137 -180 -179 -385l-34 -156q-23 -8 -62 -8q-41 0 -67 8l116 616q10 78 11 80q0 49 -21 49q-12 0 -22 -8q-4 -4 -13.5 -11 t-13.5 -11l-27 -27q-12 -12 -17 -18l-15 -19q-8 0 -17 19q-10 20 -10 28z" />
<glyph unicode="o" horiz-adv-x="823" d="M135 291q0 205 146 393q143 186 294 186q121 0 184.5 -81.5t63.5 -227.5q0 -207 -143 -389t-297 -182q-119 0 -184 78q-64 76 -64 223zM289 315q0 -115 37 -180q37 -63 92 -63q100 0 178 157q76 154 76 318q0 113 -33 178q-33 63 -86 63q-98 0 -182 -157 q-82 -156 -82 -316z" />
<glyph unicode="p" horiz-adv-x="878" d="M0 -455q0 33 8 43q55 0 80 31t33 86l158 817l-97 -96q-12 16 -12 41q0 6 6 12l119 127l51 260q25 8 66 8q37 0 63 -14q-16 -74 -20 -110q45 41 63 55q31 23 80 43q55 23 109 22q92 0 141 -79.5t49 -190.5q0 -100 -53 -217q-47 -102 -131 -197q-72 -82 -166 -139 q-89 -55 -160 -55q-51 0 -80 16l-55 -299q-6 -28 -6 -55q0 -6 8 -27q6 -14 20 -18q25 -6 95 -6q4 0 4 -13q0 -29 -11 -45q-4 0 -16 1t-20 1h-33q-154 0 -287 -16q-6 2 -6 14zM348 207q-3 -14 -3 -29q0 -29 11 -55q16 -39 70 -39q115 0 219 152q104 150 105 323 q0 195 -123 195q-119 0 -193 -107z" />
<glyph unicode="q" horiz-adv-x="829" d="M158 260q0 141 86 285q84 141 219 233t268 92q86 0 162 -26l-123 -631l-90 -508q0 -8 -1 -17.5t-2 -15.5t-1 -8q0 -12 4 -29q2 -10 25 -20q25 -10 63 -10q4 0 4 -13q0 -33 -10 -49q-4 0 -17.5 1t-23.5 1h-39q-154 0 -291 -14v10q0 4 -1 8l-1 5q0 37 10 36h17q9 0 30 7 q23 6 41 18q12 8 33 35q18 25 25 55l102 545q-35 -57 -69 -100q-45 -55 -109 -107q-66 -53 -119 -53q-89 0 -141 80q-51 77 -51 190zM305 317q0 -211 105 -211q74 0 170 148q98 152 125 295l38 203q-23 27 -98 26q-84 0 -166 -71.5t-127 -178.5q-47 -111 -47 -211z" />
<glyph unicode="r" horiz-adv-x="743" d="M184 698q29 45 101 107q78 66 129 65q31 0 49 -28q18 -27 18 -76q0 -45 -12 -107l-31 -167q49 115 150 247q100 131 166 131q68 0 110 -63q0 -135 -73 -135q-16 0 -39 24q-23 27 -45 27q-61 0 -175 -174q-115 -178 -145 -338l-37 -211q-35 -6 -65 -6q-37 0 -74 6l119 616 q10 78 10 80q0 49 -21 49q-12 0 -22 -8q-4 -4 -13.5 -11t-13.5 -11l-26 -27q-12 -12 -17 -18l-16 -19q-6 0 -16 19q-11 20 -11 28z" />
<glyph unicode="s" horiz-adv-x="638" d="M133 102q0 33 21 64q18 29 49 29q27 0 49 -29q25 -31 55 -60q33 -31 86 -30q43 0 72 28q27 27 27 64q0 53 -39 111q-49 72 -84 106q-46 46 -86 111q-39 63 -39 135q0 84 80 164q82 82 198.5 82t179.5 -76q10 -27 11 -43q0 -35 -20.5 -61.5t-49.5 -26.5q-27 0 -49 28 q-25 31 -55 60q-35 31 -86 30q-43 0 -68 -28q-23 -25 -23 -64q0 -53 39 -110q49 -72 84 -107q46 -46 86 -110q39 -63 39 -136q0 -111 -79.5 -178t-206.5 -67q-117 0 -181 75q-10 16 -10 39z" />
<glyph unicode="t" horiz-adv-x="522" d="M182 778q0 25 25 62h139l47 243q6 20 99 21q29 0 36 -2l-51 -262h182q10 0 11 -27q0 -23 -19 -57h-188l-107 -543q-6 -25 -6 -51q0 -49 21 -49q14 0 28 10q4 2 33 27q12 10 33 30q8 8 13 15.5t11 13.5l13 12q2 0 14 -18.5t12 -26.5q-27 -47 -108 -117q-84 -72 -144 -71 q-33 0 -51 28q-16 25 -16 76q0 47 12 107l109 557h-142q-6 -1 -6 22z" />
<glyph unicode="u" horiz-adv-x="942" d="M150 698q27 43 102 107q78 66 129 65q31 0 49 -28q18 -27 19 -76q0 -53 -13 -107l-69 -329q-14 -55 -15 -109q0 -86 37 -86q27 0 82 49q53 47 109 121q51 68 106 182q49 100 72 215l35 156q25 8 61 8q41 0 68 -8l-123 -645q-6 -25 -6 -51q0 -49 18 -49q10 0 31 10 q2 0 32 27q12 10 33 30q6 6 13.5 15.5t11.5 13.5l12 12q6 0 17 -18q10 -20 10 -27q-25 -45 -109 -116.5t-143 -71.5q-33 0 -51.5 28.5t-18.5 75.5q0 37 15 107l36 184q-27 -49 -82 -127q-45 -63 -157 -176q-92 -92 -154 -92q-98 0 -98 133q0 96 27 217l61 278q8 63 8 80 q0 49 -18 49q-12 0 -23 -8l-28 -22l-27 -27q-12 -12 -17 -18l-16 -19q-8 0 -16 19q-10 20 -10 28z" />
<glyph unicode="v" horiz-adv-x="831" d="M158 698q29 45 100 107q78 66 129 65q33 0 51 -28q18 -27 19 -76q0 -41 -13 -107l-59 -305q-16 -102 -16 -127q0 -57 16 -79.5t66 -22.5q94 0 215 182q123 184 122 311q0 39 -28 91q-31 55 -31 71q0 35 25 64q25 27 57 26q39 0 66 -16q27 -51 26 -117q0 -170 -96 -344 q-96 -176 -221 -284.5t-211 -108.5q-68 0 -109 49q-41 51 -41 127q0 61 8 88l68 352q12 43 12 80q0 49 -18 49q-8 0 -22.5 -8t-28.5 -22q-8 -8 -15.5 -14.5t-13.5 -12.5q-8 -8 -20 -24l-11 -13l-14 21q-12 18 -12 26z" />
<glyph unicode="w" horiz-adv-x="1263" d="M158 698q29 45 100 107q78 66 129 65q33 0 51 -28q18 -27 19 -76q0 -41 -13 -107l-59 -305q-16 -102 -16 -127q0 -57 16 -79.5t66 -22.5q45 0 102 51t113 131q51 410 65 461q29 102 80 102q78 0 78 -94q0 -133 -82 -354q-14 -94 -14 -127q0 -100 16 -133q18 -37 65 -37 q61 0 136 88q70 86 125 207q51 115 51 198q0 39 -29 90.5t-29 71.5q0 39 23 64q25 27 59 26q37 0 64 -16q29 -53 29 -117q0 -123 -56 -262q-57 -141 -131 -239q-76 -98 -166 -168q-90 -68 -151 -68q-71 0 -111 49q-39 47 -39 133q-158 -182 -274 -182q-68 0 -109 49 q-41 51 -41 127q0 61 8 88l68 352q12 43 12 80q0 49 -18 49q-8 0 -22.5 -8t-28.5 -22q-8 -8 -15.5 -14.5t-13.5 -12.5q-8 -8 -20 -24l-11 -13l-14 21q-12 18 -12 26z" />
<glyph unicode="x" horiz-adv-x="950" d="M96 80q0 31 20.5 51.5t43.5 20.5q25 0 59 -31t62 -31q23 0 53 51l160 273l-84 268q-20 68 -54 68q-29 0 -63 -31q-31 -29 -49 -57q-8 0 -21 16q-10 12 -10 24q6 33 73.5 100.5t129.5 67.5q86 0 137 -174l43 -141l117 201q66 115 168 114q63 0 114 -41q16 -33 17 -51 q0 -31 -20.5 -51t-43.5 -20q-27 0 -59 30q-34 31 -62 31q-23 0 -53 -51l-151 -256l88 -283q23 -68 53.5 -67.5t62.5 30.5q31 29 50 58q8 0 20 -17q10 -12 10 -24q-6 -33 -73.5 -100.5t-128.5 -67.5q-86 0 -138 174l-45 155l-127 -217q-66 -115 -168 -114q-63 0 -114 41 q-17 28 -17 51z" />
<glyph unicode="y" horiz-adv-x="956" d="M-53 -385q0 63 45 88q43 -25 135 -25q164 0 287 179q47 70 47 268q0 96 -6 194q-6 96 -19 199q-12 98 -37 164q-25 63 -59 63q-18 0 -53 -32q-18 -16 -58 -62l-14 21q-10 16 -10 26q12 31 94 101q84 72 133 71q57 0 98 -102q37 -94 54 -266q15 -166 18 -258 q4 -123 4 -189q82 102 156 246q78 152 78 268q0 119 -49 215q25 86 100 86q88 0 88 -157q0 -221 -172 -506q-174 -287 -389 -479q-219 -195 -352 -195q-52 0 -86 25q-33 24 -33 57z" />
<glyph unicode="z" horiz-adv-x="806" d="M100 51q0 16 150 178l297 326l149 160l-14 -10q-14 -10 -33 -19q-25 -10 -33 -10q-59 0 -141 37q-78 35 -110 35q-14 0 -33 -13q-16 -10 -33 -30q-10 -12 -27 -37q-12 -18 -20 -35t-12 -21q-9 -9 -19 6q-4 6 -8 33q16 55 76 135q61 84 121 84q22 0 129 -24 q117 -27 174 -27q25 0 65 27q37 25 66 24q25 0 24 -51q0 -12 -149 -176l-299 -324q-150 -158 -150 -161l15 8q27 14 32 18q25 10 35 11q57 0 140 -37q78 -35 112 -35q18 0 33 10q12 8 33 33q16 20 26 35q16 25 23 37l10 20q9 9 19 -6q6 -10 10 -33q-14 -49 -78 -135 q-61 -84 -123 -84q-10 0 -127 27q-106 25 -174 24q-29 0 -66 -24q-39 -27 -65 -27q-25 0 -25 51z" />
<glyph unicode="{" horiz-adv-x="548" d="M6 25q0 88 41 174q33 68 82 147q41 66 41 121q0 20 -6 34.5t-17 24.5q-16 16 -24 21q-16 8 -29 12q-2 0 -14 5l-21 9q-10 4 -21 8l-11 3v12q0 35 16 61l76 25q23 8 59 31q34 22 49 55q14 31 15 82q0 47 -16.5 120.5t-16.5 127.5q0 135 100.5 268t265.5 133q6 0 7 -6 q0 -10 -11 -31q-8 -16 -18 -20q-23 -4 -49 -17q-37 -16 -78 -43q-45 -29 -76 -90q-33 -66 -33 -139q0 -39 13 -109q10 -59 10 -116q0 -137 -66 -226q-61 -82 -133 -86q45 -2 82 -51t37 -121q0 -80 -43 -157l-86 -148q-43 -70 -43 -139q0 -76 49 -131q51 -59 96 -62 q14 -2 15 -30q0 -27 -12 -27q-102 0 -166 76t-64 199z" />
<glyph unicode="|" horiz-adv-x="405" d="M-23 -229l338 1742q33 33 88 33q10 0 22.5 -4t8.5 -10l-336 -1745q-14 -14 -39 -23q-31 -10 -53 -10q-8 0 -20 4q-9 3 -9 13z" />
<glyph unicode="}" horiz-adv-x="534" d="M-35 -242q0 10 12.5 28.5t20.5 20.5q55 2 145 84q88 80 88 203q0 49 -18 111q-20 68 -20 117q0 127 69 208q72 84 137 86q-47 4 -75 48q-31 45 -31 118q0 98 84 254t84 225.5t-51 124.5q-49 51 -97 56q-14 2 -14 33q0 25 12 24q106 0 172 -65q68 -68 68 -189 q0 -74 -29 -147q-31 -76 -59 -117q-29 -39 -60 -100q-27 -53 -26 -101q0 -41 22 -63q27 -27 50 -35l69 -25q2 -2 2 -16q0 -31 -14 -57q-2 0 -13.5 -3t-21.5 -8q-12 -4 -23.5 -7t-17.5 -5q-16 -4 -37 -14q-25 -12 -35 -23q-16 -16 -26 -28q-16 -20 -23 -43q-6 -25 -6 -56 q0 -37 19 -116q16 -72 16 -123q0 -137 -110.5 -272.5t-256.5 -135.5q-6 0 -6 8z" />
<glyph unicode="~" horiz-adv-x="944" d="M39 539q0 55 94 112.5t180 57.5t209 -53.5t207 -53.5q37 0 72 14.5t53 26.5l61 47q12 -12 13 -20q0 -51 -84 -110.5t-187 -59.5q-86 0 -210.5 53t-210.5 53q-35 0 -70 -14q-27 -12 -53 -29q-4 -2 -20.5 -13t-43.5 -32q-10 11 -10 21z" />
<glyph unicode="&#xa1;" horiz-adv-x="393" d="M-33 -446q0 20 68 284l172 674q2 18 12 35q6 12 19 8q35 -18 34 -41q-119 -907 -122 -926q-8 -49 -39 -90q-28 -37 -68 -37q-35 0 -55.5 27t-20.5 66zM184 737q0 59 39 101q39 43 90 43q39 0 64 -27q23 -25 22 -68q0 -59 -39 -98q-41 -41 -90 -41q-35 0 -61 27 q-25 24 -25 63z" />
<glyph unicode="&#xa2;" horiz-adv-x="636" d="M115 303q0 211 149 387q152 180 305 180q49 0 93 -20q47 -23 69 -47q4 -20 4 -45q0 -37 -22.5 -59.5t-57.5 -22.5q-33 0 -69 57q-37 59 -66 60q-82 0 -170 -142q-88 -139 -88 -327q0 -51 8 -86q10 -45 41 -82q35 -41 92 -41q43 0 91 35q46 34 67.5 61.5t30.5 42.5 q4 0 10 -16q10 -25 10 -27q0 -45 -86 -131q-88 -88 -170 -88q-89 0 -147 55q-59 55 -78 121q-16 57 -16 135zM233 -72l353 1020q66 0 61 -16l-350 -1022q-68 0 -64 18z" />
<glyph unicode="&#xa3;" horiz-adv-x="874" d="M88 20q31 41 64 80l53 64q45 68 94 334q0 4 3 24.5t8 59.5t12 82q27 180 26 182q37 188 154 305q119 119 268 119q96 0 127 -74q-8 -47 -25 -80q-20 -39 -53 -39q-39 0 -69 56q-29 53 -70 53q-45 0 -78 -25q-34 -25 -55 -74q-23 -51 -35 -94t-25 -104q-2 -4 -30 -201 q-25 -168 -27 -172q-39 -197 -151 -348q45 18 137 18q47 0 151 -32q98 -31 129 -31q28 0 56 18q25 16 43 35q14 14 39 51q6 10 13 20.5t10 15.5l3 5q18 0 19 -35q0 -6 -5 -18q-125 -231 -264 -231q-66 0 -182.5 36.5t-157.5 36.5q-66 0 -153 -75q-18 0 -24.5 14t-4.5 24z M197 584q8 37 20 55h498q8 0 6 -21q-6 -39 -41 -61h-479q-10 0 -4 27z" />
<glyph unicode="&#xa4;" horiz-adv-x="892" d="M4 307l121 103q-25 57 -25 127q0 174 123 309l-73 112v3q-2 0 -3 2q0 14 35 43q29 25 66 34l74 -110q95 61 202 61q117 0 193 -82l131 111q2 2 8 2q14 0 33 -29q14 -23 18 -61l-133 -113q23 -63 23 -125q0 -160 -113 -297l78 -114l2 -2v-2q0 -14 -35 -43q-29 -25 -65 -35 l-74 108q-100 -70 -211 -69q-120 0 -197 79l-119 -100q-2 -2 -8 -2q-12 0 -32 31q-15 22 -19 59zM240 547q0 -104 47 -174t119 -70q98 0 176 119q76 115 75 260q0 109 -45 174q-47 70 -118 70q-100 0 -177 -119q-77 -121 -77 -260z" />
<glyph unicode="&#xa5;" horiz-adv-x="1220" d="M287 1251q2 23 12 33q41 -2 94 -6q68 -6 119 -6q14 0 236 12q2 -8 -5 -33q-6 -20 -12 -20q-29 0 -72 -17q-41 -16 -47 -49q-4 -16 9 -57l120 -412q10 -14 21 4q319 393 336 467q4 23 -27 43q-29 20 -86 21q-4 4 -4 10q0 4 4 25q2 14 10 18q6 0 31 -2t45 -4q59 -6 94 -6 q37 0 258 12q0 -25 -2 -31q-2 -23 -12 -22q-23 0 -90 -19q-70 -18 -92 -41l-273 -356q-170 -229 -176 -252l-10 -55h170q10 0 4 -27q-6 -29 -20 -49h-170l-15 -80h170q10 0 4 -26q-6 -33 -18 -50h-170q-25 -131 -23 -184q2 -12 43 -29q43 -16 58 -16q6 0 4 -22 q-2 -20 -10 -31q-47 2 -98.5 5t-73 4t-27.5 1q-2 0 -24.5 -1t-76 -4t-112.5 -5q-6 16 -4 26q2 27 12 27q27 0 70 14q46 15 55 31q25 61 49 184h-172q-10 0 -4 25q4 29 23 51h168l16 80h-170q-10 0 -4 27q6 29 20 49h170q8 20 4 33q0 33 -159 524q-18 57 -58 123 q-12 18 -49 30.5t-61 12.5q-4 0 -2 20z" />
<glyph unicode="&#xa6;" horiz-adv-x="405" d="M-23 -229l142 725q33 33 88 32q8 0 20.5 -4t8.5 -10l-138 -727q-14 -14 -39 -23q-31 -10 -53 -10q-8 0 -20 4q-9 3 -9 13zM174 782l139 725q33 33 88 33q10 0 22.5 -4t8.5 -10l-137 -725q-31 -35 -90 -35q-10 0 -23 4q-8 2 -8 12z" />
<glyph unicode="&#xa7;" horiz-adv-x="694" d="M18 -53q2 53 25 88q20 33 59 33q16 0 33 -19q12 -14 25 -43q10 -27 28 -41q20 -18 50 -18q59 0 104 53t45 129q0 59 -35 107q-33 45 -84 79l-100 70q-51 35 -84 88q-37 59 -37 123q0 201 168 332v14q0 4 -1 9l-1 5q0 137 86 242q88 106 246 107q113 0 143 -74 q-10 -121 -84 -121q-25 0 -41 29q-18 33 -37 59q-23 31 -59 31q-59 0 -107 -53q-45 -51 -45 -129q0 -59 35 -107q31 -41 86 -80l101 -69q51 -35 84 -89q35 -57 34 -122q0 -203 -166 -330l1 -4l2 -8v-17q0 -131 -80 -237q-82 -111 -248 -111q-117 0 -146 74zM152 709 q0 -65 43 -117q43 -51 94 -82q57 -35 108 -82q59 -55 78 -111q78 55 78 152q0 65 -43 117q-39 47 -94 80q-57 35 -109 82q-59 55 -78 110q-49 -39 -65 -82q-12 -30 -12 -67z" />
<glyph unicode="&#xa8;" horiz-adv-x="569" d="M39 1042q0 43 29 78q27 33 71 33q33 0 53.5 -22.5t20.5 -57.5q0 -47 -31 -84q-29 -35 -76 -35q-31 0 -51 27q-16 22 -16 61zM377 1042q0 43 29 78q27 33 71 33q33 0 53 -23q23 -27 23 -57q0 -45 -33 -84q-29 -35 -76 -35q-31 0 -51 27q-16 22 -16 61z" />
<glyph unicode="&#xa9;" horiz-adv-x="1093" d="M47 571q0 256 193 459q190 201 432 201q184 0 297 -123q115 -125 114 -311q0 -260 -192 -459q-195 -201 -432 -201q-184 0 -297 123q-115 125 -115 311zM109 584q0 -166 102 -274.5t260 -108.5q213 0 383 176q172 178 172 405q0 168 -102.5 276.5t-264.5 108.5 q-209 0 -380 -178q-170 -176 -170 -405zM293 614q0 137 96 242q100 111 229 111q111 0 199 -39q4 -12 4 -17q2 -18 2 -100q0 -23 -30 -23q-8 0 -13 5q0 10 -6 26q-8 20 -20 35q-18 23 -47 33t-78 10q-88 0 -158 -78t-70 -188q0 -84 48 -131q45 -45 108 -45q45 0 76 8 q37 10 51 22q23 18 29 27q8 12 16 27q8 16 10 18t9 2l28 -6q-12 -29 -31 -70q-25 -53 -30 -55q-100 -39 -205 -39q-96 0 -158 64q-59 61 -59 161z" />
<glyph unicode="&#xaa;" horiz-adv-x="636" d="M53 643q0 164 144 315q144 154 270 154q92 0 113 -20l-76 -402q-6 -31 -6 -57q0 -53 30 -53q14 0 52 51l36 51q8 0 15 -31q-16 -41 -60 -94q-45 -57 -92 -57q-78 0 -78 102q0 25 7 57l4 35l-2 4l-2 -2v-2q-27 -55 -99 -125q-76 -72 -135 -71q-121 0 -121 145zM172 676 q0 -96 59 -96q47 0 117 102q72 106 90 203l27 141v8q0 2 1 5l1 3q0 18 -10 19q-88 0 -189 -137q-96 -133 -96 -248z" />
<glyph unicode="&#xab;" horiz-adv-x="831" d="M8 473q0 39 25 64q102 57 221 139l162 119q43 33 61 51q35 -10 35 -33q0 -10 -2 -14q-2 -2 -35 -33l-102 -90l-105 -94q-86 -82 -94 -88l90 -132q53 -72 64 -83l39 -48q4 -6 9 -12t7 -10t4 -6q4 -6 4 -19q0 -10 -6 -16q-9 -9 -18 -12q-2 0 -10.5 -2t-10.5 -4l-8 -5 q-23 35 -119 131q-95 95 -203 179q-8 6 -8 18zM342 473q0 39 25 64q129 74 215 135q137 98 157 114q66 53 72 60q35 -12 35 -33q0 -10 -2 -14q-2 -2 -35 -33l-102 -90l-105 -94q-86 -82 -94 -88l127 -181l35 -47l30 -37l17 -26q8 -16 8 -21q0 -6 -8 -14t-15 -10q-4 -2 -9 -4 t-9 -4l-12 -5q-25 39 -117 131q-88 88 -205 179q-8 6 -8 18z" />
<glyph unicode="&#xac;" horiz-adv-x="946" d="M39 764q0 31 12 51q14 25 29 25h827q23 0 19 -23l-95 -479q-18 -18 -83 -19q-8 0 -21 5q-9 3 -6 12l74 373v2q0 16 -21 16h-731q-4 17 -4 37z" />
<glyph unicode="&#xad;" horiz-adv-x="589" d="M39 428q0 27 12 55q14 37 29 39l455 25q12 0 12 -25q0 -18 -17 -61q-14 -37 -30 -41l-453 -23q-8 0 -8 31z" />
<glyph unicode="&#xae;" horiz-adv-x="1093" d="M68 813q43 225 225 387q182 160 389 160q211 0 330 -160q119 -158 75 -387q-43 -225 -225 -387q-182 -160 -391 -160q-211 0 -328 160q-118 162 -75 387zM131 813q-41 -201 63.5 -342t291 -141t345.5 141q156 137 197 342q39 199 -65 342q-104 141 -289 141 q-186 0 -346 -141q-156 -137 -197 -342zM291 559q0 4 2 6l4 4q25 4 35 6q14 4 18 11q2 2 4 5t4 5t2 4t1 5t2.5 8t1.5 12q2 14 6 34l65 338q8 39 8 60q0 12 -16 18q-14 6 -27 6q-4 0 -4 4q0 8 2 13l4 8l37 -4q18 -2 49 -2q12 0 69.5 4t70.5 4q59 0 104 -33q43 -31 43 -90 q0 -100 -114 -158q-2 -2 -3 -6v-2q6 -49 64 -153l10 -19.5t10.5 -18.5t6.5 -12q12 -18 28 -30q20 -14 39 -15q0 -8 -4 -20q-12 -6 -37 -6q-84 0 -121 43q-33 39 -100 209q-8 16 -35 16q-23 0 -24 -14l-35 -178v-23q0 -12 6 -16q25 -12 39 -13q2 0 2 -6l-1 -3q-1 -3 -2 -7 t-1 -8q-20 0 -44 1t-36 2t-21 1l-110 -4v8q0 2 -1 4zM510 881q0 -25 76 -25q45 0 71.5 39t26.5 86q0 78 -76 78q-66 0 -67 -21l-29 -149v-6z" />
<glyph unicode="&#xaf;" horiz-adv-x="520" d="M49 1116q0 16 12 41q12 27 25 35h395q16 0 17 -37q0 -16 -13 -45q-10 -25 -22 -33h-404q-10 0 -10 39z" />
<glyph unicode="&#xb0;" horiz-adv-x="401" d="M29 1034q0 94 69.5 164t153.5 70q66 0 108 -45q41 -43 41 -113q0 -94 -69 -164q-72 -72 -154 -72q-66 0 -108 46q-41 42 -41 114zM100 1049q0 -45 25 -72q25 -29 68 -29q51 0 94 45q43 47 43 103q0 43 -25 69q-25 29 -67 29q-53 0 -97 -43q-41 -41 -41 -102z" />
<glyph unicode="&#xb1;" horiz-adv-x="993" d="M-16 90q0 37 45 94h860q8 0 8 -18q0 -47 -43 -94h-860q-10 0 -10 18zM100 684q0 39 43 94h357q8 0 8 8q8 35 33 181q6 31 16 99.5t16 94.5q4 18 50 29q39 8 63 8q12 0 16 -4q6 -6 5 -14q-53 -311 -70 -392q-4 -10 4 -10h363q8 0 8 -18q0 -51 -41 -94h-359q-8 0 -8 -9 l-69 -374q-4 -18 -37 -27q-37 -10 -64 -10q-15 0 -24.5 6t-6.5 12q41 236 72 391q0 10 -6 11h-358q-11 0 -11 18z" />
<glyph unicode="&#xb2;" horiz-adv-x="602" d="M18 547q0 12 9 26l92 91l92 88q43 39 78 75l71 78q23 25 50 66q27 39 36 63q12 27 13 53q0 35 -25 70q-22 31 -67 31q-29 0 -96.5 -43t-69.5 -43q-4 0 -10.5 16.5t-6.5 26.5t6 22q25 35 101 80q78 47 149.5 47t118.5 -49q47 -51 47 -119q0 -84 -65 -178 q-59 -84 -146 -153l-143 -113q-66 -49 -66 -59q0 -2 2 -2h254q28 0 50 18q18 16 32 37q12 18 17 18q18 0 28 -8q-4 -4 -24 -53l-13.5 -32.5t-13.5 -35.5q-6 -12 -13 -31.5t-9 -25.5l-224 2l-243 -2q-11 4 -11 39z" />
<glyph unicode="&#xb3;" horiz-adv-x="557" d="M14 547q2 31 24.5 59.5t47.5 28.5q27 0 57.5 -35t65.5 -35q80 0 141 64q61 65 62 153q0 51 -27 78q-29 29 -74 29q-9 0 -98 -12q-8 14 -8 26q0 27 20 33q113 25 160 84t47 104q0 31 -24.5 49.5t-55.5 18.5q-45 0 -98 -37q-52 -37 -55 -37l-11 68q102 109 246 108 q41 0 86 -34q41 -33 41 -95q0 -45 -29 -90q-23 -33 -53 -57q-31 -23 -65 -43l-13 -6q43 0 97 -47q51 -45 51 -117q0 -115 -115 -213q-114 -98 -276 -98q-53 0 -97 18q-41 19 -47 35z" />
<glyph unicode="&#xb4;" horiz-adv-x="413" d="M43 1085q0 14 86 119q96 117 115 135q35 35 96 35q66 0 66 -43q0 -49 -158 -162q-162 -115 -185 -114q-6 0 -12 12q-8 16 -8 18z" />
<glyph unicode="&#xb5;" horiz-adv-x="854" d="M8 -266q0 147 166 674l19 106q4 23 7 43.5t5 29.5l2 9q12 47 47 238q31 41 53 40q16 0 55 -28q35 -25 31 -45q-14 -78 -106 -309l-19 -46q-29 -121 -22 -219q6 -100 51 -100q147 0 324 317l106 406q2 25 31 24q14 0 53 -28q35 -27 33 -45q-10 -66 -111 -309l-16 -46 q-68 -313 41 -313q57 0 119 62q6 0 14 -21q4 -12 0 -22q-31 -63 -92 -113q-59 -47 -115 -47q-59 2 -72 71q-12 63 -2 193q-170 -274 -334 -274q-6 0 -22 4q-14 4 -21 10l-14 14q-4 4 -10 21q-2 8 -5 12t-3 8q-4 10 -6 27q0 4 -1 10t-2.5 9t-1.5 5q0 14 -2 26.5t-2 23.5 l-2 -10q-2 -9 -6 -29.5t-8 -44.5q-23 -121 -27 -154q-10 -76 -4 -164q6 -92 35 -137q-2 -20 -31 -39q-25 -16 -57 -16q-16 0 -32.5 16t-31 57.5t-14.5 102.5z" />
<glyph unicode="&#xb6;" horiz-adv-x="827" d="M43 877q0 160 125 292q127 135 268 136q39 0 104.5 -4.5t102.5 -4.5l211 11q2 -2 2 -15q0 -45 -14 -45q-31 0 -66 -10q-43 -12 -53 -29q-12 -18 -35 -141l-47 -248q-20 -115 -20 -121t4 -6h4l82 17q2 -4 2 -17q0 -43 -47 -59l-50 -15q-14 -6 -14 -10q-4 -10 -18 -94 l-15.5 -87t-13.5 -75q-20 -102 -29 -155q-12 -80 -12 -103q0 -18 47 -35q43 -14 68 -14q4 0 4 -8q0 -37 -15 -45q-4 0 -133 8q-68 4 -168 4q-49 0 -73 -2q-12 -2 -39 -3t-41 -1l-70 -6v4q0 20 4 33q6 16 13 16q12 0 65 16q49 16 55 29q14 29 39 150q41 197 45 223 q18 104 19 108q0 10 -35 11q-127 0 -193 90q-63 88 -63 205zM332 94q0 -23 41 -22q12 0 26 10q10 8 15 18q35 147 100 490q0 8 -4 8t-10 -2q-2 0 -6.5 -1t-10.5 -2t-10 -1q-25 -4 -39 -6q-12 -2 -14 -15l-88 -473v-4zM438 674q0 -10 15 -10l71 12q9 0 13 12q0 2 3 17.5t9 49 l12 70.5l47 250q23 125 23 127q0 6 -13 12q-16 8 -26 9q-43 0 -45 -25q0 -6 -19 -88l-39 -174l-34 -174q-17 -86 -17 -88z" />
<glyph unicode="&#xb7;" horiz-adv-x="260" d="M20 504q0 55 41 96q43 43 93 43q37 0 61.5 -24.5t24.5 -65.5q0 -55 -41 -100q-39 -43 -90 -43q-39 0 -64 26q-25 28 -25 68z" />
<glyph unicode="&#xb8;" horiz-adv-x="321" d="M16 -268q0 20 11 28q14 10 18 11q8 0 31 -15q18 -12 35 -12q39 0 67.5 22.5t28.5 59.5q0 27 -14 39q-16 12 -35 12q-20 0 -49 -12q-4 0 -11 8q-4 6 -4 12t8 17l10.5 11t20.5 26l23.5 29.5t17.5 23.5h39l-41 -45h43q31 0 49.5 -22.5t18.5 -53.5q0 -63 -57.5 -118.5 t-151.5 -55.5q-39 0 -58 16v19z" />
<glyph unicode="&#xb9;" horiz-adv-x="434" d="M14 516q0 39 15 39q12 0 59 10q41 8 47 19q14 18 31 96l65 346q12 84 13 88q0 25 -21 25q-10 0 -119 -37q-16 4 -16 31q0 18 14 24l140 68q49 25 83.5 40l43.5 19q41 20 51 21q12 0 12 -48q-29 -72 -47 -161l-82 -416q-6 -33 -6 -59q0 -29 6 -35q6 -10 39 -19 q37 -10 47 -10q4 0 4 -12q0 -29 -8 -39q-2 0 -80 4q-39 2 -100 2q-63 0 -105 -2q-82 -4 -84 -4q-2 2 -2 10z" />
<glyph unicode="&#xba;" horiz-adv-x="622" d="M57 733q0 143 101 258q100 117 243 117q98 0 160 -70q63 -74 64 -174q0 -143 -101 -256q-102 -115 -241 -114q-96 0 -162 69q-64 66 -64 170zM190 727q0 -184 115 -184q55 0 94 30q37 29 58 86q16 47 26 107q8 49 9 117q0 176 -109 176q-70 0 -117 -53q-43 -49 -59 -121 q-17 -76 -17 -158z" />
<glyph unicode="&#xbb;" horiz-adv-x="849" d="M-4 176q0 12 12 25q18 18 68 59l34.5 30.5t24.5 22.5l197 181l-127 182q-86 108 -86 129q0 10 6 18q6 9 12 13q4 2 17 6l12 4q31 -43 131 -144q111 -111 192 -165q6 -12 7 -33q0 -41 -21 -49q-94 -53 -231 -150q-106 -74 -162 -119l-49 -41q-37 9 -37 31zM330 176 q0 12 12 25q18 18 68 59l34.5 30.5t24.5 22.5l197 181l-127 182q-88 106 -88 127q0 8 4 16q2 4 10 12l12 7q8 4 15 6l8 2q23 -37 127 -141q102 -102 194 -168q8 -8 8 -29q0 -45 -20 -53q-109 -61 -227 -146q-96 -68 -162 -121l-53 -43q-37 9 -37 31z" />
<glyph unicode="&#xbc;" horiz-adv-x="1124" d="M-2 516q0 39 14 39q12 0 60 10q43 9 49 19q12 14 29 96l65 346q12 84 12 88q0 25 -18 25q-12 0 -121 -37q-16 4 -16 31q0 18 14 24l139 68q49 25 84 40t43 19q41 20 51 21q12 0 13 -48q-29 -72 -47 -161l-80 -416q-8 -43 -8 -59q0 -18 10 -35q6 -9 37 -19q35 -10 47 -10 q4 0 4 -12q0 -29 -8 -39q-4 0 -82 4q-39 2 -101 2q-63 0 -104 -2q-82 -4 -84 -4q-2 2 -2 10zM145 8q0 8 5 12l894 1264q61 -14 62 -39q0 -6 -2 -8l-891 -1266q-68 17 -68 37zM565 283l463 497q14 14 31 15q25 0 36 -3.5t9 -11.5l-90 -456v-2q0 -6 8 -7h47q18 0 18 -14 q0 -57 -20 -72h-66q-4 0 -8 -10l-43 -219q-25 -10 -53 -10q-20 0 -45 4q-18 3 -25 6q-8 4 -4 8l41 215v2q0 4 -6 4h-278q-15 23 -15 54zM684 326q0 -10 6 -11h182q8 0 13 11l51 258q0 8 -4 8h-2l-244 -260q-2 -2 -2 -6z" />
<glyph unicode="&#xbd;" horiz-adv-x="1216" d="M0 514q0 37 14 37q25 0 58 8q37 10 45 21q23 37 30 96l62 321q8 43 8 80q0 33 -18 33q-6 0 -95 -31q-23 16 -22 23v10q0 4 2 6l2 2l4 4l12 6q2 0 8.5 3.5l10.5 5.5q16 8 26 12q6 2 15.5 7t23.5 11q6 2 23.5 10.5t28.5 14.5l63 35l82 47h6q12 0 12 -47q-31 -70 -49 -162 l-76 -391q-8 -43 -8 -60q0 -2 4 -34q4 -12 39 -21q33 -8 51 -8q4 0 5 -12q0 -29 -9 -39q-4 0 -77 4q-37 2 -96.5 2t-98.5 -2q-78 -4 -82 -4q-4 4 -4 12zM119 8q0 8 4 12l893 1264q63 -14 63 -39q0 -4 -4 -8l-891 -1266q-65 17 -65 37zM600 35q0 14 12 31l86 81l90 86l78 78 q49 49 74 80l16.5 22.5l15.5 20.5t19 27q29 39 41 65.5t12 55.5q0 41 -22.5 69.5t-69.5 28.5q-33 0 -78 -23q-39 -20 -73 -57q-4 -4 -8 -4q-8 0 -15 16q-6 18 -6 29l2 16q51 55 119 91q74 39 133 38q76 0 121 -49q45 -47 45 -119q0 -84 -66 -178q-59 -84 -145 -153 l-143 -111q-66 -49 -66 -61q0 -2 2 -2h254q37 0 51 10q20 14 22.5 24.5t12.5 24.5q9 12 31 12q8 0 12 -4q-6 -10 -74 -180h-467q-16 10 -16 35z" />
<glyph unicode="&#xbe;" horiz-adv-x="1185" d="M2 547q4 35 23 59q23 29 47 29q29 0 59.5 -35t67.5 -35q78 0 139 64q59 61 59 155q0 104 -96 105q-6 0 -96 -12q-10 16 -10 26q0 27 20 33q113 25 160 84q45 57 45 104q0 31 -24.5 49.5t-57.5 18.5q-35 0 -92 -39q-55 -37 -58 -37q-16 0 -16 53q0 6 2 11l2 6 q102 109 246 108q43 0 88 -34q43 -35 43 -95q0 -10 -4 -35q-4 -18 -10 -30q-2 -4 -7.5 -13.5t-9.5 -15.5q-6 -14 -20 -24l-21 -21q-6 -6 -24.5 -18.5t-22.5 -14.5l-6 -4q-6 -4 -16 -10l-21 -10q47 0 94 -45q49 -46 50 -117q0 -123 -117 -217q-119 -96 -273 -96q-53 0 -96 18 q-41 19 -47 35zM188 8q0 8 5 12l892 1264q63 -16 64 -39q0 -6 -2 -8l-893 -1266q-66 17 -66 37zM631 276v7l461 497q14 14 38 15q35 0 35 -13v-2l-88 -454v-2q0 -6 8 -7h52q14 0 14 -14v-14t-2 -17q-2 -33 -12 -36q-4 -2 -9 -7l-63 -2q-4 0 -8 -10l-43 -217q-4 -10 -56 -10 q-72 0 -71 18l41 215q0 6 -6 6h-279q-12 20 -12 47zM745 328q0 -12 9 -13h182q8 0 12 11l49 258q0 10 -4 10q-2 -2 -16 -18.5t-46 -49l-67 -69.5q-119 -125 -119 -129z" />
<glyph unicode="&#xbf;" horiz-adv-x="552" d="M-31 -158q0 45 11 82q10 41 20 60q12 27 43 53q31 28 55 43l86 55q84 55 105 70q66 43 65 119q0 37 -39 82t-39 51q0 14 21 26q49 0 121 -59q74 -61 74 -135q0 -100 -84 -166l-238 -168q-104 -70 -104 -139q0 -49 32 -88q29 -35 92 -35q39 0 74 47t62 47q31 0 53 -27 q20 -23 27 -67q-12 -41 -48 -74q-35 -35 -98 -35q-119 0 -205 80t-86 178zM326 733q0 55 43 98t94 43q37 0 59 -26q25 -29 25 -66q0 -53 -41 -98q-39 -43 -90 -43q-37 0 -63.5 26.5t-26.5 65.5z" />
<glyph unicode="&#xc0;" horiz-adv-x="1210" d="M4 10q0 37 14 37q22 0 62 12q37 12 53 31q53 61 123 189l553 991q29 53 78 53q8 0 14 -2l166 -1057l25 -143q6 -31 51 -51q49 -23 65 -23q4 0 4 -8q0 -20 -10 -45l-209 10q-47 0 -69 -2q-12 -2 -37 -3t-37 -1t-35.5 -1t-34.5 -3q-2 2 -2 12q0 41 15 41q18 0 55 12.5 t47 28.5q12 25 12 94q0 49 -35 295v6l-4 4q-4 4 -8 5q-2 0 -5 1t-7 1q-2 0 -10.5 1t-14.5 1q-4 0 -16 1t-21 1h-49h-67q-27 0 -187 -11q-4 0 -53 -79q-47 -76 -94 -175q-45 -92 -45 -122q0 -25 26 -39q33 -18 52 -21q29 -4 30 -4q4 0 4 -10q0 -18 -10 -43q-55 2 -102 5 t-67 4l-19 1q-49 0 -68 -2q-10 -2 -31.5 -3t-31.5 -1l-66 -4q-4 4 -4 16zM543 602q0 -4 2 -4q31 -2 151 -2q72 0 150 4q8 0 8 8q0 10 -12 94l-14.5 86.5t-16.5 108.5l-23 156q-245 -447 -245 -451zM580 1569q0 16 30 33q29 14 86 14q16 0 33 -4q51 -35 123 -94 q76 -63 76 -78q0 -20 -27 -21q-39 0 -178 58q-143 59 -143 92z" />
<glyph unicode="&#xc1;" horiz-adv-x="1210" d="M4 10q0 37 14 37q22 0 62 12q37 12 53 31q53 61 123 189l553 991q29 53 78 53q8 0 14 -2l166 -1057l25 -143q6 -31 51 -51q49 -23 65 -23q4 0 4 -8q0 -20 -10 -45l-209 10q-47 0 -69 -2q-12 -2 -37 -3t-37 -1t-35.5 -1t-34.5 -3q-2 2 -2 12q0 41 15 41q18 0 55 12.5 t47 28.5q12 25 12 94q0 49 -35 295v6l-4 4q-4 4 -8 5q-2 0 -5 1t-7 1q-2 0 -10.5 1t-14.5 1q-4 0 -16 1t-21 1h-49h-67q-27 0 -187 -11q-4 0 -53 -79q-47 -76 -94 -175q-45 -92 -45 -122q0 -25 26 -39q33 -18 52 -21q29 -4 30 -4q4 0 4 -10q0 -18 -10 -43q-55 2 -102 5 t-67 4l-19 1q-49 0 -68 -2q-10 -2 -31.5 -3t-31.5 -1l-66 -4q-4 4 -4 16zM543 602q0 -4 2 -4q31 -2 151 -2q72 0 150 4q8 0 8 8q0 10 -12 94l-14.5 86.5t-16.5 108.5l-23 156q-245 -447 -245 -451zM815 1442q0 12 78 77.5t121 94.5q16 4 35 4q55 0 84 -14q31 -14 30 -33 q0 -34 -141 -92q-139 -57 -180 -58q-27 1 -27 21z" />
<glyph unicode="&#xc2;" horiz-adv-x="1210" d="M4 10q0 37 14 37q22 0 62 12q37 12 53 31q53 61 123 189l553 991q29 53 78 53q8 0 14 -2l166 -1057l25 -143q6 -31 51 -51q49 -23 65 -23q4 0 4 -8q0 -20 -10 -45l-209 10q-47 0 -69 -2q-12 -2 -37 -3t-37 -1t-35.5 -1t-34.5 -3q-2 2 -2 12q0 41 15 41q18 0 55 12.5 t47 28.5q12 25 12 94q0 49 -35 295v6l-4 4q-4 4 -8 5q-2 0 -5 1t-7 1q-2 0 -10.5 1t-14.5 1q-4 0 -16 1t-21 1h-49h-67q-27 0 -187 -11q-4 0 -53 -79q-47 -76 -94 -175q-45 -92 -45 -122q0 -25 26 -39q33 -18 52 -21q29 -4 30 -4q4 0 4 -10q0 -18 -10 -43q-55 2 -102 5 t-67 4l-19 1q-49 0 -68 -2q-10 -2 -31.5 -3t-31.5 -1l-66 -4q-4 4 -4 16zM543 602q0 -4 2 -4q31 -2 151 -2q72 0 150 4q8 0 8 8q0 10 -12 94l-14.5 86.5t-16.5 108.5l-23 156q-245 -447 -245 -451zM676 1495q9 9 31 25l59 41q20 14 63 47q68 49 111 92q20 16 27 16 q14 0 20 -16q37 -63 66 -96q14 -16 49 -52q10 -10 25.5 -23t19.5 -18q14 -14 14 -16q-8 -39 -28 -39q-39 0 -199 117q-74 -45 -143 -78q-80 -39 -103 -39q-20 0 -12 39z" />
<glyph unicode="&#xc3;" horiz-adv-x="1210" d="M4 10q0 37 14 37q22 0 62 12q37 12 53 31q53 61 123 189l553 991q29 53 78 53q8 0 14 -2l166 -1057l25 -143q6 -31 51 -51q49 -23 65 -23q4 0 4 -8q0 -20 -10 -45l-209 10q-47 0 -69 -2q-12 -2 -37 -3t-37 -1t-35.5 -1t-34.5 -3q-2 2 -2 12q0 41 15 41q18 0 55 12.5 t47 28.5q12 25 12 94q0 49 -35 295v6l-4 4q-4 4 -8 5q-2 0 -5 1t-7 1q-2 0 -10.5 1t-14.5 1q-4 0 -16 1t-21 1h-49h-67q-27 0 -187 -11q-4 0 -53 -79q-47 -76 -94 -175q-45 -92 -45 -122q0 -25 26 -39q33 -18 52 -21q29 -4 30 -4q4 0 4 -10q0 -18 -10 -43q-55 2 -102 5 t-67 4l-19 1q-49 0 -68 -2q-10 -2 -31.5 -3t-31.5 -1l-66 -4q-4 4 -4 16zM543 602q0 -4 2 -4q31 -2 151 -2q72 0 150 4q8 0 8 8q0 10 -12 94l-14.5 86.5t-16.5 108.5l-23 156q-245 -447 -245 -451zM584 1507q6 33 47 76q77 80 160 80q61 0 149 -51q90 -53 150 -53 q23 0 55 20q20 14 57 45l27 23q16 0 6 -35q-6 -31 -47 -78q-72 -78 -156 -78q-63 0 -151 53.5t-152 53.5q-27 0 -84 -45l-55 -43q-14 -1 -6 32z" />
<glyph unicode="&#xc4;" horiz-adv-x="1210" d="M4 10q0 37 14 37q22 0 62 12q37 12 53 31q53 61 123 189l553 991q29 53 78 53q8 0 14 -2l166 -1057l25 -143q6 -31 51 -51q49 -23 65 -23q4 0 4 -8q0 -20 -10 -45l-209 10q-47 0 -69 -2q-12 -2 -37 -3t-37 -1t-35.5 -1t-34.5 -3q-2 2 -2 12q0 41 15 41q18 0 55 12.5 t47 28.5q12 25 12 94q0 49 -35 295v6l-4 4q-4 4 -8 5q-2 0 -5 1t-7 1q-2 0 -10.5 1t-14.5 1q-4 0 -16 1t-21 1h-49h-67q-27 0 -187 -11q-4 0 -53 -79q-47 -76 -94 -175q-45 -92 -45 -122q0 -25 26 -39q33 -18 52 -21q29 -4 30 -4q4 0 4 -10q0 -18 -10 -43q-55 2 -102 5 t-67 4l-19 1q-49 0 -68 -2q-10 -2 -31.5 -3t-31.5 -1l-66 -4q-4 4 -4 16zM543 602q0 -4 2 -4q31 -2 151 -2q72 0 150 4q8 0 8 8q0 10 -12 94l-14.5 86.5t-16.5 108.5l-23 156q-245 -447 -245 -451zM635 1556q8 43 39 70q35 31 71.5 31t61.5 -31q20 -27 12 -70 q-10 -47 -41 -71q-35 -29 -71.5 -29t-59 28.5t-12.5 71.5zM971 1556q8 43 39 70q35 31 71.5 31t61.5 -31q20 -27 12 -70q-10 -45 -39 -71q-33 -29 -71.5 -29t-61 28.5t-12.5 71.5z" />
<glyph unicode="&#xc5;" horiz-adv-x="1210" d="M4 10q0 37 14 37q22 0 62 12q37 12 53 31q53 61 123 189l553 991q29 53 78 53q8 0 14 -2l166 -1057l25 -143q6 -31 51 -51q49 -23 65 -23q4 0 4 -8q0 -20 -10 -45l-209 10q-47 0 -69 -2q-12 -2 -37 -3t-37 -1t-35.5 -1t-34.5 -3q-2 2 -2 12q0 41 15 41q18 0 55 12.5 t47 28.5q12 25 12 94q0 49 -35 295v6l-4 4q-4 4 -8 5q-2 0 -5 1t-7 1q-2 0 -10.5 1t-14.5 1q-4 0 -16 1t-21 1h-49h-67q-27 0 -187 -11q-4 0 -53 -79q-47 -76 -94 -175q-45 -92 -45 -122q0 -25 26 -39q33 -18 52 -21q29 -4 30 -4q4 0 4 -10q0 -18 -10 -43q-55 2 -102 5 t-67 4l-19 1q-49 0 -68 -2q-10 -2 -31.5 -3t-31.5 -1l-66 -4q-4 4 -4 16zM543 602q0 -4 2 -4q31 -2 151 -2q72 0 150 4q8 0 8 8q0 10 -12 94l-14.5 86.5t-16.5 108.5l-23 156q-245 -447 -245 -451zM727 1497q16 76 75.5 127t127 51t104.5 -51q37 -53 23 -127 q-16 -76 -73.5 -127t-123.5 -51q-68 0 -106 51q-41 55 -27 127zM791 1497q-8 -43 16 -78q25 -33 65 -33q43 0 76 33q37 37 45 78q10 49 -12.5 80t-65.5 31t-79 -31q-35 -29 -45 -80z" />
<glyph unicode="&#xc6;" horiz-adv-x="1693" d="M127 6q0 16 4 27q6 14 12 14q22 0 62 12q41 12 59 31q78 72 158 189l625 892q10 16 10 31q0 47 -62 47q-6 0 -6 11q0 33 21 53h174q109 0 291 8q137 6 309 6q0 -12 -3 -55l-5 -74t-6.5 -76t-4.5 -61q-10 -10 -32 -10q-25 0 -25 14q-2 53 -18 90q-14 35 -43 51 q-25 12 -50 21q-20 6 -53 6h-119q-154 0 -163 -27q-12 -39 -29 -196l-31 -316v-2q0 -12 62 -12h65q125 0 150 16q33 20 69 109l8 16q6 14 29 15q25 0 31 -11q-29 -117 -51 -383q-10 -8 -31 -8q-25 0 -27 15q-4 59 -8 79q-6 29 -10 33l-2 3q-2 3 -5 6t-7 5q-23 16 -201 17 q-80 0 -82 -21l-25 -264l-8 -86q-8 -76 -8 -94q0 -12 6 -20.5t35 -14.5q18 -4 80 -4h31q154 0 223 35q57 31 139 201q6 12 31 12q34 0 43 -12q-106 -209 -150 -332q-102 0 -284.5 6t-260.5 6l-251 -10q-2 2 -2 12q0 15 6 37q6 18 12 18q12 0 80 15q55 12 65 24q6 8 17 33 q4 8 12 55.5t10 63.5q0 8 2 20.5t4 27.5t4.5 27.5t8.5 78.5q2 27 6 86l6 77q0 16 -12 17l-135 2q-100 0 -136 -2q-6 0 -12 -6l-217 -318q-90 -131 -90 -162q0 -20 41 -37q43 -16 61 -16q2 0 2 -4q0 -18 -18 -49q-53 2 -100.5 5t-67.5 4l-21 1q-47 0 -65 -2q-10 -2 -30.5 -3 t-30.5 -1l-66 -4v12zM799 682q0 -2 4 -2q25 -2 104 -2q66 0 119 4l12 10l41 402l-278 -406q-2 -2 -2 -6z" />
<glyph unicode="&#xc7;" horiz-adv-x="1159" d="M121 535q0 135 57.5 274t157.5 258q102 121 242 193q143 74 296 73q133 0 426 -90l-20 -126l-15 -88t-5 -34q-6 -29 -48 -28q-16 0 -22 6q0 37 -2 53q-4 27 -21 70q-18 45 -49 75.5t-96 55.5q-59 23 -158 22q-209 0 -385 -219q-178 -221 -178 -512q0 -190 104.5 -317 t294.5 -127q145 0 252 65q49 31 86 74t46 55l28 37q6 0 25 -20q16 -20 14 -29q-90 -174 -98 -182q-33 -35 -156 -60q-137 -27 -256 -26q-238 0 -379 164t-141 383zM371 -295q4 14 14 23q14 10 21 10q14 0 34 -14q23 -16 41 -17q39 0 74 25q31 20 37 55q6 39 -10 57 q-18 23 -41 23q-25 0 -64 -17q-2 0 -10 13q-8 10 -4 16q4 4 41 53q12 14 28.5 37l22.5 31h47l-49 -53h55q41 0 64 -35q20 -31 10 -82q-14 -80 -84 -129q-68 -49 -158 -49q-47 0 -69 20v33z" />
<glyph unicode="&#xc8;" horiz-adv-x="1036" d="M47 10q0 37 10 37q18 0 74 16q51 14 62 35q27 55 51 187l143 743q25 145 23 186q-4 16 -45 31q-45 16 -66 17q-4 0 -4 8q0 35 12 47q123 -4 215 -4q104 0 283 8q133 6 303 6q-2 -18 -2 -78q0 -55 2 -98t2 -94q-10 -10 -37 -10q-23 0 -22 14q-6 111 -53.5 141.5 t-145.5 30.5h-109q-141 0 -151 -27q-22 -61 -37 -135l-63 -348q0 -6 6 -10q8 -4 16 -4q6 0 12 -1t13 -1h26h90q133 0 164 18q33 18 78 123q6 14 29 14q25 0 30 -10l-73 -383q-10 -8 -29 -8q-27 0 -29 14q-4 59 -8 82q-6 29 -8 33l-12 12q-23 16 -195 16q-132 0 -135 -18 l-59 -297q-23 -113 -23 -174q0 -29 16.5 -35t106.5 -6h90q172 0 242 35q35 18 75 70q45 57 80 131q6 12 31 12q31 0 41 -12q-135 -250 -164 -332q-104 0 -327.5 6t-303.5 6l-223 -10q-2 2 -2 16zM537 1569q0 16 30 33q29 14 84 14q18 0 35 -4q51 -35 123 -94q76 -63 76 -78 q0 -20 -27 -21q-41 0 -180 58q-141 58 -141 92z" />
<glyph unicode="&#xc9;" horiz-adv-x="1036" d="M47 10q0 37 10 37q18 0 74 16q51 14 62 35q27 55 51 187l143 743q25 145 23 186q-4 16 -45 31q-45 16 -66 17q-4 0 -4 8q0 35 12 47q123 -4 215 -4q104 0 283 8q133 6 303 6q-2 -18 -2 -78q0 -55 2 -98t2 -94q-10 -10 -37 -10q-23 0 -22 14q-6 111 -53.5 141.5 t-145.5 30.5h-109q-141 0 -151 -27q-22 -61 -37 -135l-63 -348q0 -6 6 -10q8 -4 16 -4q6 0 12 -1t13 -1h26h90q133 0 164 18q33 18 78 123q6 14 29 14q25 0 30 -10l-73 -383q-10 -8 -29 -8q-27 0 -29 14q-4 59 -8 82q-6 29 -8 33l-12 12q-23 16 -195 16q-132 0 -135 -18 l-59 -297q-23 -113 -23 -174q0 -29 16.5 -35t106.5 -6h90q172 0 242 35q35 18 75 70q45 57 80 131q6 12 31 12q31 0 41 -12q-135 -250 -164 -332q-104 0 -327.5 6t-303.5 6l-223 -10q-2 2 -2 16zM639 1442q0 12 78 77.5t121 94.5q16 4 34 4q55 0 84 -14q31 -14 31 -33 q0 -34 -141 -92q-139 -57 -180 -58q-27 1 -27 21z" />
<glyph unicode="&#xca;" horiz-adv-x="1036" d="M47 10q0 37 10 37q18 0 74 16q51 14 62 35q27 55 51 187l143 743q25 145 23 186q-4 16 -45 31q-45 16 -66 17q-4 0 -4 8q0 35 12 47q123 -4 215 -4q104 0 283 8q133 6 303 6q-2 -18 -2 -78q0 -55 2 -98t2 -94q-10 -10 -37 -10q-23 0 -22 14q-6 111 -53.5 141.5 t-145.5 30.5h-109q-141 0 -151 -27q-22 -61 -37 -135l-63 -348q0 -6 6 -10q8 -4 16 -4q6 0 12 -1t13 -1h26h90q133 0 164 18q33 18 78 123q6 14 29 14q25 0 30 -10l-73 -383q-10 -8 -29 -8q-27 0 -29 14q-4 59 -8 82q-6 29 -8 33l-12 12q-23 16 -195 16q-132 0 -135 -18 l-59 -297q-23 -113 -23 -174q0 -29 16.5 -35t106.5 -6h90q172 0 242 35q35 18 75 70q45 57 80 131q6 12 31 12q31 0 41 -12q-135 -250 -164 -332q-104 0 -327.5 6t-303.5 6l-223 -10q-2 2 -2 16zM539 1495q9 9 30 25l60 41q20 14 63 47q68 49 111 92q20 16 24 16 q16 0 23 -16q41 -70 63 -96l52 -52q10 -10 24.5 -23t18.5 -18l16 -16q-8 -39 -31 -39q-37 0 -196 117q-66 -39 -146 -78t-100 -39t-12 39z" />
<glyph unicode="&#xcb;" horiz-adv-x="1036" d="M47 10q0 37 10 37q18 0 74 16q51 14 62 35q27 55 51 187l143 743q25 145 23 186q-4 16 -45 31q-45 16 -66 17q-4 0 -4 8q0 35 12 47q123 -4 215 -4q104 0 283 8q133 6 303 6q-2 -18 -2 -78q0 -55 2 -98t2 -94q-10 -10 -37 -10q-23 0 -22 14q-6 111 -53.5 141.5 t-145.5 30.5h-109q-141 0 -151 -27q-22 -61 -37 -135l-63 -348q0 -6 6 -10q8 -4 16 -4q6 0 12 -1t13 -1h26h90q133 0 164 18q33 18 78 123q6 14 29 14q25 0 30 -10l-73 -383q-10 -8 -29 -8q-27 0 -29 14q-4 59 -8 82q-6 29 -8 33l-12 12q-23 16 -195 16q-132 0 -135 -18 l-59 -297q-23 -113 -23 -174q0 -29 16.5 -35t106.5 -6h90q172 0 242 35q35 18 75 70q45 57 80 131q6 12 31 12q31 0 41 -12q-135 -250 -164 -332q-104 0 -327.5 6t-303.5 6l-223 -10q-2 2 -2 16zM495.5 1556.5q8.5 40.5 41.5 69.5q35 31 71 31q35 0 60 -31q23 -29 14 -70 q-10 -47 -41 -71q-35 -29 -74 -29q-35 0 -57 29q-23 31 -14.5 71.5zM831.5 1556.5q8.5 40.5 40.5 69.5q35 31 72 31q35 0 60 -31q23 -29 14 -70q-10 -45 -39 -71q-33 -29 -74 -29q-37 0 -59 29q-23 31 -14.5 71.5z" />
<glyph unicode="&#xcc;" horiz-adv-x="524" d="M47 10q0 37 14.5 37t71.5 14q47 12 57 31q29 63 52 193l143 739q20 104 21 184q0 22 -44 37q-45 16 -67 17q-4 0 -4 10q0 31 14 45q8 0 20.5 -2t35 -3t40.5 -3q47 -4 121 -4q49 0 123 6t88 6v-6q0 -49 -12 -49t-68 -17q-51 -14 -57 -28q-27 -61 -51 -187l-144 -751 q-20 -104 -20 -181q0 -16 27 -28q37 -16 53 -19l26 -4q4 0 5 -6q0 -23 -13 -47q-205 10 -207 10l-23 -1q-24 -1 -79 -4t-119 -5q-4 4 -4 16zM215 1569q0 16 33 33q29 14 84 14q18 0 35 -4q43 -29 120 -94q76 -63 76 -78q0 -20 -24 -21q-41 0 -181 58q-143 59 -143 92z" />
<glyph unicode="&#xcd;" horiz-adv-x="524" d="M47 10q0 37 14.5 37t71.5 14q47 12 57 31q29 63 52 193l143 739q20 104 21 184q0 22 -44 37q-45 16 -67 17q-4 0 -4 10q0 31 14 45q8 0 20.5 -2t35 -3t40.5 -3q47 -4 121 -4q49 0 123 6t88 6v-6q0 -49 -12 -49t-68 -17q-51 -14 -57 -28q-27 -61 -51 -187l-144 -751 q-20 -104 -20 -181q0 -16 27 -28q37 -16 53 -19l26 -4q4 0 5 -6q0 -23 -13 -47q-205 10 -207 10l-23 -1q-24 -1 -79 -4t-119 -5q-4 4 -4 16zM428 1442q0 14 76 78q72 59 123 94q16 4 32 4q57 0 86 -14q31 -14 31 -33q0 -34 -141 -92q-139 -57 -180 -58q-27 1 -27 21z" />
<glyph unicode="&#xce;" horiz-adv-x="524" d="M47 10q0 37 14.5 37t71.5 14q47 12 57 31q29 63 52 193l143 739q20 104 21 184q0 22 -44 37q-45 16 -67 17q-4 0 -4 10q0 31 14 45q8 0 20.5 -2t35 -3t40.5 -3q47 -4 121 -4q49 0 123 6t88 6v-6q0 -49 -12 -49t-68 -17q-51 -14 -57 -28q-27 -61 -51 -187l-144 -751 q-20 -104 -20 -181q0 -16 27 -28q37 -16 53 -19l26 -4q4 0 5 -6q0 -23 -13 -47q-205 10 -207 10l-23 -1q-24 -1 -79 -4t-119 -5q-4 4 -4 16zM311 1495q9 9 31 25l59 41q35 23 66 47q59 43 108 92q20 16 27 16q16 0 23 -16q41 -70 63 -96q14 -16 49 -52q10 -10 25.5 -23 t19.5 -18l17 -16q-8 -39 -31 -39q-39 0 -199 117q-74 -45 -143 -78q-80 -39 -102 -39q-21 0 -13 39z" />
<glyph unicode="&#xcf;" horiz-adv-x="524" d="M47 10q0 37 14.5 37t71.5 14q47 12 57 31q29 63 52 193l143 739q20 104 21 184q0 22 -44 37q-45 16 -67 17q-4 0 -4 10q0 31 14 45q8 0 20.5 -2t35 -3t40.5 -3q47 -4 121 -4q49 0 123 6t88 6v-6q0 -49 -12 -49t-68 -17q-51 -14 -57 -28q-27 -61 -51 -187l-144 -751 q-20 -104 -20 -181q0 -16 27 -28q37 -16 53 -19l26 -4q4 0 5 -6q0 -23 -13 -47q-205 10 -207 10l-23 -1q-24 -1 -79 -4t-119 -5q-4 4 -4 16zM303 1563q0 41 31 77q27 33 72 33q33 0 53 -22.5t20 -57.5q0 -47 -30 -84q-29 -35 -76 -34q-33 0 -51.5 24.5t-18.5 63.5zM641 1563 q0 41 31 77q27 33 71 33q33 0 53.5 -22.5t20.5 -57.5q0 -47 -31 -84q-29 -35 -75 -34q-33 0 -51.5 24.5t-18.5 63.5z" />
<glyph unicode="&#xd0;" horiz-adv-x="1316" d="M41 20q0 37 8 37q20 0 76 17q49 14 59 35q27 55 52 186l145 743q25 139 20 187q0 14 -45 30.5t-65 16.5q-4 0 -4 8q0 33 12 45q61 -2 215 -2h180q74 2 146 2q135 0 237.5 -39t165.5 -112q66 -74 94 -160q31 -88 31 -195q0 -100 -31 -211q-31 -113 -94 -217t-156 -194 q-90 -88 -221 -140q-135 -53 -286 -53q-70 0 -142 4q-106 6 -174 6l-221 -10q-2 2 -2 16zM190 651q0 37 13 56h690q10 0 10 -21q0 -37 -10 -59h-692q-11 -1 -11 24zM389 203q0 -61 4 -68q6 -14 64 -24q55 -9 98 -13q29 -2 72 -2q166 0 299 109q131 106 198 276 q68 169 68 357q0 180 -88 288q-88 111 -268 111h-60q-47 0 -104 -8q-66 -10 -76 -23q-12 -14 -29 -51q-6 -14 -12 -43q-10 -47 -12 -63l-148 -760q-6 -28 -6 -86z" />
<glyph unicode="&#xd1;" horiz-adv-x="1325" d="M47 10q0 37 14 37q20 0 86 16q57 14 68 33q27 51 55 193l154 743q18 90 18 180q0 25 -53 37.5t-84 12.5q-4 0 -4 14q0 33 14 41q139 -8 199 -8q55 0 188 8q35 -129 146 -393q125 -295 237 -518q10 29 23 81l102 539q27 139 27 184q0 23 -55 37q-51 14 -86 15q-4 0 -4 14 q0 33 14 41q59 -2 112.5 -5t75.5 -4l23 -1q6 0 217 10q0 -55 -12 -55q-25 0 -84 -15q-66 -16 -72 -28q-25 -66 -49 -187l-152 -760q-8 -39 -26 -159q-4 -29 -9.5 -56.5l-8.5 -43t-3 -21.5q-8 -8 -20 -8q-27 0 -51 47l-50 111l-176 407l-266 612l-178 -878q-20 -94 -21 -179 q0 -15 31 -30q27 -14 66 -21l32 -6q4 0 4 -8q0 -20 -10 -45q-205 10 -207 10l-23 -1q-24 -1 -79 -4t-119 -5q-4 4 -4 16zM647 1507q6 33 47 76q77 80 160 80q61 0 150 -51q90 -53 149 -53q23 0 55 20q20 14 58 45l26 23q16 0 6 -35q-6 -31 -47 -78q-72 -78 -155 -78 q-63 0 -151.5 53.5t-149.5 53.5q-27 0 -84 -45q-55 -43 -58 -43q-14 -1 -6 32z" />
<glyph unicode="&#xd2;" horiz-adv-x="1247" d="M121 518q0 213 108 400q111 188 283 303q170 113 352 112q201 0 338 -149.5t137 -366.5q0 -219 -102 -409q-106 -199 -276 -312q-175 -117 -369 -116q-213 0 -342 153.5t-129 384.5zM301 535q0 -203 90 -336t252 -133q209 0 361 227q152 229 151 498q0 203 -88 329 q-88 129 -250 129q-215 0 -364 -223q-152 -225 -152 -491zM586 1569q0 16 30 33q29 14 86 14q16 0 33 -4q51 -35 123 -94q76 -63 76 -78q0 -20 -27 -21q-41 0 -180 58q-141 58 -141 92z" />
<glyph unicode="&#xd3;" horiz-adv-x="1247" d="M121 518q0 213 108 400q111 188 283 303q170 113 352 112q201 0 338 -149.5t137 -366.5q0 -219 -102 -409q-106 -199 -276 -312q-175 -117 -369 -116q-213 0 -342 153.5t-129 384.5zM301 535q0 -203 90 -336t252 -133q209 0 361 227q152 229 151 498q0 203 -88 329 q-88 129 -250 129q-215 0 -364 -223q-152 -225 -152 -491zM750 1442q0 14 75 78q72 59 123 94q16 4 33 4q57 0 86 -14q31 -14 31 -33q0 -34 -142 -92q-139 -57 -180 -58q-26 1 -26 21z" />
<glyph unicode="&#xd4;" horiz-adv-x="1247" d="M121 518q0 213 108 400q111 188 283 303q170 113 352 112q201 0 338 -149.5t137 -366.5q0 -219 -102 -409q-106 -199 -276 -312q-175 -117 -369 -116q-213 0 -342 153.5t-129 384.5zM301 535q0 -203 90 -336t252 -133q209 0 361 227q152 229 151 498q0 203 -88 329 q-88 129 -250 129q-215 0 -364 -223q-152 -225 -152 -491zM651 1495q9 9 31 25l59 41q35 23 66 47q59 43 108 92q20 16 27 16q16 0 23 -16q41 -70 63 -96q14 -16 49 -52q10 -10 25.5 -23t19.5 -18l17 -16q-8 -39 -31 -39q-39 0 -199 117q-74 -45 -143 -78q-80 -39 -102 -39 q-21 0 -13 39z" />
<glyph unicode="&#xd5;" horiz-adv-x="1247" d="M121 518q0 213 108 400q111 188 283 303q170 113 352 112q201 0 338 -149.5t137 -366.5q0 -219 -102 -409q-106 -199 -276 -312q-175 -117 -369 -116q-213 0 -342 153.5t-129 384.5zM301 535q0 -203 90 -336t252 -133q209 0 361 227q152 229 151 498q0 203 -88 329 q-88 129 -250 129q-215 0 -364 -223q-152 -225 -152 -491zM584 1507q6 33 47 76q77 80 160 80q61 0 149 -51q90 -53 150 -53q23 0 55 20q20 14 57 45l27 23q16 0 6 -35q-6 -31 -47 -78q-72 -78 -156 -78q-63 0 -151 53.5t-152 53.5q-27 0 -84 -45l-55 -43q-14 -1 -6 32z" />
<glyph unicode="&#xd6;" horiz-adv-x="1247" d="M121 518q0 213 108 400q111 188 283 303q170 113 352 112q201 0 338 -149.5t137 -366.5q0 -219 -102 -409q-106 -199 -276 -312q-175 -117 -369 -116q-213 0 -342 153.5t-129 384.5zM301 535q0 -203 90 -336t252 -133q209 0 361 227q152 229 151 498q0 203 -88 329 q-88 129 -250 129q-215 0 -364 -223q-152 -225 -152 -491zM645 1556.5q8 40.5 41 69.5q35 31 72 31q35 0 59 -31q23 -29 14 -70q-10 -47 -40 -71q-35 -29 -72 -29t-60 29q-22 31 -14 71.5zM981 1556.5q8 40.5 41 69.5q35 31 72 31q35 0 59 -31q23 -29 14 -70 q-10 -45 -39 -71q-33 -29 -71.5 -29t-61.5 29q-22 31 -14 71.5z" />
<glyph unicode="&#xd7;" horiz-adv-x="786" d="M14 215l308 270q4 4 4 7q0 8 -2 10l-201 274q0 20 33 55q35 39 43 39l8 -8l207 -282q4 -4 8 -5q2 0 4 3l315 282q6 6 13 6q10 0 22 -35q12 -33 12 -63l-307 -272l-4 -4q0 -2 2 -5l201 -272q0 -23 -27 -57q-27 -37 -39 -37t-14 6l-207 279q-4 4 -6 4t-6 -4l-324 -279 q-6 -6 -10 -6q-8 0 -20 35q-13 36 -13 59z" />
<glyph unicode="&#xd8;" horiz-adv-x="1290" d="M178 655.5q55 280.5 266 479t459 198.5t383 -198q137 -203 82 -480q-55 -283 -268 -477q-217 -199 -461 -198.5t-381 198.5q-135 197 -80 477.5zM229 20l1033 1313q14 -2 32 -18q20 -16 15 -25l-1035 -1317q-10 4 -32 23q-19 15 -13 24zM356 469q9 -114 43 -203 q35 -90 109 -145t178 -55q178 0 313 165q133 162 177 387q25 121 16 230q-9 114 -43 203q-33 84 -111 143q-74 55 -178 55q-176 0 -311 -166q-133 -164 -176 -383q-25 -120 -17 -231z" />
<glyph unicode="&#xd9;" horiz-adv-x="1261" d="M240 412q0 70 28 213l78 399q23 119 23 184q0 22 -43 37q-45 16 -70 17q-4 0 -4 10q0 29 16 45l94 -8q47 -4 121 -4q49 0 123 6t90 6v-6q0 -49 -14 -49q-12 0 -68 -17q-51 -14 -57 -28q-27 -61 -51 -187l-82 -434q-16 -94 -16 -170q0 -154 65 -242q63 -86 197 -86 q326 0 409 451l88 475q25 141 25 180q0 23 -57 41q-51 16 -93 17q-4 0 -4 12q0 35 15 43q8 0 20 -2t34.5 -3t41.5 -3q47 -4 119 -4q51 0 73 2q12 2 37 3t37 1q23 2 41.5 4t26.5 2q0 -55 -15 -55q-12 0 -77 -17q-63 -16 -72 -28q-20 -27 -55 -197l-90 -467 q-61 -317 -193 -436q-129 -117 -373 -117q-172 0 -270 106.5t-98 305.5zM553 1569q0 16 31 33q29 14 84 14q18 0 34 -4q43 -29 121 -94q76 -63 76 -78q0 -20 -25 -21q-41 0 -180 58q-141 58 -141 92z" />
<glyph unicode="&#xda;" horiz-adv-x="1261" d="M240 412q0 70 28 213l78 399q23 119 23 184q0 22 -43 37q-45 16 -70 17q-4 0 -4 10q0 29 16 45l94 -8q47 -4 121 -4q49 0 123 6t90 6v-6q0 -49 -14 -49q-12 0 -68 -17q-51 -14 -57 -28q-27 -61 -51 -187l-82 -434q-16 -94 -16 -170q0 -154 65 -242q63 -86 197 -86 q326 0 409 451l88 475q25 141 25 180q0 23 -57 41q-51 16 -93 17q-4 0 -4 12q0 35 15 43q8 0 20 -2t34.5 -3t41.5 -3q47 -4 119 -4q51 0 73 2q12 2 37 3t37 1q23 2 41.5 4t26.5 2q0 -55 -15 -55q-12 0 -77 -17q-63 -16 -72 -28q-20 -27 -55 -197l-90 -467 q-61 -317 -193 -436q-129 -117 -373 -117q-172 0 -270 106.5t-98 305.5zM799 1442q0 14 75 78q78 66 121 94q16 4 35 4q55 0 84 -14q33 -16 33 -33q0 -33 -143 -92q-139 -57 -181 -58q-24 1 -24 21z" />
<glyph unicode="&#xdb;" horiz-adv-x="1261" d="M240 412q0 70 28 213l78 399q23 119 23 184q0 22 -43 37q-45 16 -70 17q-4 0 -4 10q0 29 16 45l94 -8q47 -4 121 -4q49 0 123 6t90 6v-6q0 -49 -14 -49q-12 0 -68 -17q-51 -14 -57 -28q-27 -61 -51 -187l-82 -434q-16 -94 -16 -170q0 -154 65 -242q63 -86 197 -86 q326 0 409 451l88 475q25 141 25 180q0 23 -57 41q-51 16 -93 17q-4 0 -4 12q0 35 15 43q8 0 20 -2t34.5 -3t41.5 -3q47 -4 119 -4q51 0 73 2q12 2 37 3t37 1q23 2 41.5 4t26.5 2q0 -55 -15 -55q-12 0 -77 -17q-63 -16 -72 -28q-20 -27 -55 -197l-90 -467 q-61 -317 -193 -436q-129 -117 -373 -117q-172 0 -270 106.5t-98 305.5zM680 1495q9 9 31 25l59 41l64 47q68 49 110 92q20 16 27 16q14 0 20 -16q37 -63 66 -96q14 -16 49 -52q10 -10 25.5 -23t19.5 -18q14 -14 14 -16q-8 -39 -28 -39q-39 0 -199 117q-74 -45 -143 -78 q-80 -39 -103 -39q-20 0 -12 39z" />
<glyph unicode="&#xdc;" horiz-adv-x="1261" d="M240 412q0 70 28 213l78 399q23 119 23 184q0 22 -43 37q-45 16 -70 17q-4 0 -4 10q0 29 16 45l94 -8q47 -4 121 -4q49 0 123 6t90 6v-6q0 -49 -14 -49q-12 0 -68 -17q-51 -14 -57 -28q-27 -61 -51 -187l-82 -434q-16 -94 -16 -170q0 -154 65 -242q63 -86 197 -86 q326 0 409 451l88 475q25 141 25 180q0 23 -57 41q-51 16 -93 17q-4 0 -4 12q0 35 15 43q8 0 20 -2t34.5 -3t41.5 -3q47 -4 119 -4q51 0 73 2q12 2 37 3t37 1q23 2 41.5 4t26.5 2q0 -55 -15 -55q-12 0 -77 -17q-63 -16 -72 -28q-20 -27 -55 -197l-90 -467 q-61 -317 -193 -436q-129 -117 -373 -117q-172 0 -270 106.5t-98 305.5zM643 1556.5q8 40.5 41 69.5q35 31 72 31q35 0 59 -31q23 -29 14 -70q-10 -47 -41 -71q-35 -29 -71.5 -29t-59.5 29q-22 31 -14 71.5zM981 1556q8 43 39 70q35 31 72 31q35 0 59 -31q23 -29 14 -70 q-10 -45 -39 -71q-33 -29 -71.5 -29t-61 28.5t-12.5 71.5z" />
<glyph unicode="&#xdd;" horiz-adv-x="1185" d="M240 1272q0 37 14 45l102 -8q51 -4 131 -4q20 0 248 12v-10q0 -45 -12 -45q-33 0 -80 -20.5t-47 -63.5q0 -20 8 -43l137 -424l93 116l100 131l78 109l63 90q20 29 21 43q-3 25 -43 43.5t-80 18.5q-4 0 -4 12q0 35 12 43q18 0 81.5 -6t102.5 -6q12 0 240 12q2 -2 2 -10 q0 -45 -14 -45q-22 0 -80 -19q-57 -18 -82 -43q-18 -18 -242 -317q-218 -292 -221 -314l-55 -290q-23 -117 -23 -181q0 -16 27 -28q37 -16 53 -19l29 -4q4 0 4 -6q0 -23 -12 -47l-209 10q-2 0 -26 -1t-79 -4t-117 -5q-2 2 -2 14q0 39 15 39q25 0 69 14q47 14 58 31 q29 49 51 180l51 283q4 8 -39 141l-86 265l-43 129q-31 94 -78 129q-16 12 -57 28q-35 14 -55 15q-4 0 -4 10zM827 1442q0 14 76 78q72 59 123 94q16 4 35 4q55 0 84 -14q31 -14 31 -33q0 -34 -142 -92q-139 -57 -180 -58q-27 1 -27 21z" />
<glyph unicode="&#xde;" horiz-adv-x="1028" d="M96 25q2 27 13 26q23 0 71.5 12.5t59.5 28.5q31 68 49 178l151 777q23 141 21 178q-4 16 -47 28q-45 12 -70 13q-6 0 -2 26q2 18 14 31q186 -8 222 -8q47 0 217 8q0 -23 -2 -29q-4 -29 -13 -28q-20 0 -69 -15q-55 -16 -60 -26q-27 -63 -49 -176q-2 -4 -3 -12.5t-1 -12.5 l-4 -16q-2 -14 4 -15l4 1q4 1 10 3t13 4q37 10 63 15q43 6 90 6q66 0 121 -21q63 -23 111 -59q51 -39 73 -115q23 -78 2 -172q-25 -133 -153.5 -266t-302.5 -133q-109 0 -133 55q-8 18 4 47q3 9 6 7q55 -23 121 -23q92 0 176 84q82 82 104 201q59 307 -176 307 q-94 0 -131 -14q-27 -10 -39 -74l-108 -567q-23 -125 -21 -187q2 -14 47 -26q53 -14 66 -15q8 0 2 -28q-2 -18 -10 -29q-205 10 -215 10q-2 0 -26 -1t-80 -4t-118 -5q-6 8 -2 31z" />
<glyph unicode="&#xdf;" horiz-adv-x="989" d="M-180 -383q16 117 78 117q18 0 30 -19q16 -23 21 -43q6 -23 26 -43q18 -18 49 -18t54 35q25 37 43 94q14 45 33 123q6 25 14 75t10 56q3 15 6 24l129 691v4q0 10 -6 10h-129q-4 0 -4 4q0 16 33 53q31 33 63 33h58q8 0 20 59q10 49 35 144q20 80 59 170q35 82 113 143 q76 59 174 60q121 0 217 -60q94 -57 94 -168q0 -59 -24.5 -114.5t-73.5 -98.5q-66 -57 -74 -63l-69 -47l-47 -27l-50 -29q-12 -6 -28 -30q-16 -23 -17 -47q0 -6 5 -23q4 -14 10 -23q4 -6 8 -11t6 -9q6 -8 21 -21q10 -8 20 -18q2 -2 9 -7t16 -13q12 -10 22 -21l49 -41 q37 -31 49 -43l12.5 -13l20.5 -22q29 -27 33 -43l14 -45q8 -25 9 -57q0 -121 -82 -209q-80 -86 -199 -86q-82 0 -150 29q-65 28 -73 55q18 117 88 117q18 0 35 -23q10 -14 22 -47q8 -20 33 -45q23 -23 51 -23q55 0 88 39q37 43 45 78q10 41 10 70t-8 51q-10 29 -28 49 q-20 25 -33 37q-23 23 -43.5 39t-36.5 33q-4 2 -8 5l-11.5 9l-19.5 16l-39 35q-4 4 -7 8.5t-8 10.5t-14 14q-16 18 -22 43q-6 23 -6 47q0 66 33 101q43 47 147 122q164 123 164 308q0 66 -47 100.5t-129 34.5q-63 0 -119 -92q-57 -96 -78 -183l-22 -90l-164 -856 q-55 -301 -137 -430q-82 -131 -207 -131q-72 0 -113 28.5t-53 57.5z" />
<glyph unicode="&#xe0;" horiz-adv-x="878" d="M131 260q0 141 86 285q84 141 219 233t269 92q70 0 145 -26l-123 -631q-4 -16 -4 -51q0 -49 18 -49q12 0 29 10q14 10 35 27l31 30q8 8 14 15.5t12 13.5l12 12q2 0 15 -18q10 -14 10 -27q-29 -51 -106 -117q-84 -72 -146 -71q-31 0 -49 28.5t-18 75.5q0 41 14 107 q4 25 6 34l4 17q-23 -41 -47 -72l-65 -84q-45 -53 -84 -76q-47 -29 -86 -28q-90 0 -140 80q-51 84 -51 190zM281 301q0 -195 102 -195q72 0 160 145.5t119 297.5l38 203q-23 27 -79 26q-119 0 -229.5 -153.5t-110.5 -323.5zM377 1225q0 31 32.5 43t63.5 12t41 -10 q4 -4 31 -33l55 -57l59 -66q14 -14 27.5 -29.5l24.5 -27.5q18 -20 18 -29q0 -14 -8 -24q-8 -12 -16 -13q-31 0 -181 96q-147 97 -147 138z" />
<glyph unicode="&#xe1;" horiz-adv-x="878" d="M131 260q0 141 86 285q84 141 219 233t269 92q70 0 145 -26l-123 -631q-4 -16 -4 -51q0 -49 18 -49q12 0 29 10q14 10 35 27l31 30q8 8 14 15.5t12 13.5l12 12q2 0 15 -18q10 -14 10 -27q-29 -51 -106 -117q-84 -72 -146 -71q-31 0 -49 28.5t-18 75.5q0 41 14 107 q4 25 6 34l4 17q-23 -41 -47 -72l-65 -84q-45 -53 -84 -76q-47 -29 -86 -28q-90 0 -140 80q-51 84 -51 190zM281 301q0 -195 102 -195q72 0 160 145.5t119 297.5l38 203q-23 27 -79 26q-119 0 -229.5 -153.5t-110.5 -323.5zM522 1016q0 18 84 110q90 100 146 142 q16 10 53 10q78 0 78 -47q0 -41 -162 -141q-160 -98 -184 -99q-4 0 -11 8q-4 7 -4 17z" />
<glyph unicode="&#xe2;" horiz-adv-x="878" d="M131 260q0 141 86 285q84 141 219 233t269 92q70 0 145 -26l-123 -631q-4 -16 -4 -51q0 -49 18 -49q12 0 29 10q14 10 35 27l31 30q8 8 14 15.5t12 13.5l12 12q2 0 15 -18q10 -14 10 -27q-29 -51 -106 -117q-84 -72 -146 -71q-31 0 -49 28.5t-18 75.5q0 41 14 107 q4 25 6 34l4 17q-23 -41 -47 -72l-65 -84q-45 -53 -84 -76q-47 -29 -86 -28q-90 0 -140 80q-51 84 -51 190zM281 301q0 -195 102 -195q72 0 160 145.5t119 297.5l38 203q-23 27 -79 26q-119 0 -229.5 -153.5t-110.5 -323.5zM428 1008q-3 15 0 24l125 103q76 63 106 102 q16 16 23 16q8 0 18 -16l26.5 -43l21 -33t8.5 -12q23 -31 43 -53l39 -45q14 -14 14 -19q-10 -41 -27 -41q-34 0 -172 117q-49 -35 -124.5 -76t-88.5 -41q-8 1 -12 17z" />
<glyph unicode="&#xe3;" horiz-adv-x="878" d="M131 260q0 141 86 285q84 141 219 233t269 92q70 0 145 -26l-123 -631q-4 -16 -4 -51q0 -49 18 -49q12 0 29 10q14 10 35 27l31 30q8 8 14 15.5t12 13.5l12 12q2 0 15 -18q10 -14 10 -27q-29 -51 -106 -117q-84 -72 -146 -71q-31 0 -49 28.5t-18 75.5q0 41 14 107 q4 25 6 34l4 17q-23 -41 -47 -72l-65 -84q-45 -53 -84 -76q-47 -29 -86 -28q-90 0 -140 80q-51 84 -51 190zM281 301q0 -195 102 -195q72 0 160 145.5t119 297.5l38 203q-23 27 -79 26q-119 0 -229.5 -153.5t-110.5 -323.5zM342 1022q0 51 57.5 114.5t128.5 63.5 q53 0 131 -53t134 -53q18 0 47 22q28 22 49 43q6 6 11 12.5t8 8.5l3 2q8 0 9 -19q0 -43 -54 -108q-51 -63 -127 -64q-55 0 -133 53.5t-133 53.5q-28 0 -74 -43l-34 -34l-13 -11q-10 0 -10 12z" />
<glyph unicode="&#xe4;" horiz-adv-x="878" d="M131 260q0 141 86 285q84 141 219 233t269 92q70 0 145 -26l-123 -631q-4 -16 -4 -51q0 -49 18 -49q12 0 29 10q14 10 35 27l31 30q8 8 14 15.5t12 13.5l12 12q2 0 15 -18q10 -14 10 -27q-29 -51 -106 -117q-84 -72 -146 -71q-31 0 -49 28.5t-18 75.5q0 41 14 107 q4 25 6 34l4 17q-23 -41 -47 -72l-65 -84q-45 -53 -84 -76q-47 -29 -86 -28q-90 0 -140 80q-51 84 -51 190zM281 301q0 -195 102 -195q72 0 160 145.5t119 297.5l38 203q-23 27 -79 26q-119 0 -229.5 -153.5t-110.5 -323.5zM362 1102q0 45 29 80q27 33 74 32q31 0 51 -24 q23 -27 23 -55q0 -47 -31 -84t-78 -37q-29 0 -49 26q-19 25 -19 62zM700 1102q0 45 29 80q27 33 74 32q29 0 51 -24q23 -27 23 -55q0 -47 -31 -84t-78 -37q-29 0 -49 26q-19 25 -19 62z" />
<glyph unicode="&#xe5;" horiz-adv-x="878" d="M131 260q0 141 86 285q84 141 219 233t269 92q70 0 145 -26l-123 -631q-4 -16 -4 -51q0 -49 18 -49q12 0 29 10q14 10 35 27l31 30q8 8 14 15.5t12 13.5l12 12q2 0 15 -18q10 -14 10 -27q-29 -51 -106 -117q-84 -72 -146 -71q-31 0 -49 28.5t-18 75.5q0 41 14 107 q4 25 6 34l4 17q-23 -41 -47 -72l-65 -84q-45 -53 -84 -76q-47 -29 -86 -28q-90 0 -140 80q-51 84 -51 190zM281 301q0 -195 102 -195q72 0 160 145.5t119 297.5l38 203q-23 27 -79 26q-119 0 -229.5 -153.5t-110.5 -323.5zM485 1171q16 76 73.5 127.5t127.5 51.5 q68 0 104.5 -51.5t20.5 -127.5q-16 -78 -72 -127q-59 -53 -123 -53q-70 0 -106 53q-39 55 -25 127zM549 1171q-8 -43 14 -77q20 -33 66 -33q43 0 78 33q37 33 45 78t-14.5 77.5t-65.5 32.5q-39 0 -78 -33q-35 -29 -45 -78z" />
<glyph unicode="&#xe6;" horiz-adv-x="1118" d="M80 129q0 80 47 150q45 66 121 106q86 47 137 64q57 18 129 32q16 4 23 33l32 166q2 4 2 33q0 35 -26 59q-29 25 -68 25q-51 0 -94 -47q-45 -47 -59 -117q-12 -70 -99 -70q-51 0 -51 27q0 74 127 178q125 104 252 104q143 0 156 -110q115 109 260 108q139 0 139 -157 q0 -115 -162 -211t-272 -96q-23 0 -23 -37q0 -127 45 -195q41 -61 111 -61q43 0 84 32q45 37 72 68l28 35q3 0 6 -6q0 -2 4.5 -8.5t6.5 -10.5q4 -8 4 -18q-14 -45 -101 -131q-82 -82 -163 -82q-59 0 -123 47q-61 46 -86 111q-33 -63 -101 -115q-66 -49 -162 -49 q-70 0 -135 39q-61 36 -61 104zM238 180q0 -45 24 -71q25 -29 62 -29q72 0 114 67q41 66 58 144l16 92q-80 -14 -150 -45q-55 -25 -83 -62q-20 -27 -33 -53q-8 -18 -8 -43zM668 510q0 -12 14 -12q49 0 111 20q59 20 120 72q57 49 58 115q0 84 -51 83q-86 0 -168 -100 q-84 -102 -84 -178z" />
<glyph unicode="&#xe7;" horiz-adv-x="651" d="M135 293q0 190 148 385q147 193 297 192q94 0 174 -67q6 -25 6 -41q0 -37 -18.5 -61.5t-51.5 -24.5q-31 0 -65 55q-35 57 -70 57q-86 0 -178 -139q-92 -138 -92 -325q0 -211 131 -211q10 0 30 4l29 10q4 2 14.5 6t14.5 6q10 4 26 17q4 4 11.5 10t11.5 8q16 12 20.5 16.5 t8.5 9.5t6 7l10 10l4 4q2 0 14.5 -18.5t12.5 -26.5q-25 -43 -113 -119q-82 -70 -166 -69q-102 0 -160 82q-55 80 -55 223zM195 -258q0 20 10 29q14 10 18 10q10 0 31 -14q18 -12 35 -13q39 0 67.5 22.5t28.5 59.5q0 27 -14.5 39t-34.5 12q-18 0 -49 -14q-4 0 -11 8 q-4 6 -4 15q0 6 9 16q2 2 10 11t20 26l23.5 29.5t17.5 23.5h37l-39 -45h43q31 0 49 -23q18 -20 19 -55q0 -61 -58 -117q-61 -57 -151 -57q-35 0 -57 19v18z" />
<glyph unicode="&#xe8;" horiz-adv-x="716" d="M139 293q0 190 148 385q147 193 297 192q92 0 133 -47t41 -102q0 -88 -90 -174q-90 -88 -197 -133q-111 -47 -172 -47q-8 0 -8 -70q0 -90 34.5 -137t94.5 -47q10 0 31 4q6 2 28 10q4 2 14.5 6t14.5 6q10 4 27 17q4 4 11 10t11 8q16 12 20.5 16.5t8.5 9.5t6 7t4 5t4 5l6 4 q2 0 14.5 -18.5t12.5 -26.5q-25 -43 -113 -119q-82 -70 -166 -69q-102 0 -159 82q-56 80 -56 223zM291 1225q0 31 32.5 43t63.5 12t41 -10q4 -4 31 -33l55 -57l59 -66q14 -14 27.5 -29.5l24.5 -27.5q18 -20 18 -29q0 -14 -8 -24q-8 -12 -17 -13q-31 0 -180 96 q-147 97 -147 138zM303 444q0 -8 8 -8q74 0 188.5 96.5t114.5 194.5q0 61 -51 61q-92 0 -176 -135q-84 -137 -84 -209z" />
<glyph unicode="&#xe9;" horiz-adv-x="716" d="M139 293q0 190 148 385q147 193 297 192q92 0 133 -47t41 -102q0 -88 -90 -174q-90 -88 -197 -133q-111 -47 -172 -47q-8 0 -8 -70q0 -90 34.5 -137t94.5 -47q10 0 31 4q6 2 28 10q4 2 14.5 6t14.5 6q10 4 27 17q4 4 11 10t11 8q16 12 20.5 16.5t8.5 9.5t6 7t4 5t4 5l6 4 q2 0 14.5 -18.5t12.5 -26.5q-25 -43 -113 -119q-82 -70 -166 -69q-102 0 -159 82q-56 80 -56 223zM303 444q0 -8 8 -8q74 0 188.5 96.5t114.5 194.5q0 61 -51 61q-92 0 -176 -135q-84 -137 -84 -209zM604 1016q0 18 84 110q90 100 146 142q16 10 53 10q78 0 78 -47 q0 -41 -162 -141q-160 -98 -185 -99q-4 0 -10 8q-4 7 -4 17z" />
<glyph unicode="&#xea;" horiz-adv-x="716" d="M139 293q0 190 148 385q147 193 297 192q92 0 133 -47t41 -102q0 -88 -90 -174q-90 -88 -197 -133q-111 -47 -172 -47q-8 0 -8 -70q0 -90 34.5 -137t94.5 -47q10 0 31 4q6 2 28 10q4 2 14.5 6t14.5 6q10 4 27 17q4 4 11 10t11 8q16 12 20.5 16.5t8.5 9.5t6 7t4 5t4 5l6 4 q2 0 14.5 -18.5t12.5 -26.5q-25 -43 -113 -119q-82 -70 -166 -69q-102 0 -159 82q-56 80 -56 223zM303 444q0 -8 8 -8q74 0 188.5 96.5t114.5 194.5q0 61 -51 61q-92 0 -176 -135q-84 -137 -84 -209zM414 1008q-3 15 0 24l125 103q76 63 106 102q16 16 23 16q8 0 18 -16 l26.5 -43l20.5 -33t8 -12q23 -31 43 -53l39 -45q14 -14 15 -19q-10 -41 -27 -41q-34 0 -172 117q-49 -35 -125 -76t-88 -41q-8 1 -12 17z" />
<glyph unicode="&#xeb;" horiz-adv-x="716" d="M139 293q0 190 148 385q147 193 297 192q92 0 133 -47t41 -102q0 -88 -90 -174q-90 -88 -197 -133q-111 -47 -172 -47q-8 0 -8 -70q0 -90 34.5 -137t94.5 -47q10 0 31 4q6 2 28 10q4 2 14.5 6t14.5 6q10 4 27 17q4 4 11 10t11 8q16 12 20.5 16.5t8.5 9.5t6 7t4 5t4 5l6 4 q2 0 14.5 -18.5t12.5 -26.5q-25 -43 -113 -119q-82 -70 -166 -69q-102 0 -159 82q-56 80 -56 223zM285 1102q0 45 28 80q27 33 72 32q33 0 53 -24q23 -27 23 -55q0 -45 -33 -84q-31 -37 -76 -37q-31 0 -51 26q-16 23 -16 62zM303 444q0 -8 8 -8q74 0 188.5 96.5t114.5 194.5 q0 61 -51 61q-92 0 -176 -135q-84 -137 -84 -209zM623 1102q0 45 28 80q27 33 74 32q29 0 51 -24q23 -27 23 -55q0 -47 -31 -84t-78 -37q-31 0 -51 26q-16 23 -16 62z" />
<glyph unicode="&#xec;" horiz-adv-x="430" d="M-4 651q18 52 86 135q68 84 133 84q115 0 115 -145q0 -55 -45 -287q-47 -242 -47 -260q0 -74 45 -74q20 0 49 35q20 25 53 74q25 37 27 37q3 0 6 -6q0 -2 3 -8.5l5 -10.5q6 -12 6 -18q-18 -52 -86 -135q-68 -84 -133 -84q-113 0 -113 145q0 63 15 123l71 360q6 43 7 56 q0 82 -58 82q-20 0 -67 -72l-50 -74q-3 0 -6 6q-2 4 -5 8.5t-5 10.5q-6 12 -6 18zM16 1225q0 31 33 43t66 12q29 0 39 -10q4 -4 30 -33q12 -14 27.5 -27.5t30.5 -29.5q16 -16 30.5 -35t26.5 -31q14 -14 27.5 -29.5l23.5 -27.5q20 -23 21 -29q0 -10 -11 -24q-8 -12 -16 -13 q-31 0 -180 96q-148 97 -148 138z" />
<glyph unicode="&#xed;" horiz-adv-x="430" d="M-4 651q18 52 86 135q68 84 133 84q115 0 115 -145q0 -55 -45 -287q-47 -242 -47 -260q0 -74 45 -74q20 0 49 35q20 25 53 74q25 37 27 37q3 0 6 -6q0 -2 3 -8.5l5 -10.5q6 -12 6 -18q-18 -52 -86 -135q-68 -84 -133 -84q-113 0 -113 145q0 63 15 123l71 360q6 43 7 56 q0 82 -58 82q-20 0 -67 -72l-50 -74q-3 0 -6 6q-2 4 -5 8.5t-5 10.5q-6 12 -6 18zM133 1016q0 15 86 110q90 100 146 142q16 10 51 10q78 0 78 -47q0 -43 -160 -141.5t-187 -98.5q-2 0 -8 8.5t-6 16.5z" />
<glyph unicode="&#xee;" horiz-adv-x="430" d="M-4 651q18 52 86 135q68 84 133 84q115 0 115 -145q0 -55 -45 -287q-47 -242 -47 -260q0 -74 45 -74q20 0 49 35q20 25 53 74q25 37 27 37q3 0 6 -6q0 -2 3 -8.5l5 -10.5q6 -12 6 -18q-18 -52 -86 -135q-68 -84 -133 -84q-113 0 -113 145q0 63 15 123l71 360q6 43 7 56 q0 82 -58 82q-20 0 -67 -72l-50 -74q-3 0 -6 6q-2 4 -5 8.5t-5 10.5q-6 12 -6 18zM55 1008q-3 15 0 24l125 103q82 68 109 102q16 16 20 16q8 0 19 -16q55 -86 57 -88l41 -53q14 -16 25.5 -27.5t15.5 -17.5q12 -12 12 -19q-10 -41 -24 -41q-34 0 -172 117q-49 -35 -125 -76 t-90 -41q-9 1 -13 17z" />
<glyph unicode="&#xef;" horiz-adv-x="430" d="M-4 651q18 52 86 135q68 84 133 84q115 0 115 -145q0 -55 -45 -287q-47 -242 -47 -260q0 -74 45 -74q20 0 49 35q20 25 53 74q25 37 27 37q3 0 6 -6q0 -2 3 -8.5l5 -10.5q6 -12 6 -18q-18 -52 -86 -135q-68 -84 -133 -84q-113 0 -113 145q0 63 15 123l71 360q6 43 7 56 q0 82 -58 82q-20 0 -67 -72l-50 -74q-3 0 -6 6q-2 4 -5 8.5t-5 10.5q-6 12 -6 18zM86 1102q0 45 29 80q27 33 73 32q29 0 52 -24q23 -27 22 -55q0 -47 -30.5 -84t-77.5 -37q-29 0 -50 26q-18 25 -18 62zM352 1102q0 45 29 80q27 33 74 32q29 0 51 -24q23 -27 22 -55 q0 -47 -30.5 -84t-77.5 -37q-29 0 -49 26q-19 25 -19 62z" />
<glyph unicode="&#xf0;" horiz-adv-x="768" d="M143 434q33 170 156 307q120 135 270 136q98 0 138 -64q10 330 -342 514q4 14 14 31q12 18 20 18q231 -66 362.5 -297t63.5 -579q-43 -223 -157.5 -368.5t-247.5 -145.5q-174 0 -242 135t-35 313zM299 449q-29 -152 8 -267q37 -119 115 -119q174 0 246 371q31 143 4 230 q-43 133 -137 133q-84 0 -146 -99q-57 -91 -90 -249zM371 1081l499 328q31 -51 21 -61l-504 -330q-28 51 -16 63z" />
<glyph unicode="&#xf1;" horiz-adv-x="983" d="M170 698q29 45 100 107q78 66 129 65q31 0 50 -28q20 -31 20 -76t-12 -107l-35 -184q16 35 86 125q66 86 164 178t155 92q100 0 101 -133q0 -84 -29 -217l-65 -307q-6 -25 -7 -51q0 -49 21 -49q12 0 29 10q14 10 34 27l31 30q8 8 14.5 15.5t12.5 13.5l12 12q2 0 14 -18 q10 -14 11 -27q-27 -47 -109 -117q-84 -72 -143 -71q-31 0 -49.5 28.5t-18.5 75.5q0 37 14 107l70 329q14 59 14 109q0 86 -39 86q-66 0 -204 -182q-137 -180 -179 -385l-34 -156q-23 -8 -62 -8q-41 0 -67 8l116 616q10 78 11 80q0 49 -21 49q-12 0 -22 -8q-4 -4 -13.5 -11 t-13.5 -11l-27 -27q-12 -12 -17 -18l-15 -19q-8 0 -17 19q-10 20 -10 28zM379 1022q0 53 55 115q57 63 129 63q55 0 133 -53t131 -53q20 0 50 22q28 22 49 43q6 6 11 12.5t8 8.5l3 2q8 0 8 -19q0 -43 -53 -108q-51 -63 -127 -64q-55 0 -133 53.5t-133 53.5q-28 0 -74 -43 l-49 -45q-8 0 -8 12z" />
<glyph unicode="&#xf2;" horiz-adv-x="823" d="M135 291q0 205 146 393q143 186 294 186q121 0 184.5 -81.5t63.5 -227.5q0 -207 -143 -389t-297 -182q-119 0 -184 78q-64 76 -64 223zM264 1225q0 31 33 43q35 12 65 12q29 0 39 -10q4 -4 31 -33q12 -14 27.5 -27.5t29.5 -29.5l60 -66l49 -57q20 -23 20 -29 q0 -10 -10 -24q-10 -12 -16 -13q-31 0 -180 96q-148 97 -148 138zM289 315q0 -115 37 -180q37 -63 92 -63q100 0 178 157q76 154 76 318q0 113 -33 178q-33 63 -86 63q-98 0 -182 -157q-82 -156 -82 -316z" />
<glyph unicode="&#xf3;" horiz-adv-x="823" d="M135 291q0 205 146 393q143 186 294 186q121 0 184.5 -81.5t63.5 -227.5q0 -207 -143 -389t-297 -182q-119 0 -184 78q-64 76 -64 223zM289 315q0 -115 37 -180q37 -63 92 -63q100 0 178 157q76 154 76 318q0 113 -33 178q-33 63 -86 63q-98 0 -182 -157 q-82 -156 -82 -316zM463 1016q0 18 84 110q90 100 145 142q16 10 51 10q78 0 78 -47q0 -43 -159.5 -141.5t-186.5 -98.5q-2 0 -8 8q-4 7 -4 17z" />
<glyph unicode="&#xf4;" horiz-adv-x="823" d="M135 291q0 205 146 393q143 186 294 186q121 0 184.5 -81.5t63.5 -227.5q0 -207 -143 -389t-297 -182q-119 0 -184 78q-64 76 -64 223zM289 315q0 -115 37 -180q37 -63 92 -63q100 0 178 157q76 154 76 318q0 113 -33 178q-33 63 -86 63q-98 0 -182 -157 q-82 -156 -82 -316zM387 1008q-3 15 0 24l125 103q82 68 109 102q16 16 20 16q8 0 18 -16q55 -86 58 -88q23 -31 43 -53l39 -45q12 -12 12 -19q-10 -41 -25 -41q-34 0 -172 117q-49 -35 -124.5 -76t-90.5 -41q-8 1 -12 17z" />
<glyph unicode="&#xf5;" horiz-adv-x="823" d="M135 291q0 205 146 393q143 186 294 186q121 0 184.5 -81.5t63.5 -227.5q0 -207 -143 -389t-297 -182q-119 0 -184 78q-64 76 -64 223zM279 1022q0 51 57 114.5t129 63.5q53 0 131 -53t131 -53q20 0 49 22q28 22 49 43q6 6 11.5 12.5t8.5 8.5l3 2q8 0 8 -19 q0 -43 -53 -108q-51 -63 -127 -64q-55 0 -133 53.5t-133 53.5q-28 0 -74 -43q-16 -14 -34 -34q-11 -12 -13 -11q-10 0 -10 12zM289 315q0 -115 37 -180q37 -63 92 -63q100 0 178 157q76 154 76 318q0 113 -33 178q-33 63 -86 63q-98 0 -182 -157q-82 -156 -82 -316z" />
<glyph unicode="&#xf6;" horiz-adv-x="823" d="M135 291q0 205 146 393q143 186 294 186q121 0 184.5 -81.5t63.5 -227.5q0 -207 -143 -389t-297 -182q-119 0 -184 78q-64 76 -64 223zM289 315q0 -115 37 -180q37 -63 92 -63q100 0 178 157q76 154 76 318q0 113 -33 178q-33 63 -86 63q-98 0 -182 -157 q-82 -156 -82 -316zM330 1102q0 45 28 80q27 33 74 32q31 0 51 -24q23 -27 23 -55q0 -47 -31 -84t-78 -37q-29 0 -49 26q-18 25 -18 62zM668 1102q0 45 28 80q27 33 74 32q29 0 51 -24q23 -27 23 -55q0 -47 -31 -84t-78 -37q-29 0 -49 26q-18 25 -18 62z" />
<glyph unicode="&#xf7;" horiz-adv-x="915" d="M0 449q0 51 43 106h860q8 0 8 -16q0 -66 -41 -109h-860q-10 1 -10 19zM297 96q0 43 28.5 78t71.5 35q29 0 52 -25q20 -23 20 -57q0 -49 -28.5 -84t-75.5 -35q-31 0 -52 27q-16 22 -16 61zM444 868q0 43 29 78t74 35q31 0 51 -25q23 -27 23 -57q0 -47 -31 -84 q-29 -35 -78 -35q-29 0 -49 27q-19 24 -19 61z" />
<glyph unicode="&#xf8;" horiz-adv-x="780" d="M137 326q0 215 131 379q133 166 287 165q119 0 188.5 -94t69.5 -241q0 -213 -129 -379t-287 -166q-117 0 -186 94q-74 101 -74 242zM156 41l616 797q25 -12 34 -20.5t5 -16.5l-616 -801q-49 25 -39 41zM287 344q0 -123 39 -199q41 -78 104 -77q100 0 168 147t68 303 q0 123 -39 199q-41 78 -105 78q-100 0 -167.5 -147.5t-67.5 -303.5z" />
<glyph unicode="&#xf9;" horiz-adv-x="942" d="M150 698q27 43 102 107q78 66 129 65q31 0 49 -28q18 -27 19 -76q0 -53 -13 -107l-69 -329q-14 -55 -15 -109q0 -86 37 -86q27 0 82 49q53 47 109 121q51 68 106 182q49 100 72 215l35 156q25 8 61 8q41 0 68 -8l-123 -645q-6 -25 -6 -51q0 -49 18 -49q16 0 31 10 q4 2 32 27l31 30q8 8 14.5 15.5t12.5 13.5l12 12q2 0 14.5 -18.5t12.5 -26.5q-27 -47 -109 -117q-84 -72 -143 -71q-33 0 -51.5 28.5t-18.5 75.5q0 37 15 107l36 184q-27 -49 -82 -127q-45 -63 -157 -176q-92 -92 -154 -92q-98 0 -98 133q0 96 27 217l61 278q8 63 8 80 q0 49 -18 49q-12 0 -23 -8l-28 -22l-27 -27q-12 -12 -17 -18l-16 -19q-8 0 -16 19q-10 20 -10 28zM295 1225q0 31 32.5 43t63.5 12t41 -10q4 -4 31 -33l55 -57l60 -66q14 -14 27 -29.5l24 -27.5q18 -20 18 -29q0 -14 -8 -24q-8 -12 -16 -13q-31 0 -181 96q-147 97 -147 138z " />
<glyph unicode="&#xfa;" horiz-adv-x="942" d="M150 698q27 43 102 107q78 66 129 65q31 0 49 -28q18 -27 19 -76q0 -53 -13 -107l-69 -329q-14 -55 -15 -109q0 -86 37 -86q27 0 82 49q53 47 109 121q51 68 106 182q49 100 72 215l35 156q25 8 61 8q41 0 68 -8l-123 -645q-6 -25 -6 -51q0 -49 18 -49q16 0 31 10 q4 2 32 27l31 30q8 8 14.5 15.5t12.5 13.5l12 12q2 0 14.5 -18.5t12.5 -26.5q-27 -47 -109 -117q-84 -72 -143 -71q-33 0 -51.5 28.5t-18.5 75.5q0 37 15 107l36 184q-27 -49 -82 -127q-45 -63 -157 -176q-92 -92 -154 -92q-98 0 -98 133q0 96 27 217l61 278q8 63 8 80 q0 49 -18 49q-12 0 -23 -8l-28 -22l-27 -27q-12 -12 -17 -18l-16 -19q-8 0 -16 19q-10 20 -10 28zM512 1016q0 15 86 110q94 104 143 142q16 10 54 10q78 0 77 -47q0 -41 -161 -141q-160 -98 -185 -99q-4 0 -10 8q-4 7 -4 17z" />
<glyph unicode="&#xfb;" horiz-adv-x="942" d="M150 698q27 43 102 107q78 66 129 65q31 0 49 -28q18 -27 19 -76q0 -53 -13 -107l-69 -329q-14 -55 -15 -109q0 -86 37 -86q27 0 82 49q53 47 109 121q51 68 106 182q49 100 72 215l35 156q25 8 61 8q41 0 68 -8l-123 -645q-6 -25 -6 -51q0 -49 18 -49q16 0 31 10 q4 2 32 27l31 30q8 8 14.5 15.5t12.5 13.5l12 12q2 0 14.5 -18.5t12.5 -26.5q-27 -47 -109 -117q-84 -72 -143 -71q-33 0 -51.5 28.5t-18.5 75.5q0 37 15 107l36 184q-27 -49 -82 -127q-45 -63 -157 -176q-92 -92 -154 -92q-98 0 -98 133q0 96 27 217l61 278q8 63 8 80 q0 49 -18 49q-12 0 -23 -8l-28 -22l-27 -27q-12 -12 -17 -18l-16 -19q-8 0 -16 19q-10 20 -10 28zM334 1008q-3 15 0 24l125 103q76 63 106 102q16 16 23 16q8 0 18 -16l26.5 -43l20.5 -33t9 -12q23 -31 43 -53l38 -45q14 -14 15 -19q-10 -41 -27 -41q-34 0 -172 117 q-49 -35 -125 -76t-88 -41q-8 1 -12 17z" />
<glyph unicode="&#xfc;" horiz-adv-x="942" d="M150 698q27 43 102 107q78 66 129 65q31 0 49 -28q18 -27 19 -76q0 -53 -13 -107l-69 -329q-14 -55 -15 -109q0 -86 37 -86q27 0 82 49q53 47 109 121q51 68 106 182q49 100 72 215l35 156q25 8 61 8q41 0 68 -8l-123 -645q-6 -25 -6 -51q0 -49 18 -49q16 0 31 10 q4 2 32 27l31 30q8 8 14.5 15.5t12.5 13.5l12 12q2 0 14.5 -18.5t12.5 -26.5q-27 -47 -109 -117q-84 -72 -143 -71q-33 0 -51.5 28.5t-18.5 75.5q0 37 15 107l36 184q-27 -49 -82 -127q-45 -63 -157 -176q-92 -92 -154 -92q-98 0 -98 133q0 96 27 217l61 278q8 63 8 80 q0 49 -18 49q-12 0 -23 -8l-28 -22l-27 -27q-12 -12 -17 -18l-16 -19q-8 0 -16 19q-10 20 -10 28zM369 1102q0 45 28 80q27 33 72 32q31 0 53 -24q23 -27 23 -55q0 -45 -33 -84q-31 -37 -76 -37q-31 0 -51 26q-16 23 -16 62zM707 1102q0 45 28 80q27 33 74 32q31 0 51 -24 q23 -27 23 -55q0 -47 -31 -84t-78 -37q-29 0 -49 26q-18 25 -18 62z" />
<glyph unicode="&#xfd;" horiz-adv-x="956" d="M-53 -385q0 63 45 88q43 -25 135 -25q164 0 287 179q47 70 47 268q0 96 -6 194q-6 96 -19 199q-12 98 -37 164q-25 63 -59 63q-18 0 -53 -32q-18 -16 -58 -62l-14 21q-10 16 -10 26q12 31 94 101q84 72 133 71q57 0 98 -102q37 -94 54 -266q15 -166 18 -258 q4 -123 4 -189q82 102 156 246q78 152 78 268q0 119 -49 215q25 86 100 86q88 0 88 -157q0 -221 -172 -506q-174 -287 -389 -479q-219 -195 -352 -195q-52 0 -86 25q-33 24 -33 57zM639 1016q0 18 84 110q90 100 145 142q16 10 52 10q78 0 77 -47q0 -43 -159.5 -141.5 t-186.5 -98.5q-2 0 -8 8q-4 7 -4 17z" />
<glyph unicode="&#xfe;" horiz-adv-x="944" d="M-37 -455l10 58q23 0 60 14q39 14 45 29q29 66 51 180l244 1251q18 94 18 156q-2 23 -53 29q-14 2 -28.5 3t-19.5 2l-5 1l4 12q0 3 6 18q6 14 10 15q170 18 256 76h4q6 0 12.5 -12.5t6.5 -20.5q-33 -57 -56 -174l-73 -383l-2 -4v-7q0 -2 2 -2q125 86 202 91 q141 0 213 -84q70 -82 70 -215q0 -213 -147 -410q-150 -199 -347 -199q-88 0 -143 31q-3 -9 -6 -25l-31 -149q-27 -145 -26 -170v-10q0 -12 34 -29q31 -14 50 -14q2 0 2 -9q0 -25 -11 -49q-6 0 -25.5 3t-49.5 6q-37 4 -95 4q-61 0 -100 -4q-16 -2 -34.5 -3.5t-30 -3.5 t-17.5 -2zM332 158q0 -47 53 -76t119 -29q82 0 145 86q68 90 94 195q29 111 29 196q0 231 -217 232q-43 0 -82 -31q-37 -29 -47 -80l-92 -477q-2 -4 -2 -16z" />
<glyph unicode="&#xff;" horiz-adv-x="956" d="M-53 -385q0 63 45 88q43 -25 135 -25q164 0 287 179q47 70 47 268q0 96 -6 194q-6 96 -19 199q-12 98 -37 164q-25 63 -59 63q-18 0 -53 -32q-18 -16 -58 -62l-14 21q-10 16 -10 26q12 31 94 101q84 72 133 71q57 0 98 -102q37 -94 54 -266q15 -166 18 -258 q4 -123 4 -189q82 102 156 246q78 152 78 268q0 119 -49 215q25 86 100 86q88 0 88 -157q0 -221 -172 -506q-174 -287 -389 -479q-219 -195 -352 -195q-52 0 -86 25q-33 24 -33 57zM367 1102q0 45 28 80q27 33 74 32q31 0 51 -24q23 -27 23 -55q0 -47 -31 -84t-78 -37 q-29 0 -49 26q-18 25 -18 62zM705 1102q0 45 28 80q27 33 74 32q29 0 51 -24q23 -27 23 -55q0 -47 -31 -84t-78 -37q-29 0 -49 26q-18 25 -18 62z" />
<glyph unicode="&#x100;" horiz-adv-x="1210" d="M4 10q0 37 14 37q22 0 62 12q37 12 53 31q53 61 123 189l553 991q29 53 78 53q8 0 14 -2l166 -1057l25 -143q6 -31 51 -51q49 -23 65 -23q4 0 4 -8q0 -20 -10 -45l-209 10q-47 0 -69 -2q-12 -2 -37 -3t-37 -1t-35.5 -1t-34.5 -3q-2 2 -2 12q0 41 15 41q18 0 55 12.5 t47 28.5q12 25 12 94q0 49 -35 295v6l-4 4q-4 4 -8 5q-2 0 -5 1t-7 1q-2 0 -10.5 1t-14.5 1q-4 0 -16 1t-21 1h-49h-67q-27 0 -187 -11q-4 0 -53 -79q-47 -76 -94 -175q-45 -92 -45 -122q0 -25 26 -39q33 -18 52 -21q29 -4 30 -4q4 0 4 -10q0 -18 -10 -43q-55 2 -102 5 t-67 4l-19 1q-49 0 -68 -2q-10 -2 -31.5 -3t-31.5 -1l-66 -4q-4 4 -4 16zM543 602q0 -4 2 -4q31 -2 151 -2q72 0 150 4q8 0 8 8q0 10 -12 94l-14.5 86.5t-16.5 108.5l-23 156q-245 -447 -245 -451zM666 1475q0 4 14 43q12 35 29 34h462q10 0 9 -14q-8 -29 -27 -68 q-6 -12 -16 -14h-461l-8 4q-4 9 -2 15z" />
<glyph unicode="&#x101;" horiz-adv-x="878" d="M131 260q0 141 86 285q84 141 219 233t269 92q70 0 145 -26l-123 -631q-4 -16 -4 -51q0 -49 18 -49q12 0 29 10q14 10 35 27l31 30q8 8 14 15.5t12 13.5l12 12q2 0 15 -18q10 -14 10 -27q-29 -51 -106 -117q-84 -72 -146 -71q-31 0 -49 28.5t-18 75.5q0 41 14 107 q4 25 6 34l4 17q-23 -41 -47 -72l-65 -84q-45 -53 -84 -76q-47 -29 -86 -28q-90 0 -140 80q-51 84 -51 190zM281 301q0 -195 102 -195q72 0 160 145.5t119 297.5l38 203q-23 27 -79 26q-119 0 -229.5 -153.5t-110.5 -323.5zM498 995q-2 6 0 15q0 2 14 41q12 33 25 32h385 q10 0 8 -14q-2 -16 -25 -63l-14 -15h-385z" />
<glyph unicode="&#x102;" horiz-adv-x="1210" d="M4 10q0 37 14 37q22 0 62 12q37 12 53 31q53 61 123 189l553 991q29 53 78 53q8 0 14 -2l166 -1057l25 -143q6 -31 51 -51q49 -23 65 -23q4 0 4 -8q0 -20 -10 -45l-209 10q-47 0 -69 -2q-12 -2 -37 -3t-37 -1t-35.5 -1t-34.5 -3q-2 2 -2 12q0 41 15 41q18 0 55 12.5 t47 28.5q12 25 12 94q0 49 -35 295v6l-4 4q-4 4 -8 5q-2 0 -5 1t-7 1q-2 0 -10.5 1t-14.5 1q-4 0 -16 1t-21 1h-49h-67q-27 0 -187 -11q-4 0 -53 -79q-47 -76 -94 -175q-45 -92 -45 -122q0 -25 26 -39q33 -18 52 -21q29 -4 30 -4q4 0 4 -10q0 -18 -10 -43q-55 2 -102 5 t-67 4l-19 1q-49 0 -68 -2q-10 -2 -31.5 -3t-31.5 -1l-66 -4q-4 4 -4 16zM543 602q0 -4 2 -4q31 -2 151 -2q72 0 150 4q8 0 8 8q0 10 -12 94l-14.5 86.5t-16.5 108.5l-23 156q-245 -447 -245 -451zM750 1659l1 2q1 2 1 4v6q2 8 16 19q10 8 23 8q6 0 6 -6q4 -66 39 -105 q37 -39 94 -39q59 0 110 39q52 40 80 105q0 6 8 6q12 0 21 -8q9 -9 6 -19l-2 -6q-2 -4 -2 -8q-31 -86 -96 -141q-70 -59 -143.5 -59.5t-118.5 56.5q-47 60 -43 146z" />
<glyph unicode="&#x103;" horiz-adv-x="878" d="M131 260q0 141 86 285q84 141 219 233t269 92q70 0 145 -26l-123 -631q-4 -16 -4 -51q0 -49 18 -49q12 0 29 10q14 10 35 27l31 30q8 8 14 15.5t12 13.5l12 12q2 0 15 -18q10 -14 10 -27q-29 -51 -106 -117q-84 -72 -146 -71q-31 0 -49 28.5t-18 75.5q0 41 14 107 q4 25 6 34l4 17q-23 -41 -47 -72l-65 -84q-45 -53 -84 -76q-47 -29 -86 -28q-90 0 -140 80q-51 84 -51 190zM281 301q0 -195 102 -195q72 0 160 145.5t119 297.5l38 203q-23 27 -79 26q-119 0 -229.5 -153.5t-110.5 -323.5zM543 1194v8l2 6q2 8 14 17q14 10 23 10q6 0 6 -6 q4 -66 39 -105q37 -41 96 -41q55 0 108 41q52 40 80 105q0 6 9 6q10 0 20 -10.5t8 -16.5l-2 -8q-2 -4 -2 -8q-31 -83 -98 -141q-70 -59 -141 -60q-74 0 -121 60q-45 55 -41 143z" />
<glyph unicode="&#x104;" horiz-adv-x="1282" d="M-6 10q0 37 14 37q22 0 62 12.5t55 30.5q49 55 121 189l553 991q29 53 78 53q10 0 16 -2l166 -1057l11 -69.5l8 -52t3 -21.5q6 -31 52 -51q49 -23 65 -23q4 0 4 -8q0 -20 -10 -45q-35 0 -59 2q-12 0 -34 1t-32 3q-18 2 -29 2q-102 0 -223 -100.5t-121 -180.5 q0 -63 62 -63q43 0 80 18q39 18 61 39q22 18 25 19q12 -4 2 -29q-10 -27 -15 -31q-120 -135 -221 -135q-45 0 -73.5 33t-28.5 72q0 74 65 170q55 82 152 163q61 51 84 82q20 27 20 68q0 23 -45 350q0 4 -6 10q-10 10 -197 11q-74 0 -180 -6l-6 -5l-49 -81q-53 -88 -96 -173 q-47 -92 -47 -122q0 -25 26 -39q33 -18 51 -21q29 -4 31 -4q4 0 4 -10q0 -25 -8 -43q-53 2 -100 5t-67.5 4t-22.5 1q-49 0 -68 -2q-10 -2 -31.5 -3t-32.5 -1l-65 -4q-4 4 -4 16zM532 602q0 -4 3 -4q31 -2 151 -2q72 0 150 4q8 0 8 8q0 10 -13 94l-14 86.5t-16 108.5l-23 156 q-246 -447 -246 -451z" />
<glyph unicode="&#x105;" horiz-adv-x="886" d="M115 197q0 115 61.5 235.5t153.5 218.5q94 100 188 158q100 61 176 61q119 0 148 -28l-119 -629q-2 -6 -2 -35q0 -74 43 -74q20 0 49 35q31 37 55.5 74t26.5 37t4 -6q0 -2 4 -8.5t6 -10.5q4 -8 4 -18q-28 -71 -122 -178l-11.5 -11.5l-30 -29l-42.5 -39.5 q-84 -80 -115 -127q-37 -55 -37 -101q0 -63 61 -63q43 0 80 18q39 18 62 39q22 18 24 19q12 -4 2 -29q-10 -27 -14 -31q-120 -135 -221 -135q-43 0 -74 31q-29 29 -29 70q0 72 66 170t154 186q-39 6 -61.5 45t-22.5 92q0 12 8 82l6 53l-2 4l-4 -4q-43 -88 -131 -182 q-94 -100 -176 -100q-94 0 -131 53q-37 52 -37 158zM266 242q0 -45 2 -60q4 -27 23 -51q20 -27 63 -27q66 0 166 150q102 152 129 287l41 204v13q0 4 1 8l1 4q0 25 -12 25q-129 0 -272 -197q-142 -193 -142 -356z" />
<glyph unicode="&#x106;" horiz-adv-x="1159" d="M121 535q0 135 57.5 274t157.5 258q102 121 242 193q143 74 296 73q133 0 426 -90l-20 -126l-15 -88t-5 -34q-6 -29 -48 -28q-16 0 -22 6q0 37 -2 53q-4 27 -21 70q-18 45 -49 75.5t-96 55.5q-59 23 -158 22q-209 0 -385 -219q-178 -221 -178 -512q0 -190 104.5 -317 t294.5 -127q145 0 252 65q49 31 86 74t46 55l28 37q6 0 25 -20q16 -20 14 -29q-90 -174 -98 -182q-33 -35 -156 -60q-137 -27 -256 -26q-238 0 -379 164t-141 383zM868 1442q0 14 76 78q72 59 123 94q16 4 33 4q57 0 86 -14q31 -14 31 -33q0 -33 -144 -92q-139 -57 -178 -58 q-27 1 -27 21z" />
<glyph unicode="&#x107;" horiz-adv-x="651" d="M135 293q0 190 148 385q147 193 297 192q94 0 174 -67q6 -25 6 -41q0 -37 -18.5 -61.5t-51.5 -24.5q-31 0 -65 55q-35 57 -70 57q-86 0 -178 -139q-92 -138 -92 -325q0 -211 131 -211q10 0 30 4l29 10q4 2 14.5 6t14.5 6q10 4 26 17q4 4 11.5 10t11.5 8q16 12 20.5 16.5 t8.5 9.5t6 7l10 10l4 4q2 0 14.5 -18.5t12.5 -26.5q-25 -43 -113 -119q-82 -70 -166 -69q-102 0 -160 82q-55 80 -55 223zM606 1016q0 18 84 110q90 100 146 142q16 10 53 10q78 0 78 -47q0 -41 -162 -141q-160 -98 -184 -99q-4 0 -11 8q-4 7 -4 17z" />
<glyph unicode="&#x108;" horiz-adv-x="1159" d="M121 535q0 135 57.5 274t157.5 258q102 121 242 193q143 74 296 73q133 0 426 -90l-20 -126l-15 -88t-5 -34q-6 -29 -48 -28q-16 0 -22 6q0 37 -2 53q-4 27 -21 70q-18 45 -49 75.5t-96 55.5q-59 23 -158 22q-209 0 -385 -219q-178 -221 -178 -512q0 -190 104.5 -317 t294.5 -127q145 0 252 65q49 31 86 74t46 55l28 37q6 0 25 -20q16 -20 14 -29q-90 -174 -98 -182q-33 -35 -156 -60q-137 -27 -256 -26q-238 0 -379 164t-141 383zM692 1495q9 9 31 25l59 41l64 47q68 49 110 92q20 16 25 16q16 0 23 -16q41 -70 63 -96l51 -52 q10 -10 24.5 -23t18.5 -18l17 -16q-8 -39 -29 -39q-39 0 -199 117q-74 -45 -143 -78q-80 -39 -102 -39q-21 0 -13 39z" />
<glyph unicode="&#x109;" horiz-adv-x="651" d="M135 293q0 190 148 385q147 193 297 192q94 0 174 -67q6 -25 6 -41q0 -37 -18.5 -61.5t-51.5 -24.5q-31 0 -65 55q-35 57 -70 57q-86 0 -178 -139q-92 -138 -92 -325q0 -211 131 -211q10 0 30 4l29 10q4 2 14.5 6t14.5 6q10 4 26 17q4 4 11.5 10t11.5 8q16 12 20.5 16.5 t8.5 9.5t6 7l10 10l4 4q2 0 14.5 -18.5t12.5 -26.5q-25 -43 -113 -119q-82 -70 -166 -69q-102 0 -160 82q-55 80 -55 223zM416 1008q-3 15 0 24l125 103q76 63 106 102q16 16 23 16q8 0 18 -16l26.5 -43l20.5 -33t8 -12q23 -31 43 -53l39 -45q14 -14 15 -19q-10 -41 -27 -41 q-34 0 -172 117q-49 -35 -125 -76t-88 -41q-8 1 -12 17z" />
<glyph unicode="&#x10a;" horiz-adv-x="1159" d="M121 535q0 135 57.5 274t157.5 258q102 121 242 193q143 74 296 73q133 0 426 -90l-20 -126l-15 -88t-5 -34q-6 -29 -48 -28q-16 0 -22 6q0 37 -2 53q-4 27 -21 70q-18 45 -49 75.5t-96 55.5q-59 23 -158 22q-209 0 -385 -219q-178 -221 -178 -512q0 -190 104.5 -317 t294.5 -127q145 0 252 65q49 31 86 74t46 55l28 37q6 0 25 -20q16 -20 14 -29q-90 -174 -98 -182q-33 -35 -156 -60q-137 -27 -256 -26q-238 0 -379 164t-141 383zM823 1556q10 43 41 70q37 31 74 31q35 0 59 -31q20 -27 13 -70q-10 -45 -39 -71q-33 -29 -74 -29 q-37 0 -59 29q-23 30 -15 71z" />
<glyph unicode="&#x10b;" horiz-adv-x="651" d="M135 293q0 190 148 385q147 193 297 192q94 0 174 -67q6 -25 6 -41q0 -37 -18.5 -61.5t-51.5 -24.5q-31 0 -65 55q-35 57 -70 57q-86 0 -178 -139q-92 -138 -92 -325q0 -211 131 -211q10 0 30 4l29 10q4 2 14.5 6t14.5 6q10 4 26 17q4 4 11.5 10t11.5 8q16 12 20.5 16.5 t8.5 9.5t6 7l10 10l4 4q2 0 14.5 -18.5t12.5 -26.5q-25 -43 -113 -119q-82 -70 -166 -69q-102 0 -160 82q-55 80 -55 223zM500 1192q10 47 41 72q35 29 73 28q37 0 59.5 -28.5t12.5 -71.5t-41 -72q-33 -29 -72 -28q-37 0 -59 28q-22 31 -14 72z" />
<glyph unicode="&#x10c;" horiz-adv-x="1159" d="M121 535q0 135 57.5 274t157.5 258q102 121 242 193q143 74 296 73q133 0 426 -90l-20 -126l-15 -88t-5 -34q-6 -29 -48 -28q-16 0 -22 6q0 37 -2 53q-4 27 -21 70q-18 45 -49 75.5t-96 55.5q-59 23 -158 22q-209 0 -385 -219q-178 -221 -178 -512q0 -190 104.5 -317 t294.5 -127q145 0 252 65q49 31 86 74t46 55l28 37q6 0 25 -20q16 -20 14 -29q-90 -174 -98 -182q-33 -35 -156 -60q-137 -27 -256 -26q-238 0 -379 164t-141 383zM729 1675q10 41 27 41q14 0 73 -41q66 -45 97 -76q180 117 219 117q16 0 6 -41l-3 -2q-3 -2 -7 -5t-11 -7 l-51 -41l-63 -51q-53 -47 -96 -96q-12 -16 -23 -17q-4 0 -14 17q-18 37 -62 92l-53 65q-8 10 -17.5 20.5t-14.5 16.5t-7 8z" />
<glyph unicode="&#x10d;" horiz-adv-x="651" d="M135 293q0 190 148 385q147 193 297 192q94 0 174 -67q6 -25 6 -41q0 -37 -18.5 -61.5t-51.5 -24.5q-31 0 -65 55q-35 57 -70 57q-86 0 -178 -139q-92 -138 -92 -325q0 -211 131 -211q10 0 30 4l29 10q4 2 14.5 6t14.5 6q10 4 26 17q4 4 11.5 10t11.5 8q16 12 20.5 16.5 t8.5 9.5t6 7l10 10l4 4q2 0 14.5 -18.5t12.5 -26.5q-25 -43 -113 -119q-82 -70 -166 -69q-102 0 -160 82q-55 80 -55 223zM406 1241q10 47 26 47q14 0 62 -45q51 -49 79 -88q168 133 199 133q16 0 6 -47l-3 -2q-3 -2 -7 -6t-10 -8l-47 -47l-60 -58l-88 -110q-12 -18 -18 -19 q-8 0 -15 19q-22 55 -49 104l-45 78q-27 43 -30 49z" />
<glyph unicode="&#x10e;" horiz-adv-x="1335" d="M47 10q0 37 10 37q18 0 74 16q51 14 62 35q27 55 51 187l143 743q25 145 23 186q-4 16 -45 31q-45 16 -66 17q-4 0 -4 8q0 35 12 47q123 -4 215 -4q106 0 180 2t146 2q258 0 393 -146q135 -143 135 -360q0 -102 -30 -213q-31 -113 -94.5 -217.5t-155.5 -194.5 q-90 -88 -222 -139q-135 -53 -286 -53q-35 0 -142 6q-72 4 -174 4l-223 -10q-2 2 -2 16zM397 193q0 -53 4 -66q18 -41 234 -41q166 0 299 109q131 106 199 276q68 169 67 356q0 180 -88 289q-90 113 -268 113q-213 0 -240 -33q-33 -41 -53 -158l-148 -759q-6 -28 -6 -86z M745 1675q10 41 27 41q14 0 74 -41q66 -45 96 -76q180 117 217 117q18 0 8 -41l-3 -2q-3 -2 -7 -5t-10 -7l-51 -41l-64 -51q-53 -47 -96 -96q-12 -16 -23 -17q-6 0 -16 17q-23 45 -59 92l-54 65l-17 20.5l-14.5 16.5t-7.5 8z" />
<glyph unicode="&#x10f;" horiz-adv-x="925" d="M145 260q0 217 184.5 413.5t385.5 196.5h10h14l58 297q6 29 6 58q0 37 -123 37q-6 0 -6 12q0 25 16 41q138 12 258 55q12 -10 13 -39l-31 -149l-189 -969q-6 -25 -6 -51q0 -49 21 -49q14 0 28.5 10t34.5 27l31 30q8 8 14 15.5t13 13.5l12 12q2 0 14 -18q10 -14 10 -27 q-29 -51 -106 -117q-84 -72 -145 -71q-31 0 -49.5 28.5t-18.5 75.5q0 37 14 107q2 10 6 26l4 17q2 4 3 10q-16 -31 -62 -96q-33 -47 -100 -109q-63 -57 -121 -57q-92 0 -141 80q-52 84 -52 190zM295 299q0 -193 100 -193q72 0 162 148q88 143 119 299l24 129q6 41 -8 68 q-16 29 -53 28q-123 0 -233.5 -153.5t-110.5 -325.5zM1040 1038l23 19q29 25 47 53q23 35 23 76q0 12 -13 37q-10 20 -10 45q0 57 43 88q45 33 104 33q10 -20 11 -58q0 -28 -6 -67q-12 -63 -78 -144q-61 -76 -111 -104q-2 -2 -12 -2q-8 0 -14 8q-7 10 -7 16z" />
<glyph unicode="&#x110;" horiz-adv-x="1316" d="M41 20q0 37 8 37q20 0 76 17q49 14 59 35q27 55 52 186l145 743q25 139 20 187q0 14 -45 30.5t-65 16.5q-4 0 -4 8q0 33 12 45q61 -2 215 -2h180q74 2 146 2q135 0 237.5 -39t165.5 -112q66 -74 94 -160q31 -88 31 -195q0 -100 -31 -211q-31 -113 -94 -217t-156 -194 q-90 -88 -221 -140q-135 -53 -286 -53q-70 0 -142 4q-106 6 -174 6l-221 -10q-2 2 -2 16zM190 651q0 37 13 56h690q10 0 10 -21q0 -37 -10 -59h-692q-11 -1 -11 24zM389 203q0 -61 4 -68q6 -14 64 -24q55 -9 98 -13q29 -2 72 -2q166 0 299 109q131 106 198 276 q68 169 68 357q0 180 -88 288q-88 111 -268 111h-60q-47 0 -104 -8q-66 -10 -76 -23q-12 -14 -29 -51q-6 -14 -12 -43q-10 -47 -12 -63l-148 -760q-6 -28 -6 -86z" />
<glyph unicode="&#x111;" horiz-adv-x="847" d="M121 195q0 135 90 299q88 162 213 270q121 106 215 106q49 0 86 -18h2l4 -2q4 0 4 8l53 260q18 83 19 99q0 47 -96 47q-12 0 -13 6q0 12 9 26q10 16 12 17q35 0 67 8q61 14 70 18q6 2 29.5 10.5l34.5 12.5q8 4 23 9t22 9l16 9q10 0 10 -33q-37 -59 -59 -174l-176 -934 q-8 -27 -8 -60q0 -84 53 -84q25 0 69 72q46 74 50 74q2 0 12 -17q4 -8 10 -24q-25 -66 -90.5 -143.5t-128.5 -77.5q-113 0 -113 143q0 18 4 59q2 12 5.5 30t3.5 22q0 6 1 11t2 8l1 3q0 6 -4 6l-19 -28l-49 -72q-33 -45 -66 -84q-39 -45 -86 -72q-51 -29 -94 -28 q-188 0 -188 209zM272 238q0 -55 27 -94.5t84 -39.5q68 0 170 152q104 154 129 297l39 201v2q0 16 -31 28q-35 14 -65 15q-109 0 -232 -191q-121 -186 -121 -370zM518 1067q0 10 2 16q6 33 23 56h456q8 0 7 -21q-2 -27 -23 -59h-459q-6 0 -6 8z" />
<glyph unicode="&#x112;" horiz-adv-x="1036" d="M47 10q0 37 10 37q18 0 74 16q51 14 62 35q27 55 51 187l143 743q25 145 23 186q-4 16 -45 31q-45 16 -66 17q-4 0 -4 8q0 35 12 47q123 -4 215 -4q104 0 283 8q133 6 303 6q-2 -18 -2 -78q0 -55 2 -98t2 -94q-10 -10 -37 -10q-23 0 -22 14q-6 111 -53.5 141.5 t-145.5 30.5h-109q-141 0 -151 -27q-22 -61 -37 -135l-63 -348q0 -6 6 -10q8 -4 16 -4q6 0 12 -1t13 -1h26h90q133 0 164 18q33 18 78 123q6 14 29 14q25 0 30 -10l-73 -383q-10 -8 -29 -8q-27 0 -29 14q-4 59 -8 82q-6 29 -8 33l-12 12q-23 16 -195 16q-132 0 -135 -18 l-59 -297q-23 -113 -23 -174q0 -29 16.5 -35t106.5 -6h90q172 0 242 35q35 18 75 70q45 57 80 131q6 12 31 12q31 0 41 -12q-135 -250 -164 -332q-104 0 -327.5 6t-303.5 6l-223 -10q-2 2 -2 16zM526 1475q0 9 13 43q12 35 28 34h465q10 0 8 -14q-8 -29 -26 -68 q-6 -10 -19 -14h-458q-2 0 -11 4q-2 7 0 15z" />
<glyph unicode="&#x113;" horiz-adv-x="716" d="M139 293q0 190 148 385q147 193 297 192q92 0 133 -47t41 -102q0 -88 -90 -174q-90 -88 -197 -133q-111 -47 -172 -47q-8 0 -8 -70q0 -90 34.5 -137t94.5 -47q10 0 31 4q6 2 28 10q4 2 14.5 6t14.5 6q10 4 27 17q4 4 11 10t11 8q16 12 20.5 16.5t8.5 9.5t6 7t4 5t4 5l6 4 q2 0 14.5 -18.5t12.5 -26.5q-25 -43 -113 -119q-82 -70 -166 -69q-102 0 -159 82q-56 80 -56 223zM303 444q0 -8 8 -8q74 0 188.5 96.5t114.5 194.5q0 61 -51 61q-92 0 -176 -135q-84 -137 -84 -209zM352 995q-2 6 0 15q0 6 13 41q12 33 24 32h387q10 0 8 -14 q-2 -16 -24 -63l-17 -15h-383z" />
<glyph unicode="&#x114;" horiz-adv-x="1036" d="M47 10q0 37 10 37q18 0 74 16q51 14 62 35q27 55 51 187l143 743q25 145 23 186q-4 16 -45 31q-45 16 -66 17q-4 0 -4 8q0 35 12 47q123 -4 215 -4q104 0 283 8q133 6 303 6q-2 -18 -2 -78q0 -55 2 -98t2 -94q-10 -10 -37 -10q-23 0 -22 14q-6 111 -53.5 141.5 t-145.5 30.5h-109q-141 0 -151 -27q-22 -61 -37 -135l-63 -348q0 -6 6 -10q8 -4 16 -4q6 0 12 -1t13 -1h26h90q133 0 164 18q33 18 78 123q6 14 29 14q25 0 30 -10l-73 -383q-10 -8 -29 -8q-27 0 -29 14q-4 59 -8 82q-6 29 -8 33l-12 12q-23 16 -195 16q-132 0 -135 -18 l-59 -297q-23 -113 -23 -174q0 -29 16.5 -35t106.5 -6h90q172 0 242 35q35 18 75 70q45 57 80 131q6 12 31 12q31 0 41 -12q-135 -250 -164 -332q-104 0 -327.5 6t-303.5 6l-223 -10q-2 2 -2 16zM590 1638v13q2 4 16.5 12t22.5 8t8 -4q2 -53 39 -84t98.5 -31t110.5 31 q51 31 73 84q0 4 10.5 4t18.5 -8q10 -10 8 -12l-2 -6q-2 -4 -2 -9q-25 -70 -94 -127q-66 -53 -141 -53q-74 0 -121 53q-47 55 -45 129z" />
<glyph unicode="&#x115;" horiz-adv-x="716" d="M139 293q0 190 148 385q147 193 297 192q92 0 133 -47t41 -102q0 -88 -90 -174q-90 -88 -197 -133q-111 -47 -172 -47q-8 0 -8 -70q0 -90 34.5 -137t94.5 -47q10 0 31 4q6 2 28 10q4 2 14.5 6t14.5 6q10 4 27 17q4 4 11 10t11 8q16 12 20.5 16.5t8.5 9.5t6 7t4 5t4 5l6 4 q2 0 14.5 -18.5t12.5 -26.5q-25 -43 -113 -119q-82 -70 -166 -69q-102 0 -159 82q-56 80 -56 223zM303 444q0 -8 8 -8q74 0 188.5 96.5t114.5 194.5q0 61 -51 61q-92 0 -176 -135q-84 -137 -84 -209zM395 1194l1 3q1 3 1 5v6q2 6 16.5 16.5t22.5 10.5q6 0 6 -6 q4 -66 39 -105q37 -41 94.5 -41t110.5 41q52 40 80 105q0 6 8 6q10 0 20.5 -10.5t8.5 -16.5l-2 -8q-2 -4 -2 -8q-31 -83 -99 -141q-70 -59 -143 -60q-72 0 -119 60q-45 57 -43 143z" />
<glyph unicode="&#x116;" horiz-adv-x="1036" d="M47 10q0 37 10 37q18 0 74 16q51 14 62 35q27 55 51 187l143 743q25 145 23 186q-4 16 -45 31q-45 16 -66 17q-4 0 -4 8q0 35 12 47q123 -4 215 -4q104 0 283 8q133 6 303 6q-2 -18 -2 -78q0 -55 2 -98t2 -94q-10 -10 -37 -10q-23 0 -22 14q-6 111 -53.5 141.5 t-145.5 30.5h-109q-141 0 -151 -27q-22 -61 -37 -135l-63 -348q0 -6 6 -10q8 -4 16 -4q6 0 12 -1t13 -1h26h90q133 0 164 18q33 18 78 123q6 14 29 14q25 0 30 -10l-73 -383q-10 -8 -29 -8q-27 0 -29 14q-4 59 -8 82q-6 29 -8 33l-12 12q-23 16 -195 16q-132 0 -135 -18 l-59 -297q-23 -113 -23 -174q0 -29 16.5 -35t106.5 -6h90q172 0 242 35q35 18 75 70q45 57 80 131q6 12 31 12q31 0 41 -12q-135 -250 -164 -332q-104 0 -327.5 6t-303.5 6l-223 -10q-2 2 -2 16zM719 1556q10 43 41 70q37 31 71.5 31t59.5 -31q20 -27 12 -70 q-10 -45 -39 -71q-33 -29 -71.5 -29t-61 28.5t-12.5 71.5z" />
<glyph unicode="&#x117;" horiz-adv-x="716" d="M139 293q0 190 148 385q147 193 297 192q92 0 133 -47t41 -102q0 -88 -90 -174q-90 -88 -197 -133q-111 -47 -172 -47q-8 0 -8 -70q0 -90 34.5 -137t94.5 -47q10 0 31 4q6 2 28 10q4 2 14.5 6t14.5 6q10 4 27 17q4 4 11 10t11 8q16 12 20.5 16.5t8.5 9.5t6 7t4 5t4 5l6 4 q2 0 14.5 -18.5t12.5 -26.5q-25 -43 -113 -119q-82 -70 -166 -69q-102 0 -159 82q-56 80 -56 223zM303 444q0 -8 8 -8q74 0 188.5 96.5t114.5 194.5q0 61 -51 61q-92 0 -176 -135q-84 -137 -84 -209zM522 1192q10 47 41 72q35 29 74 28q35 0 57 -28q23 -31 15 -72 q-10 -43 -41 -72q-33 -29 -72 -28q-37 0 -59 28q-23 31 -15 72z" />
<glyph unicode="&#x118;" horiz-adv-x="1071" d="M-4 10q0 37 10 37q18 0 74 16q49 14 59 35q29 63 54 187l143 743q25 145 22 186q-2 14 -47 31t-65 17q-4 0 -4 8q0 33 14 47q123 -4 213 -4q104 0 283 8q133 6 305 6q-2 -18 -2 -78q0 -55 2 -98t2 -94q-10 -10 -37 -10q-25 0 -25 14q-6 111 -51 141.5t-145 30.5h-109 q-141 0 -151 -27q-22 -61 -37 -135l-64 -348q0 -8 4 -10q8 -4 19 -4q6 0 11 -1t11 -1h29h90q133 0 164 18q33 18 78 123q6 14 28.5 14t28.5 -10l-74 -383q-10 -8 -26 -8q-27 0 -29 14q-4 59 -8 82q-6 29 -8 33q-2 2 -7 6q-6 4 -8 6q-23 16 -192 16q-133 0 -137 -18l-58 -297 q-23 -113 -22 -174q0 -29 16 -35q14 -6 107 -6h90q172 0 241 35q33 16 74 70q49 63 82 131q6 12 31 12q33 0 41 -12q-135 -250 -164 -332q-131 0 -237.5 -92.5t-106.5 -178.5q0 -63 61 -63q43 0 80 18q39 18 62 39q22 18 24 19q12 -4 2 -29q-10 -29 -12 -31 q-119 -135 -223 -135q-43 0 -74 31q-29 29 -29 70q0 80 80 196q82 119 162 158q-98 2 -207.5 5t-156 4t-58.5 1l-221 -10q-2 2 -2 16z" />
<glyph unicode="&#x119;" horiz-adv-x="696" d="M45 -360q-2 61 90 180q90 115 158 172q-98 0 -168 88q-74 92 -74 223q0 123 66 258q63 129 174 221q106 88 221 88q139 0 139 -157q0 -78 -86 -162q-92 -88 -190 -135q-104 -49 -168 -49q-8 0 -8 -19q0 -236 151 -235q43 0 84 32q45 37 72 68q29 35 31 35q3 0 6 -6 q0 -2 3 -8.5l5 -10.5q4 -8 4 -18q-6 -23 -20 -41q-43 -66 -144 -162q-121 -115 -170 -168q-70 -72 -69 -113q0 -63 61 -63q45 0 82 18q33 16 59 39q23 18 27 19q12 -4 2 -29q-10 -27 -14 -31q-119 -135 -224 -135q-41 0 -71 31q-29 29 -29 70zM213 449q0 -12 12 -13 q74 0 181 86q109 86 108 183q0 88 -43 88q-84 0 -172 -138q-86 -134 -86 -206z" />
<glyph unicode="&#x11a;" horiz-adv-x="1036" d="M47 10q0 37 10 37q18 0 74 16q51 14 62 35q27 55 51 187l143 743q25 145 23 186q-4 16 -45 31q-45 16 -66 17q-4 0 -4 8q0 35 12 47q123 -4 215 -4q104 0 283 8q133 6 303 6q-2 -18 -2 -78q0 -55 2 -98t2 -94q-10 -10 -37 -10q-23 0 -22 14q-6 111 -53.5 141.5 t-145.5 30.5h-109q-141 0 -151 -27q-22 -61 -37 -135l-63 -348q0 -6 6 -10q8 -4 16 -4q6 0 12 -1t13 -1h26h90q133 0 164 18q33 18 78 123q6 14 29 14q25 0 30 -10l-73 -383q-10 -8 -29 -8q-27 0 -29 14q-4 59 -8 82q-6 29 -8 33l-12 12q-23 16 -195 16q-132 0 -135 -18 l-59 -297q-23 -113 -23 -174q0 -29 16.5 -35t106.5 -6h90q172 0 242 35q35 18 75 70q45 57 80 131q6 12 31 12q31 0 41 -12q-135 -250 -164 -332q-104 0 -327.5 6t-303.5 6l-223 -10q-2 2 -2 16zM631 1675q10 41 24.5 41t73.5 -41q66 -45 96 -76q182 117 219 117q18 0 9 -41 l-3 -2q-3 -2 -8.5 -5t-11.5 -7l-51 -41l-64 -51q-53 -47 -96 -96q-12 -16 -20 -17q-6 0 -17 17q-23 45 -59 92q-10 12 -16.5 19t-16.5 19.5l-22 26.5q-35 41 -37 45z" />
<glyph unicode="&#x11b;" horiz-adv-x="716" d="M139 293q0 190 148 385q147 193 297 192q92 0 133 -47t41 -102q0 -88 -90 -174q-90 -88 -197 -133q-111 -47 -172 -47q-8 0 -8 -70q0 -90 34.5 -137t94.5 -47q10 0 31 4q6 2 28 10q4 2 14.5 6t14.5 6q10 4 27 17q4 4 11 10t11 8q16 12 20.5 16.5t8.5 9.5t6 7t4 5t4 5l6 4 q2 0 14.5 -18.5t12.5 -26.5q-25 -43 -113 -119q-82 -70 -166 -69q-102 0 -159 82q-56 80 -56 223zM303 444q0 -8 8 -8q74 0 188.5 96.5t114.5 194.5q0 61 -51 61q-92 0 -176 -135q-84 -137 -84 -209zM428 1241q10 47 27 47q14 0 61 -45q51 -49 80 -88q29 25 119 88 q63 45 79.5 45t6.5 -47l-3 -2q-3 -2 -7.5 -6t-10.5 -8q-12 -10 -49 -47l-57 -58l-88 -110q-12 -18 -21 -19q-6 0 -12 19q-22 55 -49 104l-45 78q-28 43 -31 49z" />
<glyph unicode="&#x11c;" horiz-adv-x="1230" d="M121 508q0 197 100.5 385t280.5 315q176 125 377 125q133 0 426 -90q-33 -207 -43 -260q-2 -16 -45 -16q-18 0 -23 10q0 37 -2 51q-4 29 -20.5 70t-49.5 73q-31 31 -96 56q-59 23 -158 22q-143 0 -276 -108.5t-207 -272.5q-76 -168 -76 -321q0 -195 100.5 -334 t276.5 -139q160 0 250 45q16 10 22 33l56 284l2 8q2 4 3 12.5t1 12.5q2 10 2 26.5t-55.5 35t-81.5 18.5q-4 0 -4 8q0 29 16 45q63 -2 117.5 -5t77.5 -4l22 -1q6 0 217 10q0 -53 -10 -53q-27 0 -88 -21q-55 -18 -62 -57l-47 -276l-1 -4q-1 -3 -1 -5v-6q0 -18 2 -30.5t2 -22.5 q0 -12 -2 -16q-2 -2 -14 -13q-10 -8 -31 -16l-39 -14q-12 -4 -27.5 -11.5t-17.5 -7.5t-9 -2t-16 -5l-20 -7q-31 -10 -53 -15l-59 -12q-23 -6 -70 -10q-29 -2 -78 -6q-61 -4 -92 -4q-213 0 -344 149q-133 152 -133 371zM696 1495q9 9 31 25l59 41l64 47q68 49 111 92 q20 16 24 16q16 0 23 -16q41 -70 63 -96l51 -52q10 -10 24.5 -23t18.5 -18l17 -16q-8 -39 -31 -39q-37 0 -197 117q-74 -45 -143 -78q-80 -39 -102 -39q-21 0 -13 39z" />
<glyph unicode="&#x11d;" horiz-adv-x="874" d="M31 -270q0 51 26 92q31 49 76 82t90 59q51 29 96 49l-34 25q-51 35 -52 72q0 35 72 77q68 41 129 58q-41 0 -88 20q-49 22 -92 74q-45 55 -45 125q0 169 117 289q117 121 262 120q63 0 131 -26q74 -29 139 -29h86q12 0 12 -14q0 -6 -8 -35q-6 -20 -14 -29h-111 q-12 0 -12 -12q12 -72 12 -102q0 -74 -22.5 -137.5t-55.5 -102.5q-31 -37 -59 -61q-10 -8 -27.5 -19.5t-19.5 -13.5q-41 -25 -80 -41q-37 -16 -94 -53q-35 -23 -35 -43q0 -14 39 -33l51 -19.5l45 -17.5q66 -25 113 -49q51 -27 94 -78q39 -47 39 -115q0 -143 -125 -225 q-127 -84 -342 -84q-137 0 -225 53.5t-88 143.5zM178 -219q0 -162 264 -162q96 0 170 43q72 41 72 102q0 45 -25 82q-18 29 -73 62q-46 28 -86 43l-97 33q-27 -10 -55 -25l-55 -29q-39 -20 -59.5 -40.5t-36.5 -47.5q-19 -30 -19 -61zM358 494q0 -80 31 -131.5t92 -51.5 q82 0 137 88q57 92 58 189q0 80 -33 143q-35 66 -88 66q-86 0 -141 -95q-56 -94 -56 -208zM408 1034l122 103q80 68 109 100q18 18 23 18q6 0 18 -18l55 -86q23 -31 43 -53l39 -45q14 -14 14 -19q-10 -41 -26 -41q-18 0 -72 39l-100 78q-49 -35 -125 -76t-88 -41 q-8 0 -12 17q-3 15 0 24z" />
<glyph unicode="&#x11e;" horiz-adv-x="1230" d="M121 508q0 197 100.5 385t280.5 315q176 125 377 125q133 0 426 -90q-33 -207 -43 -260q-2 -16 -45 -16q-18 0 -23 10q0 37 -2 51q-4 29 -20.5 70t-49.5 73q-31 31 -96 56q-59 23 -158 22q-143 0 -276 -108.5t-207 -272.5q-76 -168 -76 -321q0 -195 100.5 -334 t276.5 -139q160 0 250 45q16 10 22 33l56 284l2 8q2 4 3 12.5t1 12.5q2 10 2 26.5t-55.5 35t-81.5 18.5q-4 0 -4 8q0 29 16 45q63 -2 117.5 -5t77.5 -4l22 -1q6 0 217 10q0 -53 -10 -53q-27 0 -88 -21q-55 -18 -62 -57l-47 -276l-1 -4q-1 -3 -1 -5v-6q0 -18 2 -30.5t2 -22.5 q0 -12 -2 -16q-2 -2 -14 -13q-10 -8 -31 -16l-39 -14q-12 -4 -27.5 -11.5t-17.5 -7.5t-9 -2t-16 -5l-20 -7q-31 -10 -53 -15l-59 -12q-23 -6 -70 -10q-29 -2 -78 -6q-61 -4 -92 -4q-213 0 -344 149q-133 152 -133 371zM735 1638v13q2 4 16.5 12t22.5 8t8 -4q2 -53 39 -84 t98.5 -31t110.5 31q51 31 74 84q0 4 10 4q12 0 21 -8q10 -10 8 -12l-2 -6q-2 -4 -2 -9q-23 -68 -97 -127q-66 -53 -141 -53q-74 0 -121 53q-47 55 -45 129z" />
<glyph unicode="&#x11f;" horiz-adv-x="874" d="M31 -270q0 51 26 92q31 49 76 82t90 59q51 29 96 49l-34 25q-51 35 -52 72q0 35 72 77q68 41 129 58q-41 0 -88 20q-49 22 -92 74q-45 55 -45 125q0 169 117 289q117 121 262 120q63 0 131 -26q74 -29 139 -29h86q12 0 12 -14q0 -6 -8 -35q-6 -20 -14 -29h-111 q-12 0 -12 -12q12 -72 12 -102q0 -74 -22.5 -137.5t-55.5 -102.5q-31 -37 -59 -61q-10 -8 -27.5 -19.5t-19.5 -13.5q-41 -25 -80 -41q-37 -16 -94 -53q-35 -23 -35 -43q0 -14 39 -33l51 -19.5l45 -17.5q66 -25 113 -49q51 -27 94 -78q39 -47 39 -115q0 -143 -125 -225 q-127 -84 -342 -84q-137 0 -225 53.5t-88 143.5zM178 -219q0 -162 264 -162q96 0 170 43q72 41 72 102q0 45 -25 82q-18 29 -73 62q-46 28 -86 43l-97 33q-27 -10 -55 -25l-55 -29q-39 -20 -59.5 -40.5t-36.5 -47.5q-19 -30 -19 -61zM358 494q0 -80 31 -131.5t92 -51.5 q82 0 137 88q57 92 58 189q0 80 -33 143q-35 66 -88 66q-86 0 -141 -95q-56 -94 -56 -208zM449 1196l1 3q1 3 1 5v6q0 6 16 16.5t22.5 10.5t6.5 -6q4 -68 36 -105q37 -41 97 -41q57 0 110 41q52 40 80 105q0 6 8.5 6t18.5 -10q8 -8 8 -17q2 -4 0 -8t-2 -8q-27 -80 -98 -141 q-70 -59 -143.5 -59.5t-120.5 59t-41 143.5z" />
<glyph unicode="&#x120;" horiz-adv-x="1230" d="M121 508q0 197 100.5 385t280.5 315q176 125 377 125q133 0 426 -90q-33 -207 -43 -260q-2 -16 -45 -16q-18 0 -23 10q0 37 -2 51q-4 29 -20.5 70t-49.5 73q-31 31 -96 56q-59 23 -158 22q-143 0 -276 -108.5t-207 -272.5q-76 -168 -76 -321q0 -195 100.5 -334 t276.5 -139q160 0 250 45q16 10 22 33l56 284l2 8q2 4 3 12.5t1 12.5q2 10 2 26.5t-55.5 35t-81.5 18.5q-4 0 -4 8q0 29 16 45q63 -2 117.5 -5t77.5 -4l22 -1q6 0 217 10q0 -53 -10 -53q-27 0 -88 -21q-55 -18 -62 -57l-47 -276l-1 -4q-1 -3 -1 -5v-6q0 -18 2 -30.5t2 -22.5 q0 -12 -2 -16q-2 -2 -14 -13q-10 -8 -31 -16l-39 -14q-12 -4 -27.5 -11.5t-17.5 -7.5t-9 -2t-16 -5l-20 -7q-31 -10 -53 -15l-59 -12q-23 -6 -70 -10q-29 -2 -78 -6q-61 -4 -92 -4q-213 0 -344 149q-133 152 -133 371zM827 1556q10 43 41 70q37 31 74 31q35 0 59 -31 q20 -27 13 -70q-10 -45 -39 -71q-33 -29 -74 -29q-37 0 -59 29q-23 30 -15 71z" />
<glyph unicode="&#x121;" horiz-adv-x="874" d="M31 -270q0 51 26 92q31 49 76 82t90 59q51 29 96 49l-34 25q-51 35 -52 72q0 35 72 77q68 41 129 58q-41 0 -88 20q-49 22 -92 74q-45 55 -45 125q0 169 117 289q117 121 262 120q63 0 131 -26q74 -29 139 -29h86q12 0 12 -14q0 -6 -8 -35q-6 -20 -14 -29h-111 q-12 0 -12 -12q12 -72 12 -102q0 -74 -22.5 -137.5t-55.5 -102.5q-31 -37 -59 -61q-10 -8 -27.5 -19.5t-19.5 -13.5q-41 -25 -80 -41q-37 -16 -94 -53q-35 -23 -35 -43q0 -14 39 -33l51 -19.5l45 -17.5q66 -25 113 -49q51 -27 94 -78q39 -47 39 -115q0 -143 -125 -225 q-127 -84 -342 -84q-137 0 -225 53.5t-88 143.5zM178 -219q0 -162 264 -162q96 0 170 43q72 41 72 102q0 45 -25 82q-18 29 -73 62q-46 28 -86 43l-97 33q-27 -10 -55 -25l-55 -29q-39 -20 -59.5 -40.5t-36.5 -47.5q-19 -30 -19 -61zM358 494q0 -80 31 -131.5t92 -51.5 q82 0 137 88q57 92 58 189q0 80 -33 143q-35 66 -88 66q-86 0 -141 -95q-56 -94 -56 -208zM520 1192q6 43 41 71.5t74 28.5q37 0 59.5 -28.5t12.5 -71.5q-6 -45 -39 -72q-35 -29 -72 -28q-39 0 -61 28q-23 31 -15 72z" />
<glyph unicode="&#x122;" horiz-adv-x="1230" d="M121 508q0 197 100.5 385t280.5 315q176 125 377 125q133 0 426 -90q-33 -207 -43 -260q-2 -16 -45 -16q-18 0 -23 10q0 37 -2 51q-4 29 -20.5 70t-49.5 73q-31 31 -96 56q-59 23 -158 22q-143 0 -276 -108.5t-207 -272.5q-76 -168 -76 -321q0 -195 100.5 -334 t276.5 -139q160 0 250 45q16 10 22 33l56 284l2 8q2 4 3 12.5t1 12.5q2 10 2 26.5t-55.5 35t-81.5 18.5q-4 0 -4 8q0 29 16 45q63 -2 117.5 -5t77.5 -4l22 -1q6 0 217 10q0 -53 -10 -53q-27 0 -88 -21q-55 -18 -62 -57l-47 -276l-1 -4q-1 -3 -1 -5v-6q0 -18 2 -30.5t2 -22.5 q0 -12 -2 -16q-2 -2 -14 -13q-10 -8 -31 -16l-39 -14q-12 -4 -27.5 -11.5t-17.5 -7.5t-9 -2t-16 -5l-20 -7q-31 -10 -53 -15l-59 -12q-23 -6 -70 -10q-29 -2 -78 -6q-61 -4 -92 -4q-213 0 -344 149q-133 152 -133 371zM442 -453q0 6 22.5 18.5t47.5 41.5q23 27 33 63 q6 33 -29 62q-33 27 -33 53q0 47 55.5 78t116.5 31q27 -23 27 -82q0 -76 -64 -158q-70 -88 -124 -117q-4 -4 -17 -4q-35 0 -35 14z" />
<glyph unicode="&#x123;" horiz-adv-x="874" d="M31 -270q0 51 26 92q31 49 76 82t90 59q51 29 96 49l-34 25q-51 35 -52 72q0 35 72 77q68 41 129 58q-41 0 -88 20q-49 22 -92 74q-45 55 -45 125q0 169 117 289q117 121 262 120q63 0 131 -26q74 -29 139 -29h86q12 0 12 -14q0 -6 -8 -35q-6 -20 -14 -29h-111 q-12 0 -12 -12q12 -72 12 -102q0 -74 -22.5 -137.5t-55.5 -102.5q-31 -37 -59 -61q-10 -8 -27.5 -19.5t-19.5 -13.5q-41 -25 -80 -41q-37 -16 -94 -53q-35 -23 -35 -43q0 -14 39 -33l51 -19.5l45 -17.5q66 -25 113 -49q51 -27 94 -78q39 -47 39 -115q0 -143 -125 -225 q-127 -84 -342 -84q-137 0 -225 53.5t-88 143.5zM178 -219q0 -162 264 -162q96 0 170 43q72 41 72 102q0 45 -25 82q-18 29 -73 62q-46 28 -86 43l-97 33q-27 -10 -55 -25l-55 -29q-39 -20 -59.5 -40.5t-36.5 -47.5q-19 -30 -19 -61zM358 494q0 -80 31 -131.5t92 -51.5 q82 0 137 88q57 92 58 189q0 80 -33 143q-35 66 -88 66q-86 0 -141 -95q-56 -94 -56 -208zM516 1063q0 74 66 158q68 88 123 114q4 4 16 4q37 0 37 -14l-23 -16q-29 -20 -47 -41q-27 -31 -33 -64q-6 -35 27 -61.5t33 -52.5q0 -47 -55.5 -78t-116.5 -31q-27 23 -27 82z" />
<glyph unicode="&#x124;" horiz-adv-x="1253" d="M47 10q0 37 14.5 37t71.5 14q47 12 57 31q29 63 52 193l143 739q20 104 21 184q0 22 -44 37q-45 16 -67 17q-4 0 -4 10q0 31 14 45q8 0 20.5 -2t35 -3t40.5 -3q47 -4 121 -4q49 0 123 6t88 6v-6q0 -49 -12 -49t-68 -17q-51 -14 -57 -28q-29 -68 -51 -187l-51 -282v-3 q0 -8 53 -12q70 -4 248 -4q258 0 262 16l53 279q23 117 23 184q0 22 -43 37q-45 16 -70 17q-4 0 -4 10q0 29 16 45l94 -8q47 -4 121 -4q47 0 125 6t90 6v-6q0 -49 -14 -49q-12 0 -65.5 -16.5t-57.5 -28.5q-29 -59 -51 -187l-146 -751q-23 -117 -22 -181q0 -16 27 -28 q37 -16 55 -19l26 -4q4 0 5 -6q0 -23 -13 -47l-209 10q-2 0 -24.5 -1t-76.5 -4t-118 -5q-4 4 -4 16q0 37 14.5 37t71.5 14q45 12 55 31q33 70 54 193l63 329v2q0 8 -47 13q-61 4 -227 4q-287 0 -291 -25l-66 -329q-20 -104 -20 -181q0 -16 27 -28q37 -16 53 -19l26 -4 q4 0 5 -6q0 -23 -13 -47q-205 10 -207 10l-23 -1q-24 -1 -79 -4t-119 -5q-4 4 -4 16zM764 1495q9 9 31 25l59 41l64 47q68 49 110 92q20 16 27 16q14 0 20 -16q37 -63 66 -96q14 -16 49 -52q10 -10 25.5 -23t19.5 -18q14 -14 14 -16q-8 -39 -28 -39q-39 0 -199 117 q-74 -45 -143 -78q-80 -39 -103 -39q-20 0 -12 39z" />
<glyph unicode="&#x125;" horiz-adv-x="921" d="M131 0l217 1118q18 86 19 107q0 37 -121 37q-6 0 -6 12q0 25 16 41q132 12 252 55q10 -6 10 -39q0 -14 -24 -149l-105 -523l-35 -184q16 35 86 125q59 78 166 178q98 92 156 92q100 0 100 -133q0 -84 -28 -217l-66 -307q-6 -25 -6 -51q0 -49 20 -49q12 0 29 10 q14 10 35 27l31 30q8 8 13 15.5t11 13.5l12 12q4 0 17 -18q10 -14 10 -27q-27 -47 -109 -117q-84 -72 -143 -71q-31 0 -49 28.5t-18 75.5q0 37 14 107l70 329q14 59 14 109q0 86 -39 86q-66 0 -205 -182q-137 -180 -178 -385l-35 -156q-23 -8 -61 -8q-43 0 -70 8zM166 1495 q9 9 31 25l59 41q20 14 63 47q68 49 111 92q20 16 27 16q14 0 20 -16q37 -63 66 -96q14 -16 49 -52q10 -10 25.5 -23t19.5 -18q14 -14 14 -16q-8 -39 -28 -39q-39 0 -199 117q-74 -45 -143 -78q-80 -39 -103 -39q-20 0 -12 39z" />
<glyph unicode="&#x126;" horiz-adv-x="1366" d="M96 25q2 27 13 26q23 0 71.5 12.5t59.5 28.5q31 68 49 178l129 670h-62q-10 0 -4 27q6 29 21 49h61q29 150 27 209q-4 16 -47 28q-45 12 -70 13q-6 0 -2 26q2 18 14 31q6 0 19.5 -1t35 -2t42.5 -3q49 -4 122 -4q47 0 72 2q12 2 38 3t40 1q43 2 70 4q2 -6 -4 -33 q-6 -25 -11 -24q-20 0 -69 -15q-55 -16 -60 -26q-28 -65 -55 -209q14 -2 287 -2q227 0 276 2q31 160 29 209q-4 16 -47 28q-47 12 -70 13q-4 4 -4 14t6 25q6 16 10 18q6 0 19.5 -1t36 -2t43.5 -3q49 -4 125 -4q49 0 125 6q51 4 88 4q0 -23 -2 -29q-4 -29 -13 -28 q-20 0 -69 -15q-53 -16 -58 -26q-25 -58 -55 -209h76q12 0 6 -27q-2 -27 -23 -49h-73l-129 -661q-25 -127 -23 -187q2 -14 49 -26q53 -14 64 -15q6 0 0 -28q-2 -16 -8 -29l-209 10q-4 0 -29 -1t-83 -4t-118 -5q-6 8 0 32.5t13 24.5q25 0 73.5 12.5t59.5 28.5q27 61 47 178 l61 316l-2 8q-233 4 -274 4q-285 0 -289 -10l-59 -309q-23 -125 -21 -187q2 -14 47 -26q53 -14 66 -15q4 -2 2 -22.5t-10 -34.5q-205 10 -215 10q-2 0 -26 -1t-80 -4t-118 -5q-6 8 -2 31zM535 705q0 -6 4 -7q242 -4 280 -4q51 0 277 4q4 4 4 9l47 233q-51 2 -279 2 q-233 0 -288 -2z" />
<glyph unicode="&#x127;" horiz-adv-x="847" d="M121 0l213 1098q14 66 14 129q-4 31 -82 30h-14q-10 0 -6 23q0 3 6 18q6 14 10 15q66 6 100 14q27 4 72 21q31 10 47.5 18t28.5 16l10 7h2q16 0 17 -33q-33 -70 -54 -174q-139 -684 -139 -701l2 -2l2 2q41 80 172 236q129 154 211 153q100 0 101 -133q0 -82 -31 -235 l-62 -289q-4 -29 -4 -35q0 -74 47 -74q20 0 50 35q31 37 55 74l24 37q3 0 7 -6q0 -2 4 -8.5t6 -10.5q4 -8 4 -18q-18 -52 -86 -135q-68 -84 -133 -84q-113 0 -113 145q0 52 43 252q45 209 45 252q0 86 -39 86q-61 0 -194 -188q-131 -186 -172 -379l-35 -156q-23 -8 -62 -8 q-40 0 -67 8zM231 1067v16q6 33 23 56h459q8 0 6 -21q-2 -27 -23 -59h-460q-5 0 -5 8z" />
<glyph unicode="&#x128;" horiz-adv-x="524" d="M47 10q0 37 14.5 37t71.5 14q47 12 57 31q29 63 52 193l143 739q20 104 21 184q0 22 -44 37q-45 16 -67 17q-4 0 -4 10q0 31 14 45q8 0 20.5 -2t35 -3t40.5 -3q47 -4 121 -4q49 0 123 6t88 6v-6q0 -49 -12 -49t-68 -17q-51 -14 -57 -28q-27 -61 -51 -187l-144 -751 q-20 -104 -20 -181q0 -16 27 -28q37 -16 53 -19l26 -4q4 0 5 -6q0 -23 -13 -47q-205 10 -207 10l-23 -1q-24 -1 -79 -4t-119 -5q-4 4 -4 16zM242 1507q6 33 47 76q77 80 160 80q66 0 149 -51q88 -53 150 -53q23 0 55 20q20 14 57 45l27 23q16 0 6 -35q-6 -31 -47 -78 q-72 -78 -156 -78q-63 0 -151 53.5t-152 53.5q-27 0 -84 -45l-55 -43q-14 -1 -6 32z" />
<glyph unicode="&#x129;" horiz-adv-x="430" d="M-31 1022q0 51 57.5 114.5t129.5 63.5q55 0 133 -53t131 -53q20 0 49 22q18 14 47 43q23 23 25 23q8 0 8 -19q0 -43 -53 -108q-51 -63 -127 -64q-55 0 -133 53.5t-134 53.5q-28 0 -73 -43l-49 -45q-11 0 -11 12zM-4 651q18 52 86 135q68 84 133 84q115 0 115 -145 q0 -55 -45 -287q-47 -242 -47 -260q0 -74 45 -74q20 0 49 35q20 25 53 74q25 37 27 37q3 0 6 -6q0 -2 3 -8.5l5 -10.5q6 -12 6 -18q-18 -52 -86 -135q-68 -84 -133 -84q-113 0 -113 145q0 63 15 123l71 360q6 43 7 56q0 82 -58 82q-20 0 -67 -72l-50 -74q-3 0 -6 6 q-2 4 -5 8.5t-5 10.5q-6 12 -6 18z" />
<glyph unicode="&#x12a;" horiz-adv-x="524" d="M47 10q0 37 14.5 37t71.5 14q47 12 57 31q29 63 52 193l143 739q20 104 21 184q0 22 -44 37q-45 16 -67 17q-4 0 -4 10q0 31 14 45q8 0 20.5 -2t35 -3t40.5 -3q47 -4 121 -4q49 0 123 6t88 6v-6q0 -49 -12 -49t-68 -17q-51 -14 -57 -28q-27 -61 -51 -187l-144 -751 q-20 -104 -20 -181q0 -16 27 -28q37 -16 53 -19l26 -4q4 0 5 -6q0 -23 -13 -47q-205 10 -207 10l-23 -1q-24 -1 -79 -4t-119 -5q-4 4 -4 16zM299 1475q0 4 14 43q12 35 29 34h465q8 0 6 -14q-10 -37 -25 -68q-6 -10 -18 -14h-461l-8 4q-4 9 -2 15z" />
<glyph unicode="&#x12b;" horiz-adv-x="430" d="M-4 651q18 52 86 135q68 84 133 84q115 0 115 -145q0 -55 -45 -287q-47 -242 -47 -260q0 -74 45 -74q20 0 49 35q20 25 53 74q25 37 27 37q3 0 6 -6q0 -2 3 -8.5l5 -10.5q6 -12 6 -18q-18 -52 -86 -135q-68 -84 -133 -84q-113 0 -113 145q0 63 15 123l71 360q6 43 7 56 q0 82 -58 82q-20 0 -67 -72l-50 -74q-3 0 -6 6q-2 4 -5 8.5t-5 10.5q-6 12 -6 18zM53 995q-2 6 0 15q0 2 15 41q12 33 24 32h385q10 0 8 -14q-4 -25 -22 -63l-17 -15h-385z" />
<glyph unicode="&#x12c;" horiz-adv-x="524" d="M47 10q0 37 14.5 37t71.5 14q47 12 57 31q29 63 52 193l143 739q20 104 21 184q0 22 -44 37q-45 16 -67 17q-4 0 -4 10q0 31 14 45q8 0 20.5 -2t35 -3t40.5 -3q47 -4 121 -4q49 0 123 6t88 6v-6q0 -49 -12 -49t-68 -17q-51 -14 -57 -28q-27 -61 -51 -187l-144 -751 q-20 -104 -20 -181q0 -16 27 -28q37 -16 53 -19l26 -4q4 0 5 -6q0 -23 -13 -47q-205 10 -207 10l-23 -1q-24 -1 -79 -4t-119 -5q-4 4 -4 16zM383 1638v13q2 6 14 12q14 8 22.5 8t8.5 -4q2 -53 41 -84q37 -31 96 -31q61 0 111 31q51 31 74 84q0 4 10 4q12 0 20 -8 q10 -10 8 -12l-2 -6q-2 -4 -2 -9q-23 -68 -96 -127q-66 -53 -139 -53q-76 0 -123 53q-46 52 -43 129z" />
<glyph unicode="&#x12d;" horiz-adv-x="430" d="M-4 651q18 52 86 135q68 84 133 84q115 0 115 -145q0 -55 -45 -287q-47 -242 -47 -260q0 -74 45 -74q20 0 49 35q20 25 53 74q25 37 27 37q3 0 6 -6q0 -2 3 -8.5l5 -10.5q6 -12 6 -18q-18 -52 -86 -135q-68 -84 -133 -84q-113 0 -113 145q0 63 15 123l71 360q6 43 7 56 q0 82 -58 82q-20 0 -67 -72l-50 -74q-3 0 -6 6q-2 4 -5 8.5t-5 10.5q-6 12 -6 18zM123 1194v8l2 6q2 8 14 17q14 10 23 10q6 0 6 -6q4 -66 39 -105q37 -41 94 -41t111 41q52 40 80 105q0 6 8 6q10 0 20 -10.5t8 -16.5l-2 -8q-2 -4 -2 -8q-31 -83 -98 -141q-70 -59 -141 -60 q-74 0 -121 60q-45 55 -41 143z" />
<glyph unicode="&#x12e;" horiz-adv-x="681" d="M-27 -360q0 94 80 206q82 117 164 158q-2 0 -24.5 -1t-77 -4t-117.5 -5q-4 4 -4 16q0 37 14.5 37t71.5 14q45 12 55 31q33 70 53 193l142 739q23 117 22 184q0 22 -43 37q-45 16 -69 17q-4 0 -4 10q0 29 16 45l94 -8q47 -4 123 -4q49 0 123 6t88 6v-6q0 -49 -14 -49 q-12 0 -68 -17q-49 -14 -55 -28q-31 -70 -54 -187l-141 -751q-23 -117 -22 -181q0 -16 26 -28q37 -16 56 -19l26 -4q4 0 4 -6q0 -23 -12 -47q-45 0 -94 -14q-104 -31 -178 -111t-74 -148q0 -63 61 -63q43 0 80 18q39 18 62 39q22 18 24 19q12 -4 2 -29q-10 -29 -12 -31 q-121 -135 -223 -135q-41 0 -72 31q-29 29 -29 70z" />
<glyph unicode="&#x12f;" horiz-adv-x="544" d="M45 651q18 52 86 135q68 84 135 84q115 0 115 -145q0 -33 -19 -131l-40 -217q-25 -135 -29 -162q0 -6 -1 -12t-1 -10.5t-1 -7.5t-1 -5v-2q0 -74 43 -74q20 0 49 35q31 37 55.5 74t26.5 37q3 0 6 -6q0 -2 3 -8.5l5 -10.5q4 -8 4 -18q-33 -80 -114 -166 q-199 -209 -199 -320q0 -63 61 -63q43 0 80 18q39 18 62 39q22 18 24 19q12 -4 2 -29q-10 -29 -12 -31q-119 -135 -223 -135q-43 0 -74 31q-29 29 -29 70q0 66 64 180q61 111 119 174q-92 12 -92 139q0 63 14 123l72 360q6 43 6 56q0 82 -56 82q-23 0 -69 -72l-49 -74 q-3 0 -7 6q-2 4 -5 8.5t-5 10.5q-6 12 -6 18zM279 1178q0 49 28 79q31 35 76 35q27 0 49 -24q23 -27 23 -56q0 -47 -31 -83.5t-78 -36.5q-31 0 -49 24.5t-18 61.5z" />
<glyph unicode="&#x130;" horiz-adv-x="524" d="M47 10q0 37 14.5 37t71.5 14q47 12 57 31q29 63 52 193l143 739q20 104 21 184q0 22 -44 37q-45 16 -67 17q-4 0 -4 10q0 31 14 45q8 0 20.5 -2t35 -3t40.5 -3q47 -4 121 -4q49 0 123 6t88 6v-6q0 -49 -12 -49t-68 -17q-51 -14 -57 -28q-27 -61 -51 -187l-144 -751 q-20 -104 -20 -181q0 -16 27 -28q37 -16 53 -19l26 -4q4 0 5 -6q0 -23 -13 -47q-205 10 -207 10l-23 -1q-24 -1 -79 -4t-119 -5q-4 4 -4 16zM473 1556q10 43 41 70q37 31 74 31q35 0 59 -31q20 -27 12 -70q-10 -45 -38 -71q-33 -29 -72 -29t-62 29q-22 30 -14 71z" />
<glyph unicode="&#x131;" horiz-adv-x="430" d="M-4 651q18 52 86 135q68 84 133 84q115 0 115 -145q0 -55 -45 -287q-47 -242 -47 -260q0 -74 45 -74q20 0 49 35q20 25 53 74q25 37 27 37q3 0 6 -6q0 -2 3 -8.5l5 -10.5q6 -12 6 -18q-18 -52 -86 -135q-68 -84 -133 -84q-113 0 -113 145q0 63 15 123l71 360q6 43 7 56 q0 82 -58 82q-20 0 -67 -72l-50 -74q-3 0 -6 6q-2 4 -5 8.5t-5 10.5q-6 12 -6 18z" />
<glyph unicode="&#x132;" horiz-adv-x="1040" d="M96 10q0 37 14.5 37t71.5 14q45 12 56 31q33 70 53 193l141 739q23 117 23 184q0 22 -43 37q-45 16 -70 17q-4 0 -4 10q0 29 16 45l95 -8q47 -4 120 -4q49 0 123 6t90 6v-6q0 -49 -14 -49q-12 0 -68 -17q-51 -14 -57 -28q-27 -61 -51 -187l-141 -751q-23 -117 -23 -181 q0 -16 27 -28q37 -16 55 -19l27 -4q4 0 4 -6q0 -23 -13 -47q-205 10 -209 10l-23 -1q-24 -1 -78 -4t-118 -5q-4 4 -4 16zM414 -430l2 12q164 53 248 195q86 145 141 440l149 807q23 135 23 184q0 20 -51 37q-53 16 -76 17q-4 0 -4 10q0 29 16 45l94 -8q47 -4 121 -4 q49 0 123 6t90 6v-6q0 -49 -14 -49t-59 -17q-47 -16 -52 -28q-29 -68 -51 -187l-149 -799q-25 -137 -80 -274q-49 -123 -107 -199q-58 -77 -123 -129q-66 -53 -120 -73q-61 -23 -109 -23q-12 15 -12 37z" />
<glyph unicode="&#x133;" horiz-adv-x="905" d="M221 698q27 43 103 107q78 66 129 65q31 0 49 -28q18 -27 18 -76q0 -41 -12 -107l-88 -446q-6 -25 -6 -51q0 -49 20 -49q12 0 29 10q14 10 35 27l30 30q8 8 14.5 15.5t12.5 13.5l10 12q4 0 17 -18q10 -14 10 -27q-27 -47 -109 -117q-84 -72 -143 -71q-31 0 -49.5 28.5 t-18.5 75.5q0 37 15 107l82 417q10 72 10 80q0 49 -21 49q-8 0 -22 -8q-16 -8 -29 -22l-26 -27q-16 -16 -23 -24l-10 -13l-15 21q-12 18 -12 26zM406 1178q0 46 30 79q31 35 74 35q31 0 51 -24q20 -23 21 -56q0 -47 -31 -83.5t-78 -36.5q-31 0 -49 24.5t-18 61.5zM424 -430 q100 57 176 182q78 129 109 291l112 573q10 78 10 80q0 49 -20 49q-12 0 -23 -8q-4 -4 -13 -11t-13 -11l-27 -27q-12 -12 -17 -18l-16 -19q-6 0 -16 19q-10 20 -10 28q29 45 100 107q78 66 129 65q33 0 51 -28q18 -27 19 -76q0 -41 -12 -107l-111 -569q-43 -217 -131 -338 q-51 -72 -137 -137q-74 -57 -142 -84q-18 14 -18 39zM860 1178q0 46 31 79q31 35 74 35q31 0 51 -24q20 -23 20 -56q0 -47 -30.5 -83.5t-77.5 -36.5q-31 0 -49.5 24.5t-18.5 61.5z" />
<glyph unicode="&#x134;" horiz-adv-x="507" d="M-160 -430l2 12q164 53 248 194.5t139 440.5l152 807q20 123 20 184q0 22 -49 37q-53 16 -76 17q-4 0 -4 10q0 29 17 45l94 -8q47 -4 121 -4q49 0 122.5 6t90.5 6v-6q0 -49 -15 -49q-16 0 -61 -17q-43 -16 -49 -28q-29 -68 -51 -187l-152 -799q-27 -147 -78 -274 q-49 -123 -106 -199q-58 -77 -123 -129t-123 -73q-61 -23 -106 -23q-13 15 -13 37zM307 1495q4 4 33 25q45 33 57 41q35 23 66 47q59 43 108 92q20 16 27 16q16 0 23 -16q41 -70 63 -96q14 -16 49 -52q10 -10 25.5 -23t19.5 -18l17 -16q-8 -39 -31 -39q-39 0 -199 117 q-74 -45 -143 -78q-80 -39 -103 -39q-20 0 -12 39z" />
<glyph unicode="&#x135;" horiz-adv-x="628" d="M-16 -430q0 2 18 14q109 82 172 189q59 102 94 270l115 573q4 29 4 56q0 82 -55 82q-23 0 -70 -72l-49 -74l-4 6q-2 4 -5 8.5t-5 10.5q-6 12 -6 18q18 52 86 135q68 84 133 84q115 0 114 -145q0 -57 -114 -635q-43 -217 -131 -338q-51 -72 -138 -137q-74 -57 -141 -84 q-18 19 -18 39zM276 1008q-3 15 0 24l123 103q82 68 109 102q16 16 22 16q8 0 19 -16l26.5 -43l20.5 -33t8 -12q23 -31 43 -53l39 -45q14 -14 14 -19q-10 -41 -26 -41q-34 0 -172 117q-49 -35 -125 -76t-88 -41q-9 1 -13 17z" />
<glyph unicode="&#x136;" horiz-adv-x="1282" d="M47 10q0 37 14.5 37t71.5 14q47 12 57 31q29 63 52 193l143 739q20 104 21 184q0 22 -44 37q-45 16 -67 17q-4 0 -4 10q0 31 14 45q8 0 20.5 -2t35 -3t40.5 -3q47 -4 121 -4q49 0 123 6t88 6v-6q0 -49 -12 -49t-68 -17q-51 -14 -57 -28q-27 -61 -51 -187l-144 -751 q-20 -104 -20 -181q0 -16 27 -28q37 -16 53 -19l26 -4q4 0 5 -6q0 -23 -13 -47q-205 10 -207 10l-23 -1q-24 -1 -79 -4t-119 -5q-4 4 -4 16zM465 -453q0 6 20 19q23 12 47 41q23 27 33 63q6 35 -26.5 61.5t-32.5 53.5q0 47 55 78t117 31q27 -23 27 -82q0 -74 -66 -158 q-70 -90 -123 -117q-4 -4 -16 -4q-35 0 -35 14zM473 651q98 59 248 203q154 147 295 301l5 6q5 6 9 10q12 12 21 23q2 2 5 6t6 9t5 8q8 10 8 20q0 14 -35 25q-31 8 -59 8q-6 0 -6 12q0 20 8 35q27 -4 64 -6q12 0 36.5 -1t34.5 -3q20 -2 62 -2q49 0 124.5 6t90.5 6 q0 -47 -13 -47q-139 -14 -213 -88l-487 -488q-10 -10 -10 -24q0 -15 12 -31l408 -496q33 -41 108 -63q84 -25 103 -25q4 0 4 -12q0 -16 -11 -41q-100 -6 -149 -6q-68 0 -121 20q-63 25 -78 37q-23 18 -35 35q-391 495 -440 563z" />
<glyph unicode="&#x137;" horiz-adv-x="968" d="M172 0l217 1118q18 82 19 107q0 37 -121 37q-6 0 -6 12q0 25 16 41q129 12 252 55q10 -6 10 -39q0 -25 -24 -149l-105 -539l23 27q29 33 53 57q31 31 72 66q40 34 92 55q55 23 98 22q59 0 104.5 -38.5t45.5 -98.5q0 -129 -115 -213t-295 -114q119 -180 182.5 -237.5 t108.5 -57.5q37 0 67 28q33 29 49 60q8 0 21 -17q12 -15 12 -24q-10 -37 -74 -101q-66 -66 -122 -65q-29 0 -52 8q-27 10 -49 27l-24.5 16t-22.5 16q-14 10 -45 50q-25 33 -41 51q-23 27 -41 57l-35 57q-2 2 -8 11.5t-12 21.5t-14 25l-11.5 19t-8.5 14.5t-5 10.5t-4 7 l-76 -383q-41 -10 -65 -10q-21 0 -66 10zM393 -457q0 6 22.5 18.5t47.5 41.5q23 27 33 63q6 35 -27 61.5t-33 53.5q0 47 55.5 77.5t116.5 30.5q27 -23 27 -82q0 -74 -66 -157q-70 -90 -123 -117q-2 -2 -16 -2q-37 0 -37 12zM410 465q0 -4 4 -4q2 0 9 1t11 1q2 0 51 8 q10 2 72 18q25 6 76 29q35 14 72 41q27 18 51 57q20 33 20 74q0 86 -80 86q-66 0 -176 -135t-110 -176z" />
<glyph unicode="&#x138;" horiz-adv-x="892" d="M39 0l121 621q18 80 18 86q0 47 -96 47q-12 0 -12 6q0 12 8 26q10 16 12 17q35 0 68 8q68 16 71 18q59 23 62 23q8 4 24.5 9t22.5 9l16 9q10 0 11 -33q-41 -74 -62 -174l-6 -19q-6 -12 2 -12l3 3q3 3 8 9t12 13l51 57q20 23 69 68q41 37 84 57q49 23 92 22q66 0 117 -47 q49 -45 49 -114q0 -71 -30 -123q-31 -53 -88 -86q-47 -27 -125 -54q-63 -20 -158 -36q129 -193 190 -244q66 -55 119 -55q18 0 37 12q20 14 29 24l24 33q14 20 15 25q2 2 8 2q23 0 26 -25q-14 -47 -69 -114.5t-119 -67.5q-39 0 -88 23q-43 20 -90 73q-66 74 -76 88l-78 107 l-63 92l-2 2q-2 0 -2 -2l-74 -383q-41 -10 -66 -10q-20 0 -65 10zM276 465q0 -4 5 -4q6 2 19 3t19 1q25 3 86.5 18.5t110.5 36.5q47 20 86 59t39 87q0 53 -18 79q-22 31 -62 31q-63 0 -174 -135t-111 -176z" />
<glyph unicode="&#x139;" horiz-adv-x="995" d="M47 10q0 47 14 47q25 0 74 13q47 12 58 28q27 55 51 187l141 739q23 117 23 184q0 22 -43 37q-45 16 -68 17q-4 0 -4 10q0 31 14 45q8 0 20.5 -2t35 -3t40.5 -3q47 -4 121 -4q49 0 123 6t88 6v-6q0 -49 -12 -49t-68 -17q-51 -14 -57 -28q-27 -61 -51 -187l-144 -751 q-18 -100 -18 -150q0 -29 16 -35q18 -6 107 -6h90q172 0 242 35q35 18 75 70q45 57 80 131q6 12 31 12q31 0 41 -12q-135 -250 -164 -332q-104 0 -327.5 6t-303.5 6l-223 -10q-2 2 -2 16zM469 1442q0 12 78 77.5t121 94.5q16 4 34 4q55 0 84 -14q31 -14 31 -33 q0 -34 -141 -92q-139 -57 -180 -58q-27 1 -27 21z" />
<glyph unicode="&#x13a;" horiz-adv-x="495" d="M172 92q0 41 14 107l189 968q6 31 6 58q0 37 -123 37q-4 0 -4 12q0 27 14 41q137 12 256 55q12 -6 13 -39q0 -25 -25 -149l-190 -969q-6 -25 -7 -51q0 -49 21 -49q8 0 29 10q2 0 32 27l31 30q8 8 14.5 15.5t12.5 13.5l12 12q8 0 16 -18q10 -20 11 -27 q-25 -45 -109 -116.5t-143 -71.5q-31 0 -49 28q-21 31 -21 76zM344 1442q0 10 78 76q90 76 121 96q16 4 35 4q55 0 84 -14q31 -14 30 -33q0 -34 -141 -92q-139 -57 -180 -58q-6 0 -16.5 6.5t-10.5 14.5z" />
<glyph unicode="&#x13b;" horiz-adv-x="995" d="M47 10q0 47 14 47q25 0 74 13q47 12 58 28q27 55 51 187l141 739q23 117 23 184q0 22 -43 37q-45 16 -68 17q-4 0 -4 10q0 31 14 45q8 0 20.5 -2t35 -3t40.5 -3q47 -4 121 -4q49 0 123 6t88 6v-6q0 -49 -12 -49t-68 -17q-51 -14 -57 -28q-27 -61 -51 -187l-144 -751 q-18 -100 -18 -150q0 -29 16 -35q18 -6 107 -6h90q172 0 242 35q35 18 75 70q45 57 80 131q6 12 31 12q31 0 41 -12q-135 -250 -164 -332q-104 0 -327.5 6t-303.5 6l-223 -10q-2 2 -2 16zM340 -455q0 6 22.5 18.5t47.5 41.5q23 27 32 63q6 35 -26.5 61.5t-32.5 53.5 q0 49 53 78q55 31 119 30q25 -23 25 -81q0 -76 -64 -158q-70 -88 -125 -117q-4 -4 -14 -4q-37 0 -37 14z" />
<glyph unicode="&#x13c;" horiz-adv-x="495" d="M111 -453q0 2 22 19q29 20 47 41q27 31 33 63q6 35 -26.5 61.5t-32.5 53.5q0 49 53 78q55 31 119 31q25 -20 24 -82q0 -76 -63 -158q-68 -88 -123 -117q-4 -4 -17 -4q-36 0 -36 14zM172 92q0 41 14 107l189 968q6 31 6 58q0 37 -123 37q-4 0 -4 12q0 27 14 41 q137 12 256 55q12 -6 13 -39q0 -25 -25 -149l-190 -969q-6 -25 -7 -51q0 -49 21 -49q8 0 29 10q2 0 32 27l31 30q8 8 14.5 15.5t12.5 13.5l12 12q8 0 16 -18q10 -20 11 -27q-25 -45 -109 -116.5t-143 -71.5q-31 0 -49 28q-21 31 -21 76z" />
<glyph unicode="&#x13d;" horiz-adv-x="995" d="M47 10q0 47 14 47q25 0 74 13q47 12 58 28q27 55 51 187l141 739q23 117 23 184q0 22 -43 37q-45 16 -68 17q-4 0 -4 10q0 31 14 45q8 0 20.5 -2t35 -3t40.5 -3q47 -4 121 -4q49 0 123 6t88 6v-6q0 -49 -12 -49t-68 -17q-51 -14 -57 -28q-27 -61 -51 -187l-144 -751 q-18 -100 -18 -150q0 -29 16 -35q18 -6 107 -6h90q172 0 242 35q35 18 75 70q45 57 80 131q6 12 31 12q31 0 41 -12q-135 -250 -164 -332q-104 0 -327.5 6t-303.5 6l-223 -10q-2 2 -2 16zM1040 1038l23 19q29 25 47 53q23 35 23 76q0 12 -13 37q-10 20 -10 45q0 57 43 88 q45 33 104 33q10 -20 11 -58q0 -28 -6 -67q-12 -63 -78 -144q-61 -76 -111 -104q-2 -2 -12 -2q-8 0 -14 8q-7 10 -7 16z" />
<glyph unicode="&#x13e;" horiz-adv-x="495" d="M172 92q0 41 14 107l189 968q6 31 6 58q0 37 -123 37q-4 0 -4 12q0 27 14 41q137 12 256 55q12 -6 13 -39q0 -25 -25 -149l-190 -969q-6 -25 -7 -51q0 -49 21 -49q8 0 29 10q2 0 32 27l31 30q8 8 14.5 15.5t12.5 13.5l12 12q8 0 16 -18q10 -20 11 -27 q-25 -45 -109 -116.5t-143 -71.5q-31 0 -49 28q-21 31 -21 76zM612 1038q10 6 25 19q25 20 45 53q23 35 23 76q0 12 -11 35q-12 29 -12 47q0 55 43 88q41 33 106 33q10 -20 11 -58q0 -28 -6 -67q-12 -59 -78 -142q-66 -80 -111 -106q-2 -2 -14 -2q-8 0 -15 8q-6 10 -6 16z " />
<glyph unicode="&#x13f;" horiz-adv-x="995" d="M47 10q0 47 14 47q25 0 74 13q47 12 58 28q27 55 51 187l141 739q23 117 23 184q0 22 -43 37q-45 16 -68 17q-4 0 -4 10q0 31 14 45q8 0 20.5 -2t35 -3t40.5 -3q47 -4 121 -4q49 0 123 6t88 6v-6q0 -49 -12 -49t-68 -17q-51 -14 -57 -28q-27 -61 -51 -187l-144 -751 q-18 -100 -18 -150q0 -29 16 -35q18 -6 107 -6h90q172 0 242 35q35 18 75 70q45 57 80 131q6 12 31 12q31 0 41 -12q-135 -250 -164 -332q-104 0 -327.5 6t-303.5 6l-223 -10q-2 2 -2 16zM805 666q10 47 41 71q35 29 71.5 29t59 -28.5t12.5 -71.5q-8 -43 -39 -70 q-35 -31 -71.5 -31t-61.5 31q-20 27 -12 70z" />
<glyph unicode="&#x140;" horiz-adv-x="706" d="M172 92q0 41 14 107l189 968q6 31 6 58q0 37 -123 37q-4 0 -4 12q0 27 14 41q137 12 256 55q12 -6 13 -39q0 -25 -25 -149l-190 -969q-6 -25 -7 -51q0 -49 21 -49q8 0 29 10q2 0 32 27l31 30q8 8 14.5 15.5t12.5 13.5l12 12q8 0 16 -18q10 -20 11 -27 q-25 -45 -109 -116.5t-143 -71.5q-31 0 -49 28q-21 31 -21 76zM530 598q10 47 41 72q35 29 72 28.5t59 -28.5q23 -31 15 -72q-10 -43 -41 -72q-33 -29 -72 -28q-37 0 -59 28q-23 31 -15 72z" />
<glyph unicode="&#x141;" horiz-adv-x="1138" d="M100 -2q-6 6 0 33q3 25 13 24q25 0 73 13q45 12 62 30q20 23 51 189l29 153l-127 -84q-31 49 -21 58l162 106l102 522q25 145 23 183q-4 16 -47 28q-47 12 -70 13q-6 0 -2 26q2 18 14 31q6 0 19.5 -1t35 -2t42.5 -3q49 -4 123 -4q47 0 71 2q12 2 38 3t40 1q43 2 70 4 q0 -23 -2 -29q-4 -29 -13 -28q-20 0 -69 -15q-55 -16 -60 -26q-27 -61 -51 -187l-78 -399l398 256q6 -6 16 -35q10 -27 4 -29l-434 -272l-53 -274q-18 -102 -17 -176q2 -20 121 -21h90q172 0 242 35q35 18 76 70q45 57 80 131q6 12 26 12q37 0 45 -12l-45 -82l-49 -92 l-39 -82q-23 -47 -31 -76q-95 0 -300.5 6t-331.5 6z" />
<glyph unicode="&#x142;" horiz-adv-x="497" d="M53 -6l13 57q12 0 63 15q43 12 49 26q12 27 37 139l74 363l-109 -74q-27 43 -14 55l135 95l84 428q14 74 14 129q-2 31 -82 30h-14q-8 0 -4 23q0 8 4 18q6 14 10 15q63 6 101 14q31 6 73 21q25 8 45 18q16 8 29 16l10 7h2q16 0 17 -33q-29 -61 -51 -174l-78 -406l100 70 q25 -45 17 -53l-134 -93l-82 -430q-25 -133 -22 -178q0 -14 39 -26q43 -14 55 -15q6 -2 2 -24q-4 -27 -8 -33q-47 2 -93 5t-65.5 4t-23.5 1t-24.5 -1t-69 -4t-99.5 -5z" />
<glyph unicode="&#x143;" horiz-adv-x="1325" d="M47 10q0 37 14 37q20 0 86 16q57 14 68 33q27 51 55 193l154 743q18 90 18 180q0 25 -53 37.5t-84 12.5q-4 0 -4 14q0 33 14 41q139 -8 199 -8q55 0 188 8q35 -129 146 -393q125 -295 237 -518q10 29 23 81l102 539q27 139 27 184q0 23 -55 37q-51 14 -86 15q-4 0 -4 14 q0 33 14 41q59 -2 112.5 -5t75.5 -4l23 -1q6 0 217 10q0 -55 -12 -55q-25 0 -84 -15q-66 -16 -72 -28q-25 -66 -49 -187l-152 -760q-8 -39 -26 -159q-4 -29 -9.5 -56.5l-8.5 -43t-3 -21.5q-8 -8 -20 -8q-27 0 -51 47l-50 111l-176 407l-266 612l-178 -878q-20 -94 -21 -179 q0 -15 31 -30q27 -14 66 -21l32 -6q4 0 4 -8q0 -20 -10 -45q-205 10 -207 10l-23 -1q-24 -1 -79 -4t-119 -5q-4 4 -4 16zM922 1442q0 14 75 78q72 59 123 94q16 4 33 4q57 0 86 -14q31 -14 31 -33q0 -34 -142 -92q-139 -57 -180 -58q-26 1 -26 21z" />
<glyph unicode="&#x144;" horiz-adv-x="983" d="M170 698q29 45 100 107q78 66 129 65q31 0 50 -28q20 -31 20 -76t-12 -107l-35 -184q16 35 86 125q66 86 164 178t155 92q100 0 101 -133q0 -84 -29 -217l-65 -307q-6 -25 -7 -51q0 -49 21 -49q12 0 29 10q14 10 34 27l31 30q8 8 14.5 15.5t12.5 13.5l12 12q2 0 14 -18 q10 -14 11 -27q-27 -47 -109 -117q-84 -72 -143 -71q-31 0 -49.5 28.5t-18.5 75.5q0 37 14 107l70 329q14 59 14 109q0 86 -39 86q-66 0 -204 -182q-137 -180 -179 -385l-34 -156q-23 -8 -62 -8q-41 0 -67 8l116 616q10 78 11 80q0 49 -21 49q-12 0 -22 -8q-4 -4 -13.5 -11 t-13.5 -11l-27 -27q-12 -12 -17 -18l-15 -19q-8 0 -17 19q-10 20 -10 28zM678 1016q0 15 86 110q94 104 143 142q16 10 54 10q78 0 77 -47q0 -41 -161 -141q-160 -98 -185 -99q-4 0 -10 8q-4 7 -4 17z" />
<glyph unicode="&#x145;" horiz-adv-x="1325" d="M47 10q0 37 14 37q20 0 86 16q57 14 68 33q27 51 55 193l154 743q18 90 18 180q0 25 -53 37.5t-84 12.5q-4 0 -4 14q0 33 14 41q139 -8 199 -8q55 0 188 8q35 -129 146 -393q125 -295 237 -518q10 29 23 81l102 539q27 139 27 184q0 23 -55 37q-51 14 -86 15q-4 0 -4 14 q0 33 14 41q59 -2 112.5 -5t75.5 -4l23 -1q6 0 217 10q0 -55 -12 -55q-25 0 -84 -15q-66 -16 -72 -28q-25 -66 -49 -187l-152 -760q-8 -39 -26 -159q-4 -29 -9.5 -56.5l-8.5 -43t-3 -21.5q-8 -8 -20 -8q-27 0 -51 47l-50 111l-176 407l-266 612l-178 -878q-20 -94 -21 -179 q0 -15 31 -30q27 -14 66 -21l32 -6q4 0 4 -8q0 -20 -10 -45q-205 10 -207 10l-23 -1q-24 -1 -79 -4t-119 -5q-4 4 -4 16zM516 -453q0 6 22.5 18.5t47.5 41.5q23 27 32 63q6 35 -26 62q-35 29 -35 53q0 47 55.5 78t116.5 31q27 -23 27 -82q0 -76 -64 -158q-70 -88 -125 -117 q-4 -4 -14 -4q-37 0 -37 14z" />
<glyph unicode="&#x146;" horiz-adv-x="983" d="M170 698q29 45 100 107q78 66 129 65q31 0 50 -28q20 -31 20 -76t-12 -107l-35 -184q16 35 86 125q66 86 164 178t155 92q100 0 101 -133q0 -84 -29 -217l-65 -307q-6 -25 -7 -51q0 -49 21 -49q12 0 29 10q14 10 34 27l31 30q8 8 14.5 15.5t12.5 13.5l12 12q2 0 14 -18 q10 -14 11 -27q-27 -47 -109 -117q-84 -72 -143 -71q-31 0 -49.5 28.5t-18.5 75.5q0 37 14 107l70 329q14 59 14 109q0 86 -39 86q-66 0 -204 -182q-137 -180 -179 -385l-34 -156q-23 -8 -62 -8q-41 0 -67 8l116 616q10 78 11 80q0 49 -21 49q-12 0 -22 -8q-4 -4 -13.5 -11 t-13.5 -11l-27 -27q-12 -12 -17 -18l-15 -19q-8 0 -17 19q-10 20 -10 28zM383 -453q0 6 20 19q23 12 48 41q23 27 32 63q6 35 -26.5 61.5t-32.5 53.5q0 47 55.5 78t116.5 31q27 -23 27 -82q0 -74 -66 -158q-70 -90 -123 -117q-4 -4 -16 -4q-35 0 -35 14z" />
<glyph unicode="&#x147;" horiz-adv-x="1325" d="M47 10q0 37 14 37q20 0 86 16q57 14 68 33q27 51 55 193l154 743q18 90 18 180q0 25 -53 37.5t-84 12.5q-4 0 -4 14q0 33 14 41q139 -8 199 -8q55 0 188 8q35 -129 146 -393q125 -295 237 -518q10 29 23 81l102 539q27 139 27 184q0 23 -55 37q-51 14 -86 15q-4 0 -4 14 q0 33 14 41q59 -2 112.5 -5t75.5 -4l23 -1q6 0 217 10q0 -55 -12 -55q-25 0 -84 -15q-66 -16 -72 -28q-25 -66 -49 -187l-152 -760q-8 -39 -26 -159q-4 -29 -9.5 -56.5l-8.5 -43t-3 -21.5q-8 -8 -20 -8q-27 0 -51 47l-50 111l-176 407l-266 612l-178 -878q-20 -94 -21 -179 q0 -15 31 -30q27 -14 66 -21l32 -6q4 0 4 -8q0 -20 -10 -45q-205 10 -207 10l-23 -1q-24 -1 -79 -4t-119 -5q-4 4 -4 16zM784 1675q10 41 27 41q14 0 74 -41q66 -45 96 -76q182 117 217 117q18 0 8 -41l-3 -2q-3 -2 -7 -5t-10 -7t-23.5 -17.5l-29.5 -23.5l-64 -51 q-43 -39 -94 -96q-12 -16 -23 -17q-6 0 -16 17q-23 45 -59 92q-10 12 -16.5 19t-16.5 19.5t-23 26.5q-35 41 -37 45z" />
<glyph unicode="&#x148;" horiz-adv-x="983" d="M170 698q29 45 100 107q78 66 129 65q31 0 50 -28q20 -31 20 -76t-12 -107l-35 -184q16 35 86 125q66 86 164 178t155 92q100 0 101 -133q0 -84 -29 -217l-65 -307q-6 -25 -7 -51q0 -49 21 -49q12 0 29 10q14 10 34 27l31 30q8 8 14.5 15.5t12.5 13.5l12 12q2 0 14 -18 q10 -14 11 -27q-27 -47 -109 -117q-84 -72 -143 -71q-31 0 -49.5 28.5t-18.5 75.5q0 37 14 107l70 329q14 59 14 109q0 86 -39 86q-66 0 -204 -182q-137 -180 -179 -385l-34 -156q-23 -8 -62 -8q-41 0 -67 8l116 616q10 78 11 80q0 49 -21 49q-12 0 -22 -8q-4 -4 -13.5 -11 t-13.5 -11l-27 -27q-12 -12 -17 -18l-15 -19q-8 0 -17 19q-10 20 -10 28zM506 1241q10 47 26 47q14 0 62 -45q51 -49 80 -88q168 133 198 133q16 0 7 -47l-3 -2q-3 -2 -7.5 -6t-10.5 -8l-47 -47l-59 -58l-88 -110q-12 -18 -21 -19q-6 0 -12 19q-22 55 -49 104l-45 78 q-28 43 -31 49z" />
<glyph unicode="&#x149;" horiz-adv-x="1247" d="M174 954l23 19q33 27 47 51q23 35 22 78q0 16 -10 37q-12 25 -12 45q0 57 43 88q45 33 104 33q10 -20 10 -58q0 -28 -6 -67q-12 -63 -78 -144q-63 -78 -108 -104q-2 -2 -14 -2q-8 0 -14.5 8t-6.5 16zM330 698q29 45 100 107q78 66 129 65q33 0 51 -28q18 -27 19 -76 q0 -45 -13 -107l-34 -184q16 35 86 125q66 86 164 178t155 92q100 0 100 -133q0 -92 -26 -217l-68 -307q-6 -25 -6 -51q0 -49 21 -49q12 0 28 10q14 10 35 27l31 30q8 8 14 15.5t12 13.5l13 12q2 0 14 -18q10 -14 10 -27q-29 -51 -106 -117q-84 -72 -146 -71q-31 0 -49 28.5 t-18 75.5q0 37 14 107l70 329q14 59 14 109q0 86 -39 86q-66 0 -205 -182q-137 -180 -178 -385l-35 -156q-23 -8 -61 -8q-41 0 -68 8l117 616q10 78 10 80q0 49 -18 49q-12 0 -23 -8l-28 -22l-27 -27q-12 -12 -17 -18l-16 -19q-8 0 -16 19q-10 20 -10 28z" />
<glyph unicode="&#x14a;" horiz-adv-x="1363" d="M8 10q0 37 15 37q18 0 83 16q59 14 70 33q23 45 53 193l156 743q16 80 16 180q0 25 -51 37.5t-84 12.5q-4 4 -4 12q0 4 4 24q2 14 10 19q139 -8 197 -8q55 0 189 8q31 -117 147 -393q125 -295 238 -518q6 16 20 81l102 539q27 139 27 184q0 23 -55 37q-51 14 -84 15 q-4 0 -4 14q0 33 14 41q59 -2 111.5 -5t74.5 -4l23 -1q6 0 217 10q0 -55 -10 -55q-27 0 -86 -15q-66 -16 -72 -28q-25 -66 -49 -187l-170 -872q-65 -338 -375 -547q-80 -55 -141 -80q-8 0 -17 12q-10 14 -10 21l4 26q74 51 76 54q55 43 113 98q72 68 129 158q61 95 92 196 l-463 1063l-178 -878q-20 -94 -21 -179q0 -14 33 -30q27 -14 66 -21l32 -6q4 0 5 -8q0 -20 -11 -45q-205 10 -209 10l-23 -1q-24 -1 -78 -4t-118 -5q-4 4 -4 16z" />
<glyph unicode="&#x14b;" horiz-adv-x="1015" d="M51 651q18 52 86 135q68 84 135 84q113 0 113 -145q0 -57 -35 -219v-4q2 -2 4 -2l11 20q29 49 30 53l45 72q25 40 56 80l59 72q27 29 61 53q29 20 58 20q76 0 119 -65q41 -61 41 -158q0 -80 -21 -180l-74 -377q-45 -227 -129 -338q-51 -72 -137 -137q-74 -57 -141 -84 q-18 18 -19 39q0 2 19 14q109 82 172 189q59 102 94 270q98 479 98 582q0 57 -16 75q-18 23 -57 23q-59 0 -179 -174q-119 -172 -149 -338l-43 -211q-37 -10 -64 -10q-23 0 -67 10l123 641q2 6 2 31q0 82 -53 82q-23 0 -70 -72l-51 -74q-3 0 -6 6q0 2 -3.5 8.5l-5.5 10.5 q-6 12 -6 18z" />
<glyph unicode="&#x14c;" horiz-adv-x="1247" d="M121 518q0 213 108 400q111 188 283 303q170 113 352 112q201 0 338 -149.5t137 -366.5q0 -219 -102 -409q-106 -199 -276 -312q-175 -117 -369 -116q-213 0 -342 153.5t-129 384.5zM301 535q0 -203 90 -336t252 -133q209 0 361 227q152 229 151 498q0 203 -88 329 q-88 129 -250 129q-215 0 -364 -223q-152 -225 -152 -491zM641 1475q0 4 14 43q12 35 29 34h465q8 0 6 -14q-8 -37 -25 -68q-6 -10 -18 -14h-461l-8 4q-4 9 -2 15z" />
<glyph unicode="&#x14d;" horiz-adv-x="823" d="M135 291q0 205 146 393q143 186 294 186q121 0 184.5 -81.5t63.5 -227.5q0 -207 -143 -389t-297 -182q-119 0 -184 78q-64 76 -64 223zM289 315q0 -115 37 -180q37 -63 92 -63q100 0 178 157q76 154 76 318q0 113 -33 178q-33 63 -86 63q-98 0 -182 -157 q-82 -156 -82 -316zM385 995q-2 6 0 15q0 2 14 41q12 33 25 32h387q8 0 6 -14q-4 -25 -22 -63l-17 -15h-385z" />
<glyph unicode="&#x14e;" horiz-adv-x="1247" d="M121 518q0 213 108 400q111 188 283 303q170 113 352 112q201 0 338 -149.5t137 -366.5q0 -219 -102 -409q-106 -199 -276 -312q-175 -117 -369 -116q-213 0 -342 153.5t-129 384.5zM301 535q0 -203 90 -336t252 -133q209 0 361 227q152 229 151 498q0 203 -88 329 q-88 129 -250 129q-215 0 -364 -223q-152 -225 -152 -491zM723 1638v13q2 6 14 12q14 8 22.5 8t8.5 -4q2 -53 41 -84q37 -31 96 -31q61 0 111 31q51 31 74 84q0 4 10 4q12 0 20 -8q10 -10 8 -12l-2 -6q-2 -4 -2 -9q-23 -68 -96 -127q-66 -53 -139.5 -53t-120.5 53 q-47 55 -45 129z" />
<glyph unicode="&#x14f;" horiz-adv-x="823" d="M135 291q0 205 146 393q143 186 294 186q121 0 184.5 -81.5t63.5 -227.5q0 -207 -143 -389t-297 -182q-119 0 -184 78q-64 76 -64 223zM289 315q0 -115 37 -180q37 -63 92 -63q100 0 178 157q76 154 76 318q0 113 -33 178q-33 63 -86 63q-98 0 -182 -157 q-82 -156 -82 -316zM430 1194v8l2 6q2 8 14 17q14 10 23 10q6 0 6 -6q4 -66 39 -105q37 -41 96 -41q57 0 111 41q52 40 80 105q0 6 8 6t18.5 -10.5t8.5 -16.5l-2 -8q-2 -4 -3 -8q-31 -83 -98 -141q-70 -59 -141 -60q-74 0 -121 60q-45 55 -41 143z" />
<glyph unicode="&#x150;" horiz-adv-x="1247" d="M121 518q0 213 108 400q111 188 283 303q170 113 352 112q201 0 338 -149.5t137 -366.5q0 -219 -102 -409q-106 -199 -276 -312q-175 -117 -369 -116q-213 0 -342 153.5t-129 384.5zM301 535q0 -203 90 -336t252 -133q209 0 361 227q152 229 151 498q0 203 -88 329 q-88 129 -250 129q-215 0 -364 -223q-152 -225 -152 -491zM688 1483q2 14 107 102q121 102 161 131q12 6 33 6q47 0 70 -18q18 -16 14 -41q-10 -47 -172 -127q-164 -80 -199 -80q-20 0 -14 27zM969 1483q4 16 104 102q121 102 162 131q12 6 33 6q47 0 69 -18q20 -16 17 -41 q-10 -47 -174 -127t-199 -80q-18 0 -12 27z" />
<glyph unicode="&#x151;" horiz-adv-x="823" d="M135 291q0 205 146 393q143 186 294 186q121 0 184.5 -81.5t63.5 -227.5q0 -207 -143 -389t-297 -182q-119 0 -184 78q-64 76 -64 223zM289 315q0 -115 37 -180q37 -63 92 -63q100 0 178 157q76 154 76 318q0 113 -33 178q-33 63 -86 63q-98 0 -182 -157 q-82 -156 -82 -316zM430 1016q0 18 84 110q90 100 145 142q16 10 54 10q78 0 78 -47q0 -41 -162 -141q-160 -98 -185 -99q-4 0 -10 8q-4 7 -4 17zM686 1016q0 18 84 110q90 100 145 142q16 10 54 10q78 0 78 -47q0 -41 -162 -141q-160 -98 -185 -99q-4 0 -10 8q-4 7 -4 17z " />
<glyph unicode="&#x152;" horiz-adv-x="1869" d="M63 518q0 209 111 400q111 188 283 303q170 113 352 112q104 0 258 -10t244 -10q102 0 280 8q133 6 305 6q-2 -18 -2 -78q0 -55 2 -98t2 -94q-10 -10 -36 -10q-25 0 -25 14q-6 111 -51 141.5t-146 30.5h-108q-141 0 -152 -27q-22 -61 -37 -135l-63 -348q0 -8 4 -10 q8 -4 19 -4q6 0 11 -1t11 -1h29h90q133 0 164 18q33 18 78 123q6 14 28 14q25 0 31 -10l-76 -383q-10 -8 -27 -8q-27 0 -28 14q-4 59 -8 82q-6 29 -9 33l-6 6q-6 4 -8 6q-23 16 -192 16q-133 0 -138 -18l-57 -297q-23 -113 -22 -174q0 -29 16 -35q14 -6 106 -6h90 q172 0 242 35q35 18 76 70q45 57 80 131q6 12 31 12q33 0 40 -12q-135 -250 -163 -332q-31 0 -330 8q-223 6 -303 6q-133 0 -215 -4q-104 -8 -113 -8l-117 -10q-66 -4 -77 -4q-215 0 -344.5 153.5t-129.5 384.5zM246 535q0 -203 90 -336t252 -133q131 0 205 20q78 23 155 94 q14 12 27 33q16 29 24 49l23 57q2 6 20 70q6 23 11.5 41.5t7.5 30.5q2 10 9 37.5t9 40.5q10 45 15 71l14 72l12 61q0 10 8 45q4 14 7.5 32t3.5 20l8 49q6 37 6 53q0 6 4 51q2 33 0 51q-2 12 -6 46q-4 31 -10 43q-12 25 -21 34q-12 14 -26 27q-23 18 -33 23q-14 6 -39 14 q-14 4 -43 8q-25 3 -43 6q-25 4 -47 4h-43h-45h-39q-217 0 -366.5 -223t-149.5 -491z" />
<glyph unicode="&#x153;" horiz-adv-x="1173" d="M53 315q0 203 139.5 379t309.5 176q156 0 211 -180q147 180 311 180q139 0 139 -157q0 -78 -86 -162q-92 -88 -190 -135q-104 -49 -168 -49q-8 0 -8 -19q0 -236 151 -235q43 0 84 32q45 37 72 68q29 35 31 35q3 0 6 -6q0 -2 3 -8.5l5 -10.5q4 -8 4 -18q-14 -47 -98 -131 q-82 -82 -164 -82q-63 0 -125 45q-59 43 -90 121q-135 -168 -307 -168q-111 0 -170.5 96t-59.5 229zM205 340q0 -270 129 -270q94 0 172 151.5t78 310.5q0 66 -2 91q-4 41 -15 79q-12 45 -37 66q-29 25 -65 25q-102 0 -182 -150q-78 -147 -78 -303zM725 449q0 -12 12 -13 q74 0 181 86q109 86 108 183q0 88 -43 88q-84 0 -172 -138q-86 -134 -86 -206z" />
<glyph unicode="&#x154;" horiz-adv-x="1185" d="M47 10q0 37 14.5 37t71.5 14q45 12 55 31q29 70 54 193l164 827q10 57 10 100q0 25 -41 37q-39 12 -66 13q-4 0 -4 14q0 33 14 41q86 -6 207 -6q80 0 127 2q94 4 123 4q49 0 117 -14q51 -10 115 -41q51 -25 92 -86q35 -53 35 -132q0 -68 -27 -122q-29 -59 -64 -101 q-37 -43 -86 -80q-51 -39 -81 -55q-51 -27 -64 -33q-16 -6 -10 -22q49 -160 98 -273q66 -150 107 -211q4 -6 20 -28q12 -16 21 -23l20 -16q12 -8 21 -10q12 -3 18 -7q8 -4 18 -4q4 0 12 -1l7 -1h18h17q14 -37 2 -55q-55 -10 -117 -10q-129 0 -217 131q-86 129 -197 471 q-10 29 -88 29q-61 0 -79.5 -6.5t-24.5 -28.5l-58 -309q-23 -117 -22 -181q0 -18 27 -30q31 -14 55 -17l26 -4q4 0 5 -6q0 -23 -13 -47q-205 10 -209 10q-2 0 -24.5 -1t-76.5 -4t-118 -5q-4 4 -4 16zM492 733q0 -29 92 -28q94 0 176 34q84 37 145 119q59 80 60 197 q0 186 -220 186q-101 0 -129 -6q-25 -6 -30 -31l-94 -467v-4zM545 1442q0 12 76 76q82 70 122 96q16 4 33 4q57 0 86 -14q31 -14 31 -33q0 -34 -141 -92q-139 -57 -181 -58q-6 0 -16 6.5t-10 14.5z" />
<glyph unicode="&#x155;" horiz-adv-x="743" d="M184 698q29 45 101 107q78 66 129 65q31 0 49 -28q18 -27 18 -76q0 -45 -12 -107l-31 -167q49 115 150 247q100 131 166 131q68 0 110 -63q0 -135 -73 -135q-16 0 -39 24q-23 27 -45 27q-61 0 -175 -174q-115 -178 -145 -338l-37 -211q-35 -6 -65 -6q-37 0 -74 6l119 616 q10 78 10 80q0 49 -21 49q-12 0 -22 -8q-4 -4 -13.5 -11t-13.5 -11l-26 -27q-12 -12 -17 -18l-16 -19q-6 0 -16 19q-11 20 -11 28zM532 1016q0 18 84 110q90 100 146 142q16 10 51 10q80 0 80 -47q0 -41 -162 -141q-160 -98 -184 -99q-4 0 -10 8q-5 7 -5 17z" />
<glyph unicode="&#x156;" horiz-adv-x="1185" d="M47 10q0 37 14.5 37t71.5 14q45 12 55 31q29 70 54 193l164 827q10 57 10 100q0 25 -41 37q-39 12 -66 13q-4 0 -4 14q0 33 14 41q86 -6 207 -6q80 0 127 2q94 4 123 4q49 0 117 -14q51 -10 115 -41q51 -25 92 -86q35 -53 35 -132q0 -68 -27 -122q-29 -59 -64 -101 q-37 -43 -86 -80q-51 -39 -81 -55q-51 -27 -64 -33q-16 -6 -10 -22q49 -160 98 -273q66 -150 107 -211q4 -6 20 -28q12 -16 21 -23l20 -16q12 -8 21 -10q12 -3 18 -7q8 -4 18 -4q4 0 12 -1l7 -1h18h17q14 -37 2 -55q-55 -10 -117 -10q-129 0 -217 131q-86 129 -197 471 q-10 29 -88 29q-61 0 -79.5 -6.5t-24.5 -28.5l-58 -309q-23 -117 -22 -181q0 -18 27 -30q31 -14 55 -17l26 -4q4 0 5 -6q0 -23 -13 -47q-205 10 -209 10q-2 0 -24.5 -1t-76.5 -4t-118 -5q-4 4 -4 16zM475 -453q0 2 23 19q29 20 47 41q27 31 33 63q6 35 -27 62q-35 29 -35 53 q0 47 55.5 78t116.5 31q27 -23 27 -82q0 -76 -64 -158q-70 -88 -125 -117q-4 -4 -14 -4q-37 0 -37 14zM492 733q0 -29 92 -28q94 0 176 34q84 37 145 119q59 80 60 197q0 186 -220 186q-101 0 -129 -6q-25 -6 -30 -31l-94 -467v-4z" />
<glyph unicode="&#x157;" horiz-adv-x="743" d="M131 -453q0 6 22.5 18.5t47.5 41.5q23 27 32 63q6 35 -26.5 61.5t-32.5 53.5q0 47 55.5 78t116.5 31q27 -23 27 -82q0 -74 -66 -158q-70 -90 -123 -117q-4 -4 -16 -4q-37 0 -37 14zM184 698q29 45 101 107q78 66 129 65q31 0 49 -28q18 -27 18 -76q0 -45 -12 -107 l-31 -167q49 115 150 247q100 131 166 131q68 0 110 -63q0 -135 -73 -135q-16 0 -39 24q-23 27 -45 27q-61 0 -175 -174q-115 -178 -145 -338l-37 -211q-35 -6 -65 -6q-37 0 -74 6l119 616q10 78 10 80q0 49 -21 49q-12 0 -22 -8q-4 -4 -13.5 -11t-13.5 -11l-26 -27 q-12 -12 -17 -18l-16 -19q-6 0 -16 19q-11 20 -11 28z" />
<glyph unicode="&#x158;" horiz-adv-x="1185" d="M47 10q0 37 14.5 37t71.5 14q45 12 55 31q29 70 54 193l164 827q10 57 10 100q0 25 -41 37q-39 12 -66 13q-4 0 -4 14q0 33 14 41q86 -6 207 -6q80 0 127 2q94 4 123 4q49 0 117 -14q51 -10 115 -41q51 -25 92 -86q35 -53 35 -132q0 -68 -27 -122q-29 -59 -64 -101 q-37 -43 -86 -80q-51 -39 -81 -55q-51 -27 -64 -33q-16 -6 -10 -22q49 -160 98 -273q66 -150 107 -211q4 -6 20 -28q12 -16 21 -23l20 -16q12 -8 21 -10q12 -3 18 -7q8 -4 18 -4q4 0 12 -1l7 -1h18h17q14 -37 2 -55q-55 -10 -117 -10q-129 0 -217 131q-86 129 -197 471 q-10 29 -88 29q-61 0 -79.5 -6.5t-24.5 -28.5l-58 -309q-23 -117 -22 -181q0 -18 27 -30q31 -14 55 -17l26 -4q4 0 5 -6q0 -23 -13 -47q-205 10 -209 10q-2 0 -24.5 -1t-76.5 -4t-118 -5q-4 4 -4 16zM492 733q0 -29 92 -28q94 0 176 34q84 37 145 119q59 80 60 197 q0 186 -220 186q-101 0 -129 -6q-25 -6 -30 -31l-94 -467v-4zM510 1675q10 41 25 41q16 0 75 -41q45 -31 95 -76q76 47 131 78q72 39 88 39q18 0 8 -41l-3 -2q-3 -2 -7 -6t-11 -8l-21 -15.5l-32 -23.5q-33 -23 -63 -51q-53 -47 -97 -96q-12 -16 -20 -17q-6 0 -16 17 q-18 40 -62 92q-39 49 -53 65q-25 27 -37 45z" />
<glyph unicode="&#x159;" horiz-adv-x="743" d="M184 698q29 45 101 107q78 66 129 65q31 0 49 -28q18 -27 18 -76q0 -45 -12 -107l-31 -167q49 115 150 247q100 131 166 131q68 0 110 -63q0 -135 -73 -135q-16 0 -39 24q-23 27 -45 27q-61 0 -175 -174q-115 -178 -145 -338l-37 -211q-35 -6 -65 -6q-37 0 -74 6l119 616 q10 78 10 80q0 49 -21 49q-12 0 -22 -8q-4 -4 -13.5 -11t-13.5 -11l-26 -27q-12 -12 -17 -18l-16 -19q-6 0 -16 19q-11 20 -11 28zM408 1241q10 47 26 47q14 0 62 -45q51 -49 79 -88q29 25 119 88q63 45 80 45t6 -47l-3 -2q-3 -2 -7 -6t-10 -8l-47 -47l-60 -58l-88 -110 q-12 -18 -18 -19q-8 0 -15 19q-22 55 -49 104l-45 78q-27 43 -30 49z" />
<glyph unicode="&#x15a;" horiz-adv-x="868" d="M98 37q8 115 8 162q0 53 -2 92t-2 61q0 14 37 15q16 0 39 -17q0 -45 8 -84q8 -37 35 -90q25 -51 80 -78q57 -29 133 -28q104 0 190.5 73.5t86.5 200.5q0 57 -49 117q-49 58 -117 104l-137 97q-61 45 -115 114q-49 63 -49 139q0 182 131 299q133 117 317 117q53 0 133 -20 q94 -25 125 -27l-26 -223q-6 -63 -9 -68q-4 -10 -10 -10q-29 0 -45 12q-4 4 -4 25q0 95 -61 160q-61 66 -142 65q-114 0 -184 -67q-70 -68 -70 -174q0 -108 99 -185q18 -16 130.5 -94t133.5 -96q40 -34 80 -99q41 -66 41 -133q0 -61 -31 -131q-29 -66 -86 -133 q-55 -65 -148 -104q-94 -41 -202.5 -41t-317.5 49zM680 1442q0 14 76 78q72 59 123 94q16 4 32 4q57 0 86 -14q31 -14 31 -33q0 -34 -141 -92q-139 -57 -180 -58q-27 1 -27 21z" />
<glyph unicode="&#x15b;" horiz-adv-x="638" d="M133 102q0 33 21 64q18 29 49 29q27 0 49 -29q25 -31 55 -60q33 -31 86 -30q43 0 72 28q27 27 27 64q0 53 -39 111q-49 72 -84 106q-46 46 -86 111q-39 63 -39 135q0 84 80 164q82 82 198.5 82t179.5 -76q10 -27 11 -43q0 -35 -20.5 -61.5t-49.5 -26.5q-27 0 -49 28 q-25 31 -55 60q-35 31 -86 30q-43 0 -68 -28q-23 -25 -23 -64q0 -53 39 -110q49 -72 84 -107q46 -46 86 -110q39 -63 39 -136q0 -111 -79.5 -178t-206.5 -67q-117 0 -181 75q-10 16 -10 39zM426 1022q0 15 86 111q94 104 143 141q16 10 54 10q78 0 77 -47q0 -41 -161 -141 q-160 -98 -185 -99q-4 0 -10 9q-4 6 -4 16z" />
<glyph unicode="&#x15c;" horiz-adv-x="868" d="M98 37q8 115 8 162q0 53 -2 92t-2 61q0 14 37 15q16 0 39 -17q0 -45 8 -84q8 -37 35 -90q25 -51 80 -78q57 -29 133 -28q104 0 190.5 73.5t86.5 200.5q0 57 -49 117q-49 58 -117 104l-137 97q-61 45 -115 114q-49 63 -49 139q0 182 131 299q133 117 317 117q53 0 133 -20 q94 -25 125 -27l-26 -223q-6 -63 -9 -68q-4 -10 -10 -10q-29 0 -45 12q-4 4 -4 25q0 95 -61 160q-61 66 -142 65q-114 0 -184 -67q-70 -68 -70 -174q0 -108 99 -185q18 -16 130.5 -94t133.5 -96q40 -34 80 -99q41 -66 41 -133q0 -61 -31 -131q-29 -66 -86 -133 q-55 -65 -148 -104q-94 -41 -202.5 -41t-317.5 49zM446 1495q9 9 31 25l60 41q20 14 63 47q68 49 111 92q20 16 24 16q16 0 23 -16q41 -70 63 -96l51 -52q10 -10 24.5 -23t18.5 -18l17 -16q-8 -39 -31 -39q-37 0 -196 117q-66 -39 -146 -78t-100.5 -39t-12.5 39z" />
<glyph unicode="&#x15d;" horiz-adv-x="638" d="M133 102q0 33 21 64q18 29 49 29q27 0 49 -29q25 -31 55 -60q33 -31 86 -30q43 0 72 28q27 27 27 64q0 53 -39 111q-49 72 -84 106q-46 46 -86 111q-39 63 -39 135q0 84 80 164q82 82 198.5 82t179.5 -76q10 -27 11 -43q0 -35 -20.5 -61.5t-49.5 -26.5q-27 0 -49 28 q-25 31 -55 60q-35 31 -86 30q-43 0 -68 -28q-23 -25 -23 -64q0 -53 39 -110q49 -72 84 -107q46 -46 86 -110q39 -63 39 -136q0 -111 -79.5 -178t-206.5 -67q-117 0 -181 75q-10 16 -10 39zM311 1014q-3 15 0 24l125 103q86 72 109 100q18 18 20 19q6 0 19 -19l26.5 -42.5 t20.5 -33t8 -12.5q14 -18 43 -51l24.5 -27.5t16.5 -17.5q12 -12 12 -19q-10 -41 -24 -41q-34 0 -172 117q-49 -35 -125 -76t-90 -41q-9 1 -13 17z" />
<glyph unicode="&#x15e;" horiz-adv-x="868" d="M98 37q8 115 8 162q0 53 -2 92t-2 61q0 14 37 15q16 0 39 -17q0 -45 8 -84q8 -37 35 -90q25 -51 80 -78q57 -29 133 -28q104 0 190.5 73.5t86.5 200.5q0 57 -49 117q-49 58 -117 104l-137 97q-61 45 -115 114q-49 63 -49 139q0 182 131 299q133 117 317 117q53 0 133 -20 q94 -25 125 -27l-26 -223q-6 -63 -9 -68q-4 -10 -10 -10q-29 0 -45 12q-4 4 -4 25q0 95 -61 160q-61 66 -142 65q-114 0 -184 -67q-70 -68 -70 -174q0 -108 99 -185q18 -16 130.5 -94t133.5 -96q40 -34 80 -99q41 -66 41 -133q0 -61 -31 -131q-29 -66 -86 -133 q-55 -65 -148 -104q-94 -41 -202.5 -41t-317.5 49zM221 -295q4 14 15 23q14 10 22 10q14 0 35 -14q23 -16 41 -17q39 0 74 25q31 20 36 55q6 37 -12 57q-18 23 -40.5 23t-61.5 -17q-3 0 -13 13q-8 10 -4 16q12 12 43 53q12 14 28.5 37t23.5 31h47l-52 -53h58q39 0 61 -35 q20 -33 13 -82q-14 -78 -86 -129q-68 -49 -156 -49q-49 0 -72 20v33z" />
<glyph unicode="&#x15f;" horiz-adv-x="638" d="M133 102q0 33 21 64q18 29 49 29q27 0 49 -29q25 -31 55 -60q33 -31 86 -30q43 0 72 28q27 27 27 64q0 53 -39 111q-49 72 -84 106q-46 46 -86 111q-39 63 -39 135q0 84 80 164q82 82 198.5 82t179.5 -76q10 -27 11 -43q0 -35 -20.5 -61.5t-49.5 -26.5q-27 0 -49 28 q-25 31 -55 60q-35 31 -86 30q-43 0 -68 -28q-23 -25 -23 -64q0 -53 39 -110q49 -72 84 -107q46 -46 86 -110q39 -63 39 -136q0 -111 -79.5 -178t-206.5 -67q-117 0 -181 75q-10 16 -10 39zM166 -262q0 20 10 29q14 10 21 10q8 0 28 -15q18 -12 35 -12q39 0 67.5 22.5 t28.5 59.5q0 27 -14 39t-35 12q-23 0 -49 -12q-4 0 -8 6q-6 8 -6 14q0 2 10 17l29 37l23.5 29.5t17.5 23.5h38l-40 -45h45q29 0 47 -23q18 -20 18 -55q0 -61 -57 -117q-61 -57 -152 -57q-35 0 -57 18v19z" />
<glyph unicode="&#x160;" horiz-adv-x="868" d="M98 37q8 115 8 162q0 53 -2 92t-2 61q0 14 37 15q16 0 39 -17q0 -45 8 -84q8 -37 35 -90q25 -51 80 -78q57 -29 133 -28q104 0 190.5 73.5t86.5 200.5q0 57 -49 117q-49 58 -117 104l-137 97q-61 45 -115 114q-49 63 -49 139q0 182 131 299q133 117 317 117q53 0 133 -20 q94 -25 125 -27l-26 -223q-6 -63 -9 -68q-4 -10 -10 -10q-29 0 -45 12q-4 4 -4 25q0 95 -61 160q-61 66 -142 65q-114 0 -184 -67q-70 -68 -70 -174q0 -108 99 -185q18 -16 130.5 -94t133.5 -96q40 -34 80 -99q41 -66 41 -133q0 -61 -31 -131q-29 -66 -86 -133 q-55 -65 -148 -104q-94 -41 -202.5 -41t-317.5 49zM543 1675q10 41 24.5 41t73.5 -41q66 -45 96 -76q180 117 219 117q18 0 9 -41l-3 -2q-3 -2 -8.5 -5t-11.5 -7l-51 -41l-64 -51q-53 -47 -96 -96q-12 -16 -20 -17q-6 0 -17 17q-23 45 -59 92q-10 12 -16.5 19t-16.5 19.5 l-22 26.5q-35 41 -37 45z" />
<glyph unicode="&#x161;" horiz-adv-x="638" d="M133 102q0 33 21 64q18 29 49 29q27 0 49 -29q25 -31 55 -60q33 -31 86 -30q43 0 72 28q27 27 27 64q0 53 -39 111q-49 72 -84 106q-46 46 -86 111q-39 63 -39 135q0 84 80 164q82 82 198.5 82t179.5 -76q10 -27 11 -43q0 -35 -20.5 -61.5t-49.5 -26.5q-27 0 -49 28 q-25 31 -55 60q-35 31 -86 30q-43 0 -68 -28q-23 -25 -23 -64q0 -53 39 -110q49 -72 84 -107q46 -46 86 -110q39 -63 39 -136q0 -111 -79.5 -178t-206.5 -67q-117 0 -181 75q-10 16 -10 39zM397 1247q10 47 27 47q14 0 61 -45q51 -49 80 -88q168 133 199 133q16 0 6 -47 l-3 -2q-3 -2 -7 -6t-10 -8l-48 -47l-59 -58l-88 -110q-12 -18 -18 -19q-8 0 -15 19q-22 55 -49 104q-20 37 -45 76q-29 45 -31 51z" />
<glyph unicode="&#x162;" horiz-adv-x="1200" d="M231 1057l88 284q74 -20 127 -20q78 0 201 -6t203 -6q78 0 207 6t205 6q49 0 133 20l-21 -284q-16 -14 -47 -15q-16 0 -16 11q0 109 -39 141q-43 37 -133 37q-197 0 -213 -31q-29 -63 -56 -201l-141 -720q-20 -104 -20 -181q0 -16 26 -28q37 -16 53 -19l27 -4q4 0 4 -6 q0 -27 -10 -47q-205 10 -209 10l-23 -1q-24 -1 -78.5 -4t-117.5 -5q-4 4 -4 16q0 37 12 37q16 0 74 14q45 12 55 31q29 63 51 193l140 708q25 137 24 195q0 16 -4 20q-8 8 -51 15q-61 8 -141 8q-106 0 -152 -35q-43 -35 -92 -143q-4 -10 -21 -11q-27 1 -41 15zM420 -453 q0 6 22.5 18.5t46.5 41.5q23 27 33 63q6 35 -26.5 61.5t-32.5 53.5q0 49 53 78q55 31 119 31q25 -20 24 -82q0 -76 -63 -158q-70 -88 -125 -117q-4 -4 -14 -4q-37 0 -37 14z" />
<glyph unicode="&#x163;" horiz-adv-x="522" d="M170 -453q0 4 20 19q29 20 48 41q27 31 32 63q6 35 -26.5 61.5t-32.5 53.5q0 47 55.5 78t116.5 31q27 -23 27 -82q0 -74 -66 -158q-68 -88 -123 -117q-4 -4 -16 -4q-35 0 -35 14zM182 778q0 25 25 62h139l47 243q6 20 99 21q29 0 36 -2l-51 -262h182q10 0 11 -27 q0 -23 -19 -57h-188l-107 -543q-6 -25 -6 -51q0 -49 21 -49q14 0 28 10q4 2 33 27q12 10 33 30q8 8 13 15.5t11 13.5l13 12q2 0 14 -18.5t12 -26.5q-27 -47 -108 -117q-84 -72 -144 -71q-33 0 -51 28q-16 25 -16 76q0 47 12 107l109 557h-142q-6 -1 -6 22z" />
<glyph unicode="&#x164;" horiz-adv-x="1200" d="M231 1057l88 284q74 -20 127 -20q78 0 201 -6t203 -6q78 0 207 6t205 6q49 0 133 20l-21 -284q-16 -14 -47 -15q-16 0 -16 11q0 109 -39 141q-43 37 -133 37q-197 0 -213 -31q-29 -63 -56 -201l-141 -720q-20 -104 -20 -181q0 -16 26 -28q37 -16 53 -19l27 -4q4 0 4 -6 q0 -27 -10 -47q-205 10 -209 10l-23 -1q-24 -1 -78.5 -4t-117.5 -5q-4 4 -4 16q0 37 12 37q16 0 74 14q45 12 55 31q29 63 51 193l140 708q25 137 24 195q0 16 -4 20q-8 8 -51 15q-61 8 -141 8q-106 0 -152 -35q-43 -35 -92 -143q-4 -10 -21 -11q-27 1 -41 15zM713 1683 q10 41 24.5 41t73.5 -41q66 -45 96 -75q182 117 219 116q18 0 9 -41l-3 -2q-3 -2 -8.5 -6l-11.5 -8l-51 -41l-64 -49q-53 -47 -96 -96q-12 -16 -20 -17q-6 0 -17 17q-23 45 -59 92q-10 12 -16.5 19t-16.5 19.5l-22 26.5q-35 41 -37 45z" />
<glyph unicode="&#x165;" horiz-adv-x="522" d="M182 778q0 25 25 62h139l47 243q6 20 99 21q29 0 36 -2l-51 -262h182q10 0 11 -27q0 -23 -19 -57h-188l-107 -543q-6 -25 -6 -51q0 -49 21 -49q14 0 28 10q4 2 33 27q12 10 33 30q8 8 13 15.5t11 13.5l13 12q2 0 14 -18.5t12 -26.5q-27 -47 -108 -117q-84 -72 -144 -71 q-33 0 -51 28q-16 25 -16 76q0 47 12 107l109 557h-142q-6 -1 -6 22zM676 1038l22 19q25 20 45 53q25 39 25 76q0 6 -12 35q-10 23 -11 47q0 55 43 88q41 33 105 33q10 -20 10 -58q0 -28 -6 -67q-12 -59 -78 -142q-66 -80 -110 -106q-2 -2 -15 -2q-6 0 -12 8q-6 10 -6 16z " />
<glyph unicode="&#x166;" horiz-adv-x="1298" d="M285 1057l90 284q74 -20 123 -20q31 0 198.5 -4t206.5 -4q35 0 211 4t203 4q47 0 131 20l-21 -284q-14 -14 -47 -15q-16 0 -16 11q-2 106 -37 143q-31 35 -137 35q-197 0 -209 -31q-35 -74 -57 -201l-140 -720q-23 -125 -20 -187q2 -14 47 -26q53 -14 66 -15q2 0 0 -28 q-2 -16 -9 -29q-205 10 -215 10q-2 0 -26.5 -1t-81 -4t-117.5 -5q-3 9 0 31q2 27 12 26q23 0 72 12.5t59 28.5q31 68 50 178l139 723q37 176 24 207q-9 31 -196 31q-104 0 -150 -35q-43 -35 -92 -143q-6 -10 -20 -11q-33 1 -41 15zM442 641q6 33 23 55h639q10 0 8 -20 q-2 -23 -25 -60h-638q-13 0 -7 25z" />
<glyph unicode="&#x167;" horiz-adv-x="608" d="M147 575q6 33 23 56h457q10 0 8 -21q-2 -23 -25 -59h-456q-13 -1 -7 24zM180 770q0 27 27 70h141l47 243q6 20 99 21q29 0 36 -2l-51 -262h180q10 0 11 -27q0 -31 -21 -65h-186l-103 -535q-2 -8 -2 -35q0 -74 45 -74q18 0 50 37q37 45 55 72l24 37q4 -4 7 -8l8 -18.5 t4 -9.5t2 -7q-18 -52 -86 -135q-68 -84 -133 -84q-113 0 -113 145q0 61 12 123l97 492h-144q-6 -1 -6 22z" />
<glyph unicode="&#x168;" horiz-adv-x="1261" d="M240 412q0 70 28 213l78 399q23 119 23 184q0 22 -43 37q-45 16 -70 17q-4 0 -4 10q0 29 16 45l94 -8q47 -4 121 -4q49 0 123 6t90 6v-6q0 -49 -14 -49q-12 0 -68 -17q-51 -14 -57 -28q-27 -61 -51 -187l-82 -434q-16 -94 -16 -170q0 -154 65 -242q63 -86 197 -86 q326 0 409 451l88 475q25 141 25 180q0 23 -57 41q-51 16 -93 17q-4 0 -4 12q0 35 15 43q8 0 20 -2t34.5 -3t41.5 -3q47 -4 119 -4q51 0 73 2q12 2 37 3t37 1q23 2 41.5 4t26.5 2q0 -55 -15 -55q-12 0 -77 -17q-63 -16 -72 -28q-20 -27 -55 -197l-90 -467 q-61 -317 -193 -436q-129 -117 -373 -117q-172 0 -270 106.5t-98 305.5zM580 1507q6 33 47 76q77 80 159 80q61 0 150 -51q90 -53 149 -53q23 0 56 20q20 14 57 45l27 23q16 0 6 -35q-6 -31 -47 -78q-72 -78 -156 -78q-63 0 -151.5 53.5t-151.5 53.5q-27 0 -84 -45l-55 -43 q-14 -1 -6 32z" />
<glyph unicode="&#x169;" horiz-adv-x="942" d="M150 698q27 43 102 107q78 66 129 65q31 0 49 -28q18 -27 19 -76q0 -53 -13 -107l-69 -329q-14 -55 -15 -109q0 -86 37 -86q27 0 82 49q53 47 109 121q51 68 106 182q49 100 72 215l35 156q25 8 61 8q41 0 68 -8l-123 -645q-6 -25 -6 -51q0 -49 18 -49q16 0 31 10 q4 2 32 27l31 30q8 8 14.5 15.5t12.5 13.5l12 12q2 0 14.5 -18.5t12.5 -26.5q-27 -47 -109 -117q-84 -72 -143 -71q-33 0 -51.5 28.5t-18.5 75.5q0 37 15 107l36 184q-27 -49 -82 -127q-45 -63 -157 -176q-92 -92 -154 -92q-98 0 -98 133q0 96 27 217l61 278q8 63 8 80 q0 49 -18 49q-12 0 -23 -8l-28 -22l-27 -27q-12 -12 -17 -18l-16 -19q-8 0 -16 19q-10 20 -10 28zM315 1022q0 51 57.5 114.5t129.5 63.5q55 0 133 -53t131 -53q18 0 47 22q28 22 49 43q23 23 25 23q8 0 8 -19q0 -43 -53 -108q-51 -63 -127 -64q-55 0 -133 53.5t-133 53.5 q-28 0 -74 -43l-49 -45q-11 0 -11 12z" />
<glyph unicode="&#x16a;" horiz-adv-x="1261" d="M240 412q0 70 28 213l78 399q23 119 23 184q0 22 -43 37q-45 16 -70 17q-4 0 -4 10q0 29 16 45l94 -8q47 -4 121 -4q49 0 123 6t90 6v-6q0 -49 -14 -49q-12 0 -68 -17q-51 -14 -57 -28q-27 -61 -51 -187l-82 -434q-16 -94 -16 -170q0 -154 65 -242q63 -86 197 -86 q326 0 409 451l88 475q25 141 25 180q0 23 -57 41q-51 16 -93 17q-4 0 -4 12q0 35 15 43q8 0 20 -2t34.5 -3t41.5 -3q47 -4 119 -4q51 0 73 2q12 2 37 3t37 1q23 2 41.5 4t26.5 2q0 -55 -15 -55q-12 0 -77 -17q-63 -16 -72 -28q-20 -27 -55 -197l-90 -467 q-61 -317 -193 -436q-129 -117 -373 -117q-172 0 -270 106.5t-98 305.5zM639 1475q0 9 12 43q12 35 29 34h465q8 0 6 -14q-8 -37 -25 -68q-6 -10 -18 -14h-461l-8 4q-2 7 0 15z" />
<glyph unicode="&#x16b;" horiz-adv-x="942" d="M150 698q27 43 102 107q78 66 129 65q31 0 49 -28q18 -27 19 -76q0 -53 -13 -107l-69 -329q-14 -55 -15 -109q0 -86 37 -86q27 0 82 49q53 47 109 121q51 68 106 182q49 100 72 215l35 156q25 8 61 8q41 0 68 -8l-123 -645q-6 -25 -6 -51q0 -49 18 -49q16 0 31 10 q4 2 32 27l31 30q8 8 14.5 15.5t12.5 13.5l12 12q2 0 14.5 -18.5t12.5 -26.5q-27 -47 -109 -117q-84 -72 -143 -71q-33 0 -51.5 28.5t-18.5 75.5q0 37 15 107l36 184q-27 -49 -82 -127q-45 -63 -157 -176q-92 -92 -154 -92q-98 0 -98 133q0 96 27 217l61 278q8 63 8 80 q0 49 -18 49q-12 0 -23 -8l-28 -22l-27 -27q-12 -12 -17 -18l-16 -19q-8 0 -16 19q-10 20 -10 28zM373 995q-2 6 0 15q0 6 12 41q12 33 25 32h387q10 0 8 -14q-2 -16 -25 -63l-16 -15h-383z" />
<glyph unicode="&#x16c;" horiz-adv-x="1261" d="M240 412q0 70 28 213l78 399q23 119 23 184q0 22 -43 37q-45 16 -70 17q-4 0 -4 10q0 29 16 45l94 -8q47 -4 121 -4q49 0 123 6t90 6v-6q0 -49 -14 -49q-12 0 -68 -17q-51 -14 -57 -28q-27 -61 -51 -187l-82 -434q-16 -94 -16 -170q0 -154 65 -242q63 -86 197 -86 q326 0 409 451l88 475q25 141 25 180q0 23 -57 41q-51 16 -93 17q-4 0 -4 12q0 35 15 43q8 0 20 -2t34.5 -3t41.5 -3q47 -4 119 -4q51 0 73 2q12 2 37 3t37 1q23 2 41.5 4t26.5 2q0 -55 -15 -55q-12 0 -77 -17q-63 -16 -72 -28q-20 -27 -55 -197l-90 -467 q-61 -317 -193 -436q-129 -117 -373 -117q-172 0 -270 106.5t-98 305.5zM721 1638v13q2 6 14 12q14 8 22.5 8t8.5 -4q2 -53 41 -84q37 -31 96 -31q61 0 111 31q51 31 73 84q0 4 11 4q12 0 20 -8q10 -10 8 -12l-2 -6q-2 -4 -2 -9q-23 -68 -96 -127q-66 -53 -139.5 -53 t-120.5 53q-47 55 -45 129z" />
<glyph unicode="&#x16d;" horiz-adv-x="942" d="M150 698q27 43 102 107q78 66 129 65q31 0 49 -28q18 -27 19 -76q0 -53 -13 -107l-69 -329q-14 -55 -15 -109q0 -86 37 -86q27 0 82 49q53 47 109 121q51 68 106 182q49 100 72 215l35 156q25 8 61 8q41 0 68 -8l-123 -645q-6 -25 -6 -51q0 -49 18 -49q16 0 31 10 q4 2 32 27l31 30q8 8 14.5 15.5t12.5 13.5l12 12q2 0 14.5 -18.5t12.5 -26.5q-27 -47 -109 -117q-84 -72 -143 -71q-33 0 -51.5 28.5t-18.5 75.5q0 37 15 107l36 184q-27 -49 -82 -127q-45 -63 -157 -176q-92 -92 -154 -92q-98 0 -98 133q0 96 27 217l61 278q8 63 8 80 q0 49 -18 49q-12 0 -23 -8l-28 -22l-27 -27q-12 -12 -17 -18l-16 -19q-8 0 -16 19q-10 20 -10 28zM369 1194v8l2 6q2 8 14 17q14 10 23 10q6 0 6 -6q4 -66 39 -105q37 -41 96 -41q55 0 108 41q52 40 80 105q0 6 8 6q10 0 20.5 -10.5t8.5 -16.5l-2 -8q-2 -4 -2 -8 q-31 -83 -98 -141q-70 -59 -142 -60q-74 0 -120 60q-45 55 -41 143z" />
<glyph unicode="&#x16e;" horiz-adv-x="1261" d="M240 412q0 70 28 213l78 399q23 119 23 184q0 22 -43 37q-45 16 -70 17q-4 0 -4 10q0 29 16 45l94 -8q47 -4 121 -4q49 0 123 6t90 6v-6q0 -49 -14 -49q-12 0 -68 -17q-51 -14 -57 -28q-27 -61 -51 -187l-82 -434q-16 -94 -16 -170q0 -154 65 -242q63 -86 197 -86 q326 0 409 451l88 475q25 141 25 180q0 23 -57 41q-51 16 -93 17q-4 0 -4 12q0 35 15 43q8 0 20 -2t34.5 -3t41.5 -3q47 -4 119 -4q51 0 73 2q12 2 37 3t37 1q23 2 41.5 4t26.5 2q0 -55 -15 -55q-12 0 -77 -17q-63 -16 -72 -28q-20 -27 -55 -197l-90 -467 q-61 -317 -193 -436q-129 -117 -373 -117q-172 0 -270 106.5t-98 305.5zM756 1636q16 76 73 125q63 53 129 54q68 0 105 -54q37 -51 20 -125q-16 -78 -71 -127q-59 -53 -123 -53q-68 0 -108.5 53t-24.5 127zM817 1636q-8 -45 17 -80q25 -33 65 -32q45 0 78 32q37 37 45 80 q10 47 -12 78q-23 33 -66 33q-41 0 -80 -33q-37 -31 -47 -78z" />
<glyph unicode="&#x16f;" horiz-adv-x="942" d="M150 698q27 43 102 107q78 66 129 65q31 0 49 -28q18 -27 19 -76q0 -53 -13 -107l-69 -329q-14 -55 -15 -109q0 -86 37 -86q27 0 82 49q53 47 109 121q51 68 106 182q49 100 72 215l35 156q25 8 61 8q41 0 68 -8l-123 -645q-6 -25 -6 -51q0 -49 18 -49q16 0 31 10 q4 2 32 27l31 30q8 8 14.5 15.5t12.5 13.5l12 12q2 0 14.5 -18.5t12.5 -26.5q-27 -47 -109 -117q-84 -72 -143 -71q-33 0 -51.5 28.5t-18.5 75.5q0 37 15 107l36 184q-27 -49 -82 -127q-45 -63 -157 -176q-92 -92 -154 -92q-98 0 -98 133q0 96 27 217l61 278q8 63 8 80 q0 49 -18 49q-12 0 -23 -8l-28 -22l-27 -27q-12 -12 -17 -18l-16 -19q-8 0 -16 19q-10 20 -10 28zM401 1171q16 76 73.5 127.5t127.5 51.5q68 0 104.5 -51.5t20.5 -127.5q-16 -78 -72 -127q-59 -53 -123 -53q-70 0 -106 53q-39 55 -25 127zM465 1171q-8 -43 14 -77 q20 -33 66 -33q43 0 78 33q37 33 45 78t-14.5 77.5t-65.5 32.5q-39 0 -78 -33q-35 -29 -45 -78z" />
<glyph unicode="&#x170;" horiz-adv-x="1261" d="M240 412q0 70 28 213l78 399q23 119 23 184q0 22 -43 37q-45 16 -70 17q-4 0 -4 10q0 29 16 45l94 -8q47 -4 121 -4q49 0 123 6t90 6v-6q0 -49 -14 -49q-12 0 -68 -17q-51 -14 -57 -28q-27 -61 -51 -187l-82 -434q-16 -94 -16 -170q0 -154 65 -242q63 -86 197 -86 q326 0 409 451l88 475q25 141 25 180q0 23 -57 41q-51 16 -93 17q-4 0 -4 12q0 35 15 43q8 0 20 -2t34.5 -3t41.5 -3q47 -4 119 -4q51 0 73 2q12 2 37 3t37 1q23 2 41.5 4t26.5 2q0 -55 -15 -55q-12 0 -77 -17q-63 -16 -72 -28q-20 -27 -55 -197l-90 -467 q-61 -317 -193 -436q-129 -117 -373 -117q-172 0 -270 106.5t-98 305.5zM731 1483q2 14 107 102q121 102 161 131q12 6 35 6q47 0 68 -18q20 -16 16 -41q-10 -47 -174 -127q-162 -80 -199 -80q-20 0 -14 27zM1012 1483q4 16 104 102q121 102 162 131q12 6 35 6q47 0 67 -18 q23 -18 19 -41q-10 -47 -174 -127t-201 -80q-18 0 -12 27z" />
<glyph unicode="&#x171;" horiz-adv-x="942" d="M150 698q27 43 102 107q78 66 129 65q31 0 49 -28q18 -27 19 -76q0 -53 -13 -107l-69 -329q-14 -55 -15 -109q0 -86 37 -86q27 0 82 49q53 47 109 121q51 68 106 182q49 100 72 215l35 156q25 8 61 8q41 0 68 -8l-123 -645q-6 -25 -6 -51q0 -49 18 -49q16 0 31 10 q4 2 32 27l31 30q8 8 14.5 15.5t12.5 13.5l12 12q2 0 14.5 -18.5t12.5 -26.5q-27 -47 -109 -117q-84 -72 -143 -71q-33 0 -51.5 28.5t-18.5 75.5q0 37 15 107l36 184q-27 -49 -82 -127q-45 -63 -157 -176q-92 -92 -154 -92q-98 0 -98 133q0 96 27 217l61 278q8 63 8 80 q0 49 -18 49q-12 0 -23 -8l-28 -22l-27 -27q-12 -12 -17 -18l-16 -19q-8 0 -16 19q-10 20 -10 28zM360 1016q0 18 84 110q90 100 146 142q16 10 51 10q80 0 80 -47q0 -41 -162 -141q-160 -98 -184 -99q-4 0 -10 8q-5 7 -5 17zM616 1016q0 18 84 110q90 100 146 142 q16 10 51 10q80 0 80 -47q0 -41 -162 -141q-160 -98 -184 -99q-4 0 -10 8q-5 7 -5 17z" />
<glyph unicode="&#x172;" horiz-adv-x="1347" d="M104 412q0 80 27 213l80 399q20 109 20 184q0 22 -43 37q-45 16 -67 17q-4 0 -4 10q0 31 14 45q8 0 20.5 -2t35 -3t40.5 -3q47 -4 121 -4q49 0 123 6t88 6v-6q0 -49 -12 -49t-68 -17q-51 -14 -57 -28q-27 -61 -51 -187l-82 -434q-16 -94 -17 -170q0 -154 66 -242 q63 -86 197 -86q326 0 409 451l88 475q25 141 25 180q0 23 -60 41q-51 16 -92 17q-4 0 -4 12q0 35 14 43q8 0 20.5 -2t35 -3t41.5 -3q47 -4 121 -4q49 0 71 2q12 2 38 3t38 1q23 2 40 4t26 2q0 -55 -15 -55q-12 0 -78 -17q-63 -16 -71 -28q-16 -23 -54 -197l-90 -467 q-63 -346 -227 -469l-129 -98q-8 -6 -26.5 -21.5l-39 -32t-38.5 -32.5q-72 -63 -95 -101q-27 -41 -26 -78q0 -63 61 -63q43 0 80 18q39 18 61 39q22 18 25 19q12 -4 2 -29q-10 -27 -14 -31q-120 -135 -221 -135q-45 0 -74 35t-29 76q0 76 82 182q90 119 174 176 q-68 -8 -133 -8q-172 0 -270 106q-97 105 -97 306z" />
<glyph unicode="&#x173;" horiz-adv-x="993" d="M45 651q18 52 86 135q68 84 135 84q113 0 113 -145q0 -37 -37 -229.5t-37 -262.5q0 -98 70 -98q57 0 170 174q115 178 145 338l41 211q37 10 66 10q23 0 67 -10l-125 -643q-2 -6 -2 -29q0 -82 56 -82q23 0 69 72l49 74q3 0 7 -6q0 -2 4 -8.5t6 -10.5q4 -8 4 -18 q-29 -78 -115 -164l-65 -66l-70 -67q-29 -29 -53 -62q-31 -41 -43 -65q-14 -29 -15 -62q0 -63 64 -63q43 0 80 18q33 16 59 39q20 18 27 19q12 -4 2 -29q-10 -27 -15 -31q-121 -135 -223 -135q-41 0 -71 31q-29 29 -29 70q0 70 65 170q63 96 150 182q-80 20 -80 141 q0 65 31 203q0 4 -2 4t-2 -2q-51 -113 -140 -234q-86 -117 -165 -116q-92 0 -121 59q-33 66 -33 164q0 80 20 180l50 254q2 6 2 35q0 74 -43 74q-18 0 -49 -37t-56 -74q-23 -35 -26 -35t-7 6q0 2 -3 8.5l-5 10.5q-6 12 -6 18z" />
<glyph unicode="&#x174;" horiz-adv-x="1945" d="M225 1272q0 37 15 45q10 0 88 -8q39 -4 108 -4q47 0 72 2q12 2 37.5 3t38.5 1q10 0 33.5 3t33.5 3v-6q0 -49 -12 -49q-49 0 -78 -23q-27 -20 -26 -51q0 -23 14 -74l254 -891l239 369l-145 528q-14 49 -39 92q-10 18 -45 35q-31 14 -53 15q-4 0 -4 10q0 33 16 45 q4 0 28.5 -3t65.5 -5q45 -4 117 -4t115 4l86 8v-6q0 -18 -4 -31q-6 -18 -13 -18q-45 0 -73 -23q-27 -20 -27 -51q0 -33 10 -74l90 -323l170 276q51 86 52 119q0 39 -35 57.5t-58 18.5q-4 0 -4 10q0 37 15 45q176 -12 188 -12q57 0 120.5 6t80.5 6q0 -55 -15 -55 q-31 0 -79 -25q-53 -27 -66 -41q-39 -45 -139 -201l-201 -307l135 -475l488 854q49 88 49 119q0 39 -35 57.5t-57 18.5q-4 0 -4 10q0 37 14 45q175 -12 190 -12q55 0 119 6t80 6q0 -55 -12 -55q-33 0 -82 -25q-53 -27 -66 -41q-66 -78 -139 -201l-561 -956q-37 -66 -86 -66 q-12 0 -17 11l-141 505l-291 -450q-43 -66 -84 -66q-10 0 -16 11l-285 1036q-37 129 -69 192q-8 18 -43 35q-31 14 -54 15q-4 0 -4 10zM1042 1495q9 9 31 25l60 41q20 14 63 47q68 49 111 92q20 16 24 16q16 0 23 -16q41 -70 63 -96l51 -52q10 -10 24.5 -23t18.5 -18l17 -16 q-8 -39 -31 -39q-37 0 -197 117q-66 -39 -145.5 -78t-100 -39t-12.5 39z" />
<glyph unicode="&#x175;" horiz-adv-x="1263" d="M158 698q29 45 100 107q78 66 129 65q33 0 51 -28q18 -27 19 -76q0 -41 -13 -107l-59 -305q-16 -102 -16 -127q0 -57 16 -79.5t66 -22.5q45 0 102 51t113 131q51 410 65 461q29 102 80 102q78 0 78 -94q0 -133 -82 -354q-14 -94 -14 -127q0 -100 16 -133q18 -37 65 -37 q61 0 136 88q70 86 125 207q51 115 51 198q0 39 -29 90.5t-29 71.5q0 39 23 64q25 27 59 26q37 0 64 -16q29 -53 29 -117q0 -123 -56 -262q-57 -141 -131 -239q-76 -98 -166 -168q-90 -68 -151 -68q-71 0 -111 49q-39 47 -39 133q-158 -182 -274 -182q-68 0 -109 49 q-41 51 -41 127q0 61 8 88l68 352q12 43 12 80q0 49 -18 49q-8 0 -22.5 -8t-28.5 -22q-8 -8 -15.5 -14.5t-13.5 -12.5q-8 -8 -20 -24l-11 -13l-14 21q-12 18 -12 26zM530 1008q-3 15 0 24l123 103q82 68 109 102q16 16 22 16q8 0 19 -16l26.5 -43l20.5 -33t8 -12 q23 -31 43 -53l39 -45q14 -14 14 -19q-10 -41 -26 -41q-34 0 -172 117q-49 -35 -125 -76t-88 -41q-9 1 -13 17z" />
<glyph unicode="&#x176;" horiz-adv-x="1185" d="M240 1272q0 37 14 45l102 -8q51 -4 131 -4q20 0 248 12v-10q0 -45 -12 -45q-33 0 -80 -20.5t-47 -63.5q0 -20 8 -43l137 -424l93 116l100 131l78 109l63 90q20 29 21 43q-3 25 -43 43.5t-80 18.5q-4 0 -4 12q0 35 12 43q18 0 81.5 -6t102.5 -6q12 0 240 12q2 -2 2 -10 q0 -45 -14 -45q-22 0 -80 -19q-57 -18 -82 -43q-18 -18 -242 -317q-218 -292 -221 -314l-55 -290q-23 -117 -23 -181q0 -16 27 -28q37 -16 53 -19l29 -4q4 0 4 -6q0 -23 -12 -47l-209 10q-2 0 -26 -1t-79 -4t-117 -5q-2 2 -2 14q0 39 15 39q25 0 69 14q47 14 58 31 q29 49 51 180l51 283q4 8 -39 141l-86 265l-43 129q-31 94 -78 129q-16 12 -57 28q-35 14 -55 15q-4 0 -4 10zM651 1495q9 9 31 25l59 41q35 23 66 47q59 43 108 92q20 16 27 16q16 0 23 -16q41 -70 63 -96q14 -16 49 -52q10 -10 25.5 -23t19.5 -18l17 -16q-8 -39 -31 -39 q-39 0 -199 117q-74 -45 -143 -78q-80 -39 -102 -39q-21 0 -13 39z" />
<glyph unicode="&#x177;" horiz-adv-x="956" d="M-53 -385q0 63 45 88q43 -25 135 -25q164 0 287 179q47 70 47 268q0 96 -6 194q-6 96 -19 199q-12 98 -37 164q-25 63 -59 63q-18 0 -53 -32q-18 -16 -58 -62l-14 21q-10 16 -10 26q12 31 94 101q84 72 133 71q57 0 98 -102q37 -94 54 -266q15 -166 18 -258 q4 -123 4 -189q82 102 156 246q78 152 78 268q0 119 -49 215q25 86 100 86q88 0 88 -157q0 -221 -172 -506q-174 -287 -389 -479q-219 -195 -352 -195q-52 0 -86 25q-33 24 -33 57zM449 1008q-3 15 0 24l122 103q82 68 109 102q16 16 22 16q8 0 19 -16l26.5 -43l20.5 -33 t8 -12q23 -31 43 -53l39 -45q14 -14 14 -19q-10 -41 -26 -41q-34 0 -172 117q-49 -35 -125 -76t-88 -41q-8 1 -12 17z" />
<glyph unicode="&#x178;" horiz-adv-x="1185" d="M240 1272q0 37 14 45l102 -8q51 -4 131 -4q20 0 248 12v-10q0 -45 -12 -45q-33 0 -80 -20.5t-47 -63.5q0 -20 8 -43l137 -424l93 116l100 131l78 109l63 90q20 29 21 43q-3 25 -43 43.5t-80 18.5q-4 0 -4 12q0 35 12 43q18 0 81.5 -6t102.5 -6q12 0 240 12q2 -2 2 -10 q0 -45 -14 -45q-22 0 -80 -19q-57 -18 -82 -43q-18 -18 -242 -317q-218 -292 -221 -314l-55 -290q-23 -117 -23 -181q0 -16 27 -28q37 -16 53 -19l29 -4q4 0 4 -6q0 -23 -12 -47l-209 10q-2 0 -26 -1t-79 -4t-117 -5q-2 2 -2 14q0 39 15 39q25 0 69 14q47 14 58 31 q29 49 51 180l51 283q4 8 -39 141l-86 265l-43 129q-31 94 -78 129q-16 12 -57 28q-35 14 -55 15q-4 0 -4 10zM616 1556q8 43 39 70q35 31 72 31t61 -31q23 -29 15 -70q-10 -47 -41 -71q-35 -29 -74 -29q-37 0 -59.5 28.5t-12.5 71.5zM952 1556q8 43 39 70q35 31 74 31 q35 0 59 -31q23 -29 15 -70q-10 -43 -41 -71q-33 -29 -72 -29q-37 0 -59 29q-23 30 -15 71z" />
<glyph unicode="&#x179;" horiz-adv-x="1091" d="M72 35q0 29 16 51l932 1131h-86h-76h-82q-14 0 -38.5 -1.5t-37.5 -1.5h-59h-23q-129 -3 -184 -55q-59 -55 -121 -190q-6 -8 -18 -8q-37 0 -55 18q49 139 112 350q12 -4 140 -10q123 -6 153 -6q61 -2 217 -2q84 0 117 2q12 0 38.5 1t35.5 3q6 0 33.5 2t48.5 4q39 4 108 8 q3 -3 6 -31q4 -29 0 -34q-8 -23 -911 -1114q-16 -20 -16 -33q0 -16 20 -17h420q25 0 61 4q33 4 51 15q8 4 21.5 10t17.5 8q23 10 35 27q10 12 27 29q6 6 20 30q2 6 6.5 12.5l7.5 10.5t3 6q6 12 12 27q2 6 5 11t4 8l1 3q6 16 53 16q18 0 29 -12q-76 -182 -115 -307h-921 q-8 15 -8 35zM711 1442q0 14 75 78q78 66 121 94q16 4 35 4q55 0 84 -14q33 -16 33 -33q0 -33 -144 -92q-139 -57 -180 -58q-24 1 -24 21z" />
<glyph unicode="&#x17a;" horiz-adv-x="806" d="M100 51q0 16 150 178l297 326l149 160l-14 -10q-14 -10 -33 -19q-25 -10 -33 -10q-59 0 -141 37q-78 35 -110 35q-14 0 -33 -13q-16 -10 -33 -30q-10 -12 -27 -37q-12 -18 -20 -35t-12 -21q-9 -9 -19 6q-4 6 -8 33q16 55 76 135q61 84 121 84q22 0 129 -24 q117 -27 174 -27q25 0 65 27q37 25 66 24q25 0 24 -51q0 -12 -149 -176l-299 -324q-150 -158 -150 -161l15 8q27 14 32 18q25 10 35 11q57 0 140 -37q78 -35 112 -35q18 0 33 10q12 8 33 33q16 20 26 35q16 25 23 37l10 20q9 9 19 -6q6 -10 10 -33q-14 -49 -78 -135 q-61 -84 -123 -84q-10 0 -127 27q-106 25 -174 24q-29 0 -66 -24q-39 -27 -65 -27q-25 0 -25 51zM485 1016q0 15 86 110q90 100 146 142q16 10 51 10q78 0 78 -47q0 -41 -162 -141q-160 -98 -184 -99q-2 0 -8.5 8.5t-6.5 16.5z" />
<glyph unicode="&#x17b;" horiz-adv-x="1091" d="M72 35q0 29 16 51l932 1131h-86h-76h-82q-14 0 -38.5 -1.5t-37.5 -1.5h-59h-23q-129 -3 -184 -55q-59 -55 -121 -190q-6 -8 -18 -8q-37 0 -55 18q49 139 112 350q12 -4 140 -10q123 -6 153 -6q61 -2 217 -2q84 0 117 2q12 0 38.5 1t35.5 3q6 0 33.5 2t48.5 4q39 4 108 8 q3 -3 6 -31q4 -29 0 -34q-8 -23 -911 -1114q-16 -20 -16 -33q0 -16 20 -17h420q25 0 61 4q33 4 51 15q8 4 21.5 10t17.5 8q23 10 35 27q10 12 27 29q6 6 20 30q2 6 6.5 12.5l7.5 10.5t3 6q6 12 12 27q2 6 5 11t4 8l1 3q6 16 53 16q18 0 29 -12q-76 -182 -115 -307h-921 q-8 15 -8 35zM745 1556q10 43 41 70q37 31 74 31q35 0 60 -31q20 -27 12 -70q-10 -45 -39 -71q-33 -29 -74 -29q-37 0 -59 29q-23 30 -15 71z" />
<glyph unicode="&#x17c;" horiz-adv-x="806" d="M100 51q0 16 150 178l297 326l149 160l-14 -10q-14 -10 -33 -19q-25 -10 -33 -10q-59 0 -141 37q-78 35 -110 35q-14 0 -33 -13q-16 -10 -33 -30q-10 -12 -27 -37q-12 -18 -20 -35t-12 -21q-9 -9 -19 6q-4 6 -8 33q16 55 76 135q61 84 121 84q22 0 129 -24 q117 -27 174 -27q25 0 65 27q37 25 66 24q25 0 24 -51q0 -12 -149 -176l-299 -324q-150 -158 -150 -161l15 8q27 14 32 18q25 10 35 11q57 0 140 -37q78 -35 112 -35q18 0 33 10q12 8 33 33q16 20 26 35q16 25 23 37l10 20q9 9 19 -6q6 -10 10 -33q-14 -49 -78 -135 q-61 -84 -123 -84q-10 0 -127 27q-106 25 -174 24q-29 0 -66 -24q-39 -27 -65 -27q-25 0 -25 51zM571 1192q10 47 41 72q35 29 74 28q37 0 59.5 -28.5t12.5 -71.5q-10 -45 -39 -72q-33 -29 -74 -28q-37 0 -59 28q-23 31 -15 72z" />
<glyph unicode="&#x17d;" horiz-adv-x="1091" d="M72 35q0 29 16 51l932 1131h-86h-76h-82q-14 0 -38.5 -1.5t-37.5 -1.5h-59h-23q-129 -3 -184 -55q-59 -55 -121 -190q-6 -8 -18 -8q-37 0 -55 18q49 139 112 350q12 -4 140 -10q123 -6 153 -6q61 -2 217 -2q84 0 117 2q12 0 38.5 1t35.5 3q6 0 33.5 2t48.5 4q39 4 108 8 q3 -3 6 -31q4 -29 0 -34q-8 -23 -911 -1114q-16 -20 -16 -33q0 -16 20 -17h420q25 0 61 4q33 4 51 15q8 4 21.5 10t17.5 8q23 10 35 27q10 12 27 29q6 6 20 30q2 6 6.5 12.5l7.5 10.5t3 6q6 12 12 27q2 6 5 11t4 8l1 3q6 16 53 16q18 0 29 -12q-76 -182 -115 -307h-921 q-8 15 -8 35zM668 1675q10 41 26 41q14 0 74 -41q66 -45 96 -76q180 117 217 117q18 0 9 -41l-4 -2q-3 -2 -7 -5t-10 -7l-51 -41l-64 -51q-53 -47 -96 -96q-12 -16 -22 -17q-6 0 -17 17q-23 45 -59 92l-53 65q-8 10 -17.5 20.5t-14.5 16.5t-7 8z" />
</font>
</defs>
</svg>
