<?xml version="1.0" standalone="no"?>
<!DOCTYPE svg PUBLIC "-//W3C//DTD SVG 1.1//EN" "http://www.w3.org/Graphics/SVG/1.1/DTD/svg11.dtd" >
<svg xmlns="http://www.w3.org/2000/svg">
<metadata>
This is a custom SVG webfont generated by Font Squirrel.
Copyright   : Copyright c 2010 Sebastian Kosch sebastianaldusleaforgwith Reserved Font Name CrimsonThis Font Software is licensed under the SIL Open Font License Version 11This license is available with a FAQ at httpscriptssilorgOFL
</metadata>
<defs>
<font id="webfontIfGk70UW" horiz-adv-x="0" >
<font-face units-per-em="2048" ascent="1434" descent="-614" />
<missing-glyph horiz-adv-x="378" />
<glyph unicode="&#x2e;&#x2e;&#x2e;" horiz-adv-x="1454" d="M100.5 131.5q12.5 61.5 61.5 104.5t104 43q57 0 88 -43q33 -45 20.5 -104.5t-59.5 -107t-102 -47.5q-57 0 -92 48q-33 45 -20.5 106.5zM618 131q12 61 61.5 104.5t105 43.5t85.5 -43q33 -45 21 -104.5t-59.5 -107t-104.5 -47.5t-88 48q-33 49 -21 106zM1135 131 q12 63 59 105q49 43 106.5 43t88.5 -43q33 -45 20.5 -104.5t-59.5 -107t-105 -47.5q-55 0 -90 48q-32 45 -20 106z" />
<glyph unicode="ff" horiz-adv-x="1890" d="M-27 -358q0 174 113 174q29 0 47 -23q20 -23 29 -49q8 -23 28 -47q18 -23 46 -23q72 0 114 90q41 88 70 240l141 721v4q0 10 -6 10h-119q-10 0 -10 21q0 23 37 59q39 39 78 39h32q12 0 19 33q43 221 201 352q160 131 358 131q102 0 235 -102q141 119 334 119 q125 0 187 -68q0 -199 -119 -199q-27 0 -47 25q-23 27 -31 53q-8 25 -29 53q-18 25 -43 25q-66 0 -139 -109q-72 -106 -94 -223l-14 -82v-2q0 -8 6 -8h256q18 0 18 -31q0 -39 -26 -86h-267q-10 0 -14 -12l-109 -553q-31 -156 -100.5 -270.5t-157.5 -177.5q-82 -57 -168 -88 q-78 -27 -149 -27q-63 0 -125 20q-57 18 -98 54q-31 -41 -127 -80q-100 -41 -176 -41q-72 0 -121.5 24.5t-59.5 53.5zM573 -164q16 -37 84 -78q66 -39 127 -39q145 0 215 338l134 668v4q0 10 -9 10h-315q-10 0 -14 -12l-117 -606q-31 -154 -105 -285zM819 864q0 -6 8 -6h318 q10 0 16 33q16 84 66 186q2 2 2 15q0 14 -2 20q-18 152 -148 152q-76 0 -149 -99q-74 -100 -96 -217l-15 -82v-2z" />
<glyph unicode="fi" horiz-adv-x="1531" d="M-27 -358q0 174 113 174q29 0 47 -23q20 -23 29 -49q8 -23 28 -47q18 -23 46 -23q72 0 114 90q41 88 70 240l143 721v4q0 10 -8 10h-117q-10 0 -10 21q0 22 37 61t78 39h32q12 0 19 33q43 225 197 360q156 137 354 138q109 0 188 -35q80 -33 119 -101q0 -176 -137 -176 q-23 0 -41 25q-15 22 -31 61q-16 43 -35 64q-45 51 -139 51q-63 0 -137 -100q-76 -104 -96 -230l-15 -82v-2q0 -8 6 -8h217q29 0 160 8q43 2 81 5t54.5 4.5t18.5 1.5q10 0 26 -35q16 -37 17 -49q0 -51 -21 -148q-72 -377 -75 -389q-4 -16 -5 -33q0 -59 39 -59q14 0 39 29 q18 20 43 57q18 29 21 29q10 0 35 -21q20 -18 26 -39q-31 -74 -106.5 -155.5t-184.5 -81.5q-66 0 -108 49q-41 47 -41 143q0 18 8 74l72 377q4 16 4 30q0 84 -111 84h-225q-12 0 -14 -12l-119 -606q-33 -168 -92 -273q-68 -121 -140 -174q-80 -61 -149 -84q-80 -27 -143 -26 q-72 0 -121.5 24.5t-59.5 53.5z" />
<glyph unicode="ffi" horiz-adv-x="2105" d="M-27 -358q0 174 113 174q29 0 47 -23q20 -23 29 -49q8 -23 28 -47q18 -23 46 -23q72 0 114 90q41 88 70 240l141 721v4q0 10 -6 10h-119q-10 0 -10 21q0 23 37 59q39 39 78 39h32q12 0 19 33q43 221 201 352q160 131 358 131q102 0 235 -102q141 119 332 119 q230 0 307 -136q0 -176 -137 -176q-23 0 -39 23q-8 10 -24 49q-18 43 -29 57q-23 33 -55 52q-39 20 -96 20q-66 0 -144 -109q-74 -104 -96 -223l-14 -82v-2q0 -8 6 -8l221 2q29 0 160 8q41 2 79.5 5t55 4.5t18.5 1.5q10 0 27 -35q16 -37 16 -49q0 -51 -20 -148 q-72 -377 -76 -389q-4 -16 -4 -33q0 -59 41 -59q14 0 39 29q18 20 43 57q4 8 9 15l7 10l2 4q10 0 35 -21q23 -20 29 -39q-29 -70 -109 -156q-76 -82 -184 -81q-66 0 -109 49q-41 47 -41 143q0 6 11 74l69 377q4 16 4 30q0 84 -110 84h-232q-10 0 -14 -12l-109 -553 q-31 -156 -100.5 -270.5t-157.5 -177.5q-82 -57 -168 -88q-78 -27 -149 -27q-63 0 -125 20q-57 18 -98 54q-31 -41 -127 -80q-100 -41 -176 -41q-72 0 -121.5 24.5t-59.5 53.5zM573 -164q16 -37 84 -78q66 -39 127 -39q145 0 215 338l134 668v4q0 10 -9 10h-315 q-10 0 -14 -12l-117 -606q-31 -154 -105 -285zM819 864q0 -6 8 -6h318q10 0 16 33q16 84 66 186q2 2 2 15q0 14 -2 20q-18 152 -148 152q-76 0 -149 -99q-74 -100 -96 -217l-15 -82v-2z" />
<glyph unicode="fl" horiz-adv-x="1550" d="M-27 -358q0 174 113 174q29 0 47 -23q20 -23 29 -49q8 -23 28 -47q18 -23 46 -23q72 0 114 90q41 88 70 240l143 721v4q0 10 -8 10h-117q-10 0 -10 21q0 22 37 61t78 39h32q12 0 19 33q43 225 197 360q156 137 354 138q35 0 110 -15q63 -12 84 -12q113 0 172 27h11 q6 0 12 -15q6 -12 6 -20q-35 -72 -57 -189l-178 -911q-4 -16 -5 -33q0 -59 39 -59q14 0 39 29q18 20 43 57q18 29 21 29q10 0 35 -21q20 -18 26 -39q-31 -74 -106.5 -155.5t-184.5 -81.5q-66 0 -108 49q-41 47 -41 143q0 41 6 72l166 841q6 25 6 64q0 20 -4 33q-6 18 -20 41 q-16 25 -54 41q-35 14 -94 14q-63 0 -137 -100q-76 -104 -96 -230l-15 -82v-2q0 -8 6 -8h256q20 0 21 -31q0 -37 -29 -88h-264q-12 0 -14 -12l-119 -606q-33 -168 -92 -273q-68 -121 -140 -174q-80 -61 -149 -84q-80 -27 -143 -26q-72 0 -121.5 24.5t-59.5 53.5z" />
<glyph unicode="ffl" horiz-adv-x="2121" d="M-27 -358q0 174 113 174q29 0 47 -23q20 -23 29 -49q8 -23 28 -47q18 -23 46 -23q72 0 114 90q41 88 70 240l141 721v4q0 10 -6 10h-119q-10 0 -10 21q0 23 37 59q39 39 78 39h32q12 0 19 33q43 221 201 352q160 131 358 131q102 0 235 -102q141 119 332 119 q49 0 117 -15q57 -12 76 -12q113 0 172 27h8q6 0 12 -15q6 -12 6 -20q-35 -72 -57 -189l-178 -911q-4 -16 -4 -33q0 -59 41 -59q14 0 39 29q18 20 43 57q4 8 9 15l7 10l2 4q10 0 35 -21q23 -20 29 -39q-29 -70 -109 -156q-76 -82 -184 -81q-66 0 -109 49q-41 47 -41 143 q0 31 8 72l164 841q8 33 8 64q0 14 -6 33q-8 25 -18 41q-16 25 -53 41q-35 14 -95 14q-66 0 -139 -100q-72 -100 -94 -230l-14 -82v-2q0 -8 6 -8h256q18 0 18 -31q0 -41 -26 -88h-267q-12 0 -14 -12l-111 -553q-25 -129 -75 -227q-49 -96 -115 -162q-59 -59 -135 -102 t-133.5 -57.5t-116.5 -14.5q-63 0 -125 20q-57 18 -98 54q-31 -41 -127 -80q-100 -41 -176 -41q-72 0 -121.5 24.5t-59.5 53.5zM573 -164q16 -37 84 -78q66 -39 127 -39q145 0 215 338l134 668v4q0 10 -9 10h-315q-10 0 -14 -12l-117 -606q-31 -154 -105 -285zM819 864 q0 -6 8 -6h318q10 0 16 33q16 84 66 186q2 2 2 15q0 14 -2 20q-18 152 -148 152q-76 0 -149 -99q-74 -100 -96 -217l-15 -82v-2z" />
<glyph unicode="fb" horiz-adv-x="1939" d="M-27 -358q0 174 113 174q29 0 47 -23q20 -23 29 -49q8 -23 28 -47q18 -23 46 -23q72 0 114 90q41 88 70 240l143 721v4q0 10 -8 10h-117q-10 0 -10 21q0 22 37 61t78 39h32q12 0 19 33q43 225 197 360q156 137 354 138q35 0 110 -15q63 -12 84 -12q113 0 172 27h11 q6 0 12 -15q6 -12 6 -20q-35 -72 -57 -189l-90 -462q-4 -12 4 -13q6 0 14 8q83 98 148 148q63 49 137 49q92 0 151 -53q63 -57 64 -182q0 -139 -62 -269q-66 -137 -147 -219q-86 -86 -193 -141q-102 -53 -186 -53q-119 0 -184 59q-68 61 -68 151q0 45 10 111l154 786 q6 25 6 64q0 20 -4 33q-6 18 -20 41q-16 25 -54 41q-35 14 -94 14q-63 0 -137 -100q-76 -104 -96 -230l-15 -82v-2q0 -8 6 -8h256q20 0 21 -31q0 -37 -29 -88h-264q-12 0 -14 -12l-119 -606q-33 -168 -92 -273q-68 -121 -140 -174q-80 -61 -149 -84q-80 -27 -143 -26 q-72 0 -121.5 24.5t-59.5 53.5zM1296 180q0 -90 52 -90q68 0 141 98q76 100 117 226q45 135 45 223t-62 88q-70 0 -153 -115q-88 -119 -109 -229l-14 -90q-17 -99 -17 -111z" />
<glyph unicode="ffb" horiz-adv-x="2506" d="M-27 -358q0 174 113 174q29 0 47 -23q20 -23 29 -49q8 -23 28 -47q18 -23 46 -23q72 0 114 90q41 88 70 240l141 721v4q0 10 -6 10h-119q-10 0 -10 21q0 23 37 59q39 39 78 39h32q12 0 19 33q43 221 201 352q160 131 358 131q102 0 235 -102q141 119 332 119 q49 0 117 -15q57 -12 76 -12q113 0 172 27h8q6 0 12 -15q6 -12 6 -20q-39 -80 -59 -189l-90 -462q-2 -12 4 -13q8 0 16 8q83 98 147.5 147.5t135.5 49.5q94 0 154 -53q61 -55 61 -182q0 -143 -59 -269q-63 -133 -150 -219q-89 -89 -190 -141q-102 -53 -189 -53 q-119 0 -184.5 59t-65.5 151q0 45 11 111l151 786q10 51 10 64q0 14 -6 33q-8 25 -18 41q-16 25 -53 41q-35 14 -95 14q-66 0 -139 -100q-72 -100 -94 -230l-14 -82v-2q0 -8 6 -8h256q18 0 18 -31q0 -41 -26 -88h-267q-12 0 -14 -12l-111 -553q-25 -129 -75 -227 q-49 -96 -115 -162q-59 -59 -135 -102t-133.5 -57.5t-116.5 -14.5q-63 0 -125 20q-57 18 -98 54q-31 -41 -127 -80q-100 -41 -176 -41q-72 0 -121.5 24.5t-59.5 53.5zM573 -164q16 -37 84 -78q66 -39 127 -39q145 0 215 338l134 668v4q0 10 -9 10h-315q-10 0 -14 -12 l-117 -606q-31 -154 -105 -285zM819 864q0 -6 8 -6h318q10 0 16 33q16 84 66 186q2 2 2 15q0 14 -2 20q-18 152 -148 152q-76 0 -149 -99q-74 -100 -96 -217l-15 -82v-2zM1864 180q0 -90 53 -90q66 0 139 98q78 104 119 226q43 129 43 223q0 88 -59 88q-72 0 -156 -114.5 t-107 -229.5l-16 -90q-16 -99 -16 -111z" />
<glyph unicode="fk" horiz-adv-x="1982" d="M-27 -358q0 174 113 174q29 0 47 -23q20 -23 29 -49q8 -23 28 -47q18 -23 46 -23q72 0 114 90q41 88 70 240l143 721v4q0 10 -8 10h-117q-10 0 -10 21q0 22 37 61t78 39h32q12 0 19 33q43 225 197 360q156 137 354 138q35 0 110 -15q63 -12 84 -12q113 0 172 27h11 q6 0 12 -15q6 -12 6 -20q-35 -72 -57 -189l-90 -475q0 -8 2 -8t8 14q92 199 264 199q94 0 168 -49t74 -133q0 -119 -106.5 -209t-209.5 -103q39 -98 90 -182q55 -90 97 -90q14 0 37 14q18 12 26 27q2 4 11.5 15.5t13.5 19.5q10 18 14 22t19 4q33 0 49 -28 q-78 -213 -262 -213q-68 0 -113 26q-41 25 -100 91q-80 92 -140 282l-2 2q-2 0 -2 -2l-76 -391q-37 -16 -108 -16q-53 0 -123 16l211 1087q6 25 6 64q0 20 -4 33q-6 18 -20 41q-16 25 -54 41q-35 14 -94 14q-63 0 -137 -100q-76 -104 -96 -230l-15 -82v-2q0 -8 6 -8h256 q20 0 21 -31q0 -37 -29 -88h-264q-12 0 -14 -12l-119 -606q-33 -168 -92 -273q-68 -121 -140 -174q-80 -61 -149 -84q-80 -27 -143 -26q-72 0 -121.5 24.5t-59.5 53.5zM1358 506q0 -25 65 -25q95 0 160 43q76 51 76 142q0 31 -23 59q-20 27 -53 27q-78 0 -151.5 -98.5 t-73.5 -147.5z" />
<glyph unicode="ffk" horiz-adv-x="2553" d="M-27 -358q0 174 113 174q29 0 47 -23q20 -23 29 -49q8 -23 28 -47q18 -23 46 -23q72 0 114 90q41 88 70 240l141 721v4q0 10 -6 10h-119q-10 0 -10 21q0 23 37 59q39 39 78 39h32q12 0 19 33q43 221 201 352q160 131 358 131q102 0 235 -102q141 119 332 119 q49 0 117 -15q57 -12 76 -12q113 0 172 27h8q6 0 12 -15q6 -12 6 -20q-35 -72 -57 -189l-90 -475q0 -8 2 -8t8 14q92 199 266 199q92 0 166 -49t74 -133q0 -121 -104 -209q-106 -90 -209 -103q39 -98 90 -182q55 -90 94 -90q14 0 37 14q20 14 29 27q2 4 10 15.5t12 19.5 q10 18 14.5 22t18.5 4q33 0 49 -28q-78 -213 -260 -213q-70 0 -115 26q-41 25 -100 91q-76 88 -137 282l-2 2q-2 0 -2 -2l-76 -391q-37 -16 -111 -16q-53 0 -123 16l211 1087q8 33 8 64q0 14 -6 33q-8 25 -18 41q-16 25 -53 41q-35 14 -95 14q-66 0 -139 -100 q-72 -100 -94 -230l-14 -82v-2q0 -8 6 -8h256q18 0 18 -31q0 -41 -26 -88h-267q-12 0 -14 -12l-111 -553q-25 -129 -75 -227q-49 -96 -115 -162q-59 -59 -135 -102t-133.5 -57.5t-116.5 -14.5q-63 0 -125 20q-57 18 -98 54q-31 -41 -127 -80q-100 -41 -176 -41 q-72 0 -121.5 24.5t-59.5 53.5zM573 -164q16 -37 84 -78q66 -39 127 -39q145 0 215 338l134 668v4q0 10 -9 10h-315q-10 0 -14 -12l-117 -606q-31 -154 -105 -285zM819 864q0 -6 8 -6h318q10 0 16 33q16 84 66 186q2 2 2 15q0 14 -2 20q-18 152 -148 152q-76 0 -149 -99 q-74 -100 -96 -217l-15 -82v-2zM1927 506q0 -25 68 -25q98 0 159 43q74 49 74 142q0 33 -20.5 59.5t-53.5 26.5q-78 0 -151 -99q-76 -100 -76 -147z" />
<glyph unicode="fh" horiz-adv-x="1984" d="M-27 -358q0 174 113 174q29 0 47 -23q20 -23 29 -49q8 -23 28 -47q18 -23 46 -23q72 0 114 90q41 88 70 240l143 721v4q0 10 -8 10h-117q-10 0 -10 21q0 22 37 61t78 39h32q12 0 19 33q43 225 197 360q156 137 354 138q35 0 110 -15q63 -12 84 -12q113 0 172 27h11 q6 0 12 -15q6 -12 6 -20q-35 -72 -57 -189q-106 -535 -107 -544l2 -2h2q90 170 166 231q57 45 119 45q86 0 125 -63q41 -66 41 -152q0 -65 -19 -154l-51 -272q-4 -16 -4 -33q0 -59 41 -59q14 0 39 29q18 20 43 57q18 29 21 29q8 0 32 -21q23 -20 29 -39q-29 -70 -109 -156 q-76 -82 -184 -81q-59 0 -104 45t-45 147q0 47 36 207q35 152 35 211q0 47 -12 70q-12 20 -43 20q-52 0 -129 -166q-82 -178 -123 -371l-31 -145q-40 -12 -104 -12q-84 0 -125 12l211 1087q6 29 6 64q0 20 -4 33q-6 18 -20 41q-16 25 -54 41q-35 14 -94 14q-63 0 -137 -100 q-76 -104 -96 -230l-15 -82v-2q0 -8 6 -8h256q20 0 21 -31q0 -37 -29 -88h-264q-12 0 -14 -12l-119 -606q-33 -168 -92 -273q-68 -121 -140 -174q-80 -61 -149 -84q-80 -27 -143 -26q-72 0 -121.5 24.5t-59.5 53.5z" />
<glyph unicode="ffh" horiz-adv-x="2555" d="M-27 -358q0 174 113 174q29 0 47 -23q20 -23 29 -49q8 -23 28 -47q18 -23 46 -23q72 0 114 90q41 88 70 240l141 721v4q0 10 -6 10h-119q-10 0 -10 21q0 23 37 59q39 39 78 39h32q12 0 19 33q43 221 201 352q160 131 358 131q102 0 235 -102q141 119 332 119 q49 0 117 -15q57 -12 76 -12q113 0 172 27h8q6 0 12 -15q6 -12 6 -20q-12 -37 -26 -72q-20 -47 -33 -117q-104 -532 -104 -544l2 -2h2q90 170 166 231q57 45 120 45q84 0 123 -63q41 -66 41 -152q0 -65 -18 -154l-49 -272q-4 -16 -4 -33q0 -59 38 -59q14 0 39 29 q18 20 43 57q18 29 21 29q10 0 35 -21q20 -18 26 -39q-31 -74 -106.5 -155.5t-183.5 -81.5q-61 0 -107 45q-43 43 -43 147q0 55 35 207q37 160 37 211q0 47 -13 70q-12 20 -45 20q-52 0 -129 -166q-82 -178 -123 -371l-28 -145q-39 -12 -107 -12q-88 0 -125 12l211 1087 q8 39 8 64q0 14 -6 33q-8 25 -18 41q-16 25 -53 41q-35 14 -95 14q-66 0 -139 -100q-72 -100 -94 -230l-14 -82v-2q0 -8 6 -8h256q18 0 18 -31q0 -41 -26 -88h-267q-12 0 -14 -12l-111 -553q-25 -129 -75 -227q-49 -96 -115 -162q-59 -59 -135 -102t-133.5 -57.5 t-116.5 -14.5q-63 0 -125 20q-57 18 -98 54q-31 -41 -127 -80q-100 -41 -176 -41q-72 0 -121.5 24.5t-59.5 53.5zM573 -164q16 -37 84 -78q66 -39 127 -39q145 0 215 338l134 668v4q0 10 -9 10h-315q-10 0 -14 -12l-117 -606q-31 -154 -105 -285zM819 864q0 -6 8 -6h318 q10 0 16 33q16 84 66 186q2 2 2 15q0 14 -2 20q-18 152 -148 152q-76 0 -149 -99q-74 -100 -96 -217l-15 -82v-2z" />
<glyph unicode="fj" horiz-adv-x="1462" d="M-27 -358q0 174 113 174q29 0 47 -23q20 -23 29 -49q8 -23 28 -47q18 -23 46 -23q72 0 114 90q41 88 70 240l143 721v4q0 10 -8 10h-117q-10 0 -10 21q0 22 37 61t78 39h32q12 0 19 33q43 225 197 360q156 137 354 138q109 0 188 -35q80 -33 119 -101q0 -176 -137 -176 q-23 0 -41 25q-15 22 -31 61q-16 43 -35 64q-45 51 -139 51q-63 0 -137 -100q-76 -104 -96 -230l-15 -82v-2q0 -8 6 -8h217q29 0 160 8q43 2 81 5t54.5 4.5t18.5 1.5q10 0 26 -35q16 -37 17 -49q0 -51 -21 -148l-77 -405q-55 -289 -173 -445q-55 -74 -165 -145 q-109 -72 -162 -86q-33 23 -33 51q0 16 6 23q129 111 189 227q55 106 98 336l80 424q4 20 4 30q0 84 -111 84h-225q-12 0 -14 -12l-119 -606q-33 -168 -92 -273q-68 -121 -140 -174q-80 -61 -149 -84q-80 -27 -143 -26q-72 0 -121.5 24.5t-59.5 53.5z" />
<glyph unicode="ffj" horiz-adv-x="2037" d="M-27 -358q0 174 113 174q29 0 47 -23q20 -23 29 -49q8 -23 28 -47q18 -23 46 -23q72 0 114 90q41 88 70 240l141 721v4q0 10 -6 10h-119q-10 0 -10 21q0 23 37 59q39 39 78 39h32q12 0 19 33q43 221 201 352q160 131 358 131q102 0 235 -102q141 119 332 119 q230 0 307 -136q0 -176 -137 -176q-23 0 -39 23q-8 10 -24 49q-18 43 -29 57q-23 33 -55 52q-39 20 -96 20q-66 0 -144 -109q-74 -104 -96 -223l-14 -82v-2q0 -8 6 -8l221 2q29 0 160 8q41 2 79.5 5t55 4.5t18.5 1.5q10 0 27 -35q16 -37 16 -49q0 -51 -20 -148l-78 -405 q-55 -289 -172 -445q-55 -74 -166 -145q-109 -72 -162 -86q-33 23 -33 51q0 16 7 23q129 111 188 227q55 106 98 336l80 424q4 20 4 30q0 84 -110 84h-232q-10 0 -14 -12l-109 -553q-31 -156 -100.5 -270.5t-157.5 -177.5q-82 -57 -168 -88q-78 -27 -149 -27q-63 0 -125 20 q-57 18 -98 54q-31 -41 -127 -80q-100 -41 -176 -41q-72 0 -121.5 24.5t-59.5 53.5zM573 -164q16 -37 84 -78q66 -39 127 -39q145 0 215 338l134 668v4q0 10 -9 10h-315q-10 0 -14 -12l-117 -606q-31 -154 -105 -285zM819 864q0 -6 8 -6h318q10 0 16 33q16 84 66 186 q2 2 2 15q0 14 -2 20q-18 152 -148 152q-76 0 -149 -99q-74 -100 -96 -217l-15 -82v-2z" />
<glyph unicode="Th" horiz-adv-x="1923" d="M14 1022l99 326q80 -23 123 -23q121 0 202 -4q123 -6 201 -6q299 0 444 8q59 2 203 29q135 25 164 39h10q6 0 13 -15q6 -12 6 -20q-51 -135 -64 -205q-100 -514 -100 -528l2 -2h2q90 170 166 231q57 45 119 45q84 0 122 -63q41 -66 41 -152q0 -65 -18 -154l-49 -272 q-4 -16 -4 -33q0 -59 41 -59q14 0 39 29q18 20 43 57q4 8 9 15l7 10l2 4q10 0 35 -21q23 -20 29 -39q-29 -70 -109 -156q-76 -82 -184 -81q-59 0 -104.5 45t-45.5 147q0 55 35 207q37 160 37 211q0 47 -12 70q-12 20 -43 20q-53 0 -132 -166q-80 -170 -120 -371l-31 -145 q-41 -12 -107 -12q-86 0 -122 12l208 1087q4 20 5 29q0 61 -33 79.5t-113 18.5q-104 0 -186 -12q-83 -12 -86 -24q-28 -61 -49 -179l-142 -720q-18 -90 -18 -160q0 -20 39 -39q45 -20 55 -21q4 0 4 -10q0 -41 -12 -57q-27 0 -111 8t-143 8q-20 0 -135 -8q-23 -2 -50.5 -3 t-44 -3t-24.5 -2v12q0 20 2 35q2 20 8 20q14 0 66 15q45 12 53 30q31 52 49 166l141 723q25 135 25 160q0 43 -25 51q-27 10 -124 10q-154 0 -238 -196q-4 -10 -21 -10q-41 0 -49 14z" />
<glyph unicode=" "  horiz-adv-x="378" />
<glyph unicode="&#x09;" horiz-adv-x="378" />
<glyph unicode="&#xa0;" horiz-adv-x="378" />
<glyph unicode="!" horiz-adv-x="458" d="M4 131q12 63 59 105q49 43 103 43q59 0 90 -43q33 -45 20.5 -104.5t-61.5 -106.5q-51 -47 -100 -48q-55 0 -88 46q-35 47 -23 108zM158 424q4 84 28 387q23 285 35 340q12 59 55 96t95 37q46 0 73 -37q29 -39 17 -98q-23 -119 -217 -707q-22 -61 -74 -61q-12 0 -12 43z " />
<glyph unicode="&#x22;" horiz-adv-x="679" d="M125 895q6 53 6 149q0 51 -4 138q-2 43 -2 90q6 37 49 80q45 45 96 45q45 0 58 -23q10 -18 -2 -108q-12 -61 -61.5 -184.5t-67.5 -184.5q-8 -29 -43 -29q-14 0 -23 6q-10 7 -6 21zM432 895q8 72 8 149q0 51 -4 137.5t-4 90.5q6 35 51 80t95 45q45 0 57 -23q12 -20 0 -108 q-10 -51 -64 -185q-49 -123 -67 -184q-8 -29 -41 -29q-12 0 -23 6q-12 9 -8 21z" />
<glyph unicode="#" horiz-adv-x="882" d="M16 352q0 33 17 74q18 47 33 47h145l57 150h-141q-14 0 -14 12q0 33 16 74q18 47 33 47h143l103 293q6 16 86 16q45 0 45 -12q-2 -2 -2 -4l-105 -293h154l102 293q6 16 86 16q43 0 43 -12q-2 -2 -2 -4l-102 -293h141q14 0 14 -11q0 -33 -16 -75q-18 -47 -35 -47h-143 l-58 -150h142q14 0 14 -10q0 -35 -16 -76q-18 -47 -33 -47h-145l-103 -293q-6 -14 -76 -14q-53 0 -53 10q2 2 2 4l105 293h-154l-102 -293q-6 -14 -76 -14q-55 0 -55 10q2 2 2 4l104 293h-141q-15 0 -15 12zM336 473h153l60 150h-156z" />
<glyph unicode="$" horiz-adv-x="903" d="M12 33v51q0 113 17 266q2 20 47 21q35 0 43 -9q0 -74 28 -139q31 -71 86 -104l150 413q-18 18 -49 41q-14 10 -31 25l-16 14q-74 59 -107 113q-37 57 -37 139q0 176 150 299q151 123 307 123q6 0 55 -4l39 107q2 12 27 12q49 0 80 -37l-41 -102q25 -8 114 -25 q-23 -344 -38 -344q-47 0 -58 6q-14 2 -14 25q0 113 -55 190l-136 -366q18 -16 64 -48q10 -8 55 -41q57 -49 84 -94q29 -51 29 -127q0 -172 -119 -303q-66 -72 -164 -112.5t-186 -40.5h-43l-45 -119q-4 -10 -29 -10q-35 0 -72 30l41 111q-41 6 -176 39zM332 92h8 q84 0 143 78q57 76 58 152q0 57 -56 118q-8 12 -18 23zM401 983q0 -49 33 -98q12 -20 55 -64l129 353q-33 4 -38 4q-92 0 -135.5 -68t-43.5 -127z" />
<glyph unicode="%" horiz-adv-x="1253" d="M-12 20l1138 1244q29 29 39 28q57 0 92 -35l-1134 -1243q-23 -23 -68 -22q-22 0 -37 6q-20 8 -22 10q-8 8 -8 12zM121 979q25 129 127 215q106 90 223 90q123 0 191 -90q70 -92 45 -215q-25 -129 -127 -215q-106 -90 -226 -90q-123 0 -190 90q-68 89 -43 215zM305 1020 q-49 -270 78 -270q52 0 86 55q33 55 49 127q55 279 -78 278q-98 0 -135 -190zM543 305q25 131 127 217q106 90 225 90q121 0 188 -90q70 -92 45 -217q-25 -129 -127 -215q-102 -88 -225 -88t-190 88q-68 89 -43 215zM727 348q-49 -272 78 -272q52 0 86 55t49 129 q55 276 -78 277q-98 -1 -135 -189z" />
<glyph unicode="&#x26;" horiz-adv-x="1296" d="M35 391q0 123 84 230q84 104 180 141l-5 6q-5 6 -15 16q-23 23 -29 31q-2 4 -10.5 16.5t-14.5 20.5q-10 14 -18 47q-6 25 -6 59q0 147 123 230q121 82 264 82q94 0 161.5 -49.5t67.5 -135.5q0 -55 -43 -110t-76 -55q-29 0 -28 18q0 4 8 28.5t8 61.5q0 59 -41 100 q-39 39 -100 39q-90 0 -147.5 -69.5t-57.5 -165.5q0 -82 57 -131q39 12 80 12q55 0 98 -24.5t43 -67.5q0 -37 -40.5 -59.5t-90.5 -22.5q-74 0 -122 43q-90 -78 -91 -274q0 -139 76 -233.5t217 -94.5q160 0 264.5 116.5t104.5 276.5q0 72 -29 129q-28 55 -86 55 q-51 0 -86 -26q-37 -29 -37 -72q0 -31 56 -45q33 -10 59 -31q29 -23 29 -49q0 -98 -86 -121q-47 0 -102.5 61.5t-55.5 137.5q0 111 88 184q92 76 205 76q45 0 75.5 -2t75.5 -2q61 0 115 33q49 31 49 88q0 25 -18 43q-16 16 -47 16q-20 0 -49 -22.5t-50 -22.5q-37 0 -61 29 q-23 25 -23 65q0 63 43 95q291 0 291 -203q0 -90 -57 -147.5t-158 -57.5q-4 0 -10 1t-18.5 2t-22.5 1q115 -102 115 -239q0 -199 -185 -338q-186 -139 -411 -140q-205 0 -359 117q-151 115 -151 303z" />
<glyph unicode="'" horiz-adv-x="370" d="M125 895q6 53 6 149q0 51 -4 138q-2 43 -2 90q6 37 49 80q45 45 96 45q45 0 58 -23q10 -18 -2 -108q-12 -61 -61.5 -184.5t-67.5 -184.5q-8 -29 -43 -29q-14 0 -23 6q-10 7 -6 21z" />
<glyph unicode="(" horiz-adv-x="704" d="M57 399q0 174 60 357q55 172 145 305q84 125 178 229q88 98 168 154q72 51 105 51q12 0 12 -37v-8v-8q0 -2 -4 -6q-139 -92 -290.5 -432t-151.5 -721q0 -195 38 -330q41 -141 80 -166q2 0 2 -8q-4 -16 -12 -35q-9 -18 -18 -18q-18 0 -58 28q-35 27 -80 90q-41 59 -81 138 q-41 80 -66 188q-27 120 -27 229z" />
<glyph unicode=")" horiz-adv-x="686" d="M-29 -223q0 6 6 10q41 23 111 119q78 109 145 244q74 147 129.5 362t55.5 430q0 176 -35 315q-33 133 -84 179q-2 2 -2 6q4 20 12 35q10 18 21 18q35 0 82 -49q47 -51 100 -137q51 -84 88 -217q39 -139 39 -277q0 -174 -57.5 -346t-143.5 -301t-178 -234 q-90 -102 -166 -155t-108 -53q-14 0 -15 38v13z" />
<glyph unicode="*" horiz-adv-x="751" d="M47 915q0 10 8 39q6 18 37 41q29 20 80 21q37 0 86 -8.5t73.5 -8.5t30.5 2q9 3 13 7q2 2 2 12q0 20 -53.5 92t-53.5 121q0 35 27 67q23 29 61 29q27 0 39 -10q14 -12 20.5 -43t6.5 -47v-62v-16q0 -6 -1 -18.5t-1 -18.5t1 -17.5t1 -19.5q0 -25 4 -33q6 -12 14 -12 q20 0 56 60q35 57 86 118q49 59 98 60q53 0 53 -66q0 -53 -65.5 -94t-131 -71.5t-65.5 -55.5q0 -16 39 -27q27 -6 84 -14q43 -6 82 -28.5t39 -65.5q0 -33 -31 -64q-29 -29 -59 -28q-37 0 -74 43q-45 53 -68 84q-29 41 -49 41q-18 0 -24 -35q-8 -41 -11 -101q-4 -72 -16 -110 q-20 -76 -88 -76q-25 0 -45.5 20.5t-20.5 45.5q0 43 68 141q70 100 70 119q0 16 -17 16q-10 0 -106 -45q-92 -43 -133 -43q-27 0 -45 18q-21 21 -21 41z" />
<glyph unicode="+" horiz-adv-x="968" d="M16 465q0 55 52 106h329q8 0 9 9q4 16 8 41.5t11 64.5t13 68l16.5 98t16.5 88q2 16 61 27q66 10 84 10q10 0 16.5 -6t4.5 -13l-72 -376q-4 -10 6 -11h347q8 0 8 -34q0 -57 -52 -109h-331q-8 0 -8 -8l-70 -361q-2 -12 -51 -24q-41 -10 -82 -10q-15 0 -24.5 6t-6.5 12 l74 375q0 10 -8 10h-342q-9 0 -9 37z" />
<glyph unicode="," horiz-adv-x="485" d="M4 -268q0 4 16 14q14 10 41 33q33 29 50 47q23 27 41 68q16 39 16 88q0 16 -16.5 65t-16.5 76q0 63 53.5 104t128.5 41q49 0 70 -16q2 -10 2 -62q0 -131 -57 -231q-66 -111 -119 -162q-70 -66 -176 -133q-33 27 -33 68z" />
<glyph unicode="-" horiz-adv-x="659" d="M57 416q0 23 18.5 69.5t30.5 49.5l453 22q12 0 12 -22t-18 -74q-18 -51 -33 -53l-452 -23q-11 0 -11 31z" />
<glyph unicode="." horiz-adv-x="405" d="M39 131q12 63 59 105q49 43 106.5 43t88.5 -43t18.5 -104.5t-57.5 -106.5q-47 -47 -104 -48q-55 0 -91 48q-32 45 -20 106z" />
<glyph unicode="/" horiz-adv-x="970" d="M-23 -55l848 1534q25 43 101 43q47 0 65 -13l-848 -1534q-4 -10 -49 -28q-39 -16 -86 -17z" />
<glyph unicode="0" horiz-adv-x="1003" d="M76 623q49 256 219 442q169 184 338 184q168 0 260 -184q90 -182 41 -442.5t-213 -444.5t-336 -184q-169 0 -264 184q-94 185 -45 445zM315 244q23 -145 95 -146q158 0 266 537q45 236 31 375q-15 141 -93 141q-82 0 -155 -145q-74 -144 -123 -381q-44 -234 -21 -381z " />
<glyph unicode="1" horiz-adv-x="616" d="M-16 6q0 53 16 53q25 0 70 19q47 18 55 35q16 35 31 112l133 678q8 27 8 60q0 41 -27 41q-25 0 -143 -66q-23 14 -16 47q0 16 8 25q449 276 477 276q18 0 18 -39q-33 -70 -55 -186l-156 -809q-14 -72 -14 -121q0 -23 25 -43q18 -14 43 -22q23 -6 30 -7q2 0 2 -6 q0 -35 -14 -61q-10 2 -108 8q-119 8 -131 8q-14 0 -138 -8q-104 -6 -112 -8q-2 2 -2 14z" />
<glyph unicode="2" horiz-adv-x="903" d="M-16 39q0 18 2 27q221 211 401 450q184 244 211 385q6 33 6 66q0 63 -29 108q-28 43 -86 43q-59 0 -118 -43q-61 -45 -96 -86t-39 -41q-10 0 -21 17q-6 10 -6 32l6 35q49 66 178 162q121 90 217 90q119 0 191 -70q74 -72 73 -192q0 -45 -12 -94q-14 -59 -26 -90 q-18 -49 -48 -90l-57 -82q-20 -31 -69 -84l-74 -76q-43 -43 -84 -78l-50.5 -44l-29.5 -26l-84 -69l-76 -64q-4 -4 -4 -12t6 -8h318q35 0 57 8q31 12 45 29l15.5 16t15.5 18q16 29 22 41q12 27 15 31q10 16 57 17q18 0 29 -17l-70 -164l-78 -184l-286 2q-266 -2 -412 -2 q-10 16 -10 39z" />
<glyph unicode="3" horiz-adv-x="858" d="M-12 113q0 45 30 69q33 27 66 27t94 -57q59 -55 107 -56q86 0 147 72q63 74 88 209q25 117 -14 188q-39 74 -131 74q-68 0 -135 -10q-10 20 -2 51l12 39q258 43 311 282q16 63 -14 103q-31 41 -72 41q-57 0 -117 -25q-55 -23 -94 -49q-35 -23 -41 -22q-14 0 -14 38 q0 29 4 33q70 80 166 123q94 41 242 41q74 0 133 -59.5t37 -169.5q-16 -72 -49 -125t-66 -86q-20 -20 -103 -88q72 0 152 -94.5t55 -233.5q-25 -129 -123 -235q-96 -102 -217 -151.5t-243 -49.5q-139 0 -203 63q-6 15 -6 58z" />
<glyph unicode="4" horiz-adv-x="927" d="M18 395q0 18 7 49l794 816q33 33 60 32q6 0 18 -8q10 -8 8 -16l-149 -764q-4 -16 14 -17h59q16 0 17 -28l-33 -111h-76q-8 0 -12 -16l-66 -324q-49 -18 -124 -18q-109 0 -103 26l62 320q0 10 -17 10l-444 2q-15 16 -15 47zM209 502q0 -14 8 -15h289q20 6 22 19l72 385 q2 12 -4 12q-4 0 -8 -4l-375 -387q-4 -4 -4 -10z" />
<glyph unicode="5" horiz-adv-x="888" d="M-10 113q0 45 30 69q33 27 66 27t94 -57q57 -55 107 -56q94 0 155 84q59 80 82 187q25 131 -20 208q-45 80 -131 80q-53 0 -97 -6q-25 -4 -67 -14q-25 -6 -29 -6q-16 0 -28 26l53 158l108 309q55 154 66 154q426 0 473 10q10 -25 2 -67q-18 -104 -49 -150q-18 0 -75.5 1 t-96.5 1q-139 0 -193 -4q-39 -2 -45 -20l-78 -224q76 20 154 21q145 0 249.5 -110.5t76.5 -264.5q-41 -207 -213 -342t-385 -135q-139 0 -203 63q-6 15 -6 58z" />
<glyph unicode="6" horiz-adv-x="933" d="M37 322q0 94 29 182q33 100 98 205q68 106 168 211q98 100 248 198q166 109 329 172q10 -4 17 -26q6 -25 4 -41q-395 -170 -557 -555q-84 -199 -84 -428q0 -147 96 -148q78 0 129 113q51 111 51 244q0 117 -35 151q-25 25 -65 37q-2 6 -2 51q0 14 35 31q31 14 75 14 q102 0 172 -88q72 -90 72 -209q0 -172 -143 -309q-145 -139 -312 -139q-141 0 -235 90q-90 88 -90 244z" />
<glyph unicode="7" horiz-adv-x="940" d="M20 28.5q0 18.5 9 26.5l694 971h-440q-94 0 -174 -158l-4 -1q-3 -1 -7 -1h-12q-33 0 -45 15q33 86 41 104l59 133l39 88q8 25 39 25h602q43 0 76 2q14 0 26.5 1t18.5 2l6 1q10 0 10 -10q0 -25 -77 -144l-793 -1103q-4 -2 -14 -3q-20 0 -37 16.5t-17 35z" />
<glyph unicode="8" horiz-adv-x="915" d="M16 242q0 242 285 389q10 6 2 14l-29 33q-28 31 -36 43q-4 6 -27 43q-23 35 -27 61q-6 31 -6 72q0 172 131 270q133 98 279 99q131 0 221 -63.5t90 -174.5q0 -195 -264 -346q-4 -4 -4 -6q0 -6 2 -8l18 -19q14 -12 31 -28l33 -33q20 -20 35 -45q12 -20 26 -47 q16 -25 23 -56q8 -37 8 -57q0 -144 -141 -270q-139 -125 -330 -125q-137 0 -230 61q-90 60 -90 193zM266 244q0 -152 105 -152q59 0 102 45q43 47 55 90q14 53 15 80q0 14 -4 39q-2 16 -11 35q-8 20 -16 33l-18 28q-6 12 -23 29q-8 8 -14 16.5t-8.5 8.5t-8.5 8t-14 16 t-19 18l-4 3q-14 14 -20 14q-8 0 -16 -6q-31 -20 -66 -123q-35 -100 -35 -182zM428 940q0 -23 2 -33q4 -16 8 -28q2 -6 5 -12.5t6 -10.5q2 -6 18 -22q6 -6 12 -17l2 -4q8 -8 21 -18l18 -19q10 -10 21 -10q8 0 14 6q104 137 104 277q0 111 -88 110q-55 0 -90 -49 q-37 -55 -45 -92q-8 -41 -8 -78z" />
<glyph unicode="9" horiz-adv-x="901" d="M-2 55q395 170 557 555q84 199 84 428q0 147 -96 148q-78 0 -129 -113q-51 -111 -52 -244q0 -117 35 -151q25 -25 68 -37q2 -6 2 -53q0 -14 -35 -31q-27 -12 -78 -12q-102 0 -172 88q-72 90 -71 209q0 170 145 309t309 139q141 0 236 -90q92 -90 92 -244q0 -88 -31 -182 q-33 -100 -98 -205q-72 -113 -166 -211q-94 -96 -250 -198q-166 -109 -330 -172q-10 4 -16 26q-6 25 -4 41z" />
<glyph unicode=":" horiz-adv-x="450" d="M20 104q0 72 54 123q57 53 119 54q47 0 75 -33q31 -35 31 -82q0 -68 -51 -127q-51 -61 -115 -62q-51 0 -82 37t-31 90zM139 723q0 71 56 123q53 51 116 51q47 0 78 -30.5t31 -82.5q0 -70 -51.5 -129t-114.5 -59q-51 0 -82 37q-33 39 -33 90z" />
<glyph unicode=";" horiz-adv-x="522" d="M-18 -268l34 28q35 29 74 82q37 51 53 121q6 31 -14 70q-20 37 -10 92q10 41 53 90q47 53 123 53q51 0 72 -16q10 -90 -2 -148q-8 -39 -56 -145q-51 -94 -114.5 -157.5t-180.5 -137.5h-4q-8 0 -20 27q-12 25 -8 41zM211 723q0 72 53 123t119 51q47 0 78 -31 q29 -29 28 -82q0 -70 -51 -129t-114 -59q-51 0 -82 37t-31 90z" />
<glyph unicode="&#x3c;" horiz-adv-x="851" d="M18 434q6 29 41 47l768 375q4 0 7 3q2 1 4 1q8 0 8 -88l-8 -45l-652 -309l533 -316l2 -12q-3 -15 -25 -67q-23 -53 -28 -54l-9 4l-622 381q-27 21 -19 80z" />
<glyph unicode="=" horiz-adv-x="1060" d="M45 238q20 76 39 114q6 10 16 10h824q14 0 14 -6v-4q-14 -66 -41 -123q0 -2 -16 -12h-828zM100 522q35 123 52 123h835q8 0 6 -8q-10 -53 -43 -123l-12 -12h-827z" />
<glyph unicode="&#x3e;" horiz-adv-x="880" d="M-2 25v65q4 10 8 12l656 316l-533 309l-2 18q43 115 55 115l8 -4l621 -375q31 -18 25 -47q-8 -57 -50 -80l-770 -381q-4 -2 -6 -2l-4 -2q-8 1 -8 56z" />
<glyph unicode="?" horiz-adv-x="690" d="M12 102q0 72 51 123q53 53 115 54q49 0 82 -33t33 -84q0 -70 -51.5 -127.5t-114.5 -57.5q-45 0 -80 35t-35 90zM100 600q0 84 41 133q43 51 95 76l202 88q104 45 105 133q0 104 -99 105q-31 0 -75.5 -45.5t-73.5 -45.5q-70 0 -90.5 57.5t4.5 117.5q61 74 166 73 q131 0 225 -82q96 -84 96 -211q0 -76 -45 -159q-45 -82 -106 -115q-76 -41 -207 -100q-78 -31 -78 -82q0 -35 49 -72t49 -41q0 -25 -26 -41q-45 0 -139 70q-93 67 -93 141z" />
<glyph unicode="@" horiz-adv-x="1497" d="M45 371q72 360 328 571t579 211q178 0 297 -106q121 -109 160 -262.5t8 -317.5q-53 -264 -176 -379q-125 -115 -258 -115q-90 0 -147 52q-55 49 -43 112q0 4 -5 0q-2 -2 -3 -2q-3 0 -3 -2q-31 -45 -114 -98q-80 -49 -170 -49q-98 0 -141.5 92t-20.5 205q43 215 219 374 q176 162 416 162q16 0 78 -4q53 -4 75 -8l29 -4l-33 -107l-119 -409q-61 -219 23 -219q66 0 117 38.5t82 104.5q29 59 45 113q20 63 26 104q49 258 -53 434t-332 176q-258 0 -456 -166q-201 -168 -250 -426q-61 -319 53 -507q117 -190 446 -191q57 0 134 27v-19 q-6 -37 -74 -67.5t-180 -30.5q-141 0 -260 66q-117 66 -183 170q-70 113 -92 229q-25 131 -2 248zM530 143q10 -37 43 -37q61 0 150 105q82 96 100 154l84 278q14 27 8 49q-6 27 -51 27q-80 0 -182 -121q-102 -123 -139 -311q-21 -107 -13 -144z" />
<glyph unicode="A" horiz-adv-x="1267" d="M-68 8q0 51 11 51q18 0 86 29q66 29 84 53q4 8 15 25.5l28.5 46.5l33.5 55l543 903l3 5q3 4 8.5 13t9.5 17q18 31 28 45q6 12 29 37q29 33 31 35q12 10 24 10q18 0 25 -14l209 -1036q4 -18 14 -71.5t14 -80.5q6 -31 52 -51q43 -20 67 -21q4 0 4 -10q0 -41 -14 -57 q-2 0 -13.5 1l-35 3t-51.5 4q-96 6 -144 6q-53 0 -274 -14q-2 2 -2 14q0 53 14 53q16 0 53 19q33 16 50 33q10 16 10 26q0 18 -43 277q0 8 -13 8q-94 4 -182 4q-127 0 -170 -2q-2 0 -4 -1t-6 -2t-8 -1q-16 -4 -17 -6l-90 -152q-66 -100 -65.5 -133t51.5 -51q52 -18 80 -19 q4 0 4 -8q0 -35 -10 -59q-2 0 -88 8q-66 6 -113 6q-49 0 -129 -6l-107 -8q-2 2 -2 16zM492 555q0 -2 2 -2q55 -6 137 -6q55 0 133 4q8 0 8 8l-63 356l-217 -356v-4z" />
<glyph unicode="B" horiz-adv-x="1120" d="M-29 10q0 6 4.5 22.5t6.5 20.5q3 6 6 6q20 0 65 17q43 16 53 35q25 43 50 176l145 755q20 121 21 156q-2 14 -43 37q-39 20 -60 20q-4 0 -4 15q0 39 14 53q92 -4 263 -4q145 0 198 2t90 2q47 0 121 -18q68 -16 115 -48q53 -35 86 -90q33 -57 33 -131q0 -25 -9 -73 q-4 -29 -20 -64q-14 -31 -31 -53q-2 -4 -14 -21.5t-21 -25.5l-36 -37q-4 -4 -35 -29l-31 -20q-12 -9 -18 -13l-9 -4q51 -8 102.5 -75.5t51.5 -167.5q0 -203 -155.5 -328t-387.5 -125q-53 0 -153.5 2t-155.5 2q-68 0 -141.5 -6t-96.5 -6q-4 4 -4 18zM389 143q0 -12 10 -18 q14 -10 43 -12q20 -2 93 -2q57 0 92 16q55 23 106 106q49 80 49 216q0 182 -184 182q-117 0 -121 -29l-88 -450v-9zM510 767q0 -26 92 -26q117 0 184.5 78t67.5 240q0 84 -37 119q-39 35 -108 34q-58 0 -86 -6q-27 -6 -33 -26q-8 -42 -30.5 -127.5t-36 -156t-13.5 -129.5z " />
<glyph unicode="C" horiz-adv-x="1173" d="M23 518q0 164 67 318q66 150 178 262q104 104 246 172q133 63 268 63q209 0 414 -57q0 -39 -8 -154q-8 -125 -12 -141q-2 -14 -21 -23q-16 -8 -35 -8q-4 0 -28 6q0 31 -9 58q-6 20 -32 69q-18 35 -56 68q-33 29 -92 51q-55 20 -133 21q-127 0 -233.5 -100.5t-166 -268.5 t-59.5 -360q0 -174 76 -289q74 -111 223 -111q82 0 166 19q78 16 127 53q37 27 66 67q31 43 45 72q14 31 16 31q51 0 57 -27q-10 -45 -34 -116q-31 -90 -45 -105q-115 -102 -412 -102q-260 0 -418 151q-155 150 -155 381z" />
<glyph unicode="D" horiz-adv-x="1355" d="M-29 10q0 6 4.5 22.5t6.5 20.5q3 6 6 6q20 0 65 17q43 16 53 35q25 43 50 176l145 755q20 121 21 156q-2 14 -43 37q-39 20 -60 20q-4 0 -4 15q0 39 14 53q92 -4 263 -4h323q133 0 240 -41q96 -37 166 -113q66 -72 96.5 -162t30.5 -194q0 -111 -35 -227.5t-103 -221.5 q-63 -98 -161 -186q-90 -82 -222 -131q-129 -49 -272 -49q-35 0 -154 6q-80 4 -188 4q-68 0 -141.5 -6t-96.5 -6q-4 4 -4 18zM401 131q33 -25 207 -25q156 0 269 144q115 145 170 430q18 86 17 159q0 20 -1 40q-6 98 -33 168q-28 74 -86 116q-59 43 -139 43q-164 0 -193 -32 q-35 -41 -49 -125l-149 -777q-17 -91 -18 -121q0 -17 5 -20z" />
<glyph unicode="E" horiz-adv-x="1083" d="M-29 10q0 6 4.5 22.5t6.5 20.5q3 6 6 6q20 0 65 17q43 16 53 35q25 43 50 176l145 755q20 121 21 156q-2 14 -43 37q-39 20 -60 20q-4 0 -4 15q0 39 14 53q106 -4 263 -4q43 0 301 4t301 4q-4 -82 -4 -180v-115q-10 -10 -43 -10q-23 0 -25 14q-20 74 -86 129 q-63 55 -137 56h-72q-55 0 -92 -4q-27 -2 -33 -23q-27 -68 -41 -156l-59 -309q0 -6 20 -8q14 -2 58 -2h157q47 0 62 16q16 20 55 107q6 14 33 14q31 0 37 -10l-72 -377q-8 -8 -41 -8q-25 0 -27 14q-2 90 -22 109q-25 25 -150 24q-137 0 -139 -18l-57 -307q-16 -86 -17 -119 q0 -35 20.5 -45t102.5 -10h47q119 0 222 51q37 20 83 67q49 49 84 113q6 12 27 12q46 0 55 -12l-43 -84q-18 -37 -32.5 -60.5t-20.5 -37.5q-16 -29 -39 -82q-29 -63 -33 -80q-27 0 -342 4t-317 4q-68 0 -141.5 -6t-96.5 -6q-4 4 -4 18z" />
<glyph unicode="F" horiz-adv-x="1073" d="M-29 10q0 6 4.5 22.5t6.5 20.5q3 6 6 6q20 0 65 17q43 16 53 35q25 43 50 176l145 755q20 121 21 156q-2 14 -43 37q-39 20 -60 20q-4 0 -4 15q0 39 14 53q106 -4 263 -4q41 0 299 4t301 4q-4 -82 -5 -180v-115q-10 -10 -43 -10q-23 0 -24 14q-20 74 -86 129.5t-137 55.5 h-72q-55 0 -92 -4q-27 -2 -33 -23q-27 -68 -41 -156l-59 -309q0 -6 20 -8q14 -2 58 -2h157q47 0 62 16q16 20 55 107q6 14 33 14q31 0 37 -10l-72 -377q-8 -8 -41 -8q-25 0 -27 14q-4 90 -22 109q-25 25 -150 24q-135 0 -139 -18l-57 -307q-18 -90 -19 -136q0 -27 23 -49 q20 -20 57 -26q12 -2 29.5 -6.5t23.5 -4.5q12 -2 33 -2q8 0 2 -30q-6 -35 -8 -37q-242 14 -319 14q-63 0 -91 -2q-45 -4 -88 -6q-45 -2 -82 -6q-4 4 -4 18z" />
<glyph unicode="G" horiz-adv-x="1230" d="M23 508q0 169 67 326q66 154 180 264q113 109 244 172q133 63 268 63q209 0 414 -57q0 -43 -8 -156q-8 -123 -12 -139q-6 -31 -58 -31q-8 0 -26 6q0 31 -9 58q-6 20 -32 69q-18 35 -56 68q-33 29 -92 51q-55 20 -133 21q-111 0 -205 -72q-92 -70 -145 -184 q-55 -117 -82 -236q-29 -127 -29 -237q0 -172 78 -287q76 -113 236 -113q82 0 172 23l53 260q12 57 12 100q0 29 -57 43q-55 14 -84 15q-4 0 -4 14q0 45 12 53q283 -12 301 -12q35 0 262 12q0 -68 -12 -67.5t-55 -12.5q-47 -14 -62 -20q-33 -20 -41 -56l-49 -223 q-10 -41 -10 -80q0 -14 -27 -37q-33 -29 -53 -38q-172 -84 -383 -84q-258 0 -416 149q-159 151 -159 375z" />
<glyph unicode="H" horiz-adv-x="1427" d="M-29 4q0 6 3 17.5t3 17.5q2 20 7 20q16 0 65 15q41 12 53 30q31 52 50 166l149 777q18 96 18 145q0 33 -36 47q-39 16 -60 16q-2 0 -2 9q0 47 12 59q12 0 78 -4q16 0 45 -1t43 -3q27 -2 78 -2q76 0 264 10v-8q0 -23 -4 -37q-6 -23 -12 -23q-12 0 -61 -16q-46 -15 -56 -31 t-28 -84q-16 -57 -21 -86l-53 -282v-4q0 -4 2 -4l3 -2q5 -1 7 -3q6 -2 23 -2q4 0 18 -1t23 -1h61q10 0 39 -1t47 -1q221 0 225 13l56 297q18 108 18 153q0 55 -96 55q-4 0 -4 13q0 39 16 55q211 -10 264.5 -10t241.5 10v-10q0 -18 -4 -35q-4 -14 -8 -18.5t-6 -4.5 q-10 0 -60 -16q-43 -14 -53 -31q-27 -53 -49 -170l-148 -759q-23 -119 -22 -160q0 -23 41 -41q39 -18 57 -19q4 0 4 -10q0 -31 -16 -57l-11 1q-11 1 -36 3t-54 4q-94 6 -145 6t-143 -6q-25 -2 -52.5 -4l-42 -3t-20.5 -1q-2 2 -2 12q0 6 4 35q2 20 6 20q25 0 66 15 q43 16 55 32q20 33 47 164l68 338v2q0 12 -219 13q-225 0 -230 -17l-63 -327q-20 -100 -21 -160q0 -23 41 -41.5t55 -18.5q4 0 5 -10q0 -37 -15 -57q-8 0 -33.5 3t-42.5 3q-35 2 -96 6q-31 2 -82 2q-49 0 -139 -6q-23 -2 -50.5 -4l-41.5 -3t-21 -1q-2 2 -2 12z" />
<glyph unicode="I" horiz-adv-x="718" d="M-29 4q0 6 3 17.5t3 17.5q2 20 7 20q16 0 65 15q41 12 53 30q31 52 50 166l149 777q18 96 18 145q0 33 -36 47q-39 16 -60 16q-2 0 -2 9q0 47 12 59q12 0 78 -4q16 0 45 -1t43 -3q27 -2 78 -2q76 0 264 10v-8q0 -23 -4 -37q-6 -23 -12 -23q-12 0 -61 -16q-46 -15 -56 -31 q-14 -27 -28 -84l-9.5 -36.5l-8.5 -32t-3 -17.5l-145 -759q-20 -100 -21 -160q0 -23 41 -41.5t55 -18.5q4 0 5 -10q0 -37 -15 -57q-2 0 -13 1l-34.5 3t-50.5 4q-92 6 -141 6q-51 0 -150 -6l-54.5 -4l-41.5 -3t-21 -1q-2 2 -2 12z" />
<glyph unicode="J" horiz-adv-x="841" d="M-33 -387q0 23 4 35q115 92 187 237q72 143 116 385l150 777q18 96 18 145q0 33 -36 47q-39 16 -60 16q-2 0 -2 9q0 47 12 59q10 0 76 -4q16 0 45 -1t43 -3q27 -2 80 -2q76 0 264 10v-8q0 -15 -6 -37q-6 -23 -10 -23q-12 0 -61.5 -16t-57.5 -31q-6 -8 -27 -84 q-16 -57 -20 -86l-145 -751q-31 -162 -91 -291q-61 -131 -133 -209q-76 -80 -151 -135q-70 -49 -166 -88q-29 12 -29 49z" />
<glyph unicode="K" horiz-adv-x="1421" d="M-29 4q0 6 3 17.5t3 17.5q2 20 7 20q16 0 65 15q41 12 53 30q31 52 50 166l149 777q18 96 18 145q0 33 -36 47q-39 16 -60 16q-2 0 -2 9q0 47 12 59q12 0 78 -4q16 0 45 -1t43 -3q27 -2 78 -2q76 0 264 10v-8q0 -23 -4 -37q-6 -23 -12 -23q-12 0 -61 -16q-46 -15 -56 -31 q-14 -27 -28 -84l-9.5 -36.5l-8.5 -32t-3 -17.5l-145 -759q-20 -100 -21 -160q0 -23 41 -41.5t55 -18.5q4 0 5 -10q0 -37 -15 -57q-8 0 -33.5 3t-42.5 3q-35 2 -96 6q-31 2 -82 2q-49 0 -139 -6q-23 -2 -50.5 -4l-41.5 -3t-21 -1q-2 2 -2 12zM487 666q94 63 189 151l362 354 q25 25 25 50q0 16 -41 28q-33 10 -64 11q-6 0 -6 22q0 31 9 41q170 -10 247 -10q45 0 236 10q0 -12 -4 -41q-4 -23 -13 -22q-154 -18 -221 -91l-426 -444q-20 -20 -20 -39q0 -9 6 -18l309 -445q63 -92 119 -129q53 -35 117 -35q6 0 6 -16q0 -23 -14 -43q-27 -8 -121 -8 q-23 0 -52.5 1t-37.5 1q-29 0 -76 10q-43 9 -74 25q-27 12 -63 47q-39 37 -64 76z" />
<glyph unicode="L" horiz-adv-x="1042" d="M-29 10q0 6 4 23q0 4 1 11t4 9q3 6 6 6q18 0 67 19q47 18 58 35q18 37 41 157l149 777q18 96 18 145q0 33 -36 47q-39 16 -60 16q-2 0 -2 9q0 47 12 59q12 0 78 -4q16 0 45 -1t43 -3q27 -2 78 -2q76 0 264 10v-8q0 -23 -4 -37q-6 -23 -12 -23q-12 0 -61 -16 q-46 -15 -56 -31t-28 -84q-16 -57 -21 -86l-145 -759q-14 -78 -15 -115q0 -31 21 -45q14 -10 102 -10h47q119 0 222 51q37 20 83 67q49 49 84 113q6 12 27 12q46 0 55 -12l-43 -84q-18 -37 -32.5 -60.5t-20.5 -37.5q-16 -29 -39 -82q-29 -63 -33 -80q-31 0 -329.5 4 t-304.5 4l-263 -12q-4 12 -4 18z" />
<glyph unicode="M" horiz-adv-x="1720" d="M-29 10q0 6 4 23q0 4 1 11t4 9q3 6 6 6q35 0 116 29q80 27 93 72q4 23 12 43l242 930q14 59 14 71q0 27 -51 39q-49 12 -82 12q-2 0 -2 15q0 37 16 53q113 -6 211 -6t199 6q4 -33 28 -184l66 -346q23 -113 61 -332q0 -2 4.5 -2t4.5 4l333 629l109 231q43 -6 190 -6 q94 0 195 6q0 -68 -14 -68q-66 0 -97 -32q-37 -45 -49 -174q-63 -578 -82 -818l-4 -34q-4 -49 -4 -62q0 -27 27 -47q20 -16 45 -22q23 -6 35 -7q4 0 4 -10q0 -41 -15 -57q-4 0 -15 1l-34.5 3l-48.5 4q-88 6 -137 6t-152 -6q-35 -2 -59.5 -4t-32.5 -3t-14 -1h-13q-4 12 -4 22 q0 6 4 23q2 8 7 16l4 6q18 0 65 19q43 16 62 39q10 16 14 26q4 14 10 45q6 33 13 103l55 514q4 49 4 94q0 23 -8 23q-4 0 -13 -15l-460 -846q-8 -14 -37 -41q-28 -25 -49 -24l-17 4l-184 961q-2 8 -6 8t-8 -11q-184 -655 -207 -772q-6 -31 -6 -47q0 -25 71 -53 q68 -27 94 -27q4 0 5 -12q0 -37 -13 -55q-8 0 -33.5 3t-41.5 3q-52 3 -99 6q-31 2 -82 2q-49 0 -137 -6q-23 -2 -50.5 -4l-41.5 -3t-21 -1q-4 12 -4 18z" />
<glyph unicode="N" horiz-adv-x="1349" d="M-29 10q0 6 4 23q0 4 1 11t4 9l4 6q29 0 100 21q65 18 98 61q23 31 45 148l154 784q10 53 10 119q0 33 -55 47q-59 16 -90 16q-6 0 -6 17q0 43 14 51q186 -8 248 -8q119 0 186 8q20 -78 84 -195l174 -315q111 -195 170 -311q4 10 21 82l88 465q12 66 12 106 q0 43 -63.5 71.5t-98.5 28.5q-4 0 -4 15q0 41 12 53q186 -8 260 -8q84 0 248 8q0 -68 -14 -68q-4 0 -41 -4q-27 -2 -72 -22q-43 -18 -69 -45q-35 -35 -56 -146l-147 -759q-8 -43 -45 -281q-8 -8 -49 -8q-20 0 -49 47l-555 1012l-148 -766q-16 -86 -16 -111q0 -29 22 -55 q18 -20 54 -35q10 -4 53 -16q22 -6 30 -7q4 0 5 -10q0 -33 -13 -57q-8 0 -33.5 3t-41.5 3q-35 2 -97 6q-31 2 -82 2t-139 -6q-23 -2 -50.5 -4l-41.5 -3t-21 -1q-4 12 -4 18z" />
<glyph unicode="O" horiz-adv-x="1251" d="M25 512q0 160 63 307q68 158 166 264q106 115 240 183q135 68 272 67q211 0 346 -151t135 -381q0 -162 -63 -309q-66 -154 -168 -263q-109 -115 -240 -180q-139 -70 -272 -69q-211 0 -346 151q-133 148 -133 381zM313 475q0 -78 13 -143q12 -70 39 -121q29 -59 75 -88 q49 -31 115 -31q86 0 156 58q68 55 114 143q47 86 78 196q35 123 45 203q14 115 15 178q0 352 -244 353q-160 0 -283 -215.5t-123 -532.5z" />
<glyph unicode="P" horiz-adv-x="1091" d="M-27 25q6 35 13 34q96 0 120 52q23 47 46 159l151 777q16 82 16 143q0 29 -40.5 47t-55.5 18q-4 0 -4 11q0 12 6 32.5t11 24.5q186 -8 253 -8q80 0 131.5 4t133.5 4q47 0 90 -6q41 -6 94 -25q45 -16 90 -53q37 -31 61.5 -88t24.5 -131q0 -82 -31 -162q-31 -82 -88 -147 q-53 -61 -145 -107q-88 -43 -195 -43q-39 0 -77 14q-35 12 -52 29q-2 2 -2 14.5t6 28.5q6 14 13 15q14 0 28 -3q29 -4 35 -4q115 0 170 109q57 111 58 276q0 70 -33 121q-35 53 -99 53q-109 0 -114 -38l-172 -893q-18 -104 -19 -136q0 -27 23 -49q20 -20 55 -26 q12 -2 29.5 -6.5t23.5 -4.5q12 -2 35 -2q8 0 2 -30q-6 -27 -10 -37q-242 14 -299 14q-51 0 -162 -6q-33 -2 -61.5 -4l-42 -3t-15.5 -1q-3 7 -3 17q0 7 1 16z" />
<glyph unicode="Q" horiz-adv-x="1247" d="M25 512q0 160 63 307q68 158 166 264q106 115 240 183q135 68 272 67q211 0 346 -151t135 -381q0 -211 -114 -410q-113 -193 -289 -305q-76 -45 -162 -82q-111 -47 -158 -57q51 -8 189 -53q205 -70 262 -84q135 -37 237 -37q74 0 148 30q68 29 115 68q10 -2 30 -16 q18 -12 19 -25q-23 -29 -54 -53q-16 -14 -100 -76q-53 -39 -135 -72q-72 -29 -148 -28q-135 0 -282 45q-145 45 -359 123q-197 72 -383 118q0 9 19 31q25 29 27 29q127 27 319 39q-184 29 -293 172q-110 147 -110 354zM313 475q0 -78 13 -143q12 -70 39 -121q29 -59 75 -88 q49 -31 115 -31q86 0 156 58q68 55 114 143q47 86 78 196q35 123 45 203q14 115 15 178q0 352 -244 353q-160 0 -283 -215.5t-123 -532.5z" />
<glyph unicode="R" horiz-adv-x="1263" d="M-29 4q0 6 3 17.5t3 17.5q2 20 7 20q16 0 65 15q41 12 53 30q31 52 50 166l151 777q18 101 19 141q0 31 -37 49t-62 18q-4 0 -4 11q0 12 6 32.5t11 24.5q186 -8 253 -8q80 0 131.5 4t131.5 4q61 0 118 -14q63 -16 119 -45q61 -33 98 -88.5t37 -128.5q0 -127 -88 -248 q-86 -119 -213 -164q-10 -4 -4 -21q94 -276 219 -434q96 -123 189 -123q0 -37 -21 -65q-37 -4 -71 -4q-49 0 -88 6q-53 8 -74 12q-31 6 -62 25q-41 25 -49 28q-27 16 -43 37l-33 39q-8 8 -28 45q-4 6 -8.5 14.5t-7.5 13.5t-5 10t-4 7q-6 12 -22.5 49t-20.5 45 q-96 205 -127 238q-25 29 -63 29h-13q-2 0 -10 -8q-4 -4 -8 -23l-55 -276q-20 -100 -21 -160q0 -23 41 -41.5t55 -18.5q4 0 5 -10q0 -37 -15 -57q-8 0 -33.5 3t-42.5 3q-35 2 -96 6q-31 2 -82 2q-49 0 -139 -6q-23 -2 -50.5 -4l-41.5 -3t-21 -1q-2 2 -2 12zM504 735 q0 -25 28 -30q37 -8 99 -9q66 0 114 58q47 57 70 137q20 76 20.5 160t-32.5 123q-35 41 -92 40q-72 0 -97 -10q-23 -10 -28 -41l-80 -413q-2 -5 -2 -15z" />
<glyph unicode="S" horiz-adv-x="897" d="M4 33q10 96 10 176q0 8 -1 39t-1 53v64q0 16 47 16q8 0 27 -6q20 -6 23 -10q0 -96 59 -183q61 -88 151 -88q55 0 101 23q41 20 67 53q16 20 37 70q18 43 21 61q4 33 4 37q0 35 -26.5 78t-47.5 63q-22 22 -74 62t-61 49q-6 4 -33 26l-17 16.5t-9 8.5t-7 4q-8 6 -30 27 q-27 27 -31 33q-6 9 -25 30q-16 18 -22 35l-14 39q-9 22 -13 43q-4 29 -4 47q0 92 47 180q46 86 117 142q76 59 154 88q84 31 157 30q53 0 95 -8q55 -10 106 -24q20 -6 100 -23q-49 -354 -57 -354h-29q-6 0 -13 1t-9 1q-8 0 -15 8q-6 9 -6 25q0 27 -10 73q-9 43 -30.5 86 t-61.5 74q-41 31 -90 31t-90 -25q-43 -27 -60 -59q-20 -43 -28 -68q-10 -35 -11 -55q0 -10 5 -35q2 -8 14 -35q14 -27 16 -30q18 -25 25 -31l26 -29q16 -16 31 -28l33 -27q2 -2 11 -8t24 -19q25 -18 32 -26q12 -10 56 -41q6 -4 57 -47q23 -18 43 -48q29 -41 37 -73 q10 -45 10 -88q0 -113 -47 -211q-45 -92 -121 -150q-74 -55 -157 -86q-82 -31 -162 -30q-129 0 -330 53z" />
<glyph unicode="T" horiz-adv-x="1144" d="M-4 1022l98 326q80 -23 123 -23q80 0 203 -6q82 -4 201 -4q121 0 206 4q129 6 207 6q39 0 133 23l-28 -328q-2 -2 -25 -8q-20 -6 -33 -6q-14 0 -14 10q-2 104 -47 151q-43 47 -117 47q-68 0 -104 -6q-35 -6 -47 -14q-10 -6 -13 -16q-28 -61 -49 -179l-139 -720 q-20 -100 -21 -160q0 -23 39 -41q41 -18 58 -19q4 0 4 -10q0 -37 -15 -57q-8 0 -34.5 3t-40.5 3q-66 4 -94.5 6t-80 2t-143.5 -6l-51.5 -4l-40.5 -3t-20 -1q-2 2 -2 12q0 6 4 35q2 20 8 20q14 0 63 15q41 12 54 30q33 57 51 166l139 723q27 145 27 160q0 43 -27 51 q-31 10 -125 10q-76 0 -133 -45q-59 -47 -104 -151q-6 -10 -21 -10q-10 0 -28.5 6t-20.5 8z" />
<glyph unicode="U" horiz-adv-x="1357" d="M70 328q-4 39 -4 82q0 99 20 213l84 421q16 100 16 139q0 12 -2 17q-6 14 -45 33q-35 16 -59 16q-6 0 0 35q6 37 8 39q211 -10 268 -10q74 0 262 10v-35q-6 -39 -16 -39q-23 0 -70 -16q-55 -18 -59 -31q-27 -63 -47 -170l-90 -475q-15 -74 -15 -135q0 -92 33 -160 q55 -113 189 -112q66 0 121 20q57 20 112 67.5t98 131.5q41 82 64 202l92 478l1 3q1 3 3 8t2 11t3 17.5t3 15.5q0 18 2 31q2 18 0 32q-2 12 -10 25q-12 20 -61 38.5t-72 18.5q-4 4 -4 19q0 6 3 17t3 15q2 10 8 23q158 -14 242 -14q46 0 129 6l47.5 4l37.5 3t19 1q2 -8 2 -16 t-2 -19q0 -2 -2 -10t-4 -14q-6 -14 -12 -15q-20 0 -35 -2q-25 -4 -63 -18q-37 -14 -68 -45q-31 -33 -53 -146l-90 -456q-55 -293 -217 -442.5t-375 -149.5q-109 0 -191 35q-78 33 -137 108q-57 72 -69 195z" />
<glyph unicode="V" horiz-adv-x="1095" d="M18 1268q0 29 17 55q184 -10 264 -10q115 0 285 10q2 -2 2 -10q0 -18 -6.5 -41t-10.5 -23q-37 0 -80 -16q-51 -18 -57 -55q-1 -4 -1 -13q0 -28 18 -118l122 -662l390 659q53 90 63 136q6 31 -27 51q-29 18 -90 18q-4 0 -4 15q0 35 12 59q164 -8 211 -8q31 0 222 8 q3 -5 3 -14q0 -6 -1 -15q-6 -43 -13 -43q-20 0 -32 -2q-14 -2 -48 -12q-25 -8 -61 -37q-31 -25 -53 -63l-649 -1084q-18 -31 -50 -53q-27 -20 -45 -20q-27 0 -39 26l-184 1014q-6 43 -14 82t-15 82q-6 35 -51 49q-49 16 -71 16q-7 1 -7 19z" />
<glyph unicode="W" horiz-adv-x="2029" d="M27 1249q-3 0 -3 10.5t3 28.5q6 31 10 35q209 -10 262 -10q66 0 256 10v-8q0 -14 -4 -43q-4 -23 -10 -23q-88 0 -101 -67q-2 -12 11 -62q205 -737 206 -737q8 0 181 238l-119 434q-35 121 -51 145q-37 49 -99 49q-6 0 0 39q6 31 11 35q211 -10 256 -10q57 0 247 10v-10 q0 -12 -4 -41q-4 -23 -10 -23q-31 0 -59 -14q-31 -15 -37 -49q-4 -18 8 -62l66 -229l122 188q57 88 60 105q2 18 -12.5 32.5t-40.5 20.5q-12 4 -43 8q-12 2 -29 2q-4 0 -4 23q0 37 16 49q145 -10 217 -10q47 0 238 10l-4 -41q-2 -31 -11 -31q-29 0 -77 -18q-45 -16 -70 -41 q-68 -63 -139 -172l-185 -277l105 -348q6 0 196 285l273 407q45 70 51 101q4 25 -24 41q-27 14 -54 18q-33 4 -43 4q-2 0 -2 27q0 33 15 45q145 -10 221 -10q53 0 80 2q14 2 41.5 3t42.5 1q61 4 69 4q0 -72 -14 -72q-33 0 -74 -16q-47 -18 -67 -39q-59 -53 -144 -176 l-649 -981q-18 -29 -41 -47.5t-35 -18.5q-14 0 -18 11l-135 483l-308 -428q-29 -37 -41 -47q-23 -18 -34 -19q-10 0 -15 11l-295 1071q-25 94 -57 153q-10 18 -45 31q-28 10 -57 10z" />
<glyph unicode="X" horiz-adv-x="1521" d="M-29 20q8 45 17 46q16 0 88 20q61 18 88 47l463 531l-170 409q-57 135 -72 148q-31 29 -92 28q-2 0 -2 25q0 35 14 49q43 0 109 -4q98 -6 151 -6q82 0 271 10v-6v-8q0 -18 -6.5 -39t-12.5 -21q-33 0 -63 -10q-35 -12 -41 -31q-2 -25 6 -45l141 -336l76 82l86 88l74 80 q20 23 57 70q18 23 23 41q4 25 -35 43t-90 18q-4 0 -4 23q0 35 18 51q168 -10 227.5 -10t249.5 10v-12q0 -25 -4 -39q-6 -23 -12 -23q-27 0 -84.5 -18.5t-98.5 -59.5l-436 -458q227 -535 244 -561q23 -41 74 -66q43 -20 69 -20q2 -4 2 -9q0 -8 -2 -18q-1 -6 -3 -12 q-1 -3 -1 -4q-3 -9 -12 -31q-221 12 -268 12q-61 0 -95 -2q-55 -4 -106 -6q-78 -4 -94 -4q-2 2 -2 18q0 6 8 35q6 20 10 21q23 0 68 16q43 16 47 41q2 10 0 20l-166 396q-3 -3 -49 -56l-88 -100l-90 -107q-68 -80 -80 -96q-34 -44 -34 -56q0 -24 38 -40q43 -18 90 -18 q6 0 0 -41q-4 -23 -10 -33q-182 12 -244 12q-12 0 -240 -12v12q0 4 -1 9t-1 7z" />
<glyph unicode="Y" horiz-adv-x="1179" d="M23 1268q0 14 6 32q4 14 12 23q43 0 109 -4q98 -6 151 -6q76 0 266 10q2 -2 2 -16q0 -25 -4 -37q-6 -20 -12 -21q-35 0 -66 -10q-37 -12 -43 -31q-2 -20 7 -45l127 -356q280 356 288 399q6 18 -22 31q-28 12 -86 12q-4 0 -4 19q0 43 14 55q141 -10 225 -10q76 0 211 10 q0 -29 -2 -35q-6 -37 -12 -37q-34 0 -80 -18q-47 -18 -82 -53q-37 -43 -244 -308q-182 -233 -190 -264l-64 -317q-19 -91 -18 -156v-18q0 -14 45 -33q43 -18 59 -18q6 0 0 -37q-6 -27 -10 -37q-12 0 -110 8q-131 8 -146 8q-16 0 -147 -8l-55.5 -4t-45 -3t-22.5 -1 q-6 10 -2 33q6 41 12 41q22 0 74 18q51 18 59 33q25 59 45 162l68 339q2 10 -35 127l-74 222l-37 106q-37 123 -71 148q-16 12 -47 20q-27 8 -47 8q-2 1 -2 19z" />
<glyph unicode="Z" horiz-adv-x="1228" d="M-25 51q4 25 15 35l903 1112h-320q-72 0 -114 -14q-46 -15 -80 -49q-37 -37 -53 -62q-12 -18 -45 -84q-8 -14 -13 -20q-10 -12 -26 -13q-53 0 -60 9q82 217 125 358q37 -10 299 -10h205q205 0 432 18q8 0 8 -24q0 -31 -2 -41q-6 -12 -225 -283l-444 -547l-222 -272 q-16 -20 -20 -31q0 -10 4 -14t18 -4h295q129 0 227.5 67.5t147.5 165.5q6 12 27 12q46 0 55 -12l-23.5 -43t-37.5 -76l-68 -137q-25 -53 -39 -92h-962q-8 14 -9 33q0 9 2 18z" />
<glyph unicode="[" horiz-adv-x="780" d="M-8 -174l325 1667q0 2 5 14q2 8 14 20.5t26 12.5q209 0 435 45q8 0 8 -16q0 -49 -33 -65.5t-117 -43.5q-63 -20 -102 -20q-16 0 -21 -19l-296 -1525q-4 -16 12 -17q31 0 92 -18q53 -16 104 -45q12 -8 11 -41q-4 -35 -19 -41q-248 47 -416 47q-28 0 -28 45z" />
<glyph unicode="\" horiz-adv-x="499" d="M37 1509q16 12 39 13q90 0 102 -43l252 -1452v-4q0 -2 1 -4.5t1 -4.5q0 -47 -26.5 -69.5t-51.5 -22.5l-45 4z" />
<glyph unicode="]" horiz-adv-x="768" d="M-31 -252q0 52 31 68q61 29 121 45q68 18 100 18q14 0 19 17l299 1525q2 18 -15 19q-39 0 -98 20q-72 25 -98 43q-10 12 -11 33q0 14 9 35q6 14 10 14q205 -45 418 -45q27 0 26 -35v-12l-323 -1667l-4 -12q-4 -12 -14.5 -22.5t-26.5 -10.5q-170 0 -437 -47q-6 4 -6 14z " />
<glyph unicode="^" horiz-adv-x="702" d="M88 997q2 6 39 37l38.5 34.5t37.5 35.5q53 49 102 106q57 66 107 144q2 2 6 10q0 2 2 3t2 3q0 4 2 6t4 2t4 1t4 1q20 0 27 -14q8 -20 24 -70q20 -59 50 -120l43 -68l51 -74q23 -33 22 -35q-4 -16 -14 -36q-12 -25 -21 -25q-25 0 -96 74q-78 80 -121 151 q-61 -70 -174 -151q-100 -74 -127 -74q-12 0 -12 59z" />
<glyph unicode="_" horiz-adv-x="1036" d="M43 -70q18 104 47 105h836q4 0 4 -17q0 -31 -31 -96q-4 -6 -6 -8l-8 -4h-2h-830z" />
<glyph unicode="`" horiz-adv-x="419" d="M96 1309q0 20 29 42.5t70 22.5q43 0 57 -18q37 -61 78 -160q43 -104 43 -117q0 -6 -14.5 -20.5t-24.5 -14.5q-22 0 -129 105q-109 105 -109 160z" />
<glyph unicode="a" horiz-adv-x="923" d="M14 281q0 100 49.5 210.5t131.5 198.5q86 92 202.5 149.5t247.5 57.5q66 0 115 -14q57 -16 74 -29l-117 -598q-4 -16 -4 -45q0 -49 20 -49q25 0 78 43q53 45 68 63q8 0 22 -20q16 -23 17 -29q-18 -47 -144 -143q-119 -92 -205 -92q-43 0 -75 28q-31 29 -31 80q0 4 1 13.5 t1 13.5q0 20 4 33q-94 -168 -219 -168q-111 0 -172 82q-64 86 -64 215zM260 248q0 -113 63.5 -113t129 141.5t96.5 298.5l35 181q-14 14 -56 14q-61 0 -112 -61q-52 -61 -86 -148q-31 -80 -51 -172q-19 -86 -19 -141z" />
<glyph unicode="b" horiz-adv-x="819" d="M23 213q0 46 12 111l147 763q18 92 19 119q0 43 -99 43q-6 0 -6 17q0 29 19 47q43 0 161.5 28.5t167.5 49.5q20 -8 21 -45q0 -20 -35 -179l-92 -475q2 2 6 10l43 60l53 59q37 41 74 58q39 18 84 18q205 0 205 -291q0 -132 -55 -252q-57 -123 -138 -200q-84 -80 -180 -127 q-98 -47 -182 -47q-96 0 -162 65q-63 64 -63 168zM258 172q10 -78 59 -78q61 0 119 84q53 80 90 201q31 102 31 213q0 133 -59 133q-63 0 -133 -125q-68 -121 -97 -266q-14 -52 -13 -108q0 -27 3 -54z" />
<glyph unicode="c" horiz-adv-x="741" d="M16 311q0 147 70 287q68 135 180.5 217t237.5 82q143 0 223 -88q14 -41 14 -68q0 -45 -26 -84q-25 -37 -68 -36q-34 0 -55 24q-20 23 -30.5 59.5t-29.5 57.5q-23 27 -51 26q-53 0 -102 -71q-49 -70 -80 -176q-31 -104 -31 -203q0 -203 129 -203q59 0 121 45q57 41 80 72 q8 0 23 -21q16 -23 16 -26q-23 -57 -129.5 -137t-200.5 -80q-147 0 -219 86q-72 87 -72 237z" />
<glyph unicode="d" horiz-adv-x="929" d="M10 281q0 96 45 204q43 104 119 193q74 86 188 149q104 57 234 68q2 0 4 1t4 1l39 184q18 106 19 125q0 43 -99 43q-6 0 -6 17q0 29 18 47q45 0 164 28q114 28 166 50q20 -8 21 -45q0 -2 -8 -48q-2 -12 -17 -73q-4 -14 -7 -32.5t-3 -21.5l-178 -915q-4 -16 -4 -45 q0 -49 20 -49q29 0 78 43q53 45 67 63q8 0 23 -20q16 -23 16 -29q-18 -47 -143 -143q-119 -92 -205 -92q-43 0 -76 28q-31 29 -30 80q0 6 1 16.5t1 14.5q0 16 4 29q-94 -168 -219 -168q-111 0 -172 82q-64 86 -64 215zM256 248q0 -113 63 -113q66 0 127 135q63 139 97 305 l28 146q2 6 2 12q0 16 -12 25q-16 12 -37 12q-61 0 -112 -61q-52 -61 -86 -148q-27 -70 -50 -172q-20 -96 -20 -141z" />
<glyph unicode="e" horiz-adv-x="784" d="M16 313q0 141 70 281q70 137 180 219q115 84 236 84q106 0 180 -49q76 -51 76 -135q0 -74 -59.5 -145.5t-141.5 -114.5q-83 -43 -160 -68q-84 -27 -121 -27q-8 0 -8 -20q0 -115 35 -160q33 -43 94 -43q59 0 121 45q57 41 80 72q8 0 23 -21q16 -23 16 -26 q-23 -57 -129.5 -137t-200.5 -80q-143 0 -217 85.5t-74 239.5zM291 467q0 -8 8 -8q94 0 161.5 86t67.5 168q0 78 -47 78q-49 0 -121 -109q-69 -106 -69 -215z" />
<glyph unicode="f" horiz-adv-x="833" d="M-336 -358q0 174 113 174q29 0 47 -23q20 -23 29 -49q8 -23 28 -47q18 -23 45 -23q72 0 115 90q41 88 70 240l143 721v4q0 10 -8 10h-119q-8 0 -8 21q0 22 37 61t75 39h35q12 0 19 33q43 229 186 362q143 135 340 136q125 0 186 -68q0 -199 -116 -199q-28 0 -50 25 q-18 23 -28 53q-8 25 -29 53q-18 25 -45 25q-63 0 -123 -115q-57 -111 -94 -297v-2q0 -8 6 -8h230q20 0 20 -31q0 -37 -29 -88h-239q-12 0 -15 -12l-116 -606q-33 -162 -95 -273q-68 -121 -139 -174q-82 -61 -147 -84q-80 -27 -144 -26q-74 0 -123 24q-47 25 -57 54z" />
<glyph unicode="g" horiz-adv-x="929" d="M-33 -229q0 39 25 69q29 35 61 54q35 18 74 32q23 8 72 21q-45 16 -66 30q-49 37 -49 86q0 39 70 84q59 39 163 84q-172 47 -172 263q0 160 125 282q123 121 293 121q55 0 123 -26.5t143 -26.5h107q18 0 18 -27q0 -41 -20 -76h-103q-12 0 -12 -12l1 -4q1 -4 2 -13.5 t1 -19.5q4 -49 4 -67q0 -213 -188 -336q-43 -27 -115 -56q-92 -37 -125 -53q-49 -25 -49 -49q0 -8 68 -25l151 -30q82 -14 150 -62q70 -47 69 -110q0 -51 -24 -107q-20 -45 -80 -108q-55 -57 -152 -90q-104 -35 -233 -35q-139 0 -235.5 59.5t-96.5 147.5zM168 -199 q0 -61 45 -100t152 -39q115 0 157 41q47 43 47 102q0 35 -100 66q-96 29 -184 39q-117 -33 -117 -109zM375 434q0 -102 76 -102q41 0 69 35q33 39 47 90q16 61 23 106q6 52 6 99q0 49 -21 83q-18 31 -55 31q-49 0 -82 -57q-34 -58 -49 -135q-14 -72 -14 -150z" />
<glyph unicode="h" horiz-adv-x="937" d="M-6 0q229 1184 229 1206q0 43 -96 43q-6 0 -6 17q0 31 16 47q45 0 164 28.5t168 49.5q18 -8 18 -45q0 -10 -6 -48l-16 -77q-4 -14 -7 -33t-3 -21l-109 -559q55 111 135 197q86 92 154 92q86 0 129 -61.5t43 -155.5q0 -37 -33 -213l-41 -211q-4 -16 -4 -45q0 -49 21 -49 q31 0 79 43q53 45 68 63q6 0 21 -20q16 -23 16 -29q-18 -47 -143 -143q-119 -92 -205 -92q-45 0 -76 30.5t-31 83.5q0 63 21 148l47 237q0 8 6 35q4 14 8 49q4 29 4 33q0 39 -12 62q-12 20 -45 20q-51 0 -131 -170q-84 -176 -107 -301l-43 -211q-40 -12 -110.5 -12 t-122.5 12z" />
<glyph unicode="i" horiz-adv-x="571" d="M2 662q20 49 143 145q117 90 205 90q47 0 76 -29q31 -31 31 -84q0 -29 -8.5 -78t-12.5 -69l-74 -381q-4 -16 -4 -45q0 -49 21 -49q27 0 78 43q53 45 67 63q6 0 21 -20q16 -23 16 -29q-18 -49 -141 -143q-121 -92 -207 -92q-43 0 -73.5 30.5t-30.5 83.5q0 27 8 76 q4 20 7 44t3 28l76 381q4 29 4 45q0 49 -21 49q-31 0 -80 -43q-45 -39 -65 -64q-8 0 -23 21q-16 23 -16 27zM258 1206q0 63 47 117q45 51 109 51q51 0 83.5 -34.5t32.5 -90.5q0 -66 -47 -119q-45 -51 -108 -51q-51 0 -84 37q-33 35 -33 90z" />
<glyph unicode="j" horiz-adv-x="681" d="M-16 -362q131 113 186 227q51 106 98 336l82 426q4 29 4 45q0 49 -18 49q-28 0 -80 -43q-53 -45 -68 -64q-6 0 -20 21q-16 23 -16 27q20 53 141 145q117 90 207 90q47 0 75.5 -28.5t28.5 -84.5q0 -41 -6 -77q-8 -49 -12 -70l-76 -397q-55 -289 -172 -445 q-55 -74 -166 -145q-106 -70 -164 -86q-8 0 -16 30q-8 28 -8 44zM432 1208q0 66 47 119q45 51 111 51q49 0 82 -37q33 -35 33 -90q0 -66 -48 -118q-45 -51 -108 -52q-49 0 -82 37q-35 39 -35 90z" />
<glyph unicode="k" horiz-adv-x="923" d="M-6 0l211 1087q16 82 16 119q0 43 -96 43q-6 0 -6 17q0 31 16 47q45 0 164 28.5t168 49.5q18 -8 18 -45q0 -10 -6 -48l-16 -77q-4 -14 -7 -33t-3 -21l-91 -475q12 28 31 56q25 35 51 65q33 37 84 61q45 23 111 23q92 0 166 -49t74 -133q0 -82 -60 -158q-55 -70 -131 -111 q-70 -37 -137 -47q37 -96 90 -176q59 -90 100 -90q37 0 84 39q53 43 70 66q6 0 27 -19q23 -18 22 -26q-23 -59 -110 -130q-90 -72 -189 -71q-39 0 -84 28.5t-76 65.5q-43 51 -69 96l-56 94l-45 91q-4 10 -8 16t-6 8l-76 -391q-37 -16 -108 -16q-53 0 -123 16zM328 506 q0 -25 65 -25q98 0 162 43q35 23 53 62q20 45 21 80q0 31 -23 59q-20 27 -51 27q-80 0 -153.5 -98.5t-73.5 -147.5z" />
<glyph unicode="l" horiz-adv-x="481" d="M10 98q0 27 8 76q10 61 13 72l164 841q18 92 18 119q0 43 -98 43q-6 0 -6 17q0 29 18 47q45 0 164 28q114 28 166 50q20 -8 20 -45q0 -10 -6 -46q-4 -23 -16 -79q-2 -12 -5.5 -24.5l-5.5 -20t-2 -9.5l-178 -911q-4 -29 -4 -45q0 -49 21 -49q31 0 79 43q45 39 66 63 q8 0 23 -20q16 -23 16 -29q-18 -47 -143 -143q-121 -92 -205 -92q-45 0 -76 30.5t-31 83.5z" />
<glyph unicode="m" horiz-adv-x="1495" d="M4 662q20 49 143 145q117 90 205 90q47 0 76 -29q31 -31 31 -84q0 -18 -17 -129l-8 -51q53 111 135 201q82 92 152 92q86 0 129 -61.5t43 -155.5q0 -27 -6 -64q57 106 141 193q86 88 152 88q88 0 131 -61q41 -59 41 -156q0 -47 -31 -213l-41 -211q-4 -16 -4 -45 q0 -49 20 -49q27 0 78 43q53 45 68 63q8 0 22 -20q16 -23 17 -29q-18 -47 -144 -143q-121 -92 -204 -92q-45 0 -76 30.5t-31 83.5q0 63 21 148l47 237q19 99 18 125q0 74 -57 74q-51 0 -131 -170q-82 -172 -109 -301l-41 -211q-41 -12 -119 -12q-74 0 -116 12l96 483 q18 86 18 117q0 82 -59 82q-51 0 -131 -170q-78 -166 -107 -301l-43 -211q-40 -12 -110 -12t-119 12l121 627q4 29 4 45q0 49 -21 49q-31 0 -79 -43q-45 -39 -66 -64q-8 0 -23 21q-16 23 -16 27z" />
<glyph unicode="n" horiz-adv-x="1024" d="M4 662q20 49 143 145q117 90 205 90q47 0 76 -29q31 -31 31 -84q0 -18 -17 -129l-1 -3q-1 -3 -1 -5t-1 -8t-1 -10t-1 -10.5t-1 -8.5l-2 -6q53 111 135 201q82 92 152 92q86 0 129 -61.5t43 -155.5q0 -37 -33 -213l-41 -211q-4 -16 -4 -45q0 -49 21 -49q28 0 79 43 q49 41 66 63q8 0 23 -20q16 -23 16 -29q-18 -47 -143 -143q-119 -92 -205 -92q-45 0 -76 30.5t-31 83.5q0 63 21 148l47 237q18 98 18 117q0 39 -12 62q-12 20 -45 20q-51 0 -131 -170q-78 -166 -107 -301l-43 -211q-40 -12 -110 -12t-119 12l121 627q4 29 4 45q0 49 -21 49 q-31 0 -79 -43q-45 -39 -66 -64q-8 0 -23 21q-16 23 -16 27z" />
<glyph unicode="o" horiz-adv-x="813" d="M16 311q0 137 64 271q66 139 176 225q115 90 244 90q154 0 223.5 -88t69.5 -236q0 -150 -64 -282q-66 -137 -174 -219q-113 -84 -244 -84q-154 0 -225 90q-70 88 -70 233zM264 219q2 -125 68 -125q63 0 114 101q51 98 76 231q23 120 23 215v23q-4 129 -66 129 q-55 0 -108 -95q-53 -92 -80 -223q-27 -128 -27 -235v-21z" />
<glyph unicode="p" horiz-adv-x="944" d="M-86 -424q0 39 10 49q72 4 99 37q2 4 22 94l129 652l-76 -62q-23 29 -22 57q0 20 14 33l109 103l67 348q51 10 117 10t115 -10l-29 -129q2 2 20 26q25 29 33 37q10 10 43 35q25 18 60 31q29 10 71 10q106 0 164 -90t58 -209t-50 -233q-51 -117 -125 -195 q-82 -86 -168 -131q-96 -51 -174 -51q-47 0 -71 24l-49 -243q-4 -37 -5 -43q0 -59 43 -72q27 -8 70 -8q14 0 14 -25q0 -33 -8 -43q-186 0 -225 -2q-117 -2 -250 -18q-6 3 -6 18zM367 205q-4 -25 -5 -43q0 -22 7 -33q12 -20 51 -20q57 0 115 77q58 80 98 203q39 119 39 244 q0 39 -19 76q-18 35 -51 34q-45 0 -88 -45q-39 -43 -72 -100z" />
<glyph unicode="q" horiz-adv-x="831" d="M14 268q0 150 84 295.5t229.5 239.5t311.5 94q111 0 190 -43l-206 -1075q-6 -29 -7 -47q0 -47 21 -66q23 -18 84 -18q12 0 12 -35q0 -25 -8 -35h-49q-14 0 -30.5 1t-18.5 1q-176 0 -389 -22q-8 10 -9 28q0 39 11 39q8 0 32 4q14 2 43 17q23 12 43.5 45t28.5 78l72 362 q-23 -47 -86 -98q-61 -49 -119 -49q-111 0 -176 79q-64 78 -64 205zM260 256q0 -119 57 -119q43 0 90.5 65.5t78 145.5t42.5 144l56 262q-10 16 -62 16q-66 0 -127 -90q-61 -89 -98 -209t-37 -215z" />
<glyph unicode="r" horiz-adv-x="872" d="M4 662q20 49 143 145q117 90 205 90q47 0 76 -29q31 -31 31 -84t-10 -108q-16 -84 -19 -88q57 133 141 223q80 86 181 86q72 0 133 -78q0 -78 -31 -139q-31 -59 -92 -59q-29 0 -70 43q-41 45 -69 45q-53 0 -146 -183q-94 -186 -127 -348l-37 -178q-59 -12 -112 -12 q-58 0 -117 12l121 627q4 29 4 45q0 49 -21 49q-31 0 -79 -43q-45 -39 -66 -64q-8 0 -23 21q-16 23 -16 27z" />
<glyph unicode="s" horiz-adv-x="649" d="M2 117q0 51 23 86q20 33 57 33t61 -23q23 -20 41 -53q16 -31 37 -54q22 -25 49 -24q39 0 54 20q16 23 16 66q0 39 -39 102q-41 68 -84 121t-86 131q-39 70 -39 123q0 111 101 182q96 70 235 70q131 0 197 -57q20 -27 20 -74q0 -55 -20.5 -88t-59.5 -33q-33 0 -57 25 q-27 27 -39 53q-12 29 -36.5 53.5t-53.5 24.5q-41 0 -55 -21q-16 -23 -17 -65q0 -39 39 -103q40 -65 86 -123t86 -129q37 -66 37 -124q0 -109 -98 -181q-100 -72 -238 -71q-127 0 -199 63q-18 23 -18 70z" />
<glyph unicode="t" horiz-adv-x="577" d="M41 764q0 18 10 53q10 33 19 41h114l39 197q3 12 62 18t114 6q39 0 62 -8l-45 -213h174q18 0 18 -35q0 -49 -22 -84h-193l-94 -483q-4 -16 -4 -45q0 -49 20 -49q29 0 78 43q53 45 68 63q8 0 22 -20q16 -23 17 -29q-18 -47 -144 -143q-119 -92 -204 -92q-45 0 -76 30.5 t-31 83.5q0 27 8 76q10 61 13 72l96 493h-113q-8 0 -8 25z" />
<glyph unicode="u" horiz-adv-x="1024" d="M2 662q20 49 143 145q117 90 205 90q47 0 76 -29q31 -31 31 -84q0 -63 -21 -147l-47 -240q0 -4 -6 -32q-4 -14 -8 -50q-4 -29 -4 -32q0 -41 12 -64q10 -18 45 -18q51 0 131 170q78 166 107 301l43 211q40 12 110 12t119 -12l-121 -627q-4 -29 -4 -45q0 -49 21 -49 q28 0 79 43q53 45 68 63q6 0 20 -20q16 -23 17 -29q-18 -47 -144 -143q-121 -92 -204 -92q-45 0 -76 30.5t-31 83.5q0 25 17 127l1 4q1 4 1 7q0 8 2 16q4 16 4 20v7q-53 -111 -135 -201q-84 -94 -152 -94q-86 0 -129 61t-43 158q0 37 33 213l41 211q4 16 4 45q0 49 -21 49 q-31 0 -80 -43q-45 -39 -65 -64q-8 0 -23 21q-16 23 -16 27z" />
<glyph unicode="v" horiz-adv-x="884" d="M2 662q20 49 143 145q117 90 205 90q47 0 76 -29q31 -31 31 -84t-17 -129l-63 -325q-6 -31 -6 -74q0 -80 51 -80q57 0 123 64q68 65 117 159q49 96 49 176q0 52 -37 105q-35 49 -35 100q0 55 41 86t100 31q49 0 76 -20q20 -33 21 -117q0 -131 -60 -275 q-59 -141 -143 -247q-80 -100 -182 -177q-94 -70 -170 -69q-83 0 -142 49q-55 47 -55 137q0 57 8 105l70 344q4 29 4 45q0 49 -21 49q-31 0 -80 -43q-45 -39 -65 -64q-8 0 -23 21q-16 23 -16 27z" />
<glyph unicode="w" horiz-adv-x="1370" d="M2 662q20 49 143 145q117 90 205 90q47 0 76 -29q31 -31 31 -84t-17 -129l-63 -325q-6 -31 -6 -74q0 -80 51 -80q117 0 203 154q18 172 28 229q14 90 37 174q23 86 55.5 125t75.5 39q63 0 86 -35q25 -37 25 -104q0 -109 -76 -393q-4 -37 -4 -68q0 -76 10 -96 q12 -25 45 -25q57 0 123 64q68 65 117 159q49 96 49 176q0 46 -37 104.5t-37 111t43 79.5q41 27 95 27q59 0 81 -20q20 -33 21 -117q0 -131 -59 -275q-59 -141 -144 -247q-84 -104 -180 -177q-94 -70 -170 -69q-80 0 -141 45q-55 41 -60 129q-160 -174 -286 -174 q-83 0 -142 49q-55 47 -55 137q0 57 8 105l70 344q4 29 4 45q0 49 -21 49q-31 0 -80 -43q-45 -39 -65 -64q-8 0 -23 21q-16 23 -16 27z" />
<glyph unicode="x" horiz-adv-x="964" d="M-43 82q0 47 27 80q29 35 77 35q37 0 68 -18.5t51 -18.5q39 0 62 35l125 219l-72 250q-18 57 -49 57q-25 0 -78 -43q-53 -45 -68 -64q-2 0 -20.5 20.5t-18.5 27.5q20 49 144 145q117 90 205 90q70 0 112 -156l31 -104l76 133q82 127 188 127q86 0 144 -35q14 -23 14 -57 q0 -45 -28.5 -80t-78.5 -35q-37 0 -67 19q-27 16 -51 16q-41 0 -62 -33l-98 -190l78 -279q18 -55 49 -55q25 0 78 43q53 45 67 63q8 0 22.5 -20.5t14.5 -28.5q-18 -49 -141 -143q-119 -92 -205 -92q-70 0 -113 157l-39 138l-100 -168q-84 -129 -188 -129q-82 0 -144 37 q-12 20 -12 57z" />
<glyph unicode="y" horiz-adv-x="1017" d="M-33 -330q0 51 37 90q90 -25 152 -24q66 0 114 18q55 20 72 35q14 12 43 49q43 55 43 178q0 109 -29 293q-27 166 -77 355q-16 57 -48 57q-28 0 -79 -43q-53 -45 -68 -64q-6 0 -21 21q-16 23 -16 27q20 49 143 145q117 90 205 90q25 0 45 -20q27 -27 41 -54 q20 -37 35 -84q20 -66 29 -100l12 -59t10 -52q12 -58 19 -110q2 -16 7 -51t7 -54q10 -84 10 -88q4 -35 6 -63l3 -31q35 41 102 182.5t67 233.5q0 61 -22 123q-25 70 -49 108q0 45 39 82q40 37 92 37q43 0 78 -31q33 -31 32 -78q0 -174 -63.5 -356t-165.5 -334 q-98 -147 -223 -274q-121 -125 -242 -191q-127 -70 -219 -69q-52 0 -86 24q-35 25 -35 82z" />
<glyph unicode="z" horiz-adv-x="860" d="M-29 45l611 629q-40 -18 -74 -19q-39 0 -102.5 22.5t-110.5 22.5q-27 0 -59 -26q-35 -29 -56 -51q-20 -25 -33 -25q-8 0 -24.5 16.5t-24.5 32.5q35 86 104.5 168t137.5 82q76 0 178 -20q113 -23 178 -23q25 0 74 23q43 20 76 20q39 0 39 -68l-609 -614l31 10l31 11 q10 2 33 2q45 0 123 -23q70 -20 122 -20q29 0 60 24q35 27 53 49q23 27 29 27q25 0 43 -57q-18 -37 -27 -52q-16 -31 -39 -61q-37 -53 -51 -68q-18 -18 -63 -45q-35 -20 -76 -20q-70 0 -176.5 24.5t-175.5 24.5q-40 0 -99 -25q-57 -25 -78 -24q-18 0 -30 18q-11 17 -15 35z " />
<glyph unicode="{" horiz-adv-x="706" d="M31 582q-2 4 2 34q2 23 12 39q84 25 121 47q41 27 57 74q12 39 17 90l6 125t18 154q23 111 103 190q86 86 178 125t180 39q2 0 2 -6q0 -15 -6 -37q-6 -20 -14 -22q-49 -2 -115 -62q-63 -57 -82 -145q-15 -71 -18 -172q-2 -86 -21 -187q-18 -96 -81.5 -174t-115.5 -78 q39 0 74 -53t35 -129t-55 -229q-53 -147 -54 -217q0 -72 39 -119q41 -51 78 -53q14 -4 8 -35t-14 -31q-119 0 -219 92q-102 92 -103 219q0 57 52 215q49 150 49 193q0 18 -6 35q-6 15 -12.5 24.5t-24.5 18.5q-20 10 -27 12l-11 5q-11 5 -22 7z" />
<glyph unicode="|" horiz-adv-x="483" d="M-10 -229q205 1096 340 1742q45 39 119 39q25 0 37 -5t10 -15l-340 -1745q-12 -12 -64 -27q-46 -12 -80 -12q-10 0 -16 8q-8 13 -6 15z" />
<glyph unicode="}" horiz-adv-x="690" d="M-29 -238q0 2 9 31q6 20 14 23q53 4 117 67q66 66 84 154q12 59 16 160q4 106 16 178q18 96 82 168q63 74 115 73q-43 0 -76 56q-33 53 -33 135q0 70 58 242q55 166 55 225q0 68 -39 112q-37 45 -80 48q-12 4 -6 34.5t14 30.5q123 0 225.5 -82t102.5 -213q0 -74 -53 -225 q-55 -156 -55 -201q0 -53 32 -78q39 -29 99 -45q2 -2 2 -14q0 -37 -17 -59q-2 0 -6 -2t-12 -4.5t-16.5 -4.5l-16.5 -4t-12 -4t-6 -2t-12.5 -4t-18.5 -8q-22 -9 -31 -19q-12 -12 -22 -20q-12 -10 -21 -33q-8 -25 -10 -39q-10 -57 -16 -155q-6 -117 -17 -166 q-27 -145 -178.5 -256t-280.5 -111q-6 0 -6 12z" />
<glyph unicode="~" horiz-adv-x="999" d="M57 539q0 68 101 123q104 57 174 57q86 0 211 -53.5t207 -53.5q35 0 69.5 14.5t52.5 26.5l64 47q8 -2 8 -30q0 -63 -90 -123q-88 -57 -180 -58q-86 0 -211 53.5t-211 53.5q-35 0 -70 -14.5t-53 -26.5l-63 -47q-9 2 -9 31z" />
<glyph unicode="&#xa1;" horiz-adv-x="481" d="M-8 -375q0 55 94 371q104 352 137 444q14 43 33 43q20 0 35 -14q12 -12 12 -43q0 -45 -31 -383q-31 -346 -39 -383q-12 -63 -53 -98q-43 -37 -88 -37t-72 26q-28 29 -28 74zM182 702q0 72 56 127q57 57 118 58q47 0 76 -35q31 -37 31 -86q0 -70 -53 -127 q-51 -53 -119 -53q-47 0 -78 32.5t-31 83.5z" />
<glyph unicode="&#xa2;" horiz-adv-x="741" d="M98 311q0 229 147.5 407.5t338.5 178.5q145 0 225 -88q12 -35 12 -68q0 -47 -24.5 -83.5t-69.5 -36.5q-34 0 -55 24q-20 23 -30.5 59.5t-29.5 57.5q-23 27 -51 26q-80 0 -145.5 -149.5t-65.5 -300.5q0 -203 127 -203q63 0 121 43q63 47 82 74q2 0 20 -21q18 -23 19 -26 q-23 -57 -129 -137q-108 -80 -203 -80q-145 0 -217 88t-72 235z" />
<glyph unicode="&#xa3;" horiz-adv-x="976" d="M0 41q0 4 10 10q104 82 160 174q53 90 68 236q0 4 8 63q4 49 6 70q0 8 -8 8h-144q-6 15 -6 37q0 27 10 49q12 29 25 29h119q6 0 6 8q-4 72 18 170q37 182 170 285q135 104 320 104q78 0 145 -18q66 -18 80 -52q-14 -74 -49 -120q-33 -45 -84 -45q-39 0 -59 28l-43 62 q-23 31 -52 30q-176 0 -227 -272q-8 -49 -4 -174q0 -6 4 -6h303q16 0 17 -31q0 -53 -31 -84h-287q-6 0 -6 -6q0 -41 -14 -100q-31 -139 -166 -303q45 29 162 28q53 0 128.5 -28.5t96.5 -28.5q16 0 24 2q16 4 23 4q8 0 20 6l17 8q6 3 18 13q2 2 6 5t8 5l3 2l16 16q4 4 10 9 l6 6l3 2q3 2 7.5 6t8.5 10t8 10t6 7l2 4q12 0 21 -9q10 -10 10 -22q0 -10 -2 -12q-41 -84 -121 -166q-78 -80 -162 -80q-61 0 -182 28.5t-158 28.5q-39 0 -75.5 -6t-53.5 -14l-45 -23l-37 -18q-31 6 -43 22q-14 17 -14 33z" />
<glyph unicode="&#xa4;" horiz-adv-x="948" d="M25 311l112 97q-25 63 -24 131q0 170 127 309l-70 104q-2 2 -2 6q0 16 39 46q35 27 69 36l70 -106q98 59 209 59q121 0 199 -69l114 96q4 4 9 4q14 0 32 -35q16 -31 21 -65l-109 -93q31 -70 31 -139q0 -170 -129 -311l65 -96q2 -2 3 -6q0 -16 -39 -46q-35 -27 -70 -36 l-66 100q-102 -59 -208 -59q-121 0 -203 75l-117 -98q-2 -2 -8 -2q-16 0 -35 33q-16 30 -20 65zM330 496q0 -168 112 -168q66 0 113 78q45 76 61 165q16 92 17 162q0 170 -115 170q-68 0 -112 -80q-46 -80 -62 -166q-14 -79 -14 -161z" />
<glyph unicode="&#xa5;" horiz-adv-x="1253" d="M27 1276q0 35 16 47q12 -2 40 -3t42 -1q16 0 49 -1t47 -3q29 -2 84 -2q121 0 309 10v-8q0 -15 -6 -37q-6 -23 -12 -23q-27 0 -61 -14q-37 -16 -37 -45q0 -8 12 -45l104 -307q3 -6 7 -6q8 0 14 10q274 307 274 360q0 23 -43 35t-90 12q-4 0 -4 13q0 43 16 55 q170 -10 254 -10q53 0 78 2q12 2 39 3t39 1q41 2 68 4q0 -66 -14.5 -66t-82.5 -22q-63 -23 -90 -47q-70 -70 -266 -305q-205 -244 -213 -299l-8 -43h196q16 0 17 -29q0 -49 -33 -78h-201l-16 -100h193q16 0 16 -29q0 -49 -33 -78h-196q-10 -68 -11 -108q0 -20 37 -39 q41 -20 57 -21q4 0 5 -10q0 -37 -13 -57q-221 12 -225 12q-23 0 -281 -12q-2 2 -2 12q0 6 4 35q2 20 9 20q14 0 63 17q45 14 55 35q18 35 39 116h-178q-18 0 -18 31q0 45 24 76h193l18 100h-182q-16 0 -16 31q0 39 22 76h197q12 37 12 59l-1 4q-1 4 -2 11.5t-1 13.5 l-135 463q-33 106 -82 141q-31 23 -90 22q-6 1 -6 21z" />
<glyph unicode="&#xa6;" horiz-adv-x="479" d="M-12 -229q4 70 141 725q47 41 121 41q12 0 31 -7q20 -6 16 -16l-143 -727q-12 -12 -64 -27q-46 -12 -80 -12q-10 0 -16 8q-8 13 -6 15zM184 776q4 72 142 727q45 39 118 39q12 0 21 -2q10 -2 18.5 -8t8.5 -12l-142 -723q-14 -12 -63 -29q-43 -14 -80 -14q-12 0 -19 8 q-6 10 -4 14z" />
<glyph unicode="&#xa7;" horiz-adv-x="790" d="M47 -8q0 27 25 86q20 51 63 51q37 0 76 -47t86 -47t90 24.5t43 85.5q0 51 -37 93q-35 39 -90 73l-106 72q-53 39 -91 92q-37 55 -36 127q0 39 8 78q10 47 51 120.5t119 125.5q-4 12 -4 39q0 158 102.5 248t237.5 90q59 0 106 -25q45 -25 55 -51v-19q0 -10 -4 -34 q-2 -16 -12 -39q-8 -20 -27 -35q-16 -14 -45 -15q-18 0 -41 25q-29 33 -47 51q-25 25 -61 25q-139 0 -139 -113q0 -49 37 -88q35 -37 92 -70q37 -20 106 -65q57 -37 92 -90q37 -55 37 -123q0 -98 -59 -197q-63 -102 -123 -143q4 -29 4 -47q0 -164 -104 -248 q-106 -84 -238 -84q-61 0 -109 25q-49 26 -57 49zM221 719q0 -61 39 -103q43 -45 90 -69q49 -25 103 -72q57 -49 75 -104q51 49 52 116q0 57 -39 105q-41 51 -92 78q-47 25 -105 75q-51 45 -74 103q-49 -37 -49 -129z" />
<glyph unicode="&#xa8;" horiz-adv-x="770" d="M240 1014q0 66 47 119q45 51 108 51q51 0 84 -35t33 -90q0 -66 -47 -119q-43 -49 -109 -49q-51 0 -83.5 35t-32.5 88zM680 1012q0 63 47 116q45 51 109 52q51 0 83.5 -35t32.5 -88q0 -66 -47 -119q-45 -51 -108 -51q-51 0 -84 35t-33 90z" />
<glyph unicode="&#xa9;" horiz-adv-x="1146" d="M68 571q0 256 192 459q190 201 432 201q184 0 297 -123q115 -125 115 -311q0 -260 -193 -459q-195 -201 -434 -201q-181 0 -295 123q-114 125 -114 311zM152 590q0 -154 96 -260q96 -104 248 -105q201 0 360 168q162 172 162 383q0 158 -96.5 260.5t-247.5 102.5 q-199 0 -360.5 -168t-161.5 -381zM324 618q0 129 94 236q96 109 223 109q88 0 174 -25q2 0 2 -14q0 -94 -8 -121q-2 -8 -16 -8q-8 0 -25 4q-4 37 -33 69q-31 33 -100 33q-80 0 -129 -92t-49 -199q0 -152 114 -151q72 0 107 28q6 4 16 15l15 14q2 2 10 14q2 2 5 7l3 4l2 4h4 l2 1l2 1q18 0 25 -10q-4 -20 -21 -54q-18 -37 -32 -45q-76 -41 -185 -41q-88 0 -143 64q-57 67 -57 157z" />
<glyph unicode="&#xaa;" horiz-adv-x="737" d="M72 637q0 131 139 301t266 170q55 0 98 -10q53 -12 64 -21l-76 -399q-4 -20 -4 -29q0 -35 29 -35q10 0 26 19q14 16 27 39q12 20 14 20q9 0 25 -12q14 -12 18 -29q-23 -49 -71 -102q-53 -55 -125 -55q-70 0 -94 75q-6 31 -6.5 33t-2.5 2l-2 -2q-98 -109 -184 -108 q-141 0 -141 143zM246 676q0 -80 33 -80q43 0 94 82t65 178l21 115q0 8 1 15t2 11l1 4q0 23 -37 23q-45 0 -112.5 -129t-67.5 -219z" />
<glyph unicode="&#xab;" horiz-adv-x="948" d="M27 475q0 37 24 62q268 154 465 309q18 -4 35 -17q20 -14 20 -30q0 -12 -168 -160l-163 -143l106 -142q109 -143 109 -155q0 -16 -29 -33q-33 -18 -47 -21l-37 37q-59 59 -117 111l-190 162q-8 8 -8 20zM395 475q0 35 27 62q268 154 465 309q14 -4 33 -17q23 -16 22 -30 q0 -12 -168 -160l-164 -143l107 -142q106 -139 106 -155.5t-28 -32.5q-33 -18 -47 -21l-5 6q-4 5 -12 13l-18 18q-59 59 -117 111q-84 76 -193 162q-8 2 -8 20z" />
<glyph unicode="&#xac;" horiz-adv-x="1019" d="M55 731q31 123 51 123h836q23 0 19 -23l-95 -505q-35 -20 -104 -21q-10 0 -22.5 6t-10.5 15l74 366v4q0 16 -17 17h-725z" />
<glyph unicode="&#xad;" horiz-adv-x="659" d="M57 416q0 23 18.5 69.5t30.5 49.5l453 22q12 0 12 -22t-18 -74q-18 -51 -33 -53l-452 -23q-11 0 -11 31z" />
<glyph unicode="&#xae;" horiz-adv-x="1134" d="M78 707q0 254 192 456q190 201 432 201q182 0 297 -123q115 -125 115 -311q0 -260 -192.5 -459t-434.5 -199q-181 0 -294 123q-115 126 -115 312zM162 725q0 -156 96 -262q94 -102 248 -103q201 0 360 168q162 172 162 381q0 158 -96 260.5t-248 102.5q-201 0 -360 -166 q-162 -168 -162 -381zM301 547v12q0 16 4 16q10 0 29 9q23 10 24 14q18 43 21 66l61 327q8 49 9 68q0 2 -19 12q-16 8 -24 8q-2 0 -3 8q0 16 7 23q94 -4 122 -4q8 0 27 1t29 1h53q61 0 109 -27q49 -29 49 -88q0 -51 -39 -108q-33 -49 -84 -74l-4 -4l2 -2v-2q29 -74 51 -119 q59 -109 109 -109q0 -14 -7 -26q-8 -4 -22 -4q-68 0 -107 22q-41 23 -57 47q-15 22 -37 68q-16 33 -22 49q-12 33 -15 37l-10 20q-6 10 -14 11q-6 0 -11 -13l-30 -149q-2 -6 -2 -27q0 -12 4 -16q6 -10 14 -12q12 -4 17 -4l6 -3q2 0 2 -4q0 -14 -8 -24l-46 4q-61 4 -67 4 q-8 0 -66 -4q-10 0 -23.5 -1t-20.5 -2t-11 -1zM549 866q0 -16 31 -16q43 0 65.5 45t22.5 94q0 76 -52 76q-15 0 -24 -6q-8 -6 -12 -23l-29 -157q-2 -3 -2 -13z" />
<glyph unicode="&#xaf;" horiz-adv-x="706" d="M305 1098q0 14 14 53q10 31 31 47h465q10 0 10 -29q0 -8 -4 -22q-6 -22 -18 -49t-29 -37h-455q-14 0 -14 37z" />
<glyph unicode="&#xb0;" horiz-adv-x="428" d="M238 1032q0 92 71.5 164t155.5 72q68 0 106 -45q41 -47 41 -113q0 -92 -71.5 -164t-155.5 -72q-68 0 -106 46q-41 46 -41 112zM324 1047q0 -39 20 -60q23 -23 59 -22q55 0 89 41q35 45 34 92q0 39 -20 59q-23 23 -60 23q-55 0 -88 -41q-34 -45 -34 -92z" />
<glyph unicode="&#xb1;" horiz-adv-x="974" d="M70 115q0 53 53 106h850q8 0 8 -35q0 -55 -53 -108h-850q-8 0 -8 37zM188 731q0 57 52 109h329q8 0 9 8q4 16 8 41.5t11 64.5t13 68l16.5 98.5t16.5 87.5q2 16 62 27q51 8 83 8q12 0 17 -4q6 -6 4 -12l-72 -377q-4 -10 6 -10h347q8 0 8 -35q0 -57 -51 -109h-332 q-8 0 -8 -8l-70 -360q-2 -12 -51 -25q-41 -10 -82 -10q-15 0 -25 6q-8 6 -6 10l74 377q0 10 -8 10h-342q-9 0 -9 35z" />
<glyph unicode="&#xb2;" horiz-adv-x="622" d="M41 551q0 14 4 24q174 154 274 293q94 131 95 209q0 41 -18.5 67.5t-57.5 26.5q-37 0 -76 -22q-31 -18 -61 -45q-4 -4 -8.5 -8t-7.5 -7.5t-5 -5.5t-4 -3l-2 -1q-6 0 -14 19q-8 16 -8 26q0 15 6 25q25 39 100 88q80 51 158 51q76 0 121 -45t45 -121q0 -78 -47 -161 q-43 -80 -121 -150q-61 -57 -123 -102q-59 -45 -92 -66q-4 -4 -4 -6q0 -4 4 -4h211q45 0 69.5 24.5t38.5 53.5q12 25 27 24q29 0 35 -10l-97 -219l-188 2q-152 -2 -240 -2q-14 20 -14 45z" />
<glyph unicode="&#xb3;" horiz-adv-x="579" d="M35 547q0 27 22.5 55.5t57.5 28.5q23 0 47 -33q25 -35 55 -35q82 0 121 76q39 78 39 141q0 100 -123 101h-41q-6 23 -4 30q0 20 6 29q76 16 119 59t51 72q6 20 6 57q0 31 -14.5 47.5t-36.5 16.5q-35 0 -84 -37t-51 -37q-14 0 -25 17q-12 16 -4 24q43 51 113 90 q76 41 137 41q45 0 86 -28.5t41 -85.5q0 -63 -55 -132q-53 -66 -121 -100q45 0 104.5 -37t59.5 -108q0 -113 -111 -211q-109 -96 -266 -96q-31 0 -84 14q-45 12 -45 41z" />
<glyph unicode="&#xb4;" horiz-adv-x="430" d="M293 1077q0 23 61 127q63 111 103 158q10 12 63 12q37 0 63.5 -26.5t26.5 -42.5q0 -47 -135 -154q-133 -106 -160 -107q-4 0 -14 13q-8 10 -8 20z" />
<glyph unicode="&#xb5;" horiz-adv-x="933" d="M27 -254q0 109 163 662q2 8 4.5 22t5.5 36.5t7 43.5l12 86q2 2 51 256q10 12 43 27q35 14 56 14q14 0 59 -28.5t41 -47.5q-25 -127 -86 -285l-29 -86q-23 -119 -6 -192q15 -74 62 -74q123 0 192 228l96 458q41 31 93 27q57 -2 92 -29q33 -25 26 -47q-16 -104 -102 -325 l-19 -46q-31 -119 -26 -206q4 -84 55 -84q29 0 68 22q41 25 53 39q8 0 16 -24q4 -23 -2 -41q-33 -68 -86 -113q-57 -47 -108 -47q-61 2 -88 82q-31 88 -23 182q-45 -78 -84 -135q-39 -55 -88 -94q-57 -45 -113 -45q-10 0 -22 4t-16 10l-15 14q-6 6 -10 21q-2 6 -6 22 q-4 10 -6 27q0 6 -3 13q-2 7 -1 9q0 14 -2 26.5t-2 23.5q0 -2 -2.5 -11.5l-8.5 -31t-10 -41.5l-33 -152q-14 -70 -14 -164q0 -89 31 -135q-12 -15 -49 -43q-39 -29 -60 -29q-106 0 -106 201z" />
<glyph unicode="&#xb6;" horiz-adv-x="866" d="M209 920q37 195 164 290q125 94 264 95q39 0 100.5 -4.5t102.5 -4.5l227 13q8 -12 0 -37q-10 -29 -16 -29q-31 0 -64 -8q-37 -8 -47 -27q-8 -16 -45 -209l-13.5 -65t-21.5 -109q-22 -111 -24 -129q-4 -10 8 -10l82 19q4 -18 -2 -39q-8 -37 -45 -58q-16 -10 -54 -20 q-12 -6 -12 -8q-20 -98 -47 -261q-33 -193 -31 -215q3 -15 37 -30q31 -14 55 -15q4 0 2 -22q-6 -35 -16 -45l-131 8q-66 4 -164 4q-51 0 -76 -2q-12 -2 -38.5 -3t-41.5 -1q-43 -3 -67 -6q-2 8 4 37q6 27 10 26q14 0 57.5 16.5t47.5 28.5q12 29 59 267l29 145q3 9 -6 12 q-6 2 -27 2q-156 0 -225 113q-66 109 -35 281zM545 115q-4 -14 6 -20.5t20 -6.5q29 0 33 29q29 102 90 424q2 8 -6 8q-23 0 -49 -8q-15 -3 -18 -19zM647 664q-2 -2 2 -6.5t10 -4.5q23 0 48 11q10 6 14 16q86 451 94 512q4 8 -4 12q-12 8 -20 8q-33 0 -37 -24z" />
<glyph unicode="&#xb7;" horiz-adv-x="376" d="M156 500q0 70 53 123t117 53q49 0 79.5 -33t30.5 -84q0 -68 -51 -125t-115 -57q-53 0 -82 35q-32 39 -32 88z" />
<glyph unicode="&#xb8;" d="M201 -299q0 20 14 35q16 16 29 16q20 0 49 -20q33 -23 55 -23q45 0 76 27q27 25 27 57q0 51 -43 51q-37 0 -68 -14q-4 0 -16 14q-14 16 -9 23l43 65q33 53 43 66h72l-43 -61q16 2 43 2q41 0 70 -29q27 -27 26 -72q0 -25 -12 -55q-12 -33 -36.5 -65.5t-80.5 -59.5 q-52 -25 -123 -25q-80 0 -106 17q-10 24 -10 51z" />
<glyph unicode="&#xb9;" horiz-adv-x="532" d="M41 512q0 18 4 31l6 18q14 0 55 10q37 10 48 23q27 35 32 65l78 400q0 6 1 11t1 9t1 7.5t1 5.5v2q0 27 -16 26q-14 0 -115 -45q-6 4 -12 15q-6 12 -6 24q0 18 2 21q338 162 352 161q10 0 18.5 -16t8.5 -25q-41 -88 -58 -170l-82 -423q-4 -20 -4 -39t9 -33q8 -12 38 -21 q27 -8 50 -8q4 0 4 -6q0 -37 -15 -51q-12 0 -86 6q-49 4 -102 4q-57 0 -117 -4q-88 -6 -94 -6l-2 4v4z" />
<glyph unicode="&#xba;" horiz-adv-x="681" d="M78 733q0 145 108.5 260t239.5 115q98 0 164 -70q63 -66 63 -172q0 -139 -104.5 -255.5t-243.5 -116.5q-100 0 -164 67q-63 66 -63 172zM250 696q0 -129 82 -129q147 0 147 332q0 135 -84 135q-145 0 -145 -338z" />
<glyph unicode="&#xbb;" horiz-adv-x="976" d="M8 195q0 8 23 30q14 14 145 129l162 142l-109 143q-104 131 -104 154q0 16 29 32q33 18 45 21q176 -176 346 -307q6 -12 6 -27q0 -41 -27 -55q-145 -88 -254 -162l-157 -111q-39 -29 -50 -39q-10 2 -32.5 19t-22.5 31zM379 195q0 8 22 30q14 14 146 129l162 142l-109 143 q-106 133 -106 154q0 16 28 32q33 18 45 21q176 -176 346 -307q8 -14 9 -27q0 -43 -27 -55q-145 -88 -254 -162q-114 -77 -160 -111q-31 -23 -47 -39q-14 4 -34.5 19t-20.5 31z" />
<glyph unicode="&#xbc;" horiz-adv-x="1263" d="M18 512q0 18 5 31q6 18 8 18q12 0 53 10q37 10 47 23q27 35 33 65l78 400q0 6 1 11t1 9t1 7.5t1 5.5v2q0 27 -17 26q-12 0 -112 -45q-10 4 -15 15q-6 12 -6 24q0 18 2 21q338 162 355 161q8 0 16 -16t8 -25q-41 -88 -57 -170l-82 -423q-4 -20 -4 -39t8 -33q8 -10 41 -21 q27 -8 47 -8q4 0 4 -6q0 -37 -14 -51q-12 0 -86 6q-49 4 -103 4q-57 0 -116 -4q-90 -6 -95 -6l-2 4v4zM213 12q0 10 2 13l887 1263q14 2 45 -12q29 -14 29 -33q0 -8 -2 -10l-889 -1260q-14 -2 -45 11q-27 12 -27 28zM623 246l516 530q18 18 37 19q4 0 9 -1t7 -1t10 -5 q6 -3 6 -6l-90 -463v-2q0 -6 8 -6h37q12 0 13 -30q0 -49 -25 -80h-49q-4 0 -8 -11l-37 -186q-47 -10 -88 -10q-4 0 -12.5 1t-12.5 1t-12 1t-10 1q-4 0 -9.5 1t-7.5 1q-8 0 -10 2l-4 4l37 187v2q0 6 -10 6h-289q-14 8 -6 45zM786 324q0 -12 7 -13h147q10 0 12 8l39 203 q0 12 -2 13l-4 -3l-197 -204q-2 -2 -2 -4z" />
<glyph unicode="&#xbd;" horiz-adv-x="1333" d="M16 504q-4 4 2.5 30.5t10.5 26.5q12 0 53 10q35 8 45 23q29 35 35 65l78 400q12 61 -13 61q-12 0 -88 -35l-12 17q-9 12 -6 24q0 14 4 19q322 152 326 151h2q6 0 14 -16t8 -25q-41 -88 -57 -170l-82 -423q-10 -53 4 -72q8 -10 41 -21q27 -8 47 -8q2 0 2 -10v-19 q-10 -27 -12 -28q-12 0 -86 6q-49 4 -105 4q-57 0 -116 -4q-91 -6 -95 -6zM176 12q0 8 4 13l887 1263q12 2 43 -12t31 -33q0 -8 -2 -10l-891 -1260q-14 -2 -43 10.5t-29 28.5zM721 68q328 295 364 481q8 41 -10 78t-63 37q-37 0 -76 -23q-31 -18 -62 -45l-8 -8l-7 -7 t-5 -5.5t-4 -3.5l-2 -1q-10 0 -17 21q-8 23 -6 29q2 2 3 7t1 7l2 4q31 43 105 92t154 49q89 0 135 -61.5t24 -159.5q-22 -114 -135 -227q-123 -123 -242 -197q-10 -10 0 -10h211q27 0 37 2q12 2 29 18q4 4 10 11.5t8 9.5q12 12 21 27q4 8 10 16t6 10q6 8 15 8q29 0 34 -10 l-96 -219l-188 2q-152 -2 -240 -2q-24 31 -8 70z" />
<glyph unicode="&#xbe;" horiz-adv-x="1255" d="M20 532q-2 12 0 35q4 27 29 45.5t47.5 18.5t46.5 -33q25 -35 58 -35q57 0 96 43q43 47 57 123q16 84 -14 117q-31 35 -104 35h-41q-6 23 -5 30q0 12 11 29q150 35 174 168q6 39 -10.5 61.5t-42.5 22.5q-35 0 -82 -37q-46 -37 -50 -37q-14 0 -24 17q-12 18 -6 24 q39 49 112 90q72 41 136 41q53 0 96 -37q45 -39 31 -104q-16 -70 -70 -123q-59 -59 -105 -82q51 0 115 -45q61 -43 43 -135q-25 -131 -135 -201q-113 -72 -236 -71q-90 -1 -127 40zM207 12q0 8 4 13l885 1263q14 2 45 -12q29 -14 28 -33q0 -8 -2 -10l-888 -1260 q-14 -2 -46 11q-26 12 -26 28zM614 246l516 530q20 20 41 21q10 0 23 -4q8 -2 6 -11l-90 -467q-4 -4 0 -4l4 -1q5 -3 6 -3h35q10 -8 8 -28q-8 -63 -10 -70l-12 -12h-47q-6 0 -11 -11l-32 -182q-47 -10 -88 -10q-4 0 -12.5 1t-12.5 1t-12 1t-11 1q-4 0 -9 1t-7 1q-8 0 -10 2 l-4 4l35 189q0 6 -11 6h-288q-15 8 -7 45zM780 324q0 -12 6 -13h146q14 6 14 8l37 203q0 12 2 13l-4 -3l-199 -204q-2 -2 -2 -4z" />
<glyph unicode="&#xbf;" horiz-adv-x="690" d="M-20 -123q0 78 45 162q43 80 106 113q94 51 207 102q78 31 78 82q0 33 -49.5 69.5t-49.5 43.5q0 23 27 38q47 0 139 -67.5t92 -140.5q0 -84 -40 -134q-43 -51 -95 -75l-202 -90q-104 -45 -105 -132q0 -104 98 -104q31 0 76 45t76 45q66 0 88.5 -59.5t-2.5 -114.5 q-61 -74 -168 -74q-131 0 -225 82q-96 84 -96 209zM385 717q0 72 49 127t115 55q45 0 80 -35t35 -88q0 -72 -52 -123q-53 -53 -114 -53q-49 0 -82 33q-31 31 -31 84z" />
<glyph unicode="&#xc0;" horiz-adv-x="1267" d="M-68 8q0 51 11 51q18 0 86 29q66 29 84 53q4 8 15 25.5l28.5 46.5l33.5 55l543 903l3 5q3 4 8.5 13t9.5 17q18 31 28 45q6 12 29 37q29 33 31 35q12 10 24 10q18 0 25 -14l209 -1036q4 -18 14 -71.5t14 -80.5q6 -31 52 -51q43 -20 67 -21q4 0 4 -10q0 -41 -14 -57 q-2 0 -13.5 1l-35 3t-51.5 4q-96 6 -144 6q-53 0 -274 -14q-2 2 -2 14q0 53 14 53q16 0 53 19q33 16 50 33q10 16 10 26q0 18 -43 277q0 8 -13 8q-94 4 -182 4q-127 0 -170 -2q-2 0 -4 -1t-6 -2t-8 -1q-16 -4 -17 -6l-90 -152q-66 -100 -65.5 -133t51.5 -51q52 -18 80 -19 q4 0 4 -8q0 -35 -10 -59q-2 0 -88 8q-66 6 -113 6q-49 0 -129 -6l-107 -8q-2 2 -2 16zM492 555q0 -2 2 -2q55 -6 137 -6q55 0 133 4q8 0 8 8l-63 356l-217 -356v-4zM535 1589q0 41 45 60q41 16 94 16q37 0 63 -14q39 -20 97 -66q35 -27 90 -78q37 -33 37 -39q0 -14 -9 -24 q-10 -14 -20 -14q-35 0 -219 63q-178 61 -178 96z" />
<glyph unicode="&#xc1;" horiz-adv-x="1267" d="M-68 8q0 51 11 51q18 0 86 29q66 29 84 53q4 8 15 25.5l28.5 46.5l33.5 55l543 903l3 5q3 4 8.5 13t9.5 17q18 31 28 45q6 12 29 37q29 33 31 35q12 10 24 10q18 0 25 -14l209 -1036q4 -18 14 -71.5t14 -80.5q6 -31 52 -51q43 -20 67 -21q4 0 4 -10q0 -41 -14 -57 q-2 0 -13.5 1l-35 3t-51.5 4q-96 6 -144 6q-53 0 -274 -14q-2 2 -2 14q0 53 14 53q16 0 53 19q33 16 50 33q10 16 10 26q0 18 -43 277q0 8 -13 8q-94 4 -182 4q-127 0 -170 -2q-2 0 -4 -1t-6 -2t-8 -1q-16 -4 -17 -6l-90 -152q-66 -100 -65.5 -133t51.5 -51q52 -18 80 -19 q4 0 4 -8q0 -35 -10 -59q-2 0 -88 8q-66 6 -113 6q-49 0 -129 -6l-107 -8q-2 2 -2 16zM492 555q0 -2 2 -2q55 -6 137 -6q55 0 133 4q8 0 8 8l-63 356l-217 -356v-4zM825 1468q0 6 37 39q55 51 90 78q63 49 97 66q27 14 63 14q53 0 94 -16q45 -18 45 -60q0 -35 -178 -96 q-184 -63 -219 -63q-10 0 -20 14q-9 10 -9 24z" />
<glyph unicode="&#xc2;" horiz-adv-x="1267" d="M-68 8q0 51 11 51q18 0 86 29q66 29 84 53q4 8 15 25.5l28.5 46.5l33.5 55l543 903l3 5q3 4 8.5 13t9.5 17q18 31 28 45q6 12 29 37q29 33 31 35q12 10 24 10q18 0 25 -14l209 -1036q4 -18 14 -71.5t14 -80.5q6 -31 52 -51q43 -20 67 -21q4 0 4 -10q0 -41 -14 -57 q-2 0 -13.5 1l-35 3t-51.5 4q-96 6 -144 6q-53 0 -274 -14q-2 2 -2 14q0 53 14 53q16 0 53 19q33 16 50 33q10 16 10 26q0 18 -43 277q0 8 -13 8q-94 4 -182 4q-127 0 -170 -2q-2 0 -4 -1t-6 -2t-8 -1q-16 -4 -17 -6l-90 -152q-66 -100 -65.5 -133t51.5 -51q52 -18 80 -19 q4 0 4 -8q0 -35 -10 -59q-2 0 -88 8q-66 6 -113 6q-49 0 -129 -6l-107 -8q-2 2 -2 16zM492 555q0 -2 2 -2q55 -6 137 -6q55 0 133 4q8 0 8 8l-63 356l-217 -356v-4zM653 1468q-3 12 0 25q53 31 185 131q66 51 110 96q23 18 33 19q6 0 25 -19l26 -37q4 -6 18.5 -24.5 l20.5 -26.5q82 -100 129 -139q-9 -37 -31 -37q-18 0 -96 45q-98 57 -127 78q-25 -14 -162 -78q-96 -45 -116 -45q-13 0 -15 12z" />
<glyph unicode="&#xc3;" horiz-adv-x="1267" d="M-68 8q0 51 11 51q18 0 86 29q66 29 84 53q4 8 15 25.5l28.5 46.5l33.5 55l543 903l3 5q3 4 8.5 13t9.5 17q18 31 28 45q6 12 29 37q29 33 31 35q12 10 24 10q18 0 25 -14l209 -1036q4 -18 14 -71.5t14 -80.5q6 -31 52 -51q43 -20 67 -21q4 0 4 -10q0 -41 -14 -57 q-2 0 -13.5 1l-35 3t-51.5 4q-96 6 -144 6q-53 0 -274 -14q-2 2 -2 14q0 53 14 53q16 0 53 19q33 16 50 33q10 16 10 26q0 18 -43 277q0 8 -13 8q-94 4 -182 4q-127 0 -170 -2q-2 0 -4 -1t-6 -2t-8 -1q-16 -4 -17 -6l-90 -152q-66 -100 -65.5 -133t51.5 -51q52 -18 80 -19 q4 0 4 -8q0 -35 -10 -59q-2 0 -88 8q-66 6 -113 6q-49 0 -129 -6l-107 -8q-2 2 -2 16zM492 555q0 -2 2 -2q55 -6 137 -6q55 0 133 4q8 0 8 8l-63 356l-217 -356v-4zM553 1522q12 53 51 100q90 102 184 102q49 0 91 -20q47 -25 73.5 -47.5t73.5 -46.5q45 -23 92 -23 q25 0 60 29q31 25 59 57q25 29 37 29q6 0 8 -14.5t0 -28.5q-8 -49 -53 -103q-82 -100 -180 -100q-51 0 -93 21q-47 25 -73 47q-29 27 -72 47q-41 20 -92 20q-27 0 -62 -28q-34 -28 -61 -56q-29 -29 -39 -28.5t-4 43.5z" />
<glyph unicode="&#xc4;" horiz-adv-x="1267" d="M-68 8q0 51 11 51q18 0 86 29q66 29 84 53q4 8 15 25.5l28.5 46.5l33.5 55l543 903l3 5q3 4 8.5 13t9.5 17q18 31 28 45q6 12 29 37q29 33 31 35q12 10 24 10q18 0 25 -14l209 -1036q4 -18 14 -71.5t14 -80.5q6 -31 52 -51q43 -20 67 -21q4 0 4 -10q0 -41 -14 -57 q-2 0 -13.5 1l-35 3t-51.5 4q-96 6 -144 6q-53 0 -274 -14q-2 2 -2 14q0 53 14 53q16 0 53 19q33 16 50 33q10 16 10 26q0 18 -43 277q0 8 -13 8q-94 4 -182 4q-127 0 -170 -2q-2 0 -4 -1t-6 -2t-8 -1q-16 -4 -17 -6l-90 -152q-66 -100 -65.5 -133t51.5 -51q52 -18 80 -19 q4 0 4 -8q0 -35 -10 -59q-2 0 -88 8q-66 6 -113 6q-49 0 -129 -6l-107 -8q-2 2 -2 16zM492 555q0 -2 2 -2q55 -6 137 -6q55 0 133 4q8 0 8 8l-63 356l-217 -356v-4zM565 1604q12 61 61.5 104t104.5 43t90 -43q33 -41 20.5 -104.5t-59.5 -104.5q-49 -43 -106.5 -43t-89.5 43 q-33 42 -21 105zM993 1604q12 61 61.5 104t104.5 43q57 0 90 -43q33 -41 20.5 -104.5t-59.5 -104.5q-49 -43 -106 -43q-55 0 -90 43q-33 42 -21 105z" />
<glyph unicode="&#xc5;" horiz-adv-x="1267" d="M-68 8q0 51 11 51q18 0 86 29q66 29 84 53q4 8 15 25.5l28.5 46.5l33.5 55l543 903l3 5q3 4 8.5 13t9.5 17q18 31 28 45q6 12 29 37q29 33 31 35q12 10 24 10q18 0 25 -14l209 -1036q4 -18 14 -71.5t14 -80.5q6 -31 52 -51q43 -20 67 -21q4 0 4 -10q0 -41 -14 -57 q-2 0 -13.5 1l-35 3t-51.5 4q-96 6 -144 6q-53 0 -274 -14q-2 2 -2 14q0 53 14 53q16 0 53 19q33 16 50 33q10 16 10 26q0 18 -43 277q0 8 -13 8q-94 4 -182 4q-127 0 -170 -2q-2 0 -4 -1t-6 -2t-8 -1q-16 -4 -17 -6l-90 -152q-66 -100 -65.5 -133t51.5 -51q52 -18 80 -19 q4 0 4 -8q0 -35 -10 -59q-2 0 -88 8q-66 6 -113 6q-49 0 -129 -6l-107 -8q-2 2 -2 16zM492 555q0 -2 2 -2q55 -6 137 -6q55 0 133 4q8 0 8 8l-63 356l-217 -356v-4zM721 1517.5q16 81.5 79.5 139t141.5 57.5q76 0 119 -57.5t26.5 -139t-80 -139t-141.5 -57.5 q-76 0 -118.5 57.5t-26.5 139zM807 1518q-8 -45 12 -76q23 -33 66 -33q39 0 76 33q35 31 43 76q10 47 -13 77q-20 31 -65 31q-41 0 -76 -31q-33 -30 -43 -77z" />
<glyph unicode="&#xc6;" horiz-adv-x="1861" d="M-23 16q0 12 7 27l6 14q31 0 80 21q57 23 86 55l118 135l627 719q145 164 154 209q4 25 -8 37q-14 14 -23 14h-23q-14 0 -14 21q0 10 6 32l6 21l23 -2q29 -4 63 -4h97q83 0 313 6q229 6 336 6q-8 -156 -8 -295q-10 -10 -45 -10q-23 0 -25 14q-12 86 -78 133 q-70 51 -145 52h-103q-117 0 -122 -27q-16 -51 -27 -156l-33 -303v-2q0 -14 80 -14h98q92 0 109 10q25 18 55 113q6 14 33 14q33 0 39 -10l-39 -377q-8 -8 -41 -8q-25 0 -27 14q-2 10 -5 27.5t-3 21.5l-6 31q-2 2 -4 8t-2 8q-2 6 -6 11l-2 2l-4 4l-9 4q-23 16 -143 16 q-131 0 -135 -18l-33 -307q-8 -94 0 -144q6 -31 123 -30h51q121 0 230 55q29 14 73 65q39 43 72 111q6 12 29 12q46 0 55 -12q-131 -291 -150 -344q-29 0 -327.5 4t-304.5 4l-263 -12q-6 16 -4 35q3 37 13 36q16 0 59 17q39 14 45 31q8 25 25 157q6 47 12 146q2 4 -1 6 t-11 2q-90 4 -170 4q-145 0 -189 -2q-6 0 -16 -10l-137 -152q-2 -2 -27 -31q-4 -6 -14.5 -17l-14.5 -15l-22 -29q-10 -14 -19 -29q-6 -12 -6 -20q0 -27 27 -37q61 -25 104 -25q4 0 4 -8q0 -16 -16 -59q-16 0 -83.5 6t-117.5 6q-51 0 -77 -2q-14 -2 -45 -3t-48 -1 q-49 -3 -79 -6q-3 1 -3 24zM674 555v-2q49 -6 139 -6q57 0 139 4q8 0 11 8l43 379l-330 -379q-2 -2 -2 -4z" />
<glyph unicode="&#xc7;" horiz-adv-x="1173" d="M23 518q0 164 67 318q66 150 178 262q104 104 246 172q133 63 268 63q209 0 414 -57q0 -39 -8 -154q-8 -125 -12 -141q-2 -14 -21 -23q-16 -8 -35 -8q-4 0 -28 6q0 31 -9 58q-6 20 -32 69q-18 35 -56 68q-33 29 -92 51q-55 20 -133 21q-127 0 -233.5 -100.5t-166 -268.5 t-59.5 -360q0 -174 76 -289q74 -111 223 -111q82 0 166 19q78 16 127 53q37 27 66 67q31 43 45 72q14 31 16 31q51 0 57 -27q-10 -45 -34 -116q-31 -90 -45 -105q-115 -102 -412 -102q-260 0 -418 151q-155 150 -155 381zM219 -328q0 10 4 39q10 33 21 33q6 0 39 -16 q37 -18 65 -19q45 0 68 21q25 22 30 49q12 66 -40 65q-37 0 -68 -14q-2 0 -14 16q-12 14 -9 23q39 55 47 68q35 57 39 61h68l-39 -61q16 2 39 2q51 0 78 -37q29 -37 18 -84q-18 -86 -82 -133q-68 -51 -166 -52q-31 0 -59 13q-31 14 -39 26z" />
<glyph unicode="&#xc8;" horiz-adv-x="1083" d="M-29 10q0 6 4.5 22.5t6.5 20.5q3 6 6 6q20 0 65 17q43 16 53 35q25 43 50 176l145 755q20 121 21 156q-2 14 -43 37q-39 20 -60 20q-4 0 -4 15q0 39 14 53q106 -4 263 -4q43 0 301 4t301 4q-4 -82 -4 -180v-115q-10 -10 -43 -10q-23 0 -25 14q-20 74 -86 129 q-63 55 -137 56h-72q-55 0 -92 -4q-27 -2 -33 -23q-27 -68 -41 -156l-59 -309q0 -6 20 -8q14 -2 58 -2h157q47 0 62 16q16 20 55 107q6 14 33 14q31 0 37 -10l-72 -377q-8 -8 -41 -8q-25 0 -27 14q-2 90 -22 109q-25 25 -150 24q-137 0 -139 -18l-57 -307q-16 -86 -17 -119 q0 -35 20.5 -45t102.5 -10h47q119 0 222 51q37 20 83 67q49 49 84 113q6 12 27 12q46 0 55 -12l-43 -84q-18 -37 -32.5 -60.5t-20.5 -37.5q-16 -29 -39 -82q-29 -63 -33 -80q-27 0 -342 4t-317 4q-68 0 -141.5 -6t-96.5 -6q-4 4 -4 18zM502 1589q0 41 45 60q41 16 94 16 q39 0 66 -14q33 -16 94 -66q47 -37 92 -78q35 -33 35 -39q0 -14 -8 -24q-10 -14 -21 -14q-33 0 -217 63q-180 61 -180 96z" />
<glyph unicode="&#xc9;" horiz-adv-x="1083" d="M-29 10q0 6 4.5 22.5t6.5 20.5q3 6 6 6q20 0 65 17q43 16 53 35q25 43 50 176l145 755q20 121 21 156q-2 14 -43 37q-39 20 -60 20q-4 0 -4 15q0 39 14 53q106 -4 263 -4q43 0 301 4t301 4q-4 -82 -4 -180v-115q-10 -10 -43 -10q-23 0 -25 14q-20 74 -86 129 q-63 55 -137 56h-72q-55 0 -92 -4q-27 -2 -33 -23q-27 -68 -41 -156l-59 -309q0 -6 20 -8q14 -2 58 -2h157q47 0 62 16q16 20 55 107q6 14 33 14q31 0 37 -10l-72 -377q-8 -8 -41 -8q-25 0 -27 14q-2 90 -22 109q-25 25 -150 24q-137 0 -139 -18l-57 -307q-16 -86 -17 -119 q0 -35 20.5 -45t102.5 -10h47q119 0 222 51q37 20 83 67q49 49 84 113q6 12 27 12q46 0 55 -12l-43 -84q-18 -37 -32.5 -60.5t-20.5 -37.5q-16 -29 -39 -82q-29 -63 -33 -80q-27 0 -342 4t-317 4q-68 0 -141.5 -6t-96.5 -6q-4 4 -4 18zM600 1468q0 6 37 39l88 78 q63 49 96 66q27 14 66 14q53 0 94 -16q45 -18 45 -60q0 -35 -178 -96q-184 -63 -219 -63q-10 0 -21 14q-8 10 -8 24z" />
<glyph unicode="&#xca;" horiz-adv-x="1083" d="M-29 10q0 6 4.5 22.5t6.5 20.5q3 6 6 6q20 0 65 17q43 16 53 35q25 43 50 176l145 755q20 121 21 156q-2 14 -43 37q-39 20 -60 20q-4 0 -4 15q0 39 14 53q106 -4 263 -4q43 0 301 4t301 4q-4 -82 -4 -180v-115q-10 -10 -43 -10q-23 0 -25 14q-20 74 -86 129 q-63 55 -137 56h-72q-55 0 -92 -4q-27 -2 -33 -23q-27 -68 -41 -156l-59 -309q0 -6 20 -8q14 -2 58 -2h157q47 0 62 16q16 20 55 107q6 14 33 14q31 0 37 -10l-72 -377q-8 -8 -41 -8q-25 0 -27 14q-2 90 -22 109q-25 25 -150 24q-137 0 -139 -18l-57 -307q-16 -86 -17 -119 q0 -35 20.5 -45t102.5 -10h47q119 0 222 51q37 20 83 67q49 49 84 113q6 12 27 12q46 0 55 -12l-43 -84q-18 -37 -32.5 -60.5t-20.5 -37.5q-16 -29 -39 -82q-29 -63 -33 -80q-27 0 -342 4t-317 4q-68 0 -141.5 -6t-96.5 -6q-4 4 -4 18zM449 1468q-2 8 2 25q53 31 184 131 q57 45 108 96q23 18 33 19q8 0 27 -19l26 -37q4 -6 18.5 -24.5l20.5 -26.5q86 -106 127 -139q-8 -37 -28.5 -37t-98.5 45q-98 57 -127 78q-25 -14 -161 -78q-96 -45 -115 -45q-14 0 -16 12z" />
<glyph unicode="&#xcb;" horiz-adv-x="1083" d="M-29 10q0 6 4.5 22.5t6.5 20.5q3 6 6 6q20 0 65 17q43 16 53 35q25 43 50 176l145 755q20 121 21 156q-2 14 -43 37q-39 20 -60 20q-4 0 -4 15q0 39 14 53q106 -4 263 -4q43 0 301 4t301 4q-4 -82 -4 -180v-115q-10 -10 -43 -10q-23 0 -25 14q-20 74 -86 129 q-63 55 -137 56h-72q-55 0 -92 -4q-27 -2 -33 -23q-27 -68 -41 -156l-59 -309q0 -6 20 -8q14 -2 58 -2h157q47 0 62 16q16 20 55 107q6 14 33 14q31 0 37 -10l-72 -377q-8 -8 -41 -8q-25 0 -27 14q-2 90 -22 109q-25 25 -150 24q-137 0 -139 -18l-57 -307q-16 -86 -17 -119 q0 -35 20.5 -45t102.5 -10h47q119 0 222 51q37 20 83 67q49 49 84 113q6 12 27 12q46 0 55 -12l-43 -84q-18 -37 -32.5 -60.5t-20.5 -37.5q-16 -29 -39 -82q-29 -63 -33 -80q-27 0 -342 4t-317 4q-68 0 -141.5 -6t-96.5 -6q-4 4 -4 18zM391 1604q12 61 61.5 104t104.5 43 q57 0 90 -43q33 -41 20.5 -104.5t-59.5 -104.5q-49 -43 -106 -43q-55 0 -90 43q-33 42 -21 105zM819 1604q12 61 61.5 104t104.5 43t90 -43q33 -41 20.5 -104.5t-59.5 -104.5q-49 -43 -106.5 -43t-89.5 43q-33 42 -21 105z" />
<glyph unicode="&#xcc;" horiz-adv-x="718" d="M-29 4q0 6 3 17.5t3 17.5q2 20 7 20q16 0 65 15q41 12 53 30q31 52 50 166l149 777q18 96 18 145q0 33 -36 47q-39 16 -60 16q-2 0 -2 9q0 47 12 59q12 0 78 -4q16 0 45 -1t43 -3q27 -2 78 -2q76 0 264 10v-8q0 -23 -4 -37q-6 -23 -12 -23q-12 0 -61 -16q-46 -15 -56 -31 q-14 -27 -28 -84l-9.5 -36.5l-8.5 -32t-3 -17.5l-145 -759q-20 -100 -21 -160q0 -23 41 -41.5t55 -18.5q4 0 5 -10q0 -37 -15 -57q-2 0 -13 1l-34.5 3t-50.5 4q-92 6 -141 6q-51 0 -150 -6l-54.5 -4l-41.5 -3t-21 -1q-2 2 -2 12zM238 1589q0 41 45 60q41 16 96 16 q37 0 63 -14q33 -16 95 -66q47 -37 92 -78q35 -33 35 -39q0 -14 -9 -24q-10 -14 -18 -14q-35 0 -219 63q-180 61 -180 96z" />
<glyph unicode="&#xcd;" horiz-adv-x="718" d="M-29 4q0 6 3 17.5t3 17.5q2 20 7 20q16 0 65 15q41 12 53 30q31 52 50 166l149 777q18 96 18 145q0 33 -36 47q-39 16 -60 16q-2 0 -2 9q0 47 12 59q12 0 78 -4q16 0 45 -1t43 -3q27 -2 78 -2q76 0 264 10v-8q0 -23 -4 -37q-6 -23 -12 -23q-12 0 -61 -16q-46 -15 -56 -31 q-14 -27 -28 -84l-9.5 -36.5l-8.5 -32t-3 -17.5l-145 -759q-20 -100 -21 -160q0 -23 41 -41.5t55 -18.5q4 0 5 -10q0 -37 -15 -57q-2 0 -13 1l-34.5 3t-50.5 4q-92 6 -141 6q-51 0 -150 -6l-54.5 -4l-41.5 -3t-21 -1q-2 2 -2 12zM354 1468q0 6 35 39q55 51 90 78 q63 49 96 66q27 14 64 14q55 0 96 -16q45 -18 45 -60q0 -35 -180 -96q-184 -63 -217 -63q-10 0 -21 14q-8 10 -8 24z" />
<glyph unicode="&#xce;" horiz-adv-x="718" d="M-29 4q0 6 3 17.5t3 17.5q2 20 7 20q16 0 65 15q41 12 53 30q31 52 50 166l149 777q18 96 18 145q0 33 -36 47q-39 16 -60 16q-2 0 -2 9q0 47 12 59q12 0 78 -4q16 0 45 -1t43 -3q27 -2 78 -2q76 0 264 10v-8q0 -23 -4 -37q-6 -23 -12 -23q-12 0 -61 -16q-46 -15 -56 -31 q-14 -27 -28 -84l-9.5 -36.5l-8.5 -32t-3 -17.5l-145 -759q-20 -100 -21 -160q0 -23 41 -41.5t55 -18.5q4 0 5 -10q0 -37 -15 -57q-2 0 -13 1l-34.5 3t-50.5 4q-92 6 -141 6q-51 0 -150 -6l-54.5 -4l-41.5 -3t-21 -1q-2 2 -2 12zM236 1468q-3 12 0 25q53 31 184 131 q66 51 110 96q23 18 31 18.5t27 -18.5l26 -37q4 -6 18.5 -24.5l20.5 -26.5q82 -100 129 -139q-9 -37 -30 -37q-18 0 -97 45q-98 57 -127 78q-25 -14 -161 -78q-96 -45 -117 -45q-12 0 -14 12z" />
<glyph unicode="&#xcf;" horiz-adv-x="718" d="M-29 4q0 6 3 17.5t3 17.5q2 20 7 20q16 0 65 15q41 12 53 30q31 52 50 166l149 777q18 96 18 145q0 33 -36 47q-39 16 -60 16q-2 0 -2 9q0 47 12 59q12 0 78 -4q16 0 45 -1t43 -3q27 -2 78 -2q76 0 264 10v-8q0 -23 -4 -37q-6 -23 -12 -23q-12 0 -61 -16q-46 -15 -56 -31 q-14 -27 -28 -84l-9.5 -36.5l-8.5 -32t-3 -17.5l-145 -759q-20 -100 -21 -160q0 -23 41 -41.5t55 -18.5q4 0 5 -10q0 -37 -15 -57q-2 0 -13 1l-34.5 3t-50.5 4q-92 6 -141 6q-51 0 -150 -6l-54.5 -4l-41.5 -3t-21 -1q-2 2 -2 12zM190.5 1603.5q12.5 63.5 59.5 104.5 q49 43 106.5 43t89.5 -43q33 -41 21 -104q-12 -61 -61.5 -104.5t-106.5 -43.5q-53 0 -88 43q-33 41 -20.5 104.5zM618.5 1603.5q12.5 63.5 59.5 104.5q49 43 106 43q55 0 90 -43q33 -41 21 -104q-12 -61 -61.5 -104.5t-106.5 -43.5q-55 0 -88 43q-33 41 -20.5 104.5z" />
<glyph unicode="&#xd0;" horiz-adv-x="1376" d="M-16 27q8 37 16 36q25 0 66 15q47 16 55 31q18 43 41 161l55 287h-113l-6 21q27 94 35 114q6 10 17 10h96l65 340q23 131 21 156q-4 16 -41 37q-39 20 -58 20q-3 0 0 31q2 29 15 41q115 -8 254 -8h323q127 0 226 -37q102 -39 159 -98q59 -61 101 -148q41 -84 43 -174 q3 -92 -13 -190q-55 -287 -266 -484q-211 -195 -510 -194q-33 0 -141 6q-72 4 -174 4l-264 -12q-6 12 -2 35zM412 131q35 -25 206 -25q158 0 271 144q117 150 172 430q43 217 -21 373q-61 154 -223 153h-6q-160 0 -188 -32q-35 -37 -50 -125l-67 -347h262q14 0 12 -14 q-14 -53 -43 -119q-6 -12 -14 -12h-246l-53 -285q-24 -133 -12 -141z" />
<glyph unicode="&#xd1;" horiz-adv-x="1349" d="M-29 10q0 6 4 23q0 4 1 11t4 9l4 6q29 0 100 21q65 18 98 61q23 31 45 148l154 784q10 53 10 119q0 33 -55 47q-59 16 -90 16q-6 0 -6 17q0 43 14 51q186 -8 248 -8q119 0 186 8q20 -78 84 -195l174 -315q111 -195 170 -311q4 10 21 82l88 465q12 66 12 106 q0 43 -63.5 71.5t-98.5 28.5q-4 0 -4 15q0 41 12 53q186 -8 260 -8q84 0 248 8q0 -68 -14 -68q-4 0 -41 -4q-27 -2 -72 -22q-43 -18 -69 -45q-35 -35 -56 -146l-147 -759q-8 -43 -45 -281q-8 -8 -49 -8q-20 0 -49 47l-555 1012l-148 -766q-16 -86 -16 -111q0 -29 22 -55 q18 -20 54 -35q10 -4 53 -16q22 -6 30 -7q4 0 5 -10q0 -33 -13 -57q-8 0 -33.5 3t-41.5 3q-35 2 -97 6q-31 2 -82 2t-139 -6q-23 -2 -50.5 -4l-41.5 -3t-21 -1q-4 12 -4 18zM631 1522q12 53 51 100q90 102 184 102q51 0 92 -20q43 -20 72 -47q27 -23 74 -47q45 -23 92 -23 q27 0 61 29q23 18 58 57q25 29 37 29q6 0 8 -14.5t0 -28.5q-8 -49 -53 -103q-82 -100 -181 -100q-51 0 -92 21q-47 25 -73 47q-29 27 -72 47q-41 20 -92 20q-27 0 -62 -28q-34 -28 -61 -56q-29 -29 -37 -28q-12 0 -6 43z" />
<glyph unicode="&#xd2;" horiz-adv-x="1251" d="M25 512q0 160 63 307q68 158 166 264q106 115 240 183q135 68 272 67q211 0 346 -151t135 -381q0 -162 -63 -309q-66 -154 -168 -263q-109 -115 -240 -180q-139 -70 -272 -69q-211 0 -346 151q-133 148 -133 381zM313 475q0 -78 13 -143q12 -70 39 -121q29 -59 75 -88 q49 -31 115 -31q86 0 156 58q68 55 114 143q47 86 78 196q35 123 45 203q14 115 15 178q0 352 -244 353q-160 0 -283 -215.5t-123 -532.5zM514 1589q0 41 45 60q41 16 94 16q39 0 66 -14q33 -16 94 -66q35 -27 90 -78q37 -33 37 -39q0 -14 -8 -24q-10 -14 -21 -14 q-35 0 -219 63q-178 61 -178 96z" />
<glyph unicode="&#xd3;" horiz-adv-x="1251" d="M25 512q0 160 63 307q68 158 166 264q106 115 240 183q135 68 272 67q211 0 346 -151t135 -381q0 -162 -63 -309q-66 -154 -168 -263q-109 -115 -240 -180q-139 -70 -272 -69q-211 0 -346 151q-133 148 -133 381zM313 475q0 -78 13 -143q12 -70 39 -121q29 -59 75 -88 q49 -31 115 -31q86 0 156 58q68 55 114 143q47 86 78 196q35 123 45 203q14 115 15 178q0 352 -244 353q-160 0 -283 -215.5t-123 -532.5zM725 1468q0 6 37 39q55 51 90 78q63 49 96 66q27 14 64 14q53 0 94 -16q45 -18 45 -60q0 -35 -178 -96q-184 -63 -219 -63 q-8 0 -18.5 14t-10.5 24z" />
<glyph unicode="&#xd4;" horiz-adv-x="1251" d="M25 512q0 160 63 307q68 158 166 264q106 115 240 183q135 68 272 67q211 0 346 -151t135 -381q0 -162 -63 -309q-66 -154 -168 -263q-109 -115 -240 -180q-139 -70 -272 -69q-211 0 -346 151q-133 148 -133 381zM313 475q0 -78 13 -143q12 -70 39 -121q29 -59 75 -88 q49 -31 115 -31q86 0 156 58q68 55 114 143q47 86 78 196q35 123 45 203q14 115 15 178q0 352 -244 353q-160 0 -283 -215.5t-123 -532.5zM524 1468q-3 12 0 25q53 31 185 131q57 45 108 96q23 18 33 19q8 0 27 -19l26 -37q4 -6 18.5 -24.5l20.5 -26.5q86 -106 127 -139 q-8 -37 -28.5 -37t-98.5 45q-98 57 -127 78q-37 -20 -160 -78q-96 -45 -116 -45q-11 0 -15 12z" />
<glyph unicode="&#xd5;" horiz-adv-x="1251" d="M25 512q0 160 63 307q68 158 166 264q106 115 240 183q135 68 272 67q211 0 346 -151t135 -381q0 -162 -63 -309q-66 -154 -168 -263q-109 -115 -240 -180q-139 -70 -272 -69q-211 0 -346 151q-133 148 -133 381zM313 475q0 -78 13 -143q12 -70 39 -121q29 -59 75 -88 q49 -31 115 -31q86 0 156 58q68 55 114 143q47 86 78 196q35 123 45 203q14 115 15 178q0 352 -244 353q-160 0 -283 -215.5t-123 -532.5zM453 1522q12 53 51 100q90 102 184 102q49 0 90 -20q39 -20 74 -47t74 -47q45 -23 92 -23q27 0 61 29q23 18 58 57q25 29 37 29 q6 0 8 -14.5t0 -28.5q-8 -49 -54 -103q-82 -100 -180 -100q-51 0 -92 21q-47 25 -74 47q-29 27 -71 47q-41 20 -93 20q-27 0 -61 -28t-61 -56q-29 -29 -37 -28q-12 0 -6 43z" />
<glyph unicode="&#xd6;" horiz-adv-x="1251" d="M25 512q0 160 63 307q68 158 166 264q106 115 240 183q135 68 272 67q211 0 346 -151t135 -381q0 -162 -63 -309q-66 -154 -168 -263q-109 -115 -240 -180q-139 -70 -272 -69q-211 0 -346 151q-133 148 -133 381zM313 475q0 -78 13 -143q12 -70 39 -121q29 -59 75 -88 q49 -31 115 -31q86 0 156 58q68 55 114 143q47 86 78 196q35 123 45 203q14 115 15 178q0 352 -244 353q-160 0 -283 -215.5t-123 -532.5zM438 1583q0 66 47 119q45 51 109 51q51 0 84 -35t33 -90q0 -63 -47 -117q-45 -51 -109 -51q-51 0 -84 35t-33 88zM879 1581 q0 68 45 119q43 49 110 49q51 0 84 -35t33 -88q0 -66 -47 -119q-45 -51 -111 -51q-47 0 -82 37q-32 35 -32 88z" />
<glyph unicode="&#xd7;" horiz-adv-x="841" d="M35 217l301 268q4 4 4 7q0 8 -2 10l-193 258q0 16 41 67q39 49 54 50q10 0 18 -9l195 -264q4 -4 8 -4q2 0 4 2l301 268q6 6 12 7q12 0 33 -43q23 -45 23 -70l-293 -264q-4 -4 -4 -6t2 -5l188 -266q0 -20 -41 -63q-43 -45 -53 -45t-15 6l-194 264q-2 2 -6 2q-6 0 -8 -2 l-306 -270q-6 -6 -16 -6q-14 0 -35 43q-18 36 -18 65z" />
<glyph unicode="&#xd8;" horiz-adv-x="1298" d="M53 512q0 207 109 399q111 197 278 308q174 115 357 114q133 0 245 -65l48 69q18 4 45 -12q29 -16 28 -33q0 -10 -2 -12l-47 -68q164 -152 164 -411q0 -211 -107 -400q-111 -195 -280 -307q-174 -115 -356 -114q-131 0 -244 65l-33 -45q-14 -2 -45 10q-27 12 -27 29 q0 8 4 12l31 47q-168 150 -168 414zM344 475q0 -102 21 -176l573 821q-61 102 -190 103q-158 0 -281 -215.5t-123 -532.5zM399 203q63 -111 187 -111q104 0 186 84q82 86 129 213q46 126 68 252q23 131 22.5 229.5t-12.5 149.5z" />
<glyph unicode="&#xd9;" horiz-adv-x="1357" d="M70 328q-12 129 16 295l84 421q20 133 14 156q-6 14 -45 33q-35 16 -59 16q-6 0 0 35q6 37 8 39q211 -10 268 -10q74 0 262 10v-35q-6 -39 -16 -39q-23 0 -70 -16q-55 -18 -59 -31q-27 -63 -47 -170l-90 -475q-37 -182 18.5 -294.5t188.5 -112.5q66 0 121 20 q57 20 112 67.5t98 131.5q41 82 64 202l92 478l1 3q1 3 3 8t2 11t3 17.5t3 15.5q0 18 2 31q2 18 0 32q-2 12 -10 25q-12 20 -61 38.5t-72 18.5q-4 4 -4 19q0 6 3 17t3 15q2 10 8 23q158 -14 242 -14q46 0 129 6l47.5 4l37.5 3t19 1q2 -14 0 -35q0 -2 -2 -10t-4 -14 q-6 -14 -12 -15q-20 0 -35 -2q-25 -4 -63 -18q-37 -14 -68 -45q-31 -33 -53 -146l-90 -456q-55 -293 -217 -442.5t-375 -149.5q-109 0 -191 35q-78 33 -137 108q-57 72 -69 195zM295 1589q0 41 45 60q41 16 94 16q39 0 66 -14q39 -20 96 -66q35 -27 90 -78q35 -33 35 -39 q0 -14 -8 -24q-10 -14 -21 -14q-35 0 -219 63q-178 61 -178 96z" />
<glyph unicode="&#xda;" horiz-adv-x="1357" d="M70 328q-12 129 16 295l84 421q20 133 14 156q-6 14 -45 33q-35 16 -59 16q-6 0 0 35q6 37 8 39q211 -10 268 -10q74 0 262 10v-35q-6 -39 -16 -39q-23 0 -70 -16q-55 -18 -59 -31q-27 -63 -47 -170l-90 -475q-37 -182 18.5 -294.5t188.5 -112.5q66 0 121 20 q57 20 112 67.5t98 131.5q41 82 64 202l92 478l1 3q1 3 3 8t2 11t3 17.5t3 15.5q0 18 2 31q2 18 0 32q-2 12 -10 25q-12 20 -61 38.5t-72 18.5q-4 4 -4 19q0 6 3 17t3 15q2 10 8 23q158 -14 242 -14q46 0 129 6l47.5 4l37.5 3t19 1q2 -14 0 -35q0 -2 -2 -10t-4 -14 q-6 -14 -12 -15q-20 0 -35 -2q-25 -4 -63 -18q-37 -14 -68 -45q-31 -33 -53 -146l-90 -456q-55 -293 -217 -442.5t-375 -149.5q-109 0 -191 35q-78 33 -137 108q-57 72 -69 195zM508 1468q0 6 35 39q55 51 90 78q57 45 96 66q27 14 64 14q53 0 94 -16q47 -18 47 -60 q0 -35 -180 -96q-184 -63 -219 -63q-8 0 -19 14q-8 10 -8 24z" />
<glyph unicode="&#xdb;" horiz-adv-x="1357" d="M70 328q-12 129 16 295l84 421q20 133 14 156q-6 14 -45 33q-35 16 -59 16q-6 0 0 35q6 37 8 39q211 -10 268 -10q74 0 262 10v-35q-6 -39 -16 -39q-23 0 -70 -16q-55 -18 -59 -31q-27 -63 -47 -170l-90 -475q-37 -182 18.5 -294.5t188.5 -112.5q66 0 121 20 q57 20 112 67.5t98 131.5q41 82 64 202l92 478l1 3q1 3 3 8t2 11t3 17.5t3 15.5q0 18 2 31q2 18 0 32q-2 12 -10 25q-12 20 -61 38.5t-72 18.5q-4 4 -4 19q0 6 3 17t3 15q2 10 8 23q158 -14 242 -14q46 0 129 6l47.5 4l37.5 3t19 1q2 -14 0 -35q0 -2 -2 -10t-4 -14 q-6 -14 -12 -15q-20 0 -35 -2q-25 -4 -63 -18q-37 -14 -68 -45q-31 -33 -53 -146l-90 -456q-55 -293 -217 -442.5t-375 -149.5q-109 0 -191 35q-78 33 -137 108q-57 72 -69 195zM334 1468q-2 8 2 25q47 27 182 131q66 51 111 96q23 18 33 19q6 0 24 -19l8 -10l21 -27 q20 -29 39 -51q86 -106 127 -139q-8 -37 -29 -37t-98 45q-98 57 -127 78q-25 -14 -162 -78q-96 -45 -117 -45q-12 0 -14 12z" />
<glyph unicode="&#xdc;" horiz-adv-x="1357" d="M70 328q-12 129 16 295l84 421q20 133 14 156q-6 14 -45 33q-35 16 -59 16q-6 0 0 35q6 37 8 39q211 -10 268 -10q74 0 262 10v-35q-6 -39 -16 -39q-23 0 -70 -16q-55 -18 -59 -31q-27 -63 -47 -170l-90 -475q-37 -182 18.5 -294.5t188.5 -112.5q66 0 121 20 q57 20 112 67.5t98 131.5q41 82 64 202l92 478l1 3q1 3 3 8t2 11t3 17.5t3 15.5q0 18 2 31q2 18 0 32q-2 12 -10 25q-12 20 -61 38.5t-72 18.5q-4 4 -4 19q0 6 3 17t3 15q2 10 8 23q158 -14 242 -14q46 0 129 6l47.5 4l37.5 3t19 1q2 -14 0 -35q0 -2 -2 -10t-4 -14 q-6 -14 -12 -15q-20 0 -35 -2q-25 -4 -63 -18q-37 -14 -68 -45q-31 -33 -53 -146l-90 -456q-55 -293 -217 -442.5t-375 -149.5q-109 0 -191 35q-78 33 -137 108q-57 72 -69 195zM248 1603.5q12 63.5 59 104.5q49 43 107 43q59 0 90 -43t18 -104q-12 -63 -59 -105 q-49 -43 -107 -43q-53 0 -88 43q-32 41 -20 104.5zM676 1603.5q12 63.5 59 104.5q49 43 107 43q59 0 90 -43t18 -104q-12 -63 -59 -105q-49 -43 -107 -43q-55 0 -88 43q-32 41 -20 104.5z" />
<glyph unicode="&#xdd;" horiz-adv-x="1179" d="M23 1268q0 14 6 32q4 14 12 23q43 0 109 -4q98 -6 151 -6q76 0 266 10q2 -2 2 -16q0 -25 -4 -37q-6 -20 -12 -21q-35 0 -66 -10q-37 -12 -43 -31q-2 -20 7 -45l127 -356q280 356 288 399q6 18 -22 31q-28 12 -86 12q-4 0 -4 19q0 43 14 55q141 -10 225 -10q76 0 211 10 q0 -29 -2 -35q-6 -37 -12 -37q-34 0 -80 -18q-47 -18 -82 -53q-37 -43 -244 -308q-182 -233 -190 -264l-64 -317q-20 -104 -18 -174q0 -14 45 -33q43 -18 59 -18q6 0 0 -37q-6 -27 -10 -37q-12 0 -110 8q-131 8 -146 8q-16 0 -147 -8l-55.5 -4t-45 -3t-22.5 -1q-6 10 -2 33 q6 41 12 41q22 0 74 18q51 18 59 33q25 59 45 162l68 339q2 10 -35 127l-74 222l-37 106q-37 123 -71 148q-16 12 -47 20q-27 8 -47 8q-2 1 -2 19zM338 1468q0 6 35 39q55 51 90 78q57 45 96 66q27 14 64 14q53 0 94 -16q47 -18 47 -60q0 -35 -180 -96q-184 -63 -219 -63 q-8 0 -19 14q-8 10 -8 24z" />
<glyph unicode="&#xde;" horiz-adv-x="1073" d="M-23 12q0 47 13 47q96 0 123 52q25 55 43 159l151 781q18 135 19 137q0 16 -2 18q-6 14 -41 33q-31 16 -56 16q-6 4 -4 19q4 20 8 33l7 16q209 -10 256 -10q63 0 251 10q0 -68 -14 -68q-20 0 -63 -16q-51 -18 -56 -31q-15 -37 -30 -98q-16 -66 -17 -72q0 -10 4 -10 q8 0 21 2q18 3 49 6q41 4 70 4q150 0 246 -90t96 -225q0 -102 -45 -197q-43 -88 -115 -141q-66 -47 -158 -78q-82 -27 -174 -26q-20 0 -78 4q-12 0 -24.5 1t-19.5 2t-9 1q-6 0 -6 -4t-3 -7q-1 -2 -1 -4q-18 -88 -19 -151v-14q2 -14 41 -33t54 -19q8 -4 2 -30q-4 -18 -11 -37 q-27 0 -106.5 8t-136.5 8q-18 0 -142 -8q-92 -6 -120 -8q-3 2 -3 20zM451 434q0 -49 114 -49q84 0 142 113q59 115 59 243q0 197 -102 197q-117 0 -134 -78l-77 -403l-1 -4q-1 -4 -1 -7v-12z" />
<glyph unicode="&#xdf;" horiz-adv-x="1073" d="M-246 -358q-4 72 24.5 133t94.5 61q27 0 45.5 -24.5t28.5 -57.5t26 -55q18 -25 43 -25q31 0 55.5 27t43.5 84q4 12 28 98q2 10 25 119l139 723l2 4v8q0 6 -8 6h-117q-12 0 -12 20.5t39 59.5q37 37 78 37h33q12 0 18 33q39 197 199 350q156 150 317 150q127 0 211 -72 t61 -191q-10 -57 -30 -96q-23 -41 -56 -71l-51 -41q-15 -12 -61 -37q-27 -16 -60 -39q-14 -10 -36 -47q-18 -31 -19 -76q0 -96 119 -180q57 -39 102 -104.5t45 -139.5q0 -113 -90 -211q-92 -102 -215 -102q-102 0 -188 28q-82 27 -92 58q0 29 2 43q6 43 10 59q9 37 31 62 q23 25 57 24q41 0 66 -24q27 -27 34 -54q10 -29 31 -53q20 -23 55 -23q20 0 41 16.5t27 41.5q4 16 8 41q2 12 2 31q0 31 -14 57q-15 28 -31 43q-6 6 -47 43t-45 41q-8 8 -19.5 18.5t-18.5 18.5t-13 14q-12 14 -35 59q-16 33 -16 80t8 78q10 35 30 66q23 33 35 47q8 10 49 47 q33 31 48 43q90 88 114 207q33 186 -131 186q-37 0 -63 -20q-31 -23 -47 -50q-16 -25 -33 -77q-25 -78 -27 -88q-6 -27 -20 -99l-176 -907q-43 -225 -164 -352t-310 -127q-74 0 -122 24q-48 25 -58 54z" />
<glyph unicode="&#xe0;" horiz-adv-x="923" d="M14 281q0 100 49.5 210.5t131.5 198.5q86 92 202.5 149.5t247.5 57.5q66 0 115 -14q57 -16 74 -29l-117 -598q-4 -16 -4 -45q0 -49 20 -49q25 0 78 43q53 45 68 63q8 0 22 -20q16 -23 17 -29q-18 -47 -144 -143q-119 -92 -205 -92q-43 0 -75 28q-31 29 -31 80q0 4 1 13.5 t1 13.5q0 20 4 33q-94 -168 -219 -168q-111 0 -172 82q-64 86 -64 215zM260 248q0 -113 63.5 -113t129 141.5t96.5 298.5l35 181q-14 14 -56 14q-61 0 -112 -61q-52 -61 -86 -148q-31 -80 -51 -172q-19 -86 -19 -141zM373 1176q0 29 33 59q31 29 79 29q18 0 27 -7 q43 -39 125 -137q82 -96 82 -112q0 -6 -10 -27q-8 -16 -19 -16q-20 0 -92 34q-78 37 -149 88q-76 54 -76 89z" />
<glyph unicode="&#xe1;" horiz-adv-x="923" d="M14 281q0 100 49.5 210.5t131.5 198.5q86 92 202.5 149.5t247.5 57.5q66 0 115 -14q57 -16 74 -29l-117 -598q-4 -16 -4 -45q0 -49 20 -49q25 0 78 43q53 45 68 63q8 0 22 -20q16 -23 17 -29q-18 -47 -144 -143q-119 -92 -205 -92q-43 0 -75 28q-31 29 -31 80q0 4 1 13.5 t1 13.5q0 20 4 33q-94 -168 -219 -168q-111 0 -172 82q-64 86 -64 215zM260 248q0 -113 63.5 -113t129 141.5t96.5 298.5l35 181q-14 14 -56 14q-61 0 -112 -61q-52 -61 -86 -148q-31 -80 -51 -172q-19 -86 -19 -141zM502 1008q0 16 82 112q82 98 125 137q8 6 26 7 q47 0 78 -29q35 -31 35 -59q0 -35 -76 -89q-68 -47 -151 -88q-72 -35 -93 -34q-8 0 -16 16q-10 21 -10 27z" />
<glyph unicode="&#xe2;" horiz-adv-x="923" d="M14 281q0 100 49.5 210.5t131.5 198.5q86 92 202.5 149.5t247.5 57.5q66 0 115 -14q57 -16 74 -29l-117 -598q-4 -16 -4 -45q0 -49 20 -49q25 0 78 43q53 45 68 63q8 0 22 -20q16 -23 17 -29q-18 -47 -144 -143q-119 -92 -205 -92q-43 0 -75 28q-31 29 -31 80q0 4 1 13.5 t1 13.5q0 20 4 33q-94 -168 -219 -168q-111 0 -172 82q-64 86 -64 215zM260 248q0 -113 63.5 -113t129 141.5t96.5 298.5l35 181q-14 14 -56 14q-61 0 -112 -61q-52 -61 -86 -148q-31 -80 -51 -172q-19 -86 -19 -141zM375 1067q37 31 151 156q66 74 95 112q14 20 30 21 q4 0 6 -2l5 -4q2 -2 4 -7l4 -8q6 -12 16 -37q16 -41 31 -65q68 -127 96 -166q-10 -47 -27 -47q-12 0 -75 55q-74 63 -99 92q-41 -33 -135 -94q-80 -53 -96 -53t-6 47z" />
<glyph unicode="&#xe3;" horiz-adv-x="923" d="M14 281q0 100 49.5 210.5t131.5 198.5q86 92 202.5 149.5t247.5 57.5q66 0 115 -14q57 -16 74 -29l-117 -598q-4 -16 -4 -45q0 -49 20 -49q25 0 78 43q53 45 68 63q8 0 22 -20q16 -23 17 -29q-18 -47 -144 -143q-119 -92 -205 -92q-43 0 -75 28q-31 29 -31 80q0 4 1 13.5 t1 13.5q0 20 4 33q-94 -168 -219 -168q-111 0 -172 82q-64 86 -64 215zM260 248q0 -113 63.5 -113t129 141.5t96.5 298.5l35 181q-14 14 -56 14q-61 0 -112 -61q-52 -61 -86 -148q-31 -80 -51 -172q-19 -86 -19 -141zM289 1075q0 51 71.5 116.5t131.5 65.5q47 0 90 -30 l42.5 -28.5t45.5 -31.5q43 -31 92 -30q25 0 51 24q37 33 51 49q22 25 25 25q6 -6 8 -14q4 -16 4 -19q0 -37 -70 -108q-71 -74 -129 -74q-49 0 -92 31l-86 59q-43 31 -94 31q-25 0 -74 -51.5t-57 -51.5q-10 0 -10 37z" />
<glyph unicode="&#xe4;" horiz-adv-x="923" d="M14 281q0 100 49.5 210.5t131.5 198.5q86 92 202.5 149.5t247.5 57.5q66 0 115 -14q57 -16 74 -29l-117 -598q-4 -16 -4 -45q0 -49 20 -49q25 0 78 43q53 45 68 63q8 0 22 -20q16 -23 17 -29q-18 -47 -144 -143q-119 -92 -205 -92q-43 0 -75 28q-31 29 -31 80q0 4 1 13.5 t1 13.5q0 20 4 33q-94 -168 -219 -168q-111 0 -172 82q-64 86 -64 215zM236 1149q0 63 47 116.5t108 53.5q47 0 82 -37q35 -39 35 -90q0 -63 -47 -117q-45 -51 -111 -51q-49 0 -81.5 35t-32.5 90zM260 248q0 -113 63.5 -113t129 141.5t96.5 298.5l35 181q-14 14 -56 14 q-61 0 -112 -61q-52 -61 -86 -148q-31 -80 -51 -172q-19 -86 -19 -141zM676 1147q0 66 45 117t110 51q49 0 84 -37q31 -33 31 -88q0 -68 -45 -119t-110 -51q-49 0 -82 37q-33 35 -33 90z" />
<glyph unicode="&#xe5;" horiz-adv-x="923" d="M14 281q0 100 49.5 210.5t131.5 198.5q86 92 202.5 149.5t247.5 57.5q66 0 115 -14q57 -16 74 -29l-117 -598q-4 -16 -4 -45q0 -49 20 -49q25 0 78 43q53 45 68 63q8 0 22 -20q16 -23 17 -29q-18 -47 -144 -143q-119 -92 -205 -92q-43 0 -75 28q-31 29 -31 80q0 4 1 13.5 t1 13.5q0 20 4 33q-94 -168 -219 -168q-111 0 -172 82q-64 86 -64 215zM260 248q0 -113 63.5 -113t129 141.5t96.5 298.5l35 181q-14 14 -56 14q-61 0 -112 -61q-52 -61 -86 -148q-31 -80 -51 -172q-19 -86 -19 -141zM453 1178q0 94 71 165q70 70 156 70q63 0 106 -45 q41 -43 41 -113q0 -88 -71 -163q-70 -72 -156 -72q-63 0 -106 45q-41 43 -41 113zM539 1192q0 -39 20 -59q23 -23 59 -23q55 0 89 41q35 45 34 92q0 39 -20 60q-23 23 -59 22q-55 0 -89 -41q-34 -45 -34 -92z" />
<glyph unicode="&#xe6;" horiz-adv-x="1241" d="M41 203q0 63 31 112q29 47 90 76q63 31 110 43q66 18 123 31q74 16 103 24q16 6 20 29l19 96q6 37 6 70q0 94 -54 94q-41 0 -88 -47q-45 -45 -57 -119q-2 -18 -39 -39q-35 -18 -74 -18q-86 0 -86 80q0 90 134 176q131 86 270 86q127 0 182 -86q123 86 258 86 q98 0 164 -51q68 -51 68 -137q0 -100 -98.5 -174t-199 -105t-167.5 -31q-8 0 -8 -18q0 -141 49 -202.5t108 -61.5q37 0 78 33q37 29 74 69q31 35 33 35q10 -4 20 -27q12 -25 12 -30q-18 -49 -110 -129q-94 -82 -201 -82q-172 0 -256 137q-86 -139 -262 -139 q-117 0 -184.5 61.5t-67.5 157.5zM279 215q0 -39 20 -59q23 -23 55 -23q39 0 70 25q33 27 41 61l27 156q-18 -6 -39 -10.5t-45 -10.5q-8 -2 -39 -12q-23 -8 -37 -18q-8 -6 -27 -25q-14 -14 -20 -37q-6 -20 -6 -47zM758 514q0 -8 8 -8q96 0 162 65q63 63 63 142q0 76 -47 75 q-39 0 -80 -32q-47 -37 -69 -88q-37 -77 -37 -154z" />
<glyph unicode="&#xe7;" horiz-adv-x="741" d="M16 311q0 147 70 287q68 135 180.5 217t237.5 82q143 0 223 -88q14 -41 14 -68q0 -45 -26 -84q-25 -37 -68 -36q-34 0 -55 24q-20 23 -30.5 59.5t-29.5 57.5q-23 27 -51 26q-53 0 -102 -71q-49 -70 -80 -176q-31 -104 -31 -203q0 -203 129 -203q59 0 121 45q57 41 80 72 q8 0 23 -21q16 -23 16 -26q-23 -57 -129.5 -137t-200.5 -80q-147 0 -219 86q-72 87 -72 237zM57 -299q0 20 15 35q16 16 28 16q20 0 50 -20q33 -23 55 -23q45 0 76 27q27 25 26 57q0 25 -10 37q-12 14 -33 14q-37 0 -67 -14q-4 0 -17 14q-14 16 -8 23l16 22l29 43l17.5 27.5 t14.5 25t9 13.5h74l-45 -61q16 2 45 2q40 0 67 -31q27 -29 27 -70q0 -31 -10 -55.5t-37 -65.5q-20 -33 -80 -59q-53 -25 -125 -25q-80 0 -106 17q-11 24 -11 51z" />
<glyph unicode="&#xe8;" horiz-adv-x="784" d="M16 313q0 141 70 281q70 137 180 219q115 84 236 84q106 0 180 -49q76 -51 76 -135q0 -74 -59.5 -145.5t-141.5 -114.5q-83 -43 -160 -68q-84 -27 -121 -27q-8 0 -8 -20q0 -115 35 -160q33 -43 94 -43q59 0 121 45q57 41 80 72q8 0 23 -21q16 -23 16 -26 q-23 -57 -129.5 -137t-200.5 -80q-143 0 -217 85.5t-74 239.5zM266 1176q0 29 33 59q31 29 80 29q18 0 27 -7q43 -39 124 -137q82 -96 82 -112q0 -6 -10 -27q-8 -16 -16 -16q-20 0 -92 34q-84 41 -152 88q-76 54 -76 89zM291 467q0 -8 8 -8q94 0 161.5 86t67.5 168 q0 78 -47 78q-49 0 -121 -109q-69 -106 -69 -215z" />
<glyph unicode="&#xe9;" horiz-adv-x="784" d="M16 313q0 141 70 281q70 137 180 219q115 84 236 84q106 0 180 -49q76 -51 76 -135q0 -74 -59.5 -145.5t-141.5 -114.5q-83 -43 -160 -68q-84 -27 -121 -27q-8 0 -8 -20q0 -115 35 -160q33 -43 94 -43q59 0 121 45q57 41 80 72q8 0 23 -21q16 -23 16 -26 q-23 -57 -129.5 -137t-200.5 -80q-143 0 -217 85.5t-74 239.5zM291 467q0 -8 8 -8q94 0 161.5 86t67.5 168q0 78 -47 78q-49 0 -121 -109q-69 -106 -69 -215zM514 1008q0 12 84 112q82 98 125 137q10 6 27 7q47 0 77 -29q33 -31 33 -59q0 -37 -74 -89q-68 -47 -151 -88 q-72 -35 -92 -34q-10 0 -19 16q-10 21 -10 27z" />
<glyph unicode="&#xea;" horiz-adv-x="784" d="M16 313q0 141 70 281q70 137 180 219q115 84 236 84q106 0 180 -49q76 -51 76 -135q0 -74 -59.5 -145.5t-141.5 -114.5q-83 -43 -160 -68q-84 -27 -121 -27q-8 0 -8 -20q0 -115 35 -160q33 -43 94 -43q59 0 121 45q57 41 80 72q8 0 23 -21q16 -23 16 -26 q-23 -57 -129.5 -137t-200.5 -80q-143 0 -217 85.5t-74 239.5zM291 467q0 -8 8 -8q94 0 161.5 86t67.5 168q0 78 -47 78q-49 0 -121 -109q-69 -106 -69 -215zM291 1067q37 31 151 156q66 74 95 112q14 20 30 21q4 0 6 -2l5 -4q2 -2 4 -7l4 -8q6 -12 16 -37q16 -41 31 -65 q68 -127 96 -166q-10 -47 -27 -47q-10 0 -75 55q-74 63 -99 92q-41 -33 -135 -94q-80 -53 -96 -53t-6 47z" />
<glyph unicode="&#xeb;" horiz-adv-x="784" d="M16 313q0 141 70 281q70 137 180 219q115 84 236 84q106 0 180 -49q76 -51 76 -135q0 -74 -59.5 -145.5t-141.5 -114.5q-83 -43 -160 -68q-84 -27 -121 -27q-8 0 -8 -20q0 -115 35 -160q33 -43 94 -43q59 0 121 45q57 41 80 72q8 0 23 -21q16 -23 16 -26 q-23 -57 -129.5 -137t-200.5 -80q-143 0 -217 85.5t-74 239.5zM207 1149q0 63 47 116.5t108 53.5q51 0 84 -37q33 -35 33 -90q0 -63 -47 -117q-45 -51 -108 -51q-51 0 -84 35t-33 90zM291 467q0 -8 8 -8q94 0 161.5 86t67.5 168q0 78 -47 78q-49 0 -121 -109 q-69 -106 -69 -215zM647 1147q0 63 47 117q45 51 109 51q49 0 84 -37q33 -35 33 -88q0 -66 -48 -119q-45 -51 -108 -51q-51 0 -84 37q-33 35 -33 90z" />
<glyph unicode="&#xec;" horiz-adv-x="626" d="M35 659q31 74 106.5 156t184.5 82q61 0 104 -43q45 -45 45 -147q0 -51 -80 -451q-4 -16 -4 -33q0 -59 41 -59q14 0 39 29q18 20 43 57q18 29 21 29q8 0 32 -21q23 -20 29 -39q-29 -70 -109 -156q-76 -82 -184 -81q-63 0 -106 49t-43 143q0 6 10 74l69 377q4 16 5 30 q0 61 -39 62q-14 0 -39 -29q-18 -20 -43 -57q-18 -29 -21 -29q-14 0 -34.5 18.5t-26.5 38.5zM121 1176q0 29 33 59q31 29 77 29q18 0 27 -7q43 -39 125 -137q84 -100 84 -112q0 -6 -10 -27q-8 -16 -19 -16q-35 0 -176 80t-141 131z" />
<glyph unicode="&#xed;" horiz-adv-x="626" d="M35 659q31 74 106.5 156t184.5 82q61 0 104 -43q45 -45 45 -147q0 -51 -80 -451q-4 -16 -4 -33q0 -59 41 -59q14 0 39 29q18 20 43 57q18 29 21 29q8 0 32 -21q23 -20 29 -39q-29 -70 -109 -156q-76 -82 -184 -81q-63 0 -106 49t-43 143q0 6 10 74l69 377q4 16 5 30 q0 61 -39 62q-14 0 -39 -29q-18 -20 -43 -57q-18 -29 -21 -29q-14 0 -34.5 18.5t-26.5 38.5zM291 1008q0 16 82 112q82 98 125 137q10 6 26 7q47 0 78 -29q35 -31 35 -59q0 -49 -143 -132q-141 -80 -177 -79q-10 0 -18 16.5t-8 26.5z" />
<glyph unicode="&#xee;" horiz-adv-x="626" d="M35 659q31 74 106.5 156t184.5 82q61 0 104 -43q45 -45 45 -147q0 -51 -80 -451q-4 -16 -4 -33q0 -59 41 -59q14 0 39 29q18 20 43 57q18 29 21 29q8 0 32 -21q23 -20 29 -39q-29 -70 -109 -156q-76 -82 -184 -81q-63 0 -106 49t-43 143q0 6 10 74l69 377q4 16 5 30 q0 61 -39 62q-14 0 -39 -29q-18 -20 -43 -57q-18 -29 -21 -29q-14 0 -34.5 18.5t-26.5 38.5zM145 1067q57 47 154 156q49 55 92 112q14 20 31 21q10 0 18 -21q0 -6 17 -39q8 -18 30 -63q66 -125 97 -166q-10 -47 -27 -47q-12 0 -76 55q-55 47 -96 92q-41 -33 -135 -94 q-80 -53 -98 -53q-17 0 -7 47z" />
<glyph unicode="&#xef;" horiz-adv-x="626" d="M35 659q31 74 106.5 156t184.5 82q61 0 104 -43q45 -45 45 -147q0 -51 -80 -451q-4 -16 -4 -33q0 -59 41 -59q14 0 39 29q18 20 43 57q18 29 21 29q8 0 32 -21q23 -20 29 -39q-29 -70 -109 -156q-76 -82 -184 -81q-63 0 -106 49t-43 143q0 6 10 74l69 377q4 16 5 30 q0 61 -39 62q-14 0 -39 -29q-18 -20 -43 -57q-18 -29 -21 -29q-14 0 -34.5 18.5t-26.5 38.5zM70 1149q0 63 47 116.5t108 53.5q49 0 84 -37q33 -35 33 -90q0 -63 -47 -117q-45 -51 -109 -51q-51 0 -84 37q-32 35 -32 88zM455 1147q0 63 47 117q45 51 108 51q49 0 82 -37 q33 -35 33 -88q0 -68 -45 -119t-111 -51q-49 0 -82 37q-32 35 -32 90z" />
<glyph unicode="&#xf0;" horiz-adv-x="860" d="M41 322q0 186 135 329q139 147 293 148q63 0 109 -25l4 -2q10 0 10 45q0 166 -117 322l-182 -207q-16 0 -43 22.5t-27 34.5q0 8 4 12l187 209q-68 68 -140 107q0 23 15 45q16 27 33 29q88 -47 159 -103l187 211q3 3 18 -6q20 -12 33 -25q14 -14 14 -24q0 -9 -6 -19 l-172 -198q272 -254 272 -609q0 -147 -47 -276q-47 -125 -121 -201q-72 -72 -159.5 -112.5t-167.5 -40.5q-126 0 -209 98q-82 97 -82 236zM276 213q0 -113 78 -113q137 0 199 314q29 152 29 211q0 31 -20.5 45t-47.5 14q-95 0 -166 -135q-72 -137 -72 -336z" />
<glyph unicode="&#xf1;" horiz-adv-x="1024" d="M4 662q20 49 143 145q117 90 205 90q47 0 76 -29q31 -31 31 -84q0 -18 -17 -129l-1 -3q-1 -3 -1 -5t-1 -8t-1 -10t-1 -10.5t-1 -8.5l-2 -6q53 111 135 201q82 92 152 92q86 0 129 -61.5t43 -155.5q0 -37 -33 -213l-41 -211q-4 -16 -4 -45q0 -49 21 -49q28 0 79 43 q49 41 66 63q8 0 23 -20q16 -23 16 -29q-18 -47 -143 -143q-119 -92 -205 -92q-45 0 -76 30.5t-31 83.5q0 63 21 148l47 237q18 98 18 117q0 39 -12 62q-12 20 -45 20q-51 0 -131 -170q-78 -166 -107 -301l-43 -211q-40 -12 -110 -12t-119 12l121 627q4 29 4 45q0 49 -21 49 q-31 0 -79 -43q-45 -39 -66 -64q-8 0 -23 21q-16 23 -16 27zM268 1075q0 51 72 116.5t129 65.5q49 0 92 -30q20 -14 43 -28.5t45 -31.5q43 -31 90 -30q23 0 54 24q27 23 51 49q22 25 24 25q4 -4 6 -14q0 -4 3.5 -10.5t3.5 -8.5q0 -33 -70 -108q-68 -74 -129 -74 q-49 0 -92 31q-20 14 -43 28.5t-45 30.5q-43 31 -92 31q-27 0 -76 -51.5t-55 -51.5q-11 0 -11 37z" />
<glyph unicode="&#xf2;" horiz-adv-x="813" d="M16 311q0 137 64 271q66 139 176 225q115 90 244 90q154 0 223.5 -88t69.5 -236q0 -150 -64 -282q-66 -137 -174 -219q-113 -84 -244 -84q-154 0 -225 90q-70 88 -70 233zM264 219q2 -125 68 -125q63 0 114 101q51 98 76 231t23 238q-4 129 -66 129q-55 0 -108 -95 q-53 -92 -80 -223q-29 -141 -27 -256zM274 1176q0 29 33 59q31 29 80 29q18 0 27 -7q43 -39 125 -137q82 -96 82 -112q0 -6 -11 -27q-8 -16 -16 -16q-20 0 -92 34q-84 41 -152 88q-76 54 -76 89z" />
<glyph unicode="&#xf3;" horiz-adv-x="813" d="M16 311q0 137 64 271q66 139 176 225q115 90 244 90q154 0 223.5 -88t69.5 -236q0 -150 -64 -282q-66 -137 -174 -219q-113 -84 -244 -84q-154 0 -225 90q-70 88 -70 233zM264 219q2 -125 68 -125q63 0 114 101q51 98 76 231t23 238q-4 129 -66 129q-55 0 -108 -95 q-53 -92 -80 -223q-29 -141 -27 -256zM432 1008q0 12 84 112q82 98 125 137q10 6 27 7q47 0 77 -29q33 -31 33 -59q0 -37 -73 -89q-68 -47 -152 -88q-72 -35 -92 -34q-10 0 -19 16q-10 21 -10 27z" />
<glyph unicode="&#xf4;" horiz-adv-x="813" d="M16 311q0 137 64 271q66 139 176 225q115 90 244 90q154 0 223.5 -88t69.5 -236q0 -150 -64 -282q-66 -137 -174 -219q-113 -84 -244 -84q-154 0 -225 90q-70 88 -70 233zM264 219q2 -125 68 -125q63 0 114 101q51 98 76 231t23 238q-4 129 -66 129q-55 0 -108 -95 q-53 -92 -80 -223q-29 -141 -27 -256zM332 1067q37 31 151 156q66 74 95 112q14 20 28 21q6 0 8 -2l4 -4q0 -2 3 -7l4 -8q8 -12 18 -37q16 -41 31 -65q76 -139 94 -166q-10 -47 -24.5 -47t-77.5 55q-66 57 -97 92q-41 -33 -135 -94q-80 -53 -96 -53t-6 47z" />
<glyph unicode="&#xf5;" horiz-adv-x="813" d="M16 311q0 137 64 271q66 139 176 225q115 90 244 90q154 0 223.5 -88t69.5 -236q0 -150 -64 -282q-66 -137 -174 -219q-113 -84 -244 -84q-154 0 -225 90q-70 88 -70 233zM256 1075q0 51 71.5 116.5t131.5 65.5q49 0 92 -30l86 -60q43 -31 92 -30q23 0 53 24q20 16 49 49 q22 25 25 25q6 -6 8 -14q4 -16 4 -19q0 -35 -67.5 -108.5t-128.5 -73.5q-51 0 -94 31l-86 59q-43 31 -93 31q-27 0 -76 -51.5t-57 -51.5q-10 0 -10 37zM264 219q2 -125 68 -125q63 0 114 101q51 98 76 231t23 238q-4 129 -66 129q-55 0 -108 -95q-53 -92 -80 -223 q-29 -141 -27 -256z" />
<glyph unicode="&#xf6;" horiz-adv-x="813" d="M16 311q0 137 64 271q66 139 176 225q115 90 244 90q154 0 223.5 -88t69.5 -236q0 -150 -64 -282q-66 -137 -174 -219q-113 -84 -244 -84q-154 0 -225 90q-70 88 -70 233zM199 1149q0 63 47 116.5t108 53.5q51 0 84 -37q33 -35 33 -90q0 -63 -47 -117q-45 -51 -109 -51 q-51 0 -83.5 35t-32.5 90zM264 219q2 -125 68 -125q63 0 114 101q51 98 76 231t23 238q-4 129 -66 129q-55 0 -108 -95q-53 -92 -80 -223q-29 -141 -27 -256zM639 1147q0 63 47 117q45 51 109 51q49 0 84 -37q33 -35 32 -88q0 -66 -47 -119q-45 -51 -108 -51q-51 0 -84 37 q-33 35 -33 90z" />
<glyph unicode="&#xf7;" horiz-adv-x="927" d="M8 463q0 55 51 106h850q8 0 9 -34q0 -57 -52 -109h-850q-8 0 -8 37zM268 109q0 59 39 100q41 43 94 43q45 0 72 -31q29 -33 29 -76q0 -55 -39 -100t-94 -45q-45 0 -72 31q-29 33 -29 78zM412 852q0 55 41 100q39 43 94 43q45 0 71.5 -28.5t26.5 -75.5q0 -57 -39 -102.5 t-94 -45.5q-45 0 -72 31q-28 33 -28 78z" />
<glyph unicode="&#xf8;" horiz-adv-x="876" d="M53 334q0 227 143.5 395t356.5 168q74 0 131 -35l25 35q16 4 43 -12q31 -18 30 -33q0 -8 -2 -10l-26 -37q90 -102 90 -246q0 -231 -144 -401q-143 -172 -354 -172q-80 0 -141 43l-33 -45q-12 -2 -45 12q-27 12 -27 27q0 10 4 14l35 49q-86 107 -86 248zM293 303l287 414 q-25 61 -70 61q-77 0 -148 -147q-70 -145 -69 -322v-6zM311 180q29 -74 76 -74q88 0 152 146q66 150 65 321v21z" />
<glyph unicode="&#xf9;" horiz-adv-x="1024" d="M2 662q20 49 143 145q117 90 205 90q47 0 76 -29q31 -31 31 -84q0 -63 -21 -147l-47 -240q0 -4 -6 -32q-4 -14 -8 -50q-4 -29 -4 -32q0 -41 12 -64q10 -18 45 -18q51 0 131 170q78 166 107 301l43 211q40 12 110 12t119 -12l-121 -627q-4 -29 -4 -45q0 -49 21 -49 q28 0 79 43q53 45 68 63q6 0 20 -20q16 -23 17 -29q-18 -47 -144 -143q-121 -92 -204 -92q-45 0 -76 30.5t-31 83.5q0 25 17 127l1 4q1 4 1 7q0 8 2 16q4 16 4 20v7q-53 -111 -135 -201q-84 -94 -152 -94q-86 0 -129 61t-43 158q0 37 33 213l41 211q4 16 4 45q0 49 -21 49 q-31 0 -80 -43q-45 -39 -65 -64q-8 0 -23 21q-16 23 -16 27zM250 1176q0 29 33 59q31 29 79 29q14 0 25 -7q43 -39 125 -137q84 -100 84 -112q0 -6 -10 -27q-8 -16 -19 -16q-20 0 -92 34q-78 37 -149 88q-76 54 -76 89z" />
<glyph unicode="&#xfa;" horiz-adv-x="1024" d="M2 662q20 49 143 145q117 90 205 90q47 0 76 -29q31 -31 31 -84q0 -63 -21 -147l-47 -240q0 -4 -6 -32q-4 -14 -8 -50q-4 -29 -4 -32q0 -41 12 -64q10 -18 45 -18q51 0 131 170q78 166 107 301l43 211q40 12 110 12t119 -12l-121 -627q-4 -29 -4 -45q0 -49 21 -49 q28 0 79 43q53 45 68 63q6 0 20 -20q16 -23 17 -29q-18 -47 -144 -143q-121 -92 -204 -92q-45 0 -76 30.5t-31 83.5q0 25 17 127l1 4q1 4 1 7q0 8 2 16q4 16 4 20v7q-53 -111 -135 -201q-84 -94 -152 -94q-86 0 -129 61t-43 158q0 37 33 213l41 211q4 16 4 45q0 49 -21 49 q-31 0 -80 -43q-45 -39 -65 -64q-8 0 -23 21q-16 23 -16 27zM485 1008q0 12 84 112q82 98 125 137q10 6 27 7q47 0 78 -29q33 -31 32 -59q0 -37 -73 -89q-68 -47 -152 -88q-72 -35 -92 -34q-10 0 -18 16q-11 21 -11 27z" />
<glyph unicode="&#xfb;" horiz-adv-x="1024" d="M2 662q20 49 143 145q117 90 205 90q47 0 76 -29q31 -31 31 -84q0 -63 -21 -147l-47 -240q0 -4 -6 -32q-4 -14 -8 -50q-4 -29 -4 -32q0 -41 12 -64q10 -18 45 -18q51 0 131 170q78 166 107 301l43 211q40 12 110 12t119 -12l-121 -627q-4 -29 -4 -45q0 -49 21 -49 q28 0 79 43q53 45 68 63q6 0 20 -20q16 -23 17 -29q-18 -47 -144 -143q-121 -92 -204 -92q-45 0 -76 30.5t-31 83.5q0 25 17 127l1 4q1 4 1 7q0 8 2 16q4 16 4 20v7q-53 -111 -135 -201q-84 -94 -152 -94q-86 0 -129 61t-43 158q0 37 33 213l41 211q4 16 4 45q0 49 -21 49 q-31 0 -80 -43q-45 -39 -65 -64q-8 0 -23 21q-16 23 -16 27zM360 1067q37 31 152 156q66 74 94 112q14 20 31 21q4 0 6 -2l4 -4q2 -2 4 -6.5t2 -8.5q8 -12 19 -37q16 -41 30 -65q68 -127 97 -166q-10 -47 -27 -47q-14 0 -78 55q-66 57 -96 92q-41 -33 -135 -94 q-80 -53 -96.5 -53t-6.5 47z" />
<glyph unicode="&#xfc;" horiz-adv-x="1024" d="M2 662q20 49 143 145q117 90 205 90q47 0 76 -29q31 -31 31 -84q0 -63 -21 -147l-47 -240q0 -4 -6 -32q-4 -14 -8 -50q-4 -29 -4 -32q0 -41 12 -64q10 -18 45 -18q51 0 131 170q78 166 107 301l43 211q40 12 110 12t119 -12l-121 -627q-4 -29 -4 -45q0 -49 21 -49 q28 0 79 43q53 45 68 63q6 0 20 -20q16 -23 17 -29q-18 -47 -144 -143q-121 -92 -204 -92q-45 0 -76 30.5t-31 83.5q0 25 17 127l1 4q1 4 1 7q0 8 2 16q4 16 4 20v7q-53 -111 -135 -201q-84 -94 -152 -94q-86 0 -129 61t-43 158q0 37 33 213l41 211q4 16 4 45q0 49 -21 49 q-31 0 -80 -43q-45 -39 -65 -64q-8 0 -23 21q-16 23 -16 27zM225 1149q0 63 47 116.5t111 53.5q47 0 82 -37q33 -35 33 -90q0 -63 -47 -117q-45 -51 -109 -51q-51 0 -84 35t-33 90zM666 1147q0 63 47 117q45 51 108 51q51 0 84 -37q33 -35 33 -88q0 -66 -47 -119 q-45 -51 -109 -51q-49 0 -84 37q-32 35 -32 90z" />
<glyph unicode="&#xfd;" horiz-adv-x="1017" d="M-33 -330q0 51 37 90q90 -25 152 -24q66 0 114 18q55 20 72 35q14 12 43 49q43 55 43 178q0 109 -29 293q-27 166 -77 355q-16 57 -48 57q-28 0 -79 -43q-53 -45 -68 -64q-6 0 -21 21q-16 23 -16 27q20 49 143 145q117 90 205 90q25 0 45 -20q27 -27 41 -54 q20 -37 35 -84q20 -66 29 -100l12 -59t10 -52q12 -58 19 -110q2 -16 7 -51t7 -54q10 -84 10 -88q4 -35 6 -63l3 -31q35 41 102 182.5t67 233.5q0 61 -22 123q-25 70 -49 108q0 45 39 82q40 37 92 37q43 0 78 -31q33 -31 32 -78q0 -174 -63.5 -356t-165.5 -334 q-98 -147 -223 -274q-121 -125 -242 -191q-127 -70 -219 -69q-52 0 -86 24q-35 25 -35 82zM569 1008q0 12 84 112q82 98 125 137q8 6 27 7q47 0 78 -29q33 -31 32 -59q0 -37 -73 -89q-68 -47 -152 -88q-72 -35 -92 -34q-10 0 -18 16q-11 21 -11 27z" />
<glyph unicode="&#xfe;" horiz-adv-x="899" d="M-102 -438l12 67q18 0 61 19q45 20 52 33q29 74 38 149l240 1235q18 101 18 141q0 35 -81 35h-17q-8 0 -4 29q0 4 6 20q6 14 10 15q74 8 113 16q80 16 98 22l74 23q23 6 53 16l19 9h4q14 0 14 -39q-39 -100 -59 -215l-37.5 -190.5t-27 -129.5t-9.5 -45q-2 -4 2 -8t10 2 q31 27 88 57q59 31 103 31q147 0 225 -119t47 -276q-41 -213 -186 -338q-150 -127 -330 -127q-25 0 -45 6q-6 2 -18.5 4t-18.5 4l-16 6q-6 0 -12 -32l-25 -119q-25 -113 -20 -182q0 -16 34 -33q37 -18 52 -19q6 -2 0 -28q-8 -35 -11 -39q-39 6 -102 10q-83 6 -123 6 q-43 0 -125 -6q-71 -6 -106 -10zM371 225q-8 -51 6 -82q18 -39 90 -39q23 0 47 13q18 8 59 43q35 29 66 92q33 70 47 147q61 311 -102 312q-59 0 -96 -33t-52 -115z" />
<glyph unicode="&#xff;" horiz-adv-x="1017" d="M-33 -330q0 51 37 90q90 -25 152 -24q66 0 114 18q55 20 72 35q14 12 43 49q43 55 43 178q0 109 -29 293q-27 166 -77 355q-16 57 -48 57q-28 0 -79 -43q-53 -45 -68 -64q-6 0 -21 21q-16 23 -16 27q20 49 143 145q117 90 205 90q25 0 45 -20q27 -27 41 -54 q20 -37 35 -84q20 -66 29 -100l12 -59t10 -52q12 -58 19 -110q2 -16 7 -51t7 -54q10 -84 10 -88q4 -35 6 -63l3 -31q35 41 102 182.5t67 233.5q0 61 -22 123q-25 70 -49 108q0 45 39 82q40 37 92 37q43 0 78 -31q33 -31 32 -78q0 -174 -63.5 -356t-165.5 -334 q-98 -147 -223 -274q-121 -125 -242 -191q-127 -70 -219 -69q-52 0 -86 24q-35 25 -35 82zM313 1149q0 63 47.5 116.5t108.5 53.5q51 0 84 -37q33 -35 33 -90q0 -63 -47 -117q-45 -51 -109 -51q-51 0 -84 35t-33 90zM754 1147q0 63 47 117q45 51 108 51q49 0 84 -37 q33 -35 33 -88q0 -66 -47 -119q-45 -51 -109 -51q-51 0 -84 37q-32 35 -32 90z" />
<glyph unicode="&#x100;" horiz-adv-x="1267" d="M-68 8q0 51 11 51q18 0 86 29q66 29 84 53q4 8 15 25.5l28.5 46.5l33.5 55l543 903l3 5q3 4 8.5 13t9.5 17q18 31 28 45q6 12 29 37q29 33 31 35q12 10 24 10q18 0 25 -14l209 -1036q4 -18 14 -71.5t14 -80.5q6 -31 52 -51q43 -20 67 -21q4 0 4 -10q0 -41 -14 -57 q-2 0 -13.5 1l-35 3t-51.5 4q-96 6 -144 6q-53 0 -274 -14q-2 2 -2 14q0 53 14 53q16 0 53 19q33 16 50 33q10 16 10 26q0 18 -43 277q0 8 -13 8q-94 4 -182 4q-127 0 -170 -2q-2 0 -4 -1t-6 -2t-8 -1q-16 -4 -17 -6l-90 -152q-66 -100 -65.5 -133t51.5 -51q52 -18 80 -19 q4 0 4 -8q0 -35 -10 -59q-2 0 -88 8q-66 6 -113 6q-49 0 -129 -6l-107 -8q-2 2 -2 16zM492 555q0 -2 2 -2q55 -6 137 -6q55 0 133 4q8 0 8 8l-63 356l-217 -356v-4zM606 1462q-2 2 2 17q10 49 20.5 71.5t18.5 34.5q6 8 10 8h535q14 0 8 -18q-8 -37 -22 -74q-10 -27 -21 -37 l-6 -8h-537h-4q-2 0 -2 3z" />
<glyph unicode="&#x101;" horiz-adv-x="923" d="M14 281q0 100 49.5 210.5t131.5 198.5q86 92 202.5 149.5t247.5 57.5q66 0 115 -14q57 -16 74 -29l-117 -598q-4 -16 -4 -45q0 -49 20 -49q25 0 78 43q53 45 68 63q8 0 22 -20q16 -23 17 -29q-18 -47 -144 -143q-119 -92 -205 -92q-43 0 -75 28q-31 29 -31 80q0 4 1 13.5 t1 13.5q0 20 4 33q-94 -168 -219 -168q-111 0 -172 82q-64 86 -64 215zM260 248q0 -113 63.5 -113t129 141.5t96.5 298.5l35 181q-14 14 -56 14q-61 0 -112 -61q-52 -61 -86 -148q-31 -80 -51 -172q-19 -86 -19 -141zM344 1026q-4 4 0 16q8 41 23 72q12 28 18 37q4 6 10 6 h461q14 0 8 -18q-12 -61 -37 -103l-12 -16h-465h-2q-2 4 -4 6z" />
<glyph unicode="&#x102;" horiz-adv-x="1267" d="M-68 8q0 51 11 51q18 0 86 29q66 29 84 53q4 8 15 25.5l28.5 46.5l33.5 55l543 903l3 5q3 4 8.5 13t9.5 17q18 31 28 45q6 12 29 37q29 33 31 35q12 10 24 10q18 0 25 -14l209 -1036q4 -18 14 -71.5t14 -80.5q6 -31 52 -51q43 -20 67 -21q4 0 4 -10q0 -41 -14 -57 q-2 0 -13.5 1l-35 3t-51.5 4q-96 6 -144 6q-53 0 -274 -14q-2 2 -2 14q0 53 14 53q16 0 53 19q33 16 50 33q10 16 10 26q0 18 -43 277q0 8 -13 8q-94 4 -182 4q-127 0 -170 -2q-2 0 -4 -1t-6 -2t-8 -1q-16 -4 -17 -6l-90 -152q-66 -100 -65.5 -133t51.5 -51q52 -18 80 -19 q4 0 4 -8q0 -35 -10 -59q-2 0 -88 8q-66 6 -113 6q-49 0 -129 -6l-107 -8q-2 2 -2 16zM492 555q0 -2 2 -2q55 -6 137 -6q55 0 133 4q8 0 8 8l-63 356l-217 -356v-4zM717 1614q0 12 20.5 32.5t32.5 24.5q4 2 8 -4q15 -34 56 -61q41 -29 79.5 -29t90.5 29q55 31 79 61 q4 8 11 4q10 -4 22 -24q14 -23 10 -33l-2 -2q-2 -2 -2 -4l-4 -9q-106 -143 -227 -143q-55 0 -103 37q-45 37 -69 106q-2 3 -2 15z" />
<glyph unicode="&#x103;" horiz-adv-x="923" d="M14 281q0 100 49.5 210.5t131.5 198.5q86 92 202.5 149.5t247.5 57.5q66 0 115 -14q57 -16 74 -29l-117 -598q-4 -16 -4 -45q0 -49 20 -49q25 0 78 43q53 45 68 63q8 0 22 -20q16 -23 17 -29q-18 -47 -144 -143q-119 -92 -205 -92q-43 0 -75 28q-31 29 -31 80q0 4 1 13.5 t1 13.5q0 20 4 33q-94 -168 -219 -168q-111 0 -172 82q-64 86 -64 215zM260 248q0 -113 63.5 -113t129 141.5t96.5 298.5l35 181q-14 14 -56 14q-61 0 -112 -61q-52 -61 -86 -148q-31 -80 -51 -172q-19 -86 -19 -141zM430 1204v15q0 8 29 26q25 16 39 17q6 0 6 -7 q4 -53 43 -83.5t88 -30.5q45 0 90 30q49 33 72 84q2 6 8 7q12 0 31 -17q20 -18 18 -26q0 -2 -6 -15q-37 -82 -100.5 -133t-137 -51t-123.5 51q-51 55 -57 133z" />
<glyph unicode="&#x104;" horiz-adv-x="1353" d="M-14 8q0 51 10 51q18 0 86 29q66 29 84 53q4 6 78 127l544 903l4 5q3 4 8 13t9 17q23 37 29 45l26 37q16 25 31 35q12 10 25 10q18 0 24 -14l209 -1036q18 -106 29 -152q6 -29 53 -51q43 -20 68 -21q4 0 4 -10q0 -41 -15 -57q-2 0 -13 1l-34.5 3t-52.5 4q-94 6 -143 6 q-104 0 -198.5 -84t-94.5 -162q0 -18 14 -32q16 -16 41 -17q47 0 78 15q43 18 55 26q6 4 11.5 7t8.5 5l3 3q8 -2 2 -33t-13 -37q-43 -49 -112 -90q-66 -39 -125 -39q-45 0 -80 35t-35 86q0 76 70 159q74 90 211 222q31 31 30 67q0 18 -43 277q0 8 -12 8q-94 4 -182 4 q-145 0 -189 -2q-10 0 -16 -10l-88 -152q-68 -102 -68 -133q0 -33 52 -51t80 -19q4 0 4 -8q0 -35 -11 -59q-6 0 -17 1l-33.5 3l-43.5 4q-78 6 -125 6q-49 0 -129 -6l-106 -8q-2 2 -2 16zM563 555q0 -2 2 -2q55 -6 137 -6q55 0 134 4q8 0 8 8l-64 356l-217 -356v-4z" />
<glyph unicode="&#x105;" horiz-adv-x="978" d="M35 197q0 131 90 292.5t233 286.5q139 121 271 121q70 0 133 -14q68 -14 86 -29l-113 -596q-6 -31 -6 -43q0 -51 41 -51q14 0 39 29q18 20 43 57q18 29 20 29q8 0 33 -21q23 -20 29 -39q-31 -78 -160 -199q-27 -27 -53 -49q-43 -37 -57 -53l-39 -45q-27 -31 -35 -53 q-10 -31 -10 -56q0 -53 57 -53q45 0 76 15q43 18 55 26q6 4 11 7t8 5l4 3q8 -2 1.5 -33t-12.5 -37q-43 -49 -112 -90q-66 -39 -125 -39q-47 0 -80 33q-35 35 -35 86q0 121 164 303q-61 18 -92 106q-8 25 -8 47q0 4 -3 4l-4 -4q-57 -61 -67 -71q-27 -27 -82 -57.5t-107 -30.5 q-102 0 -149 55q-45 54 -45 158zM281 256q0 -121 47 -121q61 0 135 129q70 121 92 258l29 170q6 25 6 47q0 35 -39 35q-47 0 -111 -92q-61 -88 -112 -215q-47 -119 -47 -211z" />
<glyph unicode="&#x106;" horiz-adv-x="1173" d="M23 518q0 164 67 318q66 150 178 262q104 104 246 172q133 63 268 63q209 0 414 -57q0 -39 -8 -154q-8 -125 -12 -141q-2 -14 -21 -23q-16 -8 -35 -8q-4 0 -28 6q0 31 -9 58q-6 20 -32 69q-18 35 -56 68q-33 29 -92 51q-55 20 -133 21q-127 0 -233.5 -100.5t-166 -268.5 t-59.5 -360q0 -174 76 -289q74 -111 223 -111q82 0 166 19q78 16 127 53q37 27 66 67q31 43 45 72q14 31 16 31q51 0 57 -27q-10 -45 -34 -116q-31 -90 -45 -105q-115 -102 -412 -102q-260 0 -418 151q-155 150 -155 381zM741 1468q0 6 37 39q55 51 90 78q63 49 97 66 q27 14 63 14q53 0 94 -16q45 -18 45 -60q0 -35 -178 -96q-184 -63 -219 -63q-10 0 -20 14q-9 10 -9 24z" />
<glyph unicode="&#x107;" horiz-adv-x="741" d="M16 311q0 147 70 287q68 135 180.5 217t237.5 82q143 0 223 -88q14 -41 14 -68q0 -45 -26 -84q-25 -37 -68 -36q-34 0 -55 24q-20 23 -30.5 59.5t-29.5 57.5q-23 27 -51 26q-53 0 -102 -71q-49 -70 -80 -176q-31 -104 -31 -203q0 -203 129 -203q59 0 121 45q57 41 80 72 q8 0 23 -21q16 -23 16 -26q-23 -57 -129.5 -137t-200.5 -80q-147 0 -219 86q-72 87 -72 237zM428 1008q0 12 84 112q82 98 125 137q10 6 27 7q47 0 77 -29q33 -31 33 -59q0 -37 -74 -89q-68 -47 -151 -88q-72 -35 -92 -34q-10 0 -19 16q-10 21 -10 27z" />
<glyph unicode="&#x108;" horiz-adv-x="1173" d="M23 518q0 164 67 318q66 150 178 262q104 104 246 172q133 63 268 63q209 0 414 -57q0 -39 -8 -154q-8 -125 -12 -141q-2 -14 -21 -23q-16 -8 -35 -8q-4 0 -28 6q0 31 -9 58q-6 20 -32 69q-18 35 -56 68q-33 29 -92 51q-55 20 -133 21q-127 0 -233.5 -100.5t-166 -268.5 t-59.5 -360q0 -174 76 -289q74 -111 223 -111q82 0 166 19q78 16 127 53q37 27 66 67q31 43 45 72q14 31 16 31q51 0 57 -27q-10 -45 -34 -116q-31 -90 -45 -105q-115 -102 -412 -102q-260 0 -418 151q-155 150 -155 381zM569 1468q-3 12 0 25q53 31 185 131q66 51 110 96 q20 18 33 19q6 0 25 -19l26 -37q4 -6 18.5 -24.5l20.5 -26.5q82 -100 129 -139q-9 -37 -31 -37q-18 0 -96 45q-98 57 -127 78q-45 -25 -162 -78q-98 -45 -116 -45q-11 0 -15 12z" />
<glyph unicode="&#x109;" horiz-adv-x="741" d="M16 311q0 147 70 287q68 135 180.5 217t237.5 82q143 0 223 -88q14 -41 14 -68q0 -45 -26 -84q-25 -37 -68 -36q-34 0 -55 24q-20 23 -30.5 59.5t-29.5 57.5q-23 27 -51 26q-53 0 -102 -71q-49 -70 -80 -176q-31 -104 -31 -203q0 -203 129 -203q59 0 121 45q57 41 80 72 q8 0 23 -21q16 -23 16 -26q-23 -57 -129.5 -137t-200.5 -80q-147 0 -219 86q-72 87 -72 237zM315 1067q37 31 152 156q66 74 94 112q14 20 31 21q4 0 6 -2l4 -4q2 -2 4 -6.5t2 -8.5q8 -12 19 -37q16 -41 30 -65q68 -127 97 -166q-10 -47 -27 -47q-14 0 -78 55q-66 57 -96 92 q-41 -33 -135 -94q-80 -53 -96.5 -53t-6.5 47z" />
<glyph unicode="&#x10a;" horiz-adv-x="1173" d="M23 518q0 164 67 318q66 150 178 262q104 104 246 172q133 63 268 63q209 0 414 -57q0 -39 -8 -154q-8 -125 -12 -141q-2 -14 -21 -23q-16 -8 -35 -8q-4 0 -28 6q0 31 -9 58q-6 20 -32 69q-18 35 -56 68q-33 29 -92 51q-55 20 -133 21q-127 0 -233.5 -100.5t-166 -268.5 t-59.5 -360q0 -174 76 -289q74 -111 223 -111q82 0 166 19q78 16 127 53q37 27 66 67q31 43 45 72q14 31 16 31q51 0 57 -27q-10 -45 -34 -116q-31 -90 -45 -105q-115 -102 -412 -102q-260 0 -418 151q-155 150 -155 381zM698 1604q12 63 60 104q49 43 106.5 43t89.5 -43 q33 -41 21 -104q-12 -61 -61.5 -104.5t-106.5 -43.5q-59 0 -90 43.5t-19 104.5z" />
<glyph unicode="&#x10b;" horiz-adv-x="741" d="M16 311q0 147 70 287q68 135 180.5 217t237.5 82q143 0 223 -88q14 -41 14 -68q0 -45 -26 -84q-25 -37 -68 -36q-34 0 -55 24q-20 23 -30.5 59.5t-29.5 57.5q-23 27 -51 26q-53 0 -102 -71q-49 -70 -80 -176q-31 -104 -31 -203q0 -203 129 -203q59 0 121 45q57 41 80 72 q8 0 23 -21q16 -23 16 -26q-23 -57 -129.5 -137t-200.5 -80q-147 0 -219 86q-72 87 -72 237zM383 1229q12 59 61.5 102t104.5 43q59 0 90 -43q33 -45 20 -104q-12 -61 -61 -104.5t-104.5 -43.5t-90.5 45q-32 42 -20 105z" />
<glyph unicode="&#x10c;" horiz-adv-x="1173" d="M23 518q0 164 67 318q66 150 178 262q104 104 246 172q133 63 268 63q209 0 414 -57q0 -39 -8 -154q-8 -125 -12 -141q-2 -14 -21 -23q-16 -8 -35 -8q-4 0 -28 6q0 31 -9 58q-6 20 -32 69q-18 35 -56 68q-33 29 -92 51q-55 20 -133 21q-127 0 -233.5 -100.5t-166 -268.5 t-59.5 -360q0 -174 76 -289q74 -111 223 -111q82 0 166 19q78 16 127 53q37 27 66 67q31 43 45 72q14 31 16 31q51 0 57 -27q-10 -45 -34 -116q-31 -90 -45 -105q-115 -102 -412 -102q-260 0 -418 151q-155 150 -155 381zM612 1700q10 39 27 39q14 0 86 -47q80 -51 113 -78 l143 80q84 45 102 45q8 0 13 -15q3 -12 0 -24q-55 -37 -168 -139l-92 -86q-22 -18 -31 -19q-10 0 -21 19q-20 41 -61 94q-64 84 -111 131z" />
<glyph unicode="&#x10d;" horiz-adv-x="741" d="M16 311q0 147 70 287q68 135 180.5 217t237.5 82q143 0 223 -88q14 -41 14 -68q0 -45 -26 -84q-25 -37 -68 -36q-34 0 -55 24q-20 23 -30.5 59.5t-29.5 57.5q-23 27 -51 26q-53 0 -102 -71q-49 -70 -80 -176q-31 -104 -31 -203q0 -203 129 -203q59 0 121 45q57 41 80 72 q8 0 23 -21q16 -23 16 -26q-23 -57 -129.5 -137t-200.5 -80q-147 0 -219 86q-72 87 -72 237zM360 1311q8 45 27 45q14 0 78 -56q66 -57 96 -92q41 33 135 95q80 53 96.5 53t8.5 -45q-49 -45 -162 -166q-25 -27 -53.5 -61.5t-34.5 -43.5q-4 -4 -6 -8t-6 -8q-2 -2 -7 -2l-3 -1 q-3 -1 -5 -1q-12 0 -18 20q-18 53 -51 113q-48 90 -95 158z" />
<glyph unicode="&#x10e;" horiz-adv-x="1355" d="M-29 10q0 6 4.5 22.5t6.5 20.5q3 6 6 6q20 0 65 17q43 16 53 35q25 43 50 176l145 755q20 121 21 156q-2 14 -43 37q-39 20 -60 20q-4 0 -4 15q0 39 14 53q92 -4 263 -4h323q133 0 240 -41q96 -37 166 -113q66 -72 96.5 -162t30.5 -194q0 -111 -35 -227.5t-103 -221.5 q-63 -98 -161 -186q-90 -82 -222 -131q-129 -49 -272 -49q-35 0 -154 6q-80 4 -188 4q-68 0 -141.5 -6t-96.5 -6q-4 4 -4 18zM401 131q33 -25 207 -25q156 0 269 144q115 145 170 430q23 109 16 199q-6 98 -33 168q-28 74 -86 116q-59 43 -139 43q-164 0 -193 -32 q-35 -41 -49 -125l-149 -777q-25 -133 -13 -141zM588 1700q10 39 26 39q14 0 86 -47q80 -51 113 -78q45 27 145 80q84 45 103 45q8 0 12 -15q2 -8 -2 -24q-55 -37 -168 -139l-92 -86q-22 -18 -31 -19q-10 0 -20 19q-20 41 -62 94q-63 84 -110 131z" />
<glyph unicode="&#x10f;" horiz-adv-x="929" d="M10 281q0 96 45 204q43 104 119 193q74 86 188 149q104 57 234 68q2 0 4 1t4 1l39 184q18 106 19 125q0 43 -99 43q-6 0 -6 17q0 29 18 47q45 0 164 28q114 28 166 50q20 -8 21 -45q0 -2 -8 -48q-2 -12 -17 -73q-4 -14 -7 -32.5t-3 -21.5l-178 -915q-4 -16 -4 -45 q0 -49 20 -49q29 0 78 43q53 45 67 63q8 0 23 -20q16 -23 16 -29q-18 -47 -143 -143q-119 -92 -205 -92q-43 0 -76 28q-31 29 -30 80q0 6 1 16.5t1 14.5q0 16 4 29q-94 -168 -219 -168q-111 0 -172 82q-64 86 -64 215zM256 248q0 -113 63 -113q66 0 127 135q63 139 97 305 l28 146q6 25 -10 37t-37 12q-61 0 -112 -61q-52 -61 -86 -148q-27 -70 -50 -172q-20 -96 -20 -141zM1042 981q0 2 31 27q23 18 60 65q31 40 30 74q0 20 -20 49q-23 33 -23 64q0 131 189 131q6 -18 6 -56q0 -53 -8 -88q-18 -92 -86 -180q-70 -92 -138 -131h-4q-10 0 -22 16 q-15 19 -15 29z" />
<glyph unicode="&#x110;" horiz-adv-x="1376" d="M-16 27q8 37 16 36q25 0 66 15q47 16 55 31q18 43 41 161l55 287h-113l-6 21q27 94 35 114q6 10 17 10h96l65 340q23 131 21 156q-4 16 -41 37q-39 20 -58 20q-3 0 0 31q2 29 15 41q115 -8 254 -8h323q127 0 226 -37q102 -39 159 -98q59 -61 101 -148q41 -84 43 -174 q3 -92 -13 -190q-55 -287 -266 -484q-211 -195 -510 -194q-33 0 -141 6q-72 4 -174 4l-264 -12q-6 12 -2 35zM412 131q35 -25 206 -25q158 0 271 144q117 150 172 430q43 217 -21 373q-61 154 -223 153h-6q-160 0 -188 -32q-35 -37 -50 -125l-67 -347h262q14 0 12 -14 q-14 -53 -43 -119q-6 -12 -14 -12h-246l-53 -285q-24 -133 -12 -141z" />
<glyph unicode="&#x111;" horiz-adv-x="1052" d="M35 215q0 147 76 301q77 157 208 264q133 109 269 111q41 0 86 -23q4 -4 8 -4t4 8l23 107q0 8 -7 8h-200l-6 21q0 6 2 14l4 25l8 32q8 25 14 35q4 10 15 10h190q6 0 6 11q10 51 10 71q0 43 -98 43q-6 0 -6 17q0 10 8 30q6 16 10 17q49 0 183 30q123 29 164 48h10 q4 0 12 -15q6 -12 6 -20q-35 -72 -57 -189q-6 -25 -6 -32q0 -10 6 -11h119q12 0 10 -14q0 -10 -2 -25q-4 -29 -8 -43q-8 -29 -15 -43q-2 -4 -6 -8t-6 -4h-2h-119q-8 0 -10 -8l-141 -721q-6 -31 -6 -43q0 -51 38 -51q14 0 39 29q18 20 43 57q18 29 21 29q10 0 35 -21 q20 -18 26 -39q-31 -74 -106.5 -155.5t-184.5 -81.5q-94 0 -137 114q-8 25 -8 35q0 8 -2 8l-4 -8q-27 -33 -127 -92q-95 -55 -172 -55q-96 0 -158 63q-59 62 -59 168zM307 252q0 -115 49 -115q78 0 154 119q70 111 102 238l25 88q10 37 10 80q0 121 -80 120q-53 0 -114 -80 q-68 -88 -105 -204q-41 -129 -41 -246z" />
<glyph unicode="&#x112;" horiz-adv-x="1083" d="M-29 10q0 6 4.5 22.5t6.5 20.5q3 6 6 6q20 0 65 17q43 16 53 35q25 43 50 176l145 755q20 121 21 156q-2 14 -43 37q-39 20 -60 20q-4 0 -4 15q0 39 14 53q106 -4 263 -4q43 0 301 4t301 4q-4 -82 -4 -180v-115q-10 -10 -43 -10q-23 0 -25 14q-20 74 -86 129 q-63 55 -137 56h-72q-55 0 -92 -4q-27 -2 -33 -23q-27 -68 -41 -156l-59 -309q0 -6 20 -8q14 -2 58 -2h157q47 0 62 16q16 20 55 107q6 14 33 14q31 0 37 -10l-72 -377q-8 -8 -41 -8q-25 0 -27 14q-2 90 -22 109q-25 25 -150 24q-137 0 -139 -18l-57 -307q-16 -86 -17 -119 q0 -35 20.5 -45t102.5 -10h47q119 0 222 51q37 20 83 67q49 49 84 113q6 12 27 12q46 0 55 -12l-43 -84q-18 -37 -32.5 -60.5t-20.5 -37.5q-16 -29 -39 -82q-29 -63 -33 -80q-27 0 -342 4t-317 4q-68 0 -141.5 -6t-96.5 -6q-4 4 -4 18zM406 1462q-4 4 0 17q8 41 22 71 q10 23 18 35q6 8 11 8h532q14 0 8 -18q-8 -37 -22 -74q-12 -31 -19 -37l-8 -8h-536h-2q-2 0 -3 3z" />
<glyph unicode="&#x113;" horiz-adv-x="784" d="M16 313q0 141 70 281q70 137 180 219q115 84 236 84q106 0 180 -49q76 -51 76 -135q0 -74 -59.5 -145.5t-141.5 -114.5q-83 -43 -160 -68q-84 -27 -121 -27q-8 0 -8 -20q0 -115 35 -160q33 -43 94 -43q59 0 121 45q57 41 80 72q8 0 23 -21q16 -23 16 -26 q-23 -57 -129.5 -137t-200.5 -80q-143 0 -217 85.5t-74 239.5zM238 1026q-2 2 2 16q10 49 20 72q12 28 19 37q4 6 10 6h463q14 0 8 -18q-10 -57 -39 -103l-12 -16h-463h-4q-2 4 -4 6zM291 467q0 -8 8 -8q94 0 161.5 86t67.5 168q0 78 -47 78q-49 0 -121 -109 q-69 -106 -69 -215z" />
<glyph unicode="&#x114;" horiz-adv-x="1083" d="M-29 10q0 6 4.5 22.5t6.5 20.5q3 6 6 6q20 0 65 17q43 16 53 35q25 43 50 176l145 755q20 121 21 156q-2 14 -43 37q-39 20 -60 20q-4 0 -4 15q0 39 14 53q106 -4 263 -4q43 0 301 4t301 4q-4 -82 -4 -180v-115q-10 -10 -43 -10q-23 0 -25 14q-20 74 -86 129 q-63 55 -137 56h-72q-55 0 -92 -4q-27 -2 -33 -23q-27 -68 -41 -156l-59 -309q0 -6 20 -8q14 -2 58 -2h157q47 0 62 16q16 20 55 107q6 14 33 14q31 0 37 -10l-72 -377q-8 -8 -41 -8q-25 0 -27 14q-2 90 -22 109q-25 25 -150 24q-137 0 -139 -18l-57 -307q-16 -86 -17 -119 q0 -35 20.5 -45t102.5 -10h47q119 0 222 51q37 20 83 67q49 49 84 113q6 12 27 12q46 0 55 -12l-43 -84q-18 -37 -32.5 -60.5t-20.5 -37.5q-16 -29 -39 -82q-29 -63 -33 -80q-27 0 -342 4t-317 4q-68 0 -141.5 -6t-96.5 -6q-4 4 -4 18zM520 1614q0 10 23 33q22 22 30 24 q4 2 9 -4q14 -31 57 -61q41 -29 80 -29t90 29q55 31 80 61q4 6 8 4q10 -4 23 -24q14 -23 10 -33l-2 -2q-2 -2 -2 -4l-4 -9q-106 -143 -228 -143q-55 0 -102 37q-45 37 -70 106q-2 3 -2 15z" />
<glyph unicode="&#x115;" horiz-adv-x="784" d="M16 313q0 141 70 281q70 137 180 219q115 84 236 84q106 0 180 -49q76 -51 76 -135q0 -74 -59.5 -145.5t-141.5 -114.5q-83 -43 -160 -68q-84 -27 -121 -27q-8 0 -8 -20q0 -115 35 -160q33 -43 94 -43q59 0 121 45q57 41 80 72q8 0 23 -21q16 -23 16 -26 q-23 -57 -129.5 -137t-200.5 -80q-143 0 -217 85.5t-74 239.5zM291 467q0 -8 8 -8q94 0 161.5 86t67.5 168q0 78 -47 78q-49 0 -121 -109q-69 -106 -69 -215zM297 1204v15q0 8 29 26q25 16 36 17q6 0 7 -7q2 -51 45 -84q41 -31 88 -30q43 0 90 30q49 33 72 84q4 6 8 7 q10 0 28 -17q20 -18 19 -26q0 -2 -6 -15q-37 -82 -100.5 -133t-135.5 -51q-76 0 -125 51t-55 133z" />
<glyph unicode="&#x116;" horiz-adv-x="1083" d="M-29 10q0 6 4.5 22.5t6.5 20.5q3 6 6 6q20 0 65 17q43 16 53 35q25 43 50 176l145 755q20 121 21 156q-2 14 -43 37q-39 20 -60 20q-4 0 -4 15q0 39 14 53q106 -4 263 -4q43 0 301 4t301 4q-4 -82 -4 -180v-115q-10 -10 -43 -10q-23 0 -25 14q-20 74 -86 129 q-63 55 -137 56h-72q-55 0 -92 -4q-27 -2 -33 -23q-27 -68 -41 -156l-59 -309q0 -6 20 -8q14 -2 58 -2h157q47 0 62 16q16 20 55 107q6 14 33 14q31 0 37 -10l-72 -377q-8 -8 -41 -8q-25 0 -27 14q-2 90 -22 109q-25 25 -150 24q-137 0 -139 -18l-57 -307q-16 -86 -17 -119 q0 -35 20.5 -45t102.5 -10h47q119 0 222 51q37 20 83 67q49 49 84 113q6 12 27 12q46 0 55 -12l-43 -84q-18 -37 -32.5 -60.5t-20.5 -37.5q-16 -29 -39 -82q-29 -63 -33 -80q-27 0 -342 4t-317 4q-68 0 -141.5 -6t-96.5 -6q-4 4 -4 18zM618 1604q12 63 60 104q49 43 106 43 q55 0 90 -43q33 -41 21 -104q-12 -59 -64 -105q-49 -43 -106 -43t-88 43.5t-19 104.5z" />
<glyph unicode="&#x117;" horiz-adv-x="784" d="M16 313q0 141 70 281q70 137 180 219q115 84 236 84q106 0 180 -49q76 -51 76 -135q0 -74 -59.5 -145.5t-141.5 -114.5q-83 -43 -160 -68q-84 -27 -121 -27q-8 0 -8 -20q0 -115 35 -160q33 -43 94 -43q59 0 121 45q57 41 80 72q8 0 23 -21q16 -23 16 -26 q-23 -57 -129.5 -137t-200.5 -80q-143 0 -217 85.5t-74 239.5zM291 467q0 -8 8 -8q94 0 161.5 86t67.5 168q0 78 -47 78q-49 0 -121 -109q-69 -106 -69 -215zM383 1229q12 59 61.5 102t104.5 43q59 0 90 -43q33 -45 20 -104q-12 -61 -61 -104.5t-104.5 -43.5t-90.5 45 q-32 42 -20 105z" />
<glyph unicode="&#x118;" horiz-adv-x="1155" d="M-14 10q0 8 4 25q3 12 6 18t6 6q18 0 64 17q47 16 55 35q25 43 49 176l145 755q23 135 21 156q-4 16 -41 37q-39 20 -62 20q-4 0 -4 15q0 39 15 53q106 -4 262 -4q172 0 301 4t301 4q-4 -82 -4 -180v-115q-10 -10 -43 -10q-23 0 -25 14q-20 70 -88 129q-63 55 -137 56 h-70q-115 0 -125 -27q-27 -68 -41 -156l-59 -309l6 -4q2 -2 8.5 -3t10.5 -1q8 -2 24 -2h29h158q45 0 59 16q20 25 57 107q6 14 31 14q33 0 39 -10l-72 -377q-8 -8 -43 -8q-23 0 -24 14q-4 90 -23 109q-25 25 -149 24q-135 0 -140 -18l-57 -307q-16 -86 -16 -119 q0 -37 18 -45q20 -10 105 -10h47q119 0 221 51q37 20 84 67q49 49 84 113q6 12 26 12q46 0 56 -12q-143 -279 -168 -344q-109 0 -199 -78t-90 -158q0 -18 14 -32q16 -16 41 -17q47 0 78 15q43 18 55 26q6 4 11.5 7t8.5 5l3 3q8 -2 2 -33t-12 -37q-43 -49 -113 -90 q-66 -39 -127 -39q-45 0 -80 35q-33 33 -33 86q0 74 80 172q82 102 148 137q-92 0 -207 2q-229 4 -240 4q-68 0 -141.5 -6t-95.5 -6q-4 4 -4 18z" />
<glyph unicode="&#x119;" horiz-adv-x="794" d="M45 340q0 242 151.5 399.5t335.5 157.5q96 0 162 -51q68 -51 68 -137q0 -98 -96 -185q-92 -84 -201 -125q-106 -41 -166 -41q-8 0 -8 -20q0 -117 49 -168q49 -53 109 -53q37 0 75 33q45 39 68 65q27 33 33 33q9 0 24 -19q14 -16 15 -32q0 -14 -50 -70q-47 -53 -102 -90 q-82 -59 -143 -129q-66 -76 -66 -144q0 -53 57 -53q45 0 76 15q43 18 56 26q6 4 11 7t8 5l3 3q8 -2 2 -33t-12 -37q-43 -49 -113 -90q-66 -39 -125 -39q-47 0 -80 33q-35 35 -34 86q0 63 55 149q59 92 125 150q-135 8 -209 110q-78 107 -78 244zM299 471q0 -6 8 -6 q98 0 162 82q66 84 66 166q0 76 -50 75q-57 0 -135 -145q-16 -33 -33 -88q-18 -61 -18 -84z" />
<glyph unicode="&#x11a;" horiz-adv-x="1083" d="M-29 10q0 6 4.5 22.5t6.5 20.5q3 6 6 6q20 0 65 17q43 16 53 35q25 43 50 176l145 755q20 121 21 156q-2 14 -43 37q-39 20 -60 20q-4 0 -4 15q0 39 14 53q106 -4 263 -4q43 0 301 4t301 4q-4 -82 -4 -180v-115q-10 -10 -43 -10q-23 0 -25 14q-20 74 -86 129 q-63 55 -137 56h-72q-55 0 -92 -4q-27 -2 -33 -23q-27 -68 -41 -156l-59 -309q0 -6 20 -8q14 -2 58 -2h157q47 0 62 16q16 20 55 107q6 14 33 14q31 0 37 -10l-72 -377q-8 -8 -41 -8q-25 0 -27 14q-2 90 -22 109q-25 25 -150 24q-137 0 -139 -18l-57 -307q-16 -86 -17 -119 q0 -35 20.5 -45t102.5 -10h47q119 0 222 51q37 20 83 67q49 49 84 113q6 12 27 12q46 0 55 -12l-43 -84q-18 -37 -32.5 -60.5t-20.5 -37.5q-16 -29 -39 -82q-29 -63 -33 -80q-27 0 -342 4t-317 4q-68 0 -141.5 -6t-96.5 -6q-4 4 -4 18zM524 1700q10 39 27 39q14 0 86 -47 q80 -51 113 -78q45 27 145 80q84 45 100 45q10 0 15 -15q2 -8 -2 -24q-55 -37 -168 -139l-92 -86q-22 -18 -31 -19q-12 0 -21 19q-20 41 -61 94q-64 84 -111 131z" />
<glyph unicode="&#x11b;" horiz-adv-x="784" d="M16 313q0 141 70 281q70 137 180 219q115 84 236 84q106 0 180 -49q76 -51 76 -135q0 -74 -59.5 -145.5t-141.5 -114.5q-83 -43 -160 -68q-84 -27 -121 -27q-8 0 -8 -20q0 -115 35 -160q33 -43 94 -43q59 0 121 45q57 41 80 72q8 0 23 -21q16 -23 16 -26 q-23 -57 -129.5 -137t-200.5 -80q-143 0 -217 85.5t-74 239.5zM291 467q0 -8 8 -8q94 0 161.5 86t67.5 168q0 78 -47 78q-49 0 -121 -109q-69 -106 -69 -215zM319 1311q8 45 25 45q12 0 78 -56q66 -57 96 -92q41 33 135 95q80 53 99 53q16 0 8 -45q-49 -45 -162 -166 q-25 -27 -53.5 -61.5t-34.5 -43.5l-8 -8q-2 -4 -6 -8q-2 -2 -4 -2l-4 -1q-3 -1 -5 -1q-14 0 -20 20q-23 63 -49 113q-48 90 -95 158z" />
<glyph unicode="&#x11c;" horiz-adv-x="1230" d="M23 508q0 169 67 326q66 154 180 264q113 109 244 172q133 63 268 63q209 0 414 -57q0 -43 -8 -156q-8 -123 -12 -139q-6 -31 -58 -31q-8 0 -26 6q0 31 -9 58q-6 20 -32 69q-18 35 -56 68q-33 29 -92 51q-55 20 -133 21q-111 0 -205 -72q-92 -70 -145 -184 q-55 -117 -82 -236q-29 -127 -29 -237q0 -172 78 -287q76 -113 236 -113q82 0 172 23l53 260q12 57 12 100q0 29 -57 43q-55 14 -84 15q-4 0 -4 14q0 45 12 53q283 -12 301 -12q35 0 262 12q0 -68 -12 -67.5t-55 -12.5q-47 -14 -62 -20q-33 -20 -41 -56l-49 -223 q-10 -41 -10 -80q0 -14 -27 -37q-33 -29 -53 -38q-172 -84 -383 -84q-258 0 -416 149q-159 151 -159 375zM539 1468q-2 8 2 25q53 31 184 131q57 45 109 96q23 18 32 19q8 0 27 -19q2 -2 7 -11t18 -26l40 -51q86 -106 127 -139q-8 -37 -28.5 -37t-98.5 45q-98 57 -127 78 q-45 -25 -161 -78q-98 -45 -115 -45q-14 0 -16 12z" />
<glyph unicode="&#x11d;" horiz-adv-x="929" d="M-33 -229q0 39 25 69q29 35 61 54q35 18 74 32q23 8 72 21q-45 16 -66 30q-49 37 -49 86q0 39 70 84q59 39 163 84q-172 47 -172 263q0 160 125 282q123 121 293 121q55 0 123 -26.5t143 -26.5h107q18 0 18 -27q0 -41 -20 -76h-103q-12 0 -12 -12l1 -4q1 -4 2 -13.5 t1 -19.5q4 -49 4 -67q0 -213 -188 -336q-43 -27 -115 -56q-92 -37 -125 -53q-49 -25 -49 -49q0 -8 68 -25l151 -30q82 -14 150 -62q70 -47 69 -110q0 -51 -24 -107q-20 -45 -80 -108q-55 -57 -152 -90q-104 -35 -233 -35q-139 0 -235.5 59.5t-96.5 147.5zM168 -199 q0 -61 45 -100t152 -39q115 0 157 41q47 43 47 102q0 35 -100 66q-96 29 -184 39q-117 -33 -117 -109zM358 1067q37 31 152 156q66 74 94 112q14 20 31 21q4 0 6 -2l4 -4q0 -2 2 -7l4 -8q8 -12 19 -37q16 -41 30 -65q68 -127 97 -166q-10 -47 -27 -47q-12 0 -78 55 q-66 57 -96 92q-41 -33 -135 -94q-80 -53 -96.5 -53t-6.5 47zM375 434q0 -102 76 -102q41 0 69 35q33 39 47 90q16 61 23 106q6 52 6 99q0 49 -21 83q-18 31 -55 31q-49 0 -82 -57q-34 -58 -49 -135q-14 -72 -14 -150z" />
<glyph unicode="&#x11e;" horiz-adv-x="1230" d="M23 508q0 169 67 326q66 154 180 264q113 109 244 172q133 63 268 63q209 0 414 -57q0 -43 -8 -156q-8 -123 -12 -139q-6 -31 -58 -31q-8 0 -26 6q0 31 -9 58q-6 20 -32 69q-18 35 -56 68q-33 29 -92 51q-55 20 -133 21q-111 0 -205 -72q-92 -70 -145 -184 q-55 -117 -82 -236q-29 -127 -29 -237q0 -172 78 -287q76 -113 236 -113q82 0 172 23l53 260q12 57 12 100q0 29 -57 43q-55 14 -84 15q-4 0 -4 14q0 45 12 53q283 -12 301 -12q35 0 262 12q0 -68 -12 -67.5t-55 -12.5q-47 -14 -62 -20q-33 -20 -41 -56l-49 -223 q-10 -41 -10 -80q0 -14 -27 -37q-33 -29 -53 -38q-172 -84 -383 -84q-258 0 -416 149q-159 151 -159 375zM612 1614q0 10 23 33q22 22 31 24q4 2 8 -4q15 -34 55 -61q41 -29 80 -29t90 29q53 31 82 61q4 6 8 4q10 -4 23 -24q14 -23 10 -33l-1 -2q-1 -2 -3 -4l-4 -9 q-106 -143 -228 -143q-57 0 -102 37t-70 106q-2 3 -2 15z" />
<glyph unicode="&#x11f;" horiz-adv-x="929" d="M-33 -229q0 39 25 69q29 35 61 54q35 18 74 32q23 8 72 21q-45 16 -66 30q-49 37 -49 86q0 39 70 84q59 39 163 84q-172 47 -172 263q0 160 125 282q123 121 293 121q55 0 123 -26.5t143 -26.5h107q18 0 18 -27q0 -41 -20 -76h-103q-12 0 -12 -12l1 -4q1 -4 2 -13.5 t1 -19.5q4 -49 4 -67q0 -213 -188 -336q-43 -27 -115 -56q-92 -37 -125 -53q-49 -25 -49 -49q0 -8 68 -25l151 -30q82 -14 150 -62q70 -47 69 -110q0 -51 -24 -107q-20 -45 -80 -108q-55 -57 -152 -90q-104 -35 -233 -35q-139 0 -235.5 59.5t-96.5 147.5zM168 -199 q0 -61 45 -100t152 -39q115 0 157 41q47 43 47 102q0 35 -100 66q-96 29 -184 39q-117 -33 -117 -109zM375 434q0 -102 76 -102q41 0 69 35q33 39 47 90q16 61 23 106q6 52 6 99q0 49 -21 83q-18 31 -55 31q-49 0 -82 -57q-34 -58 -49 -135q-14 -72 -14 -150zM395 1204v15 q0 8 29 26q25 16 39 17q6 0 6 -7q4 -53 43 -84q41 -31 88 -30q43 0 90 30q49 33 72 84q4 6 8 7q12 0 29 -17q18 -18 18 -26q0 -2 -6 -15q-37 -82 -100.5 -133t-135.5 -51q-74 0 -122 51q-52 55 -58 133z" />
<glyph unicode="&#x120;" horiz-adv-x="1230" d="M23 508q0 169 67 326q66 154 180 264q113 109 244 172q133 63 268 63q209 0 414 -57q0 -43 -8 -156q-8 -123 -12 -139q-6 -31 -58 -31q-8 0 -26 6q0 31 -9 58q-6 20 -32 69q-18 35 -56 68q-33 29 -92 51q-55 20 -133 21q-111 0 -205 -72q-92 -70 -145 -184 q-55 -117 -82 -236q-29 -127 -29 -237q0 -172 78 -287q76 -113 236 -113q82 0 172 23l53 260q12 57 12 100q0 29 -57 43q-55 14 -84 15q-4 0 -4 14q0 45 12 53q283 -12 301 -12q35 0 262 12q0 -68 -12 -67.5t-55 -12.5q-47 -14 -62 -20q-33 -20 -41 -56l-49 -223 q-10 -41 -10 -80q0 -14 -27 -37q-33 -29 -53 -38q-172 -84 -383 -84q-258 0 -416 149q-159 151 -159 375zM696 1604q12 63 60 104q49 43 106 43q55 0 90 -43q33 -41 21 -104q-12 -61 -61.5 -104.5t-106.5 -43.5q-59 0 -90 43.5t-19 104.5z" />
<glyph unicode="&#x121;" horiz-adv-x="929" d="M-33 -229q0 39 25 69q29 35 61 54q35 18 74 32q23 8 72 21q-45 16 -66 30q-49 37 -49 86q0 39 70 84q59 39 163 84q-172 47 -172 263q0 160 125 282q123 121 293 121q55 0 123 -26.5t143 -26.5h107q18 0 18 -27q0 -41 -20 -76h-103q-12 0 -12 -12l1 -4q1 -4 2 -13.5 t1 -19.5q4 -49 4 -67q0 -213 -188 -336q-43 -27 -115 -56q-92 -37 -125 -53q-49 -25 -49 -49q0 -8 68 -25l151 -30q82 -14 150 -62q70 -47 69 -110q0 -51 -24 -107q-20 -45 -80 -108q-55 -57 -152 -90q-104 -35 -233 -35q-139 0 -235.5 59.5t-96.5 147.5zM168 -199 q0 -61 45 -100t152 -39q115 0 157 41q47 43 47 102q0 35 -100 66q-96 29 -184 39q-117 -33 -117 -109zM375 434q0 -102 76 -102q41 0 69 35q33 39 47 90q16 61 23 106q6 52 6 99q0 49 -21 83q-18 31 -55 31q-49 0 -82 -57q-34 -58 -49 -135q-14 -72 -14 -150zM477 1228.5 q12 59.5 61.5 102.5t104.5 43q57 0 90 -43q33 -41 20.5 -104.5t-59.5 -104.5q-49 -43 -106.5 -43t-90 45t-20.5 104.5z" />
<glyph unicode="&#x122;" horiz-adv-x="1230" d="M23 508q0 169 67 326q66 154 180 264q113 109 244 172q133 63 268 63q209 0 414 -57q0 -43 -8 -156q-8 -123 -12 -139q-6 -31 -58 -31q-8 0 -26 6q0 31 -9 58q-6 20 -32 69q-18 35 -56 68q-33 29 -92 51q-55 20 -133 21q-111 0 -205 -72q-92 -70 -145 -184 q-55 -117 -82 -236q-29 -127 -29 -237q0 -172 78 -287q76 -113 236 -113q82 0 172 23l53 260q12 57 12 100q0 29 -57 43q-55 14 -84 15q-4 0 -4 14q0 45 12 53q283 -12 301 -12q35 0 262 12q0 -68 -12 -67.5t-55 -12.5q-47 -14 -62 -20q-33 -20 -41 -56l-49 -223 q-10 -41 -10 -80q0 -14 -27 -37q-33 -29 -53 -38q-172 -84 -383 -84q-258 0 -416 149q-159 151 -159 375zM332 -408l28 17q25 12 58 43q29 25 28 47q0 20 -28 45q-31 27 -31 53q0 47 72 70q68 20 157 20q23 -23 23 -94q0 -66 -92 -139q-94 -76 -166 -90h-6q-12 0 -29 10 q-14 8 -14 18z" />
<glyph unicode="&#x123;" horiz-adv-x="929" d="M-33 -229q0 39 25 69q29 35 61 54q35 18 74 32q23 8 72 21q-45 16 -66 30q-49 37 -49 86q0 39 70 84q59 39 163 84q-172 47 -172 263q0 160 125 282q123 121 293 121q55 0 123 -26.5t143 -26.5h107q18 0 18 -27q0 -41 -20 -76h-103q-12 0 -12 -12l1 -4q1 -4 2 -13.5 t1 -19.5q4 -49 4 -67q0 -213 -188 -336q-43 -27 -115 -56q-92 -37 -125 -53q-49 -25 -49 -49q0 -8 68 -25l151 -30q82 -14 150 -62q70 -47 69 -110q0 -51 -24 -107q-20 -45 -80 -108q-55 -57 -152 -90q-104 -35 -233 -35q-139 0 -235.5 59.5t-96.5 147.5zM168 -199 q0 -61 45 -100t152 -39q115 0 157 41q47 43 47 102q0 35 -100 66q-96 29 -184 39q-117 -33 -117 -109zM375 434q0 -102 76 -102q41 0 69 35q33 39 47 90q16 61 23 106q6 52 6 99q0 49 -21 83q-18 31 -55 31q-49 0 -82 -57q-34 -58 -49 -135q-14 -72 -14 -150zM492 1120 q0 68 92 142q90 72 168 88h6q12 0 26 -9q16 -10 17 -18q-10 -8 -29 -18q-31 -16 -57 -41q-29 -25 -29 -47.5t28.5 -47t28.5 -53.5q0 -49 -69 -69q-68 -20 -158 -21q-24 24 -24 94z" />
<glyph unicode="&#x124;" horiz-adv-x="1427" d="M-29 4q0 6 3 17.5t3 17.5q2 20 7 20q16 0 65 15q41 12 53 30q31 52 50 166l149 777q18 96 18 145q0 33 -36 47q-39 16 -60 16q-2 0 -2 9q0 47 12 59q12 0 78 -4q16 0 45 -1t43 -3q27 -2 78 -2q76 0 264 10v-8q0 -23 -4 -37q-6 -23 -12 -23q-12 0 -61 -16q-46 -15 -56 -31 t-28 -84q-16 -57 -21 -86l-53 -282v-4q0 -4 2 -4l3 -2q5 -1 7 -3q6 -2 23 -2q4 0 18 -1t23 -1h61q10 0 39 -1t47 -1q221 0 225 13l56 297q18 108 18 153q0 55 -96 55q-4 0 -4 13q0 39 16 55q211 -10 264.5 -10t241.5 10v-10q0 -18 -4 -35q-4 -14 -8 -18.5t-6 -4.5 q-10 0 -60 -16q-43 -14 -53 -31q-27 -53 -49 -170l-148 -759q-23 -119 -22 -160q0 -23 41 -41q39 -18 57 -19q4 0 4 -10q0 -31 -16 -57l-11 1q-11 1 -36 3t-54 4q-94 6 -145 6t-143 -6q-25 -2 -52.5 -4l-42 -3t-20.5 -1q-2 2 -2 12q0 6 4 35q2 20 6 20q25 0 66 15 q43 16 55 32q20 33 47 164l68 338v2q0 12 -219 13q-225 0 -230 -17l-63 -327q-20 -100 -21 -160q0 -23 41 -41.5t55 -18.5q4 0 5 -10q0 -37 -15 -57q-8 0 -33.5 3t-42.5 3q-35 2 -96 6q-31 2 -82 2q-49 0 -139 -6q-23 -2 -50.5 -4l-41.5 -3t-21 -1q-2 2 -2 12zM571 1468 q-3 12 0 25q53 31 185 131q66 51 110 96q23 18 31 18.5t27 -18.5l26 -37q4 -6 18.5 -24.5l20.5 -26.5q82 -100 129 -139q-9 -37 -31 -37q-18 0 -96 45q-98 57 -127 78q-25 -14 -162 -78q-96 -45 -116 -45q-13 0 -15 12z" />
<glyph unicode="&#x125;" horiz-adv-x="937" d="M-6 0q229 1184 229 1206q0 43 -96 43q-6 0 -6 17q0 31 16 47q45 0 164 28.5t168 49.5q18 -8 18 -45q0 -10 -6 -48l-16 -77q-4 -14 -7 -33t-3 -21l-109 -559q55 111 135 197q86 92 154 92q86 0 129 -61.5t43 -155.5q0 -37 -33 -213l-41 -211q-4 -16 -4 -45q0 -49 21 -49 q31 0 79 43q53 45 68 63q6 0 21 -20q16 -23 16 -29q-18 -47 -143 -143q-119 -92 -205 -92q-45 0 -76 30.5t-31 83.5q0 63 21 148l47 237q0 8 6 35q4 14 8 49q4 29 4 33q0 39 -12 62q-12 20 -45 20q-51 0 -131 -170q-84 -176 -107 -301l-43 -211q-40 -12 -110.5 -12 t-122.5 12zM119 1468q-2 8 2 25q47 27 182 131q66 51 111 96q20 18 32 19q6 0 25 -19l27 -37q29 -37 41 -51q86 -106 127 -139q-10 -37 -29 -37q-20 0 -98 45q-98 57 -127 78q-45 -25 -162 -78q-98 -45 -117 -45q-10 0 -14 12z" />
<glyph unicode="&#x126;" horiz-adv-x="1456" d="M-12 4q0 6 4 35q2 20 8 20q16 0 66 15q45 12 53 30q22 37 49 166l131 662l-123 -2h-6q-2 0 -6 4t-2 10q23 80 41 98l20 9l94 -2q18 90 19 143q0 29 -37 47q-33 16 -59 16q-2 0 -2 9q0 47 12 59q31 -2 78 -4q16 0 44.5 -1t43.5 -3q27 -2 78 -2q76 0 264 10v-8 q0 -23 -4 -37q-6 -23 -13 -23q-20 0 -61 -16q-49 -18 -55 -31q-23 -41 -47 -161q88 -2 219 -3l227 3q20 121 20 153q0 55 -96 55q-4 0 -4 13q0 39 17 55q211 -10 264 -10t241 10v-10q0 -57 -18 -57.5t-59 -16.5q-49 -18 -56 -31q-20 -35 -45 -159l121 2h6q2 0 6 -4.5 t2 -10.5q-18 -76 -41 -98l-22 -8l-94 2l-127 -653q-23 -119 -23 -160q0 -20 39 -39q45 -20 59 -21q4 0 5 -10q0 -31 -17 -57l-11 1q-11 1 -36 3t-53 4q-98 6 -146 6q-51 0 -143 -6q-25 -2 -52.5 -4l-41.5 -3t-21 -1q-2 2 -2 12q0 55 11 55q25 0 65 15q45 16 53 32 q18 31 49 164l60 299v2q0 12 -219 13q-225 0 -230 -17l-55 -288q-20 -100 -20 -160q0 -20 39 -39q45 -20 57 -21q4 0 4 -10q0 -37 -14 -57q-25 4 -76 6q-35 2 -96 6q-31 2 -82 2q-49 0 -140 -6q-104 -8 -112 -8q-2 2 -2 12zM514 715q0 -14 223 -15q221 0 226 13l43 221 q-92 2 -226 2l-225 -2l-41 -215v-4z" />
<glyph unicode="&#x127;" horiz-adv-x="995" d="M25 0l188 977q0 10 -4 10h-117l-6 21q0 6 2 14l4 25l8 32q8 25 15 35q4 10 12 10h109q8 0 8 11q8 49 8 71q0 43 -98 43q-6 0 -7 17q0 10 9 30q6 16 10 17q47 0 180 30q127 29 166 48h10q6 0 13 -15q6 -12 6 -20q-35 -106 -56 -180q-4 -12 -10 -41q0 -10 6 -11h205 q12 0 10 -14l-1 -3q-1 -3 -2 -9t-1 -13q-4 -29 -8 -43l-12 -43q-2 -4 -6 -8t-7 -4h-2h-202q-8 0 -11 -8q-68 -344 -67 -356l2 -2h2q90 170 166 231q57 45 119 45q84 0 122 -63q41 -66 41 -152q0 -65 -18 -154l-49 -272q-4 -16 -4 -33q0 -59 41 -59q14 0 39 29q18 20 43 57 q4 8 9 15l7 10l2 4q10 0 35 -21q23 -20 29 -39q-29 -70 -109 -156q-76 -82 -184 -81q-59 0 -104.5 45t-45.5 147q0 55 35 207q37 160 37 211q0 47 -12 70q-12 20 -43 20q-53 0 -131 -166q-80 -170 -121 -371l-31 -145q-41 -12 -107 -12q-82 0 -122 12z" />
<glyph unicode="&#x128;" horiz-adv-x="718" d="M-29 4q0 6 3 17.5t3 17.5q2 20 7 20q16 0 65 15q41 12 53 30q31 52 50 166l149 777q18 96 18 145q0 33 -36 47q-39 16 -60 16q-2 0 -2 9q0 47 12 59q12 0 78 -4q16 0 45 -1t43 -3q27 -2 78 -2q76 0 264 10v-8q0 -23 -4 -37q-6 -23 -12 -23q-12 0 -61 -16q-46 -15 -56 -31 q-14 -27 -28 -84l-9.5 -36.5l-8.5 -32t-3 -17.5l-145 -759q-20 -100 -21 -160q0 -23 41 -41.5t55 -18.5q4 0 5 -10q0 -37 -15 -57q-2 0 -13 1l-34.5 3t-50.5 4q-92 6 -141 6q-51 0 -150 -6l-54.5 -4l-41.5 -3t-21 -1q-2 2 -2 12zM176 1522q12 53 51 100q90 102 185 102 q51 0 92 -20q47 -25 73.5 -47.5t73.5 -46.5q45 -23 90 -23q27 0 62 29q23 18 57 57q25 29 37 29q8 0 10 -14q2 -8 -2 -29q-8 -49 -53 -103q-82 -100 -180 -100q-51 0 -92 21q-43 20 -72 47q-27 23 -74 47q-41 20 -92 20q-25 0 -59 -28q-45 -37 -64 -56q-29 -29 -37 -28 q-12 0 -6 43z" />
<glyph unicode="&#x129;" horiz-adv-x="626" d="M35 659q31 74 106.5 156t184.5 82q61 0 104 -43q45 -45 45 -147q0 -51 -80 -451q-4 -16 -4 -33q0 -59 41 -59q14 0 39 29q18 20 43 57q18 29 21 29q8 0 32 -21q23 -20 29 -39q-29 -70 -109 -156q-76 -82 -184 -81q-63 0 -106 49t-43 143q0 6 10 74l69 377q4 16 5 30 q0 61 -39 62q-14 0 -39 -29q-18 -20 -43 -57q-18 -29 -21 -29q-14 0 -34.5 18.5t-26.5 38.5zM96 1075q0 51 72 116.5t131 65.5q57 0 133 -61q74 -59 135 -59q31 0 80 49l49 49q12 -6 13 -33q0 -33 -70 -108q-68 -74 -129 -74t-135 59q-76 61 -137 62q-27 0 -76 -51.5 t-56 -51.5q-10 0 -10 37z" />
<glyph unicode="&#x12a;" horiz-adv-x="718" d="M-29 4q0 6 3 17.5t3 17.5q2 20 7 20q16 0 65 15q41 12 53 30q31 52 50 166l149 777q18 96 18 145q0 33 -36 47q-39 16 -60 16q-2 0 -2 9q0 47 12 59q12 0 78 -4q16 0 45 -1t43 -3q27 -2 78 -2q76 0 264 10v-8q0 -23 -4 -37q-6 -23 -12 -23q-12 0 -61 -16q-46 -15 -56 -31 q-14 -27 -28 -84l-9.5 -36.5l-8.5 -32t-3 -17.5l-145 -759q-20 -100 -21 -160q0 -23 41 -41.5t55 -18.5q4 0 5 -10q0 -37 -15 -57q-2 0 -13 1l-34.5 3t-50.5 4q-92 6 -141 6q-51 0 -150 -6l-54.5 -4l-41.5 -3t-21 -1q-2 2 -2 12zM231 1462q-4 4 0 17q8 41 23 71q10 23 18 35 q6 8 11 8h532q14 0 8 -18q-8 -37 -22 -74q-12 -31 -19 -37l-8 -8h-536h-2q-2 0 -3 3z" />
<glyph unicode="&#x12b;" horiz-adv-x="626" d="M35 659q31 74 106.5 156t184.5 82q61 0 104 -43q45 -45 45 -147q0 -51 -80 -451q-4 -16 -4 -33q0 -59 41 -59q14 0 39 29q18 20 43 57q18 29 21 29q8 0 32 -21q23 -20 29 -39q-29 -70 -109 -156q-76 -82 -184 -81q-63 0 -106 49t-43 143q0 6 10 74l69 377q4 16 5 30 q0 61 -39 62q-14 0 -39 -29q-18 -20 -43 -57q-18 -29 -21 -29q-14 0 -34.5 18.5t-26.5 38.5zM133 1024q-3 6 0 18q25 115 51 115h461q14 0 8 -18q-18 -72 -37 -103l-12 -16h-465h-2q-2 0 -4 4z" />
<glyph unicode="&#x12c;" horiz-adv-x="718" d="M-29 4q0 6 3 17.5t3 17.5q2 20 7 20q16 0 65 15q41 12 53 30q31 52 50 166l149 777q18 96 18 145q0 33 -36 47q-39 16 -60 16q-2 0 -2 9q0 47 12 59q12 0 78 -4q16 0 45 -1t43 -3q27 -2 78 -2q76 0 264 10v-8q0 -23 -4 -37q-6 -23 -12 -23q-12 0 -61 -16q-46 -15 -56 -31 q-14 -27 -28 -84l-9.5 -36.5l-8.5 -32t-3 -17.5l-145 -759q-20 -100 -21 -160q0 -23 41 -41.5t55 -18.5q4 0 5 -10q0 -37 -15 -57q-2 0 -13 1l-34.5 3t-50.5 4q-92 6 -141 6q-51 0 -150 -6l-54.5 -4l-41.5 -3t-21 -1q-2 2 -2 12zM340 1614q0 10 22 33q22 22 31 24q4 2 8 -4 q14 -31 58 -61q41 -29 80 -29t90 29q55 31 80 61q4 8 10 4q10 -4 22.5 -24.5t8.5 -32.5l-2 -2q-2 -2 -3 -4l-4 -9q-106 -143 -227 -143q-55 0 -102 37q-45 37 -70 106q-2 3 -2 15z" />
<glyph unicode="&#x12d;" horiz-adv-x="626" d="M35 659q31 74 106.5 156t184.5 82q61 0 104 -43q45 -45 45 -147q0 -51 -80 -451q-4 -16 -4 -33q0 -59 41 -59q14 0 39 29q18 20 43 57q18 29 21 29q8 0 32 -21q23 -20 29 -39q-29 -70 -109 -156q-76 -82 -184 -81q-63 0 -106 49t-43 143q0 6 10 74l69 377q4 16 5 30 q0 61 -39 62q-14 0 -39 -29q-18 -20 -43 -57q-18 -29 -21 -29q-14 0 -34.5 18.5t-26.5 38.5zM209 1204v15q4 10 28.5 26.5t36.5 16.5q6 0 7 -7q2 -51 45 -84q40 -31 86 -30q43 0 90 30q49 33 71 84q4 6 9 7q12 0 30 -17q20 -18 19 -26q0 -2 -6 -15q-35 -78 -103 -133 q-63 -51 -135 -51q-74 0 -123 51t-55 133z" />
<glyph unicode="&#x12e;" horiz-adv-x="749" d="M-20 -311q0 78 90 186q88 106 155 129q-20 0 -235 -12q-2 2 -2 12q0 6 4 35q2 20 8 20q16 0 66 15q45 12 53 30q31 52 49 166l149 777q18 96 19 145q0 29 -37 47q-33 16 -59 16q-2 0 -2 9q0 47 12 59q31 -2 78 -4q16 0 44.5 -1t43.5 -3q27 -2 78 -2q76 0 264 10v-8 q0 -23 -4 -37q-6 -23 -13 -23q-20 0 -61 -16q-49 -18 -55 -31q-27 -49 -50 -170l-145 -759q-20 -100 -20 -160q0 -20 39 -39q45 -20 57 -21q4 0 4 -10q0 -37 -14 -57q-66 4 -93 4q-78 0 -174 -82q-98 -83 -98 -154q0 -18 14 -32q16 -16 43 -17q45 0 76 15q43 18 55 26 q6 4 11.5 7t8.5 5l3 3q8 -2 2 -33t-12 -37q-43 -49 -113 -90q-66 -39 -125 -39q-45 0 -79.5 35t-34.5 86z" />
<glyph unicode="&#x12f;" horiz-adv-x="636" d="M31 659q31 74 106.5 156t184.5 82q61 0 104 -43q45 -45 45 -147q0 -51 -80 -451q-4 -16 -4 -33q0 -59 41 -59q14 0 39 29q18 20 43 57q18 29 20 29q8 0 33 -21q23 -20 29 -39q-16 -39 -53 -90t-93 -96q-197 -156 -196 -269q0 -53 55 -53q47 0 78 15q43 18 55 26 q6 4 11.5 7t8.5 5l3 3q8 -2 2 -33t-12 -37q-43 -49 -113 -90q-66 -39 -125 -39q-49 0 -82 32.5t-33 86.5q0 121 162 301q-111 31 -110 186q0 6 10 74l69 377q4 16 4 30q0 61 -38 62q-14 0 -39 -29q-18 -20 -43 -57q-18 -29 -21 -29q-14 0 -34.5 18.5t-26.5 38.5zM287 1206 q0 63 47 117q45 51 108 51q49 0 82 -37q33 -35 33 -88q0 -66 -45 -116q-47 -53 -111 -54q-49 0 -82 37q-32 35 -32 90z" />
<glyph unicode="&#x130;" horiz-adv-x="718" d="M-29 4q0 6 3 17.5t3 17.5q2 20 7 20q16 0 65 15q41 12 53 30q31 52 50 166l149 777q18 96 18 145q0 33 -36 47q-39 16 -60 16q-2 0 -2 9q0 47 12 59q12 0 78 -4q16 0 45 -1t43 -3q27 -2 78 -2q76 0 264 10v-8q0 -23 -4 -37q-6 -23 -12 -23q-12 0 -61 -16q-46 -15 -56 -31 q-14 -27 -28 -84l-9.5 -36.5l-8.5 -32t-3 -17.5l-145 -759q-20 -100 -21 -160q0 -23 41 -41.5t55 -18.5q4 0 5 -10q0 -37 -15 -57q-2 0 -13 1l-34.5 3t-50.5 4q-92 6 -141 6q-51 0 -150 -6l-54.5 -4l-41.5 -3t-21 -1q-2 2 -2 12zM403 1604q12 61 61.5 104t104.5 43 q57 0 90 -43q33 -41 21 -104q-12 -61 -61.5 -104.5t-106.5 -43.5t-88 43q-33 46 -21 105z" />
<glyph unicode="&#x131;" horiz-adv-x="626" d="M35 659q31 74 106.5 156t184.5 82q61 0 104 -43q45 -45 45 -147q0 -51 -80 -451q-4 -16 -4 -33q0 -59 41 -59q14 0 39 29q18 20 43 57q18 29 21 29q8 0 32 -21q23 -20 29 -39q-29 -70 -109 -156q-76 -82 -184 -81q-63 0 -106 49t-43 143q0 6 10 74l69 377q4 16 5 30 q0 61 -39 62q-14 0 -39 -29q-18 -20 -43 -57q-18 -29 -21 -29q-14 0 -34.5 18.5t-26.5 38.5z" />
<glyph unicode="&#x132;" horiz-adv-x="1204" d="M-29 4q0 6 3 17.5t3 17.5q2 20 7 20q16 0 65 15q41 12 53 30q31 52 50 166l149 777q18 96 18 145q0 33 -36 47q-39 16 -60 16q-2 0 -2 9q0 47 12 59q12 0 78 -4q16 0 45 -1t43 -3q27 -2 78 -2q76 0 264 10v-8q0 -23 -4 -37q-6 -23 -12 -23q-12 0 -61 -16q-46 -15 -56 -31 q-14 -27 -28 -84l-9.5 -36.5l-8.5 -32t-3 -17.5l-145 -759q-20 -100 -21 -160q0 -23 41 -41.5t55 -18.5q4 0 5 -10q0 -37 -15 -57q-2 0 -13 1l-34.5 3t-50.5 4q-92 6 -141 6q-51 0 -150 -6l-54.5 -4l-41.5 -3t-21 -1q-2 2 -2 12zM471 -387q0 23 4 35q115 92 187 237 q72 143 116 385l150 777q18 96 18 145q0 33 -37 47q-39 16 -59 16q-2 0 -2 9q0 47 12 59q12 0 78 -4q14 0 43 -1t43 -3q27 -2 80 -2q76 0 264 10v-8q0 -15 -6 -37q-6 -23 -10 -23q-12 0 -62 -16q-46 -15 -55 -31q-10 -16 -29 -84q-16 -57 -20 -86l-146 -751 q-31 -162 -90 -291q-61 -131 -133 -209q-76 -80 -151 -135q-70 -49 -166 -88q-29 12 -29 49z" />
<glyph unicode="&#x133;" horiz-adv-x="1116" d="M2 662q20 49 143 145q117 90 205 90q47 0 76 -29q31 -31 31 -84q0 -29 -8.5 -78t-12.5 -69l-74 -381q-4 -16 -4 -45q0 -49 21 -49q27 0 78 43q53 45 67 63q6 0 21 -20q16 -23 16 -29q-18 -49 -141 -143q-121 -92 -207 -92q-43 0 -73.5 30.5t-30.5 83.5q0 27 8 76 q4 20 7 44t3 28l76 381q4 29 4 45q0 49 -21 49q-31 0 -80 -43q-45 -39 -65 -64q-8 0 -23 21q-16 23 -16 27zM258 1206q0 63 47 117q45 51 109 51q51 0 83.5 -34.5t32.5 -90.5q0 -66 -47 -119q-45 -51 -108 -51q-51 0 -84 37q-33 35 -33 90zM455 -362q135 117 188 227 q51 106 98 336l82 426q4 29 4 45q0 49 -20 49q-28 0 -80 -43q-49 -41 -65 -64q-8 0 -23 21q-16 23 -16 27q20 49 143 145q117 90 205 90q47 0 76 -29q31 -31 30 -84q0 -29 -8 -78t-12 -69l-76 -397q-55 -289 -172 -445q-55 -74 -166 -145q-109 -72 -162 -86q-6 0 -16 30 q-10 36 -10 44zM905 1208q0 66 47 119q45 51 109 51q49 0 84 -37q33 -35 33 -90q0 -66 -48 -118q-45 -51 -108 -52q-51 0 -84 37q-33 35 -33 90z" />
<glyph unicode="&#x134;" horiz-adv-x="841" d="M-33 -387q0 23 4 35q115 92 187 237q72 143 116 385l150 777q18 96 18 145q0 33 -36 47q-39 16 -60 16q-2 0 -2 9q0 47 12 59q10 0 76 -4q16 0 45 -1t43 -3q27 -2 80 -2q76 0 264 10v-8q0 -15 -6 -37q-6 -23 -10 -23q-12 0 -61.5 -16t-57.5 -31q-6 -8 -27 -84 q-16 -57 -20 -86l-145 -751q-31 -162 -91 -291q-61 -131 -133 -209q-76 -80 -151 -135q-70 -49 -166 -88q-29 12 -29 49zM399 1468q-3 12 0 25q53 31 185 131q66 51 110 96q23 18 31 18.5t27 -18.5l26 -37q4 -6 18.5 -24.5l20.5 -26.5q82 -100 129 -139q-9 -37 -31 -37 q-18 0 -96 45q-98 57 -127 78q-45 -25 -162 -78q-98 -45 -116 -45q-13 0 -15 12z" />
<glyph unicode="&#x135;" horiz-adv-x="724" d="M-8 -385q0 16 6 23q129 111 188 227q55 106 99 336l80 424q4 16 4 30q0 61 -41 62q-14 0 -39 -29q-18 -20 -43 -57q-18 -29 -21 -29q-12 0 -32 19q-23 20 -29 38q29 70 108 156q76 82 185 82q61 0 104 -43q45 -45 45 -147q0 -63 -82 -467q-55 -289 -172 -445 q-55 -74 -166 -145q-109 -72 -161 -86q-33 22 -33 51zM299 1067q57 47 154 156q66 74 94 112q14 20 28 21q10 0 19 -21q0 -6 16 -39q8 -18 31 -63q66 -125 96 -166q-10 -47 -24 -47q-12 0 -78 55q-55 47 -96 92q-41 -33 -136 -94q-80 -53 -98 -53q-16 0 -6 47z" />
<glyph unicode="&#x136;" horiz-adv-x="1421" d="M-29 4q0 6 3 17.5t3 17.5q2 20 7 20q16 0 65 15q41 12 53 30q31 52 50 166l149 777q18 96 18 145q0 33 -36 47q-39 16 -60 16q-2 0 -2 9q0 47 12 59q12 0 78 -4q16 0 45 -1t43 -3q27 -2 78 -2q76 0 264 10v-8q0 -23 -4 -37q-6 -23 -12 -23q-12 0 -61 -16q-46 -15 -56 -31 q-14 -27 -28 -84l-9.5 -36.5l-8.5 -32t-3 -17.5l-145 -759q-20 -100 -21 -160q0 -23 41 -41.5t55 -18.5q4 0 5 -10q0 -37 -15 -57q-8 0 -33.5 3t-42.5 3q-35 2 -96 6q-31 2 -82 2q-49 0 -139 -6q-23 -2 -50.5 -4l-41.5 -3t-21 -1q-2 2 -2 12zM383 -408q8 6 27 17 q25 12 57 43q29 25 29 47q0 20 -29 45t-29 53q0 49 70 70q68 20 158 20q25 -25 24 -94q0 -66 -92 -139.5t-168 -89.5h-6q-10 0 -27 10q-14 8 -14 18zM487 666q94 63 189 151l362 354q25 25 25 50q0 16 -41 28q-33 10 -64 11q-6 0 -6 22q0 31 9 41q170 -10 247 -10 q45 0 236 10q0 -12 -4 -41q-4 -23 -13 -22q-154 -18 -221 -91l-426 -444q-20 -20 -20 -39q0 -9 6 -18l309 -445q63 -92 119 -129q53 -35 117 -35q6 0 6 -16q0 -23 -14 -43q-27 -8 -121 -8q-23 0 -52.5 1t-37.5 1q-29 0 -76 10q-43 9 -74 25q-27 12 -63 47q-39 37 -64 76z " />
<glyph unicode="&#x137;" horiz-adv-x="923" d="M-6 0l211 1087q16 82 16 119q0 43 -96 43q-6 0 -6 17q0 31 16 47q45 0 164 28.5t168 49.5q18 -8 18 -45q0 -10 -6 -48l-16 -77q-4 -14 -7 -33t-3 -21l-91 -475q12 28 31 56q25 35 51 65q33 37 84 61q45 23 111 23q92 0 166 -49t74 -133q0 -82 -60 -158q-55 -70 -131 -111 q-70 -37 -137 -47q37 -96 90 -176q59 -90 100 -90q37 0 84 39q53 43 70 66q6 0 27 -19q23 -18 22 -26q-23 -59 -110 -130q-90 -72 -189 -71q-39 0 -84 28.5t-76 65.5q-43 51 -69 96l-56 94l-45 91q-4 10 -8 16t-6 8l-76 -391q-37 -16 -108 -16q-53 0 -123 16zM209 -408 q8 6 27 17q25 12 57 43q29 25 29 47q0 20 -29 45t-29 53q0 49 70 70q68 20 158 20q25 -25 24 -94q0 -66 -92 -139.5t-168 -89.5h-6q-10 0 -27 10q-14 8 -14 18zM328 506q0 -25 65 -25q98 0 162 43q35 23 53 62q20 45 21 80q0 31 -23 59q-20 27 -51 27q-80 0 -153.5 -98.5 t-73.5 -147.5z" />
<glyph unicode="&#x138;" horiz-adv-x="999" d="M25 0l116 598q18 94 19 119q0 43 -99 43q-6 0 -6 16q0 10 8 31q6 14 11 14q41 0 182 33q133 31 164 45h10q6 0 12.5 -12.5t6.5 -20.5q-55 -166 -58 -174q0 -8 2 -8t8 14q92 199 267 199q94 0 168 -49q72 -47 71 -133q0 -121 -104 -209q-106 -90 -209 -103q39 -98 90 -182 q55 -90 96 -90q14 0 35 14.5t29 26.5q2 4 10 15.5t12 19.5q8 14 17 22q4 4 16 4q35 0 51 -28q-78 -213 -262 -213q-68 0 -113 26q-47 29 -102 91q-76 88 -137 282l-2 2q-2 0 -2 -2l-76 -391q-37 -16 -111 -16q-50 0 -120 16zM358 506q0 -25 66 -25q95 0 160 43q74 49 73 142 q0 33 -20.5 59.5t-52.5 26.5q-78 0 -152 -98.5t-74 -147.5z" />
<glyph unicode="&#x139;" horiz-adv-x="1042" d="M-29 10q0 6 4 23q0 4 1 11t4 9q3 6 6 6q18 0 67 19q47 18 58 35q18 37 41 157l149 777q18 96 18 145q0 33 -36 47q-39 16 -60 16q-2 0 -2 9q0 47 12 59q12 0 78 -4q16 0 45 -1t43 -3q27 -2 78 -2q76 0 264 10v-8q0 -23 -4 -37q-6 -23 -12 -23q-12 0 -61 -16 q-46 -15 -56 -31t-28 -84q-16 -57 -21 -86l-145 -759q-14 -78 -15 -115q0 -31 21 -45q14 -10 102 -10h47q119 0 222 51q37 20 83 67q49 49 84 113q6 12 27 12q46 0 55 -12l-43 -84q-18 -37 -32.5 -60.5t-20.5 -37.5q-16 -29 -39 -82q-29 -63 -33 -80q-31 0 -329.5 4 t-304.5 4l-263 -12q-4 12 -4 18zM338 1468q0 6 37 39q55 51 90 78q66 51 94 66q27 14 66 14q53 0 94 -16q45 -18 45 -60q0 -35 -178 -96q-184 -63 -219 -63q-10 0 -21 14q-8 10 -8 24z" />
<glyph unicode="&#x13a;" horiz-adv-x="481" d="M10 98q0 27 8 76q10 61 13 72l164 841q18 92 18 119q0 43 -98 43q-6 0 -6 17q0 29 18 47q45 0 164 28q114 28 166 50q20 -8 20 -45q0 -10 -6 -46q-4 -23 -16 -79q-2 -12 -5.5 -24.5l-5.5 -20t-2 -9.5l-178 -911q-4 -29 -4 -45q0 -49 21 -49q31 0 79 43q45 39 66 63 q8 0 23 -20q16 -23 16 -29q-18 -47 -143 -143q-121 -92 -205 -92q-45 0 -76 30.5t-31 83.5zM240 1468q0 6 34 39q55 51 91 78q63 49 96 66q27 14 63 14q53 0 94 -16q47 -18 48 -60q0 -35 -181 -96q-184 -63 -219 -63q-8 0 -18 14q-8 10 -8 24z" />
<glyph unicode="&#x13b;" horiz-adv-x="1042" d="M-29 10q0 6 4 23q0 4 1 11t4 9q3 6 6 6q18 0 67 19q47 18 58 35q18 37 41 157l149 777q18 96 18 145q0 33 -36 47q-39 16 -60 16q-2 0 -2 9q0 47 12 59q12 0 78 -4q16 0 45 -1t43 -3q27 -2 78 -2q76 0 264 10v-8q0 -23 -4 -37q-6 -23 -12 -23q-12 0 -61 -16 q-46 -15 -56 -31t-28 -84q-16 -57 -21 -86l-145 -759q-14 -78 -15 -115q0 -31 21 -45q14 -10 102 -10h47q119 0 222 51q37 20 83 67q49 49 84 113q6 12 27 12q46 0 55 -12l-43 -84q-18 -37 -32.5 -60.5t-20.5 -37.5q-16 -29 -39 -82q-29 -63 -33 -80q-31 0 -329.5 4 t-304.5 4l-263 -12q-4 12 -4 18zM362 -408l29 17q25 12 58 43q27 25 26 47q0 20 -28.5 45t-28.5 53q0 47 71 70q68 20 156 20q25 -25 25 -94q0 -66 -92.5 -139.5t-167.5 -89.5h-7q-10 0 -26 10q-15 8 -15 18z" />
<glyph unicode="&#x13c;" horiz-adv-x="481" d="M10 98q0 27 8 76q10 61 13 72l164 841q18 92 18 119q0 43 -98 43q-6 0 -6 17q0 29 18 47q45 0 164 28q114 28 166 50q20 -8 20 -45q0 -10 -6 -46q-4 -23 -16 -79q-2 -12 -5.5 -24.5l-5.5 -20t-2 -9.5l-178 -911q-4 -29 -4 -45q0 -49 21 -49q31 0 79 43q45 39 66 63 q8 0 23 -20q16 -23 16 -29q-18 -47 -143 -143q-121 -92 -205 -92q-45 0 -76 30.5t-31 83.5zM12 -408l29 17q25 12 57 43q29 25 29 47q0 20 -28.5 45t-28.5 53q0 49 69 70q68 20 158 20q25 -25 25 -94q0 -66 -92.5 -139.5t-168.5 -89.5h-6q-10 0 -26.5 10t-16.5 18z" />
<glyph unicode="&#x13d;" horiz-adv-x="1042" d="M-29 10q0 6 4 23q0 4 1 11t4 9q3 6 6 6q18 0 67 19q47 18 58 35q18 37 41 157l149 777q18 96 18 145q0 33 -36 47q-39 16 -60 16q-2 0 -2 9q0 47 12 59q12 0 78 -4q16 0 45 -1t43 -3q27 -2 78 -2q76 0 264 10v-8q0 -23 -4 -37q-6 -23 -12 -23q-12 0 -61 -16 q-46 -15 -56 -31t-28 -84q-16 -57 -21 -86l-145 -759q-14 -78 -15 -115q0 -31 21 -45q14 -10 102 -10h47q119 0 222 51q37 20 83 67q49 49 84 113q6 12 27 12q46 0 55 -12l-43 -84q-18 -37 -32.5 -60.5t-20.5 -37.5q-16 -29 -39 -82q-29 -63 -33 -80q-31 0 -329.5 4 t-304.5 4l-263 -12q-4 12 -4 18zM1008 981q0 2 30 27q23 18 60 65q31 40 30 74q0 20 -20 49q-23 33 -23 64q0 131 189 131q6 -18 6 -56q0 -53 -8 -88q-18 -92 -86 -180q-70 -92 -137 -131h-5q-10 0 -22 16q-14 19 -14 29z" />
<glyph unicode="&#x13e;" horiz-adv-x="481" d="M10 98q0 27 8 76q10 61 13 72l164 841q18 92 18 119q0 43 -98 43q-6 0 -6 17q0 29 18 47q45 0 164 28q114 28 166 50q20 -8 20 -45q0 -10 -6 -46q-4 -23 -16 -79q-2 -12 -5.5 -24.5l-5.5 -20t-2 -9.5l-178 -911q-4 -29 -4 -45q0 -49 21 -49q31 0 79 43q45 39 66 63 q8 0 23 -20q16 -23 16 -29q-18 -47 -143 -143q-121 -92 -205 -92q-45 0 -76 30.5t-31 83.5zM586 981q0 4 28.5 26.5t61.5 65.5q29 37 29 74q0 20 -20.5 49t-20.5 64q0 131 188 131q4 -12 4 -56q0 -61 -6 -88q-18 -90 -88 -180q-70 -92 -137 -131h-4q-10 0 -23 16 q-12 15 -12 29z" />
<glyph unicode="&#x13f;" horiz-adv-x="1042" d="M-29 10q0 6 4 23q0 4 1 11t4 9q3 6 6 6q18 0 67 19q47 18 58 35q18 37 41 157l149 777q18 96 18 145q0 33 -36 47q-39 16 -60 16q-2 0 -2 9q0 47 12 59q12 0 78 -4q16 0 45 -1t43 -3q27 -2 78 -2q76 0 264 10v-8q0 -23 -4 -37q-6 -23 -12 -23q-12 0 -61 -16 q-46 -15 -56 -31t-28 -84q-16 -57 -21 -86l-145 -759q-14 -78 -15 -115q0 -31 21 -45q14 -10 102 -10h47q119 0 222 51q37 20 83 67q49 49 84 113q6 12 27 12q46 0 55 -12l-43 -84q-18 -37 -32.5 -60.5t-20.5 -37.5q-16 -29 -39 -82q-29 -63 -33 -80q-31 0 -329.5 4 t-304.5 4l-263 -12q-4 12 -4 18zM704.5 659.5q12.5 63.5 59.5 104.5q49 43 106 43q55 0 91 -43q33 -41 20 -105q-12 -61 -61.5 -104t-106.5 -43q-55 0 -88 43q-33 41 -20.5 104.5z" />
<glyph unicode="&#x140;" horiz-adv-x="931" d="M10 98q0 27 8 76q10 61 13 72l164 841q18 92 18 119q0 43 -98 43q-6 0 -6 17q0 29 18 47q45 0 164 28q114 28 166 50q20 -8 20 -45q0 -10 -6 -46q-4 -23 -16 -79q-2 -12 -5.5 -24.5l-5.5 -20t-2 -9.5l-178 -911q-4 -29 -4 -45q0 -49 21 -49q31 0 79 43q45 39 66 63 q8 0 23 -20q16 -23 16 -29q-18 -47 -143 -143q-121 -92 -205 -92q-45 0 -76 30.5t-31 83.5zM610 621q12 63 59.5 104t106.5 41q61 0 90 -41q33 -45 21 -104q-12 -63 -61.5 -106.5t-104.5 -43.5q-59 0 -90 43q-33 46 -21 107z" />
<glyph unicode="&#x141;" horiz-adv-x="1064" d="M23 -8q-6 6 0 35q6 33 12 32q18 0 71.5 18.5t61.5 33.5q18 47 45 176l23 112l-91 -57q-8 0 -24.5 35t-11.5 51q2 14 12 21l143 94l98 508q23 131 15 149q-6 14 -47 37q-35 18 -60 18q-4 0 0 29q6 33 13 39q209 -10 266 -10q74 0 262 10v-35q-6 -33 -14 -33q-25 0 -72 -18 q-53 -20 -59 -35q-27 -57 -45 -160l-60 -305l297 195q6 0 23 -31q20 -45 16 -63q-4 -16 -12 -23l-353 -225l-59 -305q-20 -100 -12 -146q2 -31 119 -30h49q117 0 219 51q37 20 84 67q49 49 84 113q6 12 28 12q45 0 54 -12q-143 -279 -168 -344q-31 0 -330 4t-303 4z" />
<glyph unicode="&#x142;" horiz-adv-x="546" d="M133 506q2 12 14 20l148 105l88 456q16 82 16 119q0 43 -98 43q-4 0 -4 17q0 15 6 30q6 16 10 17q51 0 183 30q123 29 163 48h11q6 0 12 -15q6 -12 6 -20q-35 -72 -57 -189l-70 -354l82 59q8 0 16 -18q25 -47 21 -74q-2 -10 -14 -22l-134 -92l-77 -410q-6 -18 -6 -33 q0 -59 38 -59q14 0 39 29q18 20 43 57q18 29 21 29q10 0 35 -21q20 -18 26 -39q-31 -74 -106.5 -155.5t-184.5 -81.5q-66 0 -108 49q-41 47 -41 143q0 37 8 72l47 241l-96 -67q-6 0 -23 35q-16 37 -14 51z" />
<glyph unicode="&#x143;" horiz-adv-x="1349" d="M-29 10q0 6 4 23q0 4 1 11t4 9l4 6q29 0 100 21q65 18 98 61q23 31 45 148l154 784q10 53 10 119q0 33 -55 47q-59 16 -90 16q-6 0 -6 17q0 43 14 51q186 -8 248 -8q119 0 186 8q20 -78 84 -195l174 -315q111 -195 170 -311q4 10 21 82l88 465q12 66 12 106 q0 43 -63.5 71.5t-98.5 28.5q-4 0 -4 15q0 41 12 53q186 -8 260 -8q84 0 248 8q0 -68 -14 -68q-4 0 -41 -4q-27 -2 -72 -22q-43 -18 -69 -45q-35 -35 -56 -146l-147 -759q-8 -43 -45 -281q-8 -8 -49 -8q-20 0 -49 47l-555 1012l-148 -766q-16 -86 -16 -111q0 -29 22 -55 q18 -20 54 -35q10 -4 53 -16q22 -6 30 -7q4 0 5 -10q0 -33 -13 -57q-8 0 -33.5 3t-41.5 3q-35 2 -97 6q-31 2 -82 2t-139 -6q-23 -2 -50.5 -4l-41.5 -3t-21 -1q-4 12 -4 18zM903 1468q0 6 37 39q55 51 90 78q63 49 96 66q27 14 64 14q53 0 94 -16q45 -18 45 -60 q0 -35 -178 -96q-184 -63 -219 -63q-8 0 -18.5 14t-10.5 24z" />
<glyph unicode="&#x144;" horiz-adv-x="1024" d="M4 662q20 49 143 145q117 90 205 90q47 0 76 -29q31 -31 31 -84q0 -18 -17 -129l-1 -3q-1 -3 -1 -5t-1 -8t-1 -10t-1 -10.5t-1 -8.5l-2 -6q53 111 135 201q82 92 152 92q86 0 129 -61.5t43 -155.5q0 -37 -33 -213l-41 -211q-4 -16 -4 -45q0 -49 21 -49q28 0 79 43 q49 41 66 63q8 0 23 -20q16 -23 16 -29q-18 -47 -143 -143q-119 -92 -205 -92q-45 0 -76 30.5t-31 83.5q0 63 21 148l47 237q18 98 18 117q0 39 -12 62q-12 20 -45 20q-51 0 -131 -170q-78 -166 -107 -301l-43 -211q-40 -12 -110 -12t-119 12l121 627q4 29 4 45q0 49 -21 49 q-31 0 -79 -43q-45 -39 -66 -64q-8 0 -23 21q-16 23 -16 27zM510 1008q0 12 84 112q82 98 125 137q10 6 24 7q49 0 80 -29q33 -31 33 -59q0 -37 -74 -89q-68 -47 -151 -88q-72 -35 -92 -34q-10 0 -19 16q-10 21 -10 27z" />
<glyph unicode="&#x145;" horiz-adv-x="1349" d="M-29 10q0 6 4 23q0 4 1 11t4 9l4 6q29 0 100 21q65 18 98 61q23 31 45 148l154 784q10 53 10 119q0 33 -55 47q-59 16 -90 16q-6 0 -6 17q0 43 14 51q186 -8 248 -8q119 0 186 8q20 -78 84 -195l174 -315q111 -195 170 -311q4 10 21 82l88 465q12 66 12 106 q0 43 -63.5 71.5t-98.5 28.5q-4 0 -4 15q0 41 12 53q186 -8 260 -8q84 0 248 8q0 -68 -14 -68q-4 0 -41 -4q-27 -2 -72 -22q-43 -18 -69 -45q-35 -35 -56 -146l-147 -759q-8 -43 -45 -281q-8 -8 -49 -8q-20 0 -49 47l-555 1012l-148 -766q-16 -86 -16 -111q0 -29 22 -55 q18 -20 54 -35q10 -4 53 -16q22 -6 30 -7q4 0 5 -10q0 -33 -13 -57q-8 0 -33.5 3t-41.5 3q-35 2 -97 6q-31 2 -82 2t-139 -6q-23 -2 -50.5 -4l-41.5 -3t-21 -1q-4 12 -4 18zM508 -408l29 17q25 12 57 43q29 25 29 47q0 20 -29 45q-31 27 -31 53q0 47 72 70q68 20 158 20 q23 -23 22 -94q0 -66 -92 -139.5t-168 -89.5h-4q-12 0 -29 10q-14 8 -14 18z" />
<glyph unicode="&#x146;" horiz-adv-x="1024" d="M4 662q20 49 143 145q117 90 205 90q47 0 76 -29q31 -31 31 -84q0 -18 -17 -129l-1 -3q-1 -3 -1 -5t-1 -8t-1 -10t-1 -10.5t-1 -8.5l-2 -6q53 111 135 201q82 92 152 92q86 0 129 -61.5t43 -155.5q0 -37 -33 -213l-41 -211q-4 -16 -4 -45q0 -49 21 -49q28 0 79 43 q49 41 66 63q8 0 23 -20q16 -23 16 -29q-18 -47 -143 -143q-119 -92 -205 -92q-45 0 -76 30.5t-31 83.5q0 63 21 148l47 237q18 98 18 117q0 39 -12 62q-12 20 -45 20q-51 0 -131 -170q-78 -166 -107 -301l-43 -211q-40 -12 -110 -12t-119 12l121 627q4 29 4 45q0 49 -21 49 q-31 0 -79 -43q-45 -39 -66 -64q-8 0 -23 21q-16 23 -16 27zM309 -408l29 17q25 12 57 43q29 25 29 47q0 20 -28.5 45t-28.5 53q0 49 69 70q68 20 158 20q25 -25 24 -94q0 -66 -92 -139.5t-168 -89.5h-6q-10 0 -26.5 10t-16.5 18z" />
<glyph unicode="&#x147;" horiz-adv-x="1349" d="M-29 10q0 6 4 23q0 4 1 11t4 9l4 6q29 0 100 21q65 18 98 61q23 31 45 148l154 784q10 53 10 119q0 33 -55 47q-59 16 -90 16q-6 0 -6 17q0 43 14 51q186 -8 248 -8q119 0 186 8q20 -78 84 -195l174 -315q111 -195 170 -311q4 10 21 82l88 465q12 66 12 106 q0 43 -63.5 71.5t-98.5 28.5q-4 0 -4 15q0 41 12 53q186 -8 260 -8q84 0 248 8q0 -68 -14 -68q-4 0 -41 -4q-27 -2 -72 -22q-43 -18 -69 -45q-35 -35 -56 -146l-147 -759q-8 -43 -45 -281q-8 -8 -49 -8q-20 0 -49 47l-555 1012l-148 -766q-16 -86 -16 -111q0 -29 22 -55 q18 -20 54 -35q10 -4 53 -16q22 -6 30 -7q4 0 5 -10q0 -33 -13 -57q-8 0 -33.5 3t-41.5 3q-35 2 -97 6q-31 2 -82 2t-139 -6q-23 -2 -50.5 -4l-41.5 -3t-21 -1q-4 12 -4 18zM774 1700q10 39 27 39q14 0 86 -47q80 -51 112 -78q45 27 146 80q84 45 100 45q10 0 15 -15 q2 -8 -3 -24q-55 -37 -167 -139l-93 -86q-22 -18 -30 -19q-12 0 -21 19q-20 41 -61 94q-64 84 -111 131z" />
<glyph unicode="&#x148;" horiz-adv-x="1024" d="M4 662q20 49 143 145q117 90 205 90q47 0 76 -29q31 -31 31 -84q0 -18 -17 -129l-1 -3q-1 -3 -1 -5t-1 -8t-1 -10t-1 -10.5t-1 -8.5l-2 -6q53 111 135 201q82 92 152 92q86 0 129 -61.5t43 -155.5q0 -37 -33 -213l-41 -211q-4 -16 -4 -45q0 -49 21 -49q28 0 79 43 q49 41 66 63q8 0 23 -20q16 -23 16 -29q-18 -47 -143 -143q-119 -92 -205 -92q-45 0 -76 30.5t-31 83.5q0 63 21 148l47 237q18 98 18 117q0 39 -12 62q-12 20 -45 20q-51 0 -131 -170q-78 -166 -107 -301l-43 -211q-40 -12 -110 -12t-119 12l121 627q4 29 4 45q0 49 -21 49 q-31 0 -79 -43q-45 -39 -66 -64q-8 0 -23 21q-16 23 -16 27zM461 1311q8 45 24 45q14 0 78 -56q66 -57 96 -92q41 33 136 95q80 53 98 53q14 0 6 -45q-49 -45 -162 -166q-6 -6 -51 -62q-12 -14 -20.5 -23t-11.5 -12.5t-5 -7.5q-4 -4 -6 -8t-6 -8q-2 -2 -4 -2l-3 -1 q-3 -1 -5 -1q-14 0 -21 20q-23 63 -49 113q-47 90 -94 158z" />
<glyph unicode="&#x14a;" horiz-adv-x="1546" d="M-14 10q0 6 4 23q2 6 4 18q2 8 4 8q29 0 100 21q65 18 99 61q23 31 45 148l151 784q12 66 13 119q0 29 -56 47q-49 16 -90 16q-6 0 -6 17q0 43 14 51q186 -8 248 -8q119 0 186 8q20 -72 84 -195l175 -317q119 -209 169 -309l21 82l86 465q12 66 12 106q0 45 -61 72 q-68 29 -98 28q-4 0 -5 15q0 41 13 53q186 -8 260 -8q82 0 248 8q0 -68 -17 -68q-6 0 -39 -4q-31 -4 -71 -20q-43 -16 -70 -47q-35 -35 -55 -146l-148 -759q-61 -317 -219 -504q-160 -186 -328 -211q-16 6 -16 41q0 14 12 39q89 43 203 202q117 164 143 310l-493 893 l-148 -766q-16 -86 -16 -111q0 -43 39 -70q37 -25 72 -34q31 -8 49 -9q4 0 4 -10q0 -33 -12 -57q-25 4 -76 6q-35 2 -96 6q-31 2 -82 2q-49 0 -140 -6q-104 -8 -112 -8q-4 12 -4 18z" />
<glyph unicode="&#x14b;" horiz-adv-x="1052" d="M37 659q31 74 106.5 156t184.5 82q70 0 114 -55q45 -53 45 -129q0 -45 -14 -88q-2 0 -2 -2t4 -2t4 4q47 100 129 188q78 84 146 84q88 0 131 -61q41 -59 41 -156q0 -47 -31 -213l-43 -227q-55 -289 -172 -445q-55 -74 -166 -145q-109 -72 -162 -86q-33 23 -33 51 q0 16 7 23q129 113 188 229q55 109 98 334l76 399q6 33 -10 55q-20 27 -49 27q-51 0 -131 -170q-86 -182 -109 -301l-41 -211q-41 -12 -112 -12q-68 0 -117 12l119 625q2 4 2 30q0 61 -39 62q-14 0 -39 -29q-18 -20 -43 -57q-18 -29 -21 -29q-12 0 -35 19q-20 18 -26 38z " />
<glyph unicode="&#x14c;" horiz-adv-x="1251" d="M25 512q0 160 63 307q68 158 166 264q106 115 240 183q135 68 272 67q211 0 346 -151t135 -381q0 -162 -63 -309q-66 -154 -168 -263q-109 -115 -240 -180q-139 -70 -272 -69q-211 0 -346 151q-133 148 -133 381zM313 475q0 -78 13 -143q12 -70 39 -121q29 -59 75 -88 q49 -31 115 -31q86 0 156 58q68 55 114 143q47 86 78 196q35 123 45 203q14 115 15 178q0 352 -244 353q-160 0 -283 -215.5t-123 -532.5zM506 1462q-2 2 2 17q10 49 20.5 71.5t18.5 34.5q6 8 10 8h535q14 0 8 -18q-8 -37 -23 -74q-12 -31 -20 -37l-6 -8h-537h-2z" />
<glyph unicode="&#x14d;" horiz-adv-x="813" d="M16 311q0 137 64 271q66 139 176 225q115 90 244 90q154 0 223.5 -88t69.5 -236q0 -150 -64 -282q-66 -137 -174 -219q-113 -84 -244 -84q-154 0 -225 90q-70 88 -70 233zM264 219q2 -125 68 -125q63 0 114 101q51 98 76 231t23 238q-4 129 -66 129q-55 0 -108 -95 q-53 -92 -80 -223q-29 -141 -27 -256zM276 1026q-4 4 0 16q8 41 23 72q12 28 18 37q4 6 11 6h460q14 0 9 -18q-12 -61 -37 -103l-12 -16h-465h-2q-3 4 -5 6z" />
<glyph unicode="&#x14e;" horiz-adv-x="1251" d="M25 512q0 160 63 307q68 158 166 264q106 115 240 183q135 68 272 67q211 0 346 -151t135 -381q0 -162 -63 -309q-66 -154 -168 -263q-109 -115 -240 -180q-139 -70 -272 -69q-211 0 -346 151q-133 148 -133 381zM313 475q0 -78 13 -143q12 -70 39 -121q29 -59 75 -88 q49 -31 115 -31q86 0 156 58q68 55 114 143q47 86 78 196q35 123 45 203q14 115 15 178q0 352 -244 353q-160 0 -283 -215.5t-123 -532.5zM616 1614q0 10 23 33q22 22 31 24q4 2 8 -4q15 -34 55 -61q41 -29 80 -29q37 0 90 29q52 28 80 61q4 8 10 4q10 -4 23 -24 q14 -23 10 -33l-1 -2q-1 -2 -3 -4l-4 -9q-106 -143 -227 -143q-57 0 -102.5 37t-70.5 106q-2 3 -2 15z" />
<glyph unicode="&#x14f;" horiz-adv-x="813" d="M16 311q0 137 64 271q66 139 176 225q115 90 244 90q154 0 223.5 -88t69.5 -236q0 -150 -64 -282q-66 -137 -174 -219q-113 -84 -244 -84q-154 0 -225 90q-70 88 -70 233zM264 219q2 -125 68 -125q63 0 114 101q51 98 76 231t23 238q-4 129 -66 129q-55 0 -108 -95 q-53 -92 -80 -223q-29 -141 -27 -256zM369 1204v15q0 8 28 26q25 16 37 17q6 0 6 -7q2 -51 45 -84q39 -31 88 -30q45 0 91 30q49 33 71 84q2 6 8 7q10 0 29 -17q20 -18 19 -26q0 -2 -7 -15q-37 -82 -100 -133t-135 -51q-74 0 -123 51q-51 55 -57 133z" />
<glyph unicode="&#x150;" horiz-adv-x="1251" d="M25 512q0 160 63 307q68 158 166 264q106 115 240 183q135 68 272 67q211 0 346 -151t135 -381q0 -162 -63 -309q-66 -154 -168 -263q-109 -115 -240 -180q-139 -70 -272 -69q-211 0 -346 151q-133 148 -133 381zM313 475q0 -78 13 -143q12 -70 39 -121q29 -59 75 -88 q49 -31 115 -31q86 0 156 58q68 55 114 143q47 86 78 196q35 123 45 203q14 115 15 178q0 352 -244 353q-160 0 -283 -215.5t-123 -532.5zM506 1468q0 6 37 39q55 51 90 78q66 51 94 66q27 14 66 14q53 0 94 -16q45 -18 45 -60q0 -35 -178 -96q-184 -63 -219 -63 q-10 0 -21 14q-8 10 -8 24zM897 1468q0 6 35 39q55 51 90 78q63 49 96 66q27 14 64 14q53 0 94 -16q47 -18 47 -60q0 -35 -180 -96q-184 -63 -219 -63q-8 0 -19 14q-8 10 -8 24z" />
<glyph unicode="&#x151;" horiz-adv-x="813" d="M16 311q0 137 64 271q66 139 176 225q115 90 244 90q154 0 223.5 -88t69.5 -236q0 -150 -64 -282q-66 -137 -174 -219q-113 -84 -244 -84q-154 0 -225 90q-70 88 -70 233zM264 219q2 -125 68 -125q63 0 114 101q51 98 76 231t23 238q-4 129 -66 129q-55 0 -108 -95 q-53 -92 -80 -223q-29 -141 -27 -256zM297 1008q0 12 84 112q82 98 125 137q10 6 24 7q49 0 80 -29q33 -31 33 -59q0 -37 -74 -89q-68 -47 -151 -88q-72 -35 -92 -34q-10 0 -19 16q-10 21 -10 27zM586 1008q0 16 82 112q82 98 125 137q10 6 26 7q47 0 78 -29q35 -31 35 -59 q0 -35 -76 -89q-68 -47 -151 -88q-72 -35 -93 -34q-8 0 -16 16q-10 21 -10 27z" />
<glyph unicode="&#x152;" horiz-adv-x="1882" d="M51 512q0 209 106.5 401.5t278.5 309t361 116.5q131 0 245.5 -10t221.5 -10q109 -2 319 4q129 4 283 4q-4 -82 -4 -180v-115q-10 -10 -43 -10q-23 0 -25 14q-20 70 -88 129q-65 55 -135 56h-72q-115 0 -125 -27q-27 -68 -41 -156l-59 -309l6 -4q2 -2 8 -3t10 -1 q8 -2 25 -2h29h157q47 0 62 16q16 20 55 107q6 14 33 14q31 0 37 -10l-72 -377q-8 -8 -43 -8q-23 0 -25 14q-4 90 -22 109q-25 25 -150 24q-135 0 -139 -18l-57 -307q-16 -86 -17 -119q0 -35 20.5 -45t102.5 -10h47q119 0 222 51q37 20 84 67q49 49 84 113q6 12 26 12 q46 0 55 -12q-143 -279 -167 -344q-25 0 -340.5 4t-319.5 4q-98 0 -205 -4q-86 -6 -118 -10q-82 -10 -130 -10q-211 0 -346 151t-135 381zM342 475q0 -168 57 -274q59 -109 185 -109q186 0 260 47q61 37 84 148l145 755q6 34 -6 74q-12 39 -47 60q-88 47 -275 47 q-158 0 -280.5 -215.5t-122.5 -532.5z" />
<glyph unicode="&#x153;" horiz-adv-x="1310" d="M43 334q0 227 141.5 395t354.5 168q137 0 219 -119q137 119 295 119q96 0 161 -51q68 -51 68 -137q0 -98 -96 -185q-92 -84 -201 -125q-106 -41 -168 -41q-6 0 -6 -20q0 -119 47 -168q49 -53 111 -53q37 0 75 33q45 39 68 65q27 33 33 33q9 0 24 -19q14 -16 14.5 -32.5 t-40.5 -67.5q-31 -39 -119 -94q-78 -49 -152 -49q-150 0 -235 120q-133 -121 -305 -120q-127 0 -207 104q-82 107 -82 244zM283 309q0 -98 22 -151q25 -59 68 -60q84 0 147 150q63 147 64 325q0 92 -23 154q-23 59 -65 59q-78 0 -146 -151q-67 -151 -67 -326zM819 471 q0 -6 8 -6q96 0 160 82q68 86 68 166q0 76 -49 75q-57 0 -136 -145q-16 -33 -32 -88q-19 -61 -19 -84z" />
<glyph unicode="&#x154;" horiz-adv-x="1263" d="M-29 4q0 6 3 17.5t3 17.5q2 20 7 20q16 0 65 15q41 12 53 30q31 52 50 166l151 777q18 101 19 141q0 31 -37 49t-62 18q-4 0 -4 11q0 12 6 32.5t11 24.5q186 -8 253 -8q80 0 131.5 4t131.5 4q61 0 118 -14q63 -16 119 -45q61 -33 98 -88.5t37 -128.5q0 -127 -88 -248 q-86 -119 -213 -164q-10 -4 -4 -21q94 -276 219 -434q96 -123 189 -123q0 -37 -21 -65q-37 -4 -71 -4q-49 0 -88 6q-53 8 -74 12q-31 6 -62 25q-41 25 -49 28q-27 16 -43 37l-33 39q-8 8 -28 45q-4 6 -8.5 14.5t-7.5 13.5t-5 10t-4 7q-6 12 -22.5 49t-20.5 45 q-96 205 -127 238q-25 29 -63 29h-13q-2 0 -10 -8q-4 -4 -8 -23l-55 -276q-20 -100 -21 -160q0 -23 41 -41.5t55 -18.5q4 0 5 -10q0 -37 -15 -57q-8 0 -33.5 3t-42.5 3q-35 2 -96 6q-31 2 -82 2q-49 0 -139 -6q-23 -2 -50.5 -4l-41.5 -3t-21 -1q-2 2 -2 12zM504 735 q0 -25 28 -30q37 -8 99 -9q66 0 114 58q47 57 70 137q20 76 20.5 160t-32.5 123q-35 41 -92 40q-72 0 -97 -10q-23 -10 -28 -41l-80 -413q-2 -5 -2 -15zM573 1468q0 6 37 39q55 51 90 78q63 49 97 66q27 14 63 14q53 0 94 -16q45 -18 45 -60q0 -35 -178 -96 q-184 -63 -219 -63q-10 0 -20 14q-9 10 -9 24z" />
<glyph unicode="&#x155;" horiz-adv-x="872" d="M4 662q20 49 143 145q117 90 205 90q47 0 76 -29q31 -31 31 -84t-10 -108q-16 -84 -19 -88q57 133 141 223q80 86 181 86q72 0 133 -78q0 -78 -31 -139q-31 -59 -92 -59q-29 0 -70 43q-41 45 -69 45q-53 0 -146 -183q-94 -186 -127 -348l-37 -178q-59 -12 -112 -12 q-58 0 -117 12l121 627q4 29 4 45q0 49 -21 49q-31 0 -79 -43q-45 -39 -66 -64q-8 0 -23 21q-16 23 -16 27zM481 1008q0 12 84 112q82 98 125 137q10 6 27 7q47 0 78 -29q33 -31 32 -59q0 -37 -73 -89q-68 -47 -152 -88q-72 -35 -92 -34q-10 0 -18 16q-11 21 -11 27z" />
<glyph unicode="&#x156;" horiz-adv-x="1263" d="M-29 4q0 6 3 17.5t3 17.5q2 20 7 20q16 0 65 15q41 12 53 30q31 52 50 166l151 777q18 101 19 141q0 31 -37 49t-62 18q-4 0 -4 11q0 12 6 32.5t11 24.5q186 -8 253 -8q80 0 131.5 4t131.5 4q61 0 118 -14q63 -16 119 -45q61 -33 98 -88.5t37 -128.5q0 -127 -88 -248 q-86 -119 -213 -164q-10 -4 -4 -21q94 -276 219 -434q96 -123 189 -123q0 -37 -21 -65q-37 -4 -71 -4q-49 0 -88 6q-53 8 -74 12q-31 6 -62 25q-41 25 -49 28q-27 16 -43 37l-33 39q-8 8 -28 45q-4 6 -8.5 14.5t-7.5 13.5t-5 10t-4 7q-6 12 -22.5 49t-20.5 45 q-96 205 -127 238q-25 29 -63 29h-13q-2 0 -10 -8q-4 -4 -8 -23l-55 -276q-20 -100 -21 -160q0 -23 41 -41.5t55 -18.5q4 0 5 -10q0 -37 -15 -57q-8 0 -33.5 3t-42.5 3q-35 2 -96 6q-31 2 -82 2q-49 0 -139 -6q-23 -2 -50.5 -4l-41.5 -3t-21 -1q-2 2 -2 12zM420 -408l29 17 q25 12 57 43q29 25 29 47q0 20 -29 45q-31 27 -31 53q0 47 72 70q68 20 158 20q23 -23 22 -94q0 -66 -92 -139q-94 -76 -166 -90h-6q-12 0 -29 10q-14 8 -14 18zM504 735q0 -25 28 -30q37 -8 99 -9q66 0 114 58q47 57 70 137q20 76 20.5 160t-32.5 123q-35 41 -92 40 q-72 0 -97 -10q-23 -10 -28 -41l-80 -413q-2 -5 -2 -15z" />
<glyph unicode="&#x157;" horiz-adv-x="872" d="M4 -408l29 17q25 12 57 43q29 25 29 47q0 18 -31 45q-29 25 -29 53q0 47 72 70q68 20 158 20q23 -23 22 -94q0 -66 -92 -139.5t-168 -89.5h-6q-10 0 -27 10q-14 8 -14 18zM4 662q20 49 143 145q117 90 205 90q47 0 76 -29q31 -31 31 -84t-10 -108q-16 -84 -19 -88 q57 133 141 223q80 86 181 86q72 0 133 -78q0 -78 -31 -139q-31 -59 -92 -59q-29 0 -70 43q-41 45 -69 45q-53 0 -146 -183q-94 -186 -127 -348l-37 -178q-59 -12 -112 -12q-58 0 -117 12l121 627q4 29 4 45q0 49 -21 49q-31 0 -79 -43q-45 -39 -66 -64q-8 0 -23 21 q-16 23 -16 27z" />
<glyph unicode="&#x158;" horiz-adv-x="1263" d="M-29 4q0 6 3 17.5t3 17.5q2 20 7 20q16 0 65 15q41 12 53 30q31 52 50 166l151 777q18 101 19 141q0 31 -37 49t-62 18q-4 0 -4 11q0 12 6 32.5t11 24.5q186 -8 253 -8q80 0 131.5 4t131.5 4q61 0 118 -14q63 -16 119 -45q61 -33 98 -88.5t37 -128.5q0 -127 -88 -248 q-86 -119 -213 -164q-10 -4 -4 -21q94 -276 219 -434q96 -123 189 -123q0 -37 -21 -65q-37 -4 -71 -4q-49 0 -88 6q-53 8 -74 12q-31 6 -62 25q-41 25 -49 28q-27 16 -43 37l-33 39q-8 8 -28 45q-4 6 -8.5 14.5t-7.5 13.5t-5 10t-4 7q-6 12 -22.5 49t-20.5 45 q-96 205 -127 238q-25 29 -63 29h-13q-2 0 -10 -8q-4 -4 -8 -23l-55 -276q-20 -100 -21 -160q0 -23 41 -41.5t55 -18.5q4 0 5 -10q0 -37 -15 -57q-8 0 -33.5 3t-42.5 3q-35 2 -96 6q-31 2 -82 2q-49 0 -139 -6q-23 -2 -50.5 -4l-41.5 -3t-21 -1q-2 2 -2 12zM504 735 q0 -25 28 -30q37 -8 99 -9q66 0 114 58q47 57 70 137q20 76 20.5 160t-32.5 123q-35 41 -92 40q-72 0 -97 -10q-23 -10 -28 -41l-80 -413q-2 -5 -2 -15zM508 1700q10 39 27 39q14 0 86 -47q80 -51 112 -78q45 27 146 80q84 45 102 45q8 0 12 -15q2 -8 -2 -24 q-55 -37 -168 -139l-92 -86q-22 -18 -31 -19q-12 0 -20 19q-20 41 -62 94q-63 84 -110 131z" />
<glyph unicode="&#x159;" horiz-adv-x="872" d="M4 662q20 49 143 145q117 90 205 90q47 0 76 -29q31 -31 31 -84t-10 -108q-16 -84 -19 -88q57 133 141 223q80 86 181 86q72 0 133 -78q0 -78 -31 -139q-31 -59 -92 -59q-29 0 -70 43q-41 45 -69 45q-53 0 -146 -183q-94 -186 -127 -348l-37 -178q-59 -12 -112 -12 q-58 0 -117 12l121 627q4 29 4 45q0 49 -21 49q-31 0 -79 -43q-45 -39 -66 -64q-8 0 -23 21q-16 23 -16 27zM377 1311q8 45 24 45q12 0 78 -56q66 -57 96 -92q41 33 136 95q80 53 98 53q14 0 6 -45q-49 -45 -162 -166q-6 -6 -51 -62q-12 -14 -20.5 -23t-11.5 -12.5t-5 -7.5 q-4 -4 -6 -8t-6 -8q-2 -2 -4 -2l-3 -1q-3 -1 -5 -1q-14 0 -21 20q-18 53 -51 113q-55 103 -92 158z" />
<glyph unicode="&#x15a;" horiz-adv-x="897" d="M4 33q10 96 10 176q0 8 -1 39t-1 53v64q0 16 47 16q8 0 27 -6q20 -6 23 -10q0 -96 59 -183q61 -88 151 -88q55 0 101 23q41 20 67 53q16 20 37 70q18 43 21 61q4 33 4 37q0 35 -26.5 78t-47.5 63q-22 22 -74 62t-61 49q-6 4 -33 26l-17 16.5t-9 8.5t-7 4q-8 6 -30 27 q-27 27 -31 33q-6 9 -25 30q-16 18 -22 35l-14 39q-9 22 -13 43q-4 29 -4 47q0 92 47 180q46 86 117 142q76 59 154 88q84 31 157 30q53 0 95 -8q55 -10 106 -24q20 -6 100 -23q-49 -354 -57 -354h-29q-6 0 -13 1t-9 1q-8 0 -15 8q-6 9 -6 25q0 27 -10 73q-9 43 -30.5 86 t-61.5 74q-41 31 -90 31t-90 -25q-43 -27 -60 -59q-20 -43 -28 -68q-10 -35 -11 -55q0 -10 5 -35q2 -8 14 -35q14 -27 16 -30q18 -25 25 -31l26 -29q16 -16 31 -28l33 -27q2 -2 11 -8t24 -19q25 -18 32 -26q12 -10 56 -41q6 -4 57 -47q23 -18 43 -48q29 -41 37 -73 q10 -45 10 -88q0 -113 -47 -211q-45 -92 -121 -150q-74 -55 -157 -86q-82 -31 -162 -30q-129 0 -330 53zM569 1475q0 4 37 38q55 51 90 78q57 45 97 66q27 14 63 14q53 0 94 -16q45 -18 45 -60q0 -37 -178 -98t-219 -61q-10 0 -20 14q-9 11 -9 25z" />
<glyph unicode="&#x15b;" horiz-adv-x="649" d="M2 117q0 51 23 86q20 33 57 33t61 -23q23 -20 41 -53q16 -31 37 -54q22 -25 49 -24q39 0 54 20q16 23 16 66q0 39 -39 102q-41 68 -84 121t-86 131q-39 70 -39 123q0 111 101 182q96 70 235 70q131 0 197 -57q20 -27 20 -74q0 -55 -20.5 -88t-59.5 -33q-33 0 -57 25 q-27 27 -39 53q-12 29 -36.5 53.5t-53.5 24.5q-41 0 -55 -21q-16 -23 -17 -65q0 -39 39 -103q40 -65 86 -123t86 -129q37 -66 37 -124q0 -109 -98 -181q-100 -72 -238 -71q-127 0 -199 63q-18 23 -18 70zM385 1008q0 16 82 112q82 98 125 137q10 6 26 7q47 0 78 -29 q33 -31 33 -59q0 -37 -74 -89q-68 -47 -151 -88q-72 -35 -92 -34q-10 0 -18.5 16.5t-8.5 26.5z" />
<glyph unicode="&#x15c;" horiz-adv-x="897" d="M4 33q10 96 10 176q0 8 -1 39t-1 53v64q0 16 47 16q8 0 27 -6q20 -6 23 -10q0 -96 59 -183q61 -88 151 -88q55 0 101 23q41 20 67 53q16 20 37 70q18 43 21 61q4 33 4 37q0 35 -26.5 78t-47.5 63q-22 22 -74 62t-61 49q-6 4 -33 26l-17 16.5t-9 8.5t-7 4q-8 6 -30 27 q-27 27 -31 33q-6 9 -25 30q-16 18 -22 35l-14 39q-9 22 -13 43q-4 29 -4 47q0 92 47 180q46 86 117 142q76 59 154 88q84 31 157 30q53 0 95 -8q55 -10 106 -24q20 -6 100 -23q-49 -354 -57 -354h-29q-6 0 -13 1t-9 1q-8 0 -15 8q-6 9 -6 25q0 27 -10 73q-9 43 -30.5 86 t-61.5 74q-41 31 -90 31t-90 -25q-43 -27 -60 -59q-20 -43 -28 -68q-10 -35 -11 -55q0 -10 5 -35q2 -8 14 -35q14 -27 16 -30q18 -25 25 -31l26 -29q16 -16 31 -28l33 -27q2 -2 11 -8t24 -19q25 -18 32 -26q12 -10 56 -41q6 -4 57 -47q23 -18 43 -48q29 -41 37 -73 q10 -45 10 -88q0 -113 -47 -211q-45 -92 -121 -150q-74 -55 -157 -86q-82 -31 -162 -30q-129 0 -330 53zM397 1475q-3 12 0 24q53 31 185 131q66 51 110 96q20 18 33 19q6 0 25 -19l26 -36q20 -29 39 -52q82 -100 129 -139q-9 -37 -31 -37q-18 0 -96 45q-98 57 -127 78 q-25 -14 -162 -78q-96 -45 -116 -45q-11 1 -15 13z" />
<glyph unicode="&#x15d;" horiz-adv-x="649" d="M2 117q0 51 23 86q20 33 57 33t61 -23q23 -20 41 -53q16 -31 37 -54q22 -25 49 -24q39 0 54 20q16 23 16 66q0 39 -39 102q-41 68 -84 121t-86 131q-39 70 -39 123q0 111 101 182q96 70 235 70q131 0 197 -57q20 -27 20 -74q0 -55 -20.5 -88t-59.5 -33q-33 0 -57 25 q-27 27 -39 53q-12 29 -36.5 53.5t-53.5 24.5q-41 0 -55 -21q-16 -23 -17 -65q0 -39 39 -103q40 -65 86 -123t86 -129q37 -66 37 -124q0 -109 -98 -181q-100 -72 -238 -71q-127 0 -199 63q-18 23 -18 70zM215 1067q45 39 154 156q66 74 94 112q14 20 29 21q6 0 8 -2l4 -4 q0 -2 2 -7l4 -8q8 -12 18 -37q23 -55 29 -65q68 -127 96 -166q-10 -47 -24.5 -47t-77.5 55q-66 57 -96 92q-41 -33 -136 -94q-80 -53 -98 -53q-16 0 -6 47z" />
<glyph unicode="&#x15e;" horiz-adv-x="897" d="M4 33q10 96 10 176q0 8 -1 39t-1 53v64q0 16 47 16q8 0 27 -6q20 -6 23 -10q0 -96 59 -183q61 -88 151 -88q55 0 101 23q41 20 67 53q16 20 37 70q18 43 21 61q4 33 4 37q0 35 -26.5 78t-47.5 63q-22 22 -74 62t-61 49q-6 4 -33 26l-17 16.5t-9 8.5t-7 4q-8 6 -30 27 q-27 27 -31 33q-6 9 -25 30q-16 18 -22 35l-14 39q-9 22 -13 43q-4 29 -4 47q0 92 47 180q46 86 117 142q76 59 154 88q84 31 157 30q53 0 95 -8q55 -10 106 -24q20 -6 100 -23q-49 -354 -57 -354h-29q-6 0 -13 1t-9 1q-8 0 -15 8q-6 9 -6 25q0 27 -10 73q-9 43 -30.5 86 t-61.5 74q-41 31 -90 31t-90 -25q-43 -27 -60 -59q-20 -43 -28 -68q-10 -35 -11 -55q0 -10 5 -35q2 -8 14 -35q14 -27 16 -30q18 -25 25 -31l26 -29q16 -16 31 -28l33 -27q2 -2 11 -8t24 -19q25 -18 32 -26q12 -10 56 -41q6 -4 57 -47q23 -18 43 -48q29 -41 37 -73 q10 -45 10 -88q0 -113 -47 -211q-45 -92 -121 -150q-74 -55 -157 -86q-82 -31 -162 -30q-129 0 -330 53zM51 -334q0 10 4 39q10 33 21 33q6 0 39 -17q37 -18 65 -18q45 0 68 21q25 22 31 49q12 66 -41 65q-37 0 -68 -14q-2 0 -14 16q-12 14 -9 23l48 67l38 62h68l-39 -62 q16 2 39 2q51 0 78 -36q29 -37 18 -84q-18 -86 -82 -134q-68 -51 -165 -51q-31 0 -60 13q-27 12 -39 26z" />
<glyph unicode="&#x15f;" horiz-adv-x="649" d="M-66 -301q0 20 15 35q16 16 28 16q20 0 50 -20q33 -23 55 -23q45 0 76 27q27 25 26 57q0 22 -12 37q-12 14 -31 14q-37 0 -67 -14q-4 0 -17 14q-14 16 -8 23l17 22q16 23 28 43l17.5 27.5t14.5 25t9 13.5h74l-45 -62q16 2 45 3q40 0 67 -31q27 -29 27 -70 q0 -29 -10 -55.5t-37 -65.5q-20 -33 -80 -59q-53 -25 -125 -25q-80 0 -106 17q-11 24 -11 51zM2 117q0 51 23 86q20 33 57 33t61 -23q23 -20 41 -53q16 -31 37 -54q22 -25 49 -24q39 0 54 20q16 23 16 66q0 39 -39 102q-41 68 -84 121t-86 131q-39 70 -39 123q0 111 101 182 q96 70 235 70q131 0 197 -57q20 -27 20 -74q0 -55 -20.5 -88t-59.5 -33q-33 0 -57 25q-27 27 -39 53q-12 29 -36.5 53.5t-53.5 24.5q-41 0 -55 -21q-16 -23 -17 -65q0 -39 39 -103q40 -65 86 -123t86 -129q37 -66 37 -124q0 -109 -98 -181q-100 -72 -238 -71q-127 0 -199 63 q-18 23 -18 70z" />
<glyph unicode="&#x160;" horiz-adv-x="897" d="M4 33q10 96 10 176q0 8 -1 39t-1 53v64q0 16 47 16q8 0 27 -6q20 -6 23 -10q0 -96 59 -183q61 -88 151 -88q55 0 101 23q41 20 67 53q16 20 37 70q18 43 21 61q4 33 4 37q0 35 -26.5 78t-47.5 63q-22 22 -74 62t-61 49q-6 4 -33 26l-17 16.5t-9 8.5t-7 4q-8 6 -30 27 q-27 27 -31 33q-6 9 -25 30q-16 18 -22 35l-14 39q-9 22 -13 43q-4 29 -4 47q0 92 47 180q46 86 117 142q76 59 154 88q84 31 157 30q53 0 95 -8q55 -10 106 -24q20 -6 100 -23q-49 -354 -57 -354h-29q-6 0 -13 1t-9 1q-8 0 -15 8q-6 9 -6 25q0 27 -10 73q-9 43 -30.5 86 t-61.5 74q-41 31 -90 31t-90 -25q-43 -27 -60 -59q-20 -43 -28 -68q-10 -35 -11 -55q0 -10 5 -35q2 -8 14 -35q14 -27 16 -30q18 -25 25 -31l26 -29q16 -16 31 -28l33 -27q2 -2 11 -8t24 -19q25 -18 32 -26q12 -10 56 -41q6 -4 57 -47q23 -18 43 -48q29 -41 37 -73 q10 -45 10 -88q0 -113 -47 -211q-45 -92 -121 -150q-74 -55 -157 -86q-82 -31 -162 -30q-129 0 -330 53zM440 1706q10 39 27 39q14 0 86 -47q80 -51 113 -78q45 27 145 80q84 45 100 45q10 0 15 -14q2 -8 -2 -25q-55 -37 -168 -139l-92 -86q-22 -18 -31 -19q-10 0 -21 19 q-20 41 -61 94q-64 84 -111 131z" />
<glyph unicode="&#x161;" horiz-adv-x="649" d="M2 117q0 51 23 86q20 33 57 33t61 -23q23 -20 41 -53q16 -31 37 -54q22 -25 49 -24q39 0 54 20q16 23 16 66q0 39 -39 102q-41 68 -84 121t-86 131q-39 70 -39 123q0 111 101 182q96 70 235 70q131 0 197 -57q20 -27 20 -74q0 -55 -20.5 -88t-59.5 -33q-33 0 -57 25 q-27 27 -39 53q-12 29 -36.5 53.5t-53.5 24.5q-41 0 -55 -21q-16 -23 -17 -65q0 -39 39 -103q40 -65 86 -123t86 -129q37 -66 37 -124q0 -109 -98 -181q-100 -72 -238 -71q-127 0 -199 63q-18 23 -18 70zM262 1311q8 45 27 45q10 0 76 -56q74 -63 98 -92q41 33 135 95 q80 53 96.5 53t7.5 -45q-49 -45 -161 -166q-25 -27 -53.5 -61.5t-34.5 -43.5l-9 -8q-2 -4 -6 -8q-2 -2 -4 -2l-4 -1l-4 -1q-14 0 -20 20q-23 63 -50 113q-47 90 -94 158z" />
<glyph unicode="&#x162;" horiz-adv-x="1144" d="M-4 1022l98 326q80 -23 123 -23q80 0 203 -6q82 -4 201 -4q121 0 206 4q129 6 207 6q39 0 133 23l-28 -328q-2 -2 -25 -8q-20 -6 -33 -6q-14 0 -14 10q-2 104 -47 151q-43 47 -117 47q-68 0 -104 -6q-35 -6 -47 -14q-10 -6 -13 -16q-28 -61 -49 -179l-139 -720 q-20 -100 -21 -160q0 -23 39 -41q41 -18 58 -19q4 0 4 -10q0 -37 -15 -57q-8 0 -34.5 3t-40.5 3q-66 4 -94.5 6t-80 2t-143.5 -6l-51.5 -4l-40.5 -3t-20 -1q-2 2 -2 12q0 6 4 35q2 20 8 20q14 0 63 15q41 12 54 30q33 57 51 166l139 723q27 145 27 160q0 43 -27 51 q-31 10 -125 10q-76 0 -133 -45q-59 -47 -104 -151q-6 -10 -21 -10q-10 0 -28.5 6t-20.5 8zM160 -408l28 17q25 12 58 43q29 25 28 47q0 20 -28 45q-31 27 -31 53q0 47 72 70q68 20 157 20q25 -25 25 -94q0 -63 -94 -139t-166 -90h-6q-12 0 -29 10q-14 8 -14 18z" />
<glyph unicode="&#x163;" horiz-adv-x="577" d="M8 -408l29 17q25 12 57 43q29 25 29 47q0 20 -28.5 45t-28.5 53q0 49 69 70q68 20 158 20q25 -25 24 -94q0 -66 -92 -139.5t-168 -89.5h-6q-10 0 -26.5 10t-16.5 18zM41 764q0 18 10 53q10 33 19 41h114l39 197q3 12 62 18t114 6q39 0 62 -8l-45 -213h174q18 0 18 -35 q0 -49 -22 -84h-193l-94 -483q-4 -16 -4 -45q0 -49 20 -49q29 0 78 43q53 45 68 63q8 0 22 -20q16 -23 17 -29q-18 -47 -144 -143q-119 -92 -204 -92q-45 0 -76 30.5t-31 83.5q0 27 8 76q10 61 13 72l96 493h-113q-8 0 -8 25z" />
<glyph unicode="&#x164;" horiz-adv-x="1144" d="M-4 1022l98 326q80 -23 123 -23q80 0 203 -6q82 -4 201 -4q121 0 206 4q129 6 207 6q39 0 133 23l-28 -328q-2 -2 -25 -8q-20 -6 -33 -6q-14 0 -14 10q-2 104 -47 151q-43 47 -117 47q-68 0 -104 -6q-35 -6 -47 -14q-10 -6 -13 -16q-28 -61 -49 -179l-139 -720 q-20 -100 -21 -160q0 -23 39 -41q41 -18 58 -19q4 0 4 -10q0 -37 -15 -57q-8 0 -34.5 3t-40.5 3q-66 4 -94.5 6t-80 2t-143.5 -6l-51.5 -4l-40.5 -3t-20 -1q-2 2 -2 12q0 6 4 35q2 20 8 20q14 0 63 15q41 12 54 30q33 57 51 166l139 723q27 145 27 160q0 43 -27 51 q-31 10 -125 10q-76 0 -133 -45q-59 -47 -104 -151q-6 -10 -21 -10q-10 0 -28.5 6t-20.5 8zM461 1714q9 37 24 37q18 0 88 -45q80 -51 113 -78l143 78q84 45 103 45q9 0 12 -12.5t0 -24.5q-55 -37 -168 -139l-92 -86q-20 -18 -33 -19q-8 0 -18 19q-12 27 -64 92 q-77 102 -108 133z" />
<glyph unicode="&#x165;" horiz-adv-x="577" d="M41 764q0 18 10 53q10 33 19 41h114l39 197q3 12 62 18t114 6q39 0 62 -8l-45 -213h174q18 0 18 -35q0 -49 -22 -84h-193l-94 -483q-4 -16 -4 -45q0 -49 20 -49q29 0 78 43q53 45 68 63q8 0 22 -20q16 -23 17 -29q-18 -47 -144 -143q-119 -92 -204 -92q-45 0 -76 30.5 t-31 83.5q0 27 8 76q10 61 13 72l96 493h-113q-8 0 -8 25zM586 981q0 4 28.5 26.5t61.5 65.5q29 37 29 74q0 20 -20.5 49t-20.5 64q0 131 188 131q4 -12 4 -56q0 -61 -6 -88q-18 -90 -88 -180q-70 -92 -137 -131h-4q-10 0 -23 16q-12 15 -12 29z" />
</font>
</defs>
</svg>
